<?xml version="1.0" encoding="UTF-8"?><svg xmlns="http://www.w3.org/2000/svg" xmlns:xlink="http://www.w3.org/1999/xlink" fill-opacity="1" color-rendering="auto" color-interpolation="auto" text-rendering="auto" stroke="black" stroke-linecap="square" width="510" stroke-miterlimit="10" shape-rendering="auto" stroke-opacity="1" fill="black" stroke-dasharray="none" font-weight="normal" stroke-width="1" height="503" font-family="'Dialog'" font-style="normal" stroke-linejoin="miter" font-size="12px" stroke-dashoffset="0" image-rendering="auto">
  <!--Generated by ySVG 2.5-->
  <defs id="genericDefs"/>
  <g>
    <defs id="defs1">
      <clipPath clipPathUnits="userSpaceOnUse" id="clipPath1">
        <path d="M0 0 L510 0 L510 503 L0 503 L0 0 Z"/>
      </clipPath>
      <clipPath clipPathUnits="userSpaceOnUse" id="clipPath2">
        <path d="M-19 -119 L491 -119 L491 384 L-19 384 L-19 -119 Z"/>
      </clipPath>
      <clipPath clipPathUnits="userSpaceOnUse" id="clipPath3">
        <path d="M0 0 L475 0 L475 16 L0 16 L0 0 Z"/>
      </clipPath>
      <clipPath clipPathUnits="userSpaceOnUse" id="clipPath4">
        <path d="M0 0 L107 0 L107 112 L0 112 L0 0 Z"/>
      </clipPath>
      <clipPath clipPathUnits="userSpaceOnUse" id="clipPath5">
        <path d="M0 0 L119 0 L119 48 L0 48 L0 0 Z"/>
      </clipPath>
      <clipPath clipPathUnits="userSpaceOnUse" id="clipPath6">
        <path d="M0 0 L92 0 L92 48 L0 48 L0 0 Z"/>
      </clipPath>
      <clipPath clipPathUnits="userSpaceOnUse" id="clipPath7">
        <path d="M0 0 L96 0 L96 48 L0 48 L0 0 Z"/>
      </clipPath>
      <clipPath clipPathUnits="userSpaceOnUse" id="clipPath8">
        <path d="M0 0 L0 18 L123 18 L123 0 Z"/>
      </clipPath>
      <clipPath clipPathUnits="userSpaceOnUse" id="clipPath9">
        <path d="M0 0 L0 18 L73 18 L73 0 Z"/>
      </clipPath>
      <clipPath clipPathUnits="userSpaceOnUse" id="clipPath10">
        <path d="M0 0 L0 18 L51 18 L51 0 Z"/>
      </clipPath>
      <clipPath clipPathUnits="userSpaceOnUse" id="clipPath11">
        <path d="M0 0 L0 18 L8 18 L8 0 Z"/>
      </clipPath>
      <script type="text/ecmascript">
        <![CDATA[      var SVGDocument = null;
      var SVGRoot = null;
      var TrueCoords = null;
      var lastElement = null;
      var initialized = null;
      var tipGroup;
      function Init(evt)
      {
         SVGDocument = evt.target.ownerDocument;
         SVGRoot = SVGDocument.documentElement;
         TrueCoords = SVGRoot.createSVGPoint();
         initialized = evt;
      };
      function GetTrueCoords(evt)
      {
         var newScale = SVGRoot.currentScale;
         var translation = SVGRoot.currentTranslate;
         TrueCoords.x = (evt.clientX - translation.x)/newScale;
         TrueCoords.y = (evt.clientY - translation.y)/newScale;
      };
      function HideTooltip( evt )
      {
         if(initialized == null) {
           Init(evt);
         }
         if(tipGroup != null) {
           tipGroup.setAttributeNS(null, 'visibility', 'hidden');
         }
      };
      function ShowTooltip( evt )
      {
         if(initialized == null) {
           Init(evt);
         }
         GetTrueCoords( evt );
         var tipScale = 1/SVGRoot.currentScale;
         var targetElement = evt.currentTarget;
         if ( lastElement != targetElement )
         {
            var targetId = targetElement.getAttributeNS(null, 'id');
            var tipId = 'tooltip.' + targetId;
            tipGroup = SVGDocument.getElementById(tipId);
            var xPos = TrueCoords.x + (10 * tipScale);
            var yPos = TrueCoords.y + (10 * tipScale);
            tipGroup.setAttributeNS(null, 'transform', 'translate(' + xPos + ',' + yPos + ') scale(' + tipScale + ')');
            tipGroup.setAttributeNS(null, 'visibility', 'visible');
         }
      };
]]>
      </script>
    </defs>
    <g fill="white" text-rendering="geometricPrecision" shape-rendering="geometricPrecision" transform="translate(19,119)" stroke="white">
      <rect x="-19" width="510" height="503" y="-119" clip-path="url(#clipPath2)" stroke="none"/>
    </g>
    <g onmouseout="HideTooltip(evt)" id="y.node.0" onmousemove="ShowTooltip(evt)">
      <g fill="rgb(238,238,238)" text-rendering="geometricPrecision" shape-rendering="geometricPrecision" transform="matrix(1,0,0,1,19,119)" stroke="rgb(238,238,238)">
        <rect x="-3.5" width="479" height="471.6562" y="-103.3281" stroke="none"/>
      </g>
      <g>
        <g fill="red" text-rendering="geometricPrecision" shape-rendering="geometricPrecision" transform="matrix(1,0,0,1,19,119)" stroke="red">
          <rect x="-3.5" width="479" height="20" y="-103.3281" stroke="none"/>
        </g>
        <g text-rendering="geometricPrecision" stroke-miterlimit="1.45" shape-rendering="geometricPrecision" font-family="sans-serif" transform="matrix(1,0,0,1,19,119) translate(-1,-101)" stroke-linecap="butt">
          <text x="0" xml:space="preserve" y="13" clip-path="url(#clipPath3)" stroke="none">     </text>
          <text fill="blue" x="15" xml:space="preserve" y="13" clip-path="url(#clipPath3)" stroke="none">automaton</text>
          <text x="74" xml:space="preserve" y="13" clip-path="url(#clipPath3)" stroke="none"> </text>
          <text x="77" xml:space="preserve" y="13" clip-path="url(#clipPath3)" stroke="none">buffer_bw</text>
        </g>
      </g>
      <g text-rendering="geometricPrecision" stroke-miterlimit="1.45" shape-rendering="geometricPrecision" transform="matrix(1,0,0,1,19,119)" stroke-linecap="butt">
        <rect fill="none" x="-3.5" width="479" height="471.6562" y="-103.3281"/>
      </g>
    </g>
    <g onmouseout="HideTooltip(evt)" id="y.node.1" onmousemove="ShowTooltip(evt)">
      <g fill="rgb(235,235,184)" text-rendering="geometricPrecision" shape-rendering="geometricPrecision" transform="matrix(1,0,0,1,19,119)" stroke="rgb(235,235,184)">
        <rect x="324.5" width="117" height="146.6562" y="-53.3281" stroke="none"/>
      </g>
      <g>
        <g fill="rgb(238,238,128)" text-rendering="geometricPrecision" shape-rendering="geometricPrecision" transform="matrix(1,0,0,1,19,119)" stroke="rgb(238,238,128)">
          <rect x="324.5" width="117" height="18.7012" y="-53.3281" stroke="none"/>
        </g>
        <g text-rendering="geometricPrecision" stroke-miterlimit="1.45" shape-rendering="geometricPrecision" font-family="sans-serif" transform="matrix(1,0,0,1,19,119)" stroke-linecap="butt">
          <text x="326.5" xml:space="preserve" y="-39.2637" stroke="none">     Declarations</text>
        </g>
      </g>
      <g>
        <g stroke-linecap="butt" transform="matrix(1,0,0,1,19,119) translate(329,-32)" fill="blue" text-rendering="geometricPrecision" font-family="sans-serif" shape-rendering="geometricPrecision" stroke="blue" stroke-miterlimit="1.45">
          <text x="0" xml:space="preserve" y="13" clip-path="url(#clipPath4)" stroke="none">event</text>
          <text fill="black" x="29" xml:space="preserve" y="13" clip-path="url(#clipPath4)" stroke="none"> </text>
          <text fill="black" x="32" xml:space="preserve" y="13" clip-path="url(#clipPath4)" stroke="none">in_b</text>
          <text fill="rgb(64,32,32)" x="56" xml:space="preserve" y="13" clip-path="url(#clipPath4)" stroke="none">;</text>
          <text fill="black" x="59" xml:space="preserve" y="13" clip-path="url(#clipPath4)" stroke="none"> </text>
          <text x="0" xml:space="preserve" y="29" clip-path="url(#clipPath4)" stroke="none">event</text>
          <text fill="black" x="29" xml:space="preserve" y="29" clip-path="url(#clipPath4)" stroke="none"> </text>
          <text fill="black" x="32" xml:space="preserve" y="29" clip-path="url(#clipPath4)" stroke="none">in_w</text>
          <text fill="rgb(64,32,32)" x="58" xml:space="preserve" y="29" clip-path="url(#clipPath4)" stroke="none">;</text>
          <text fill="black" x="61" xml:space="preserve" y="29" clip-path="url(#clipPath4)" stroke="none"> </text>
          <text x="0" xml:space="preserve" y="45" clip-path="url(#clipPath4)" stroke="none">event</text>
          <text fill="black" x="29" xml:space="preserve" y="45" clip-path="url(#clipPath4)" stroke="none"> </text>
          <text fill="black" x="32" xml:space="preserve" y="45" clip-path="url(#clipPath4)" stroke="none">out_b</text>
          <text fill="rgb(64,32,32)" x="63" xml:space="preserve" y="45" clip-path="url(#clipPath4)" stroke="none">;</text>
          <text fill="black" x="66" xml:space="preserve" y="45" clip-path="url(#clipPath4)" stroke="none"> </text>
          <text x="0" xml:space="preserve" y="61" clip-path="url(#clipPath4)" stroke="none">event</text>
          <text fill="black" x="29" xml:space="preserve" y="61" clip-path="url(#clipPath4)" stroke="none"> </text>
          <text fill="black" x="32" xml:space="preserve" y="61" clip-path="url(#clipPath4)" stroke="none">out_w</text>
          <text fill="rgb(64,32,32)" x="65" xml:space="preserve" y="61" clip-path="url(#clipPath4)" stroke="none">;</text>
          <text fill="black" x="68" xml:space="preserve" y="61" clip-path="url(#clipPath4)" stroke="none"> </text>
          <text x="0" xml:space="preserve" y="77" clip-path="url(#clipPath4)" stroke="none">const</text>
          <text fill="black" x="30" xml:space="preserve" y="77" clip-path="url(#clipPath4)" stroke="none"> </text>
          <text x="33" xml:space="preserve" y="77" clip-path="url(#clipPath4)" stroke="none">int</text>
          <text fill="rgb(64,32,32)" x="46" xml:space="preserve" y="77" clip-path="url(#clipPath4)" stroke="none">[</text>
          <text fill="rgb(0,97,0)" x="49" xml:space="preserve" y="77" clip-path="url(#clipPath4)" stroke="none">3</text>
          <text fill="rgb(64,32,32)" x="56" xml:space="preserve" y="77" clip-path="url(#clipPath4)" stroke="none">..</text>
          <text fill="rgb(0,97,0)" x="62" xml:space="preserve" y="77" clip-path="url(#clipPath4)" stroke="none">3</text>
          <text fill="rgb(64,32,32)" x="69" xml:space="preserve" y="77" clip-path="url(#clipPath4)" stroke="none">]</text>
          <text fill="black" x="72" xml:space="preserve" y="77" clip-path="url(#clipPath4)" stroke="none"> </text>
          <text fill="black" x="75" xml:space="preserve" y="77" clip-path="url(#clipPath4)" stroke="none">N</text>
          <text fill="black" x="84" xml:space="preserve" y="77" clip-path="url(#clipPath4)" stroke="none"> </text>
          <text fill="rgb(64,32,32)" x="87" xml:space="preserve" y="77" clip-path="url(#clipPath4)" stroke="none">=</text>
          <text fill="black" x="94" xml:space="preserve" y="77" clip-path="url(#clipPath4)" stroke="none"> </text>
          <text fill="rgb(0,97,0)" x="97" xml:space="preserve" y="77" clip-path="url(#clipPath4)" stroke="none">3</text>
          <text fill="rgb(64,32,32)" x="104" xml:space="preserve" y="77" clip-path="url(#clipPath4)" stroke="none">;</text>
          <text fill="black" x="107" xml:space="preserve" y="77" clip-path="url(#clipPath4)" stroke="none"> </text>
          <text x="0" xml:space="preserve" y="93" clip-path="url(#clipPath4)" stroke="none">disc</text>
          <text fill="black" x="23" xml:space="preserve" y="93" clip-path="url(#clipPath4)" stroke="none"> </text>
          <text x="26" xml:space="preserve" y="93" clip-path="url(#clipPath4)" stroke="none">int</text>
          <text fill="black" x="39" xml:space="preserve" y="93" clip-path="url(#clipPath4)" stroke="none"> </text>
          <text fill="black" x="42" xml:space="preserve" y="93" clip-path="url(#clipPath4)" stroke="none">n_b</text>
          <text fill="black" x="63" xml:space="preserve" y="93" clip-path="url(#clipPath4)" stroke="none"> </text>
          <text fill="rgb(64,32,32)" x="66" xml:space="preserve" y="93" clip-path="url(#clipPath4)" stroke="none">=</text>
          <text fill="black" x="73" xml:space="preserve" y="93" clip-path="url(#clipPath4)" stroke="none"> </text>
          <text fill="rgb(0,97,0)" x="76" xml:space="preserve" y="93" clip-path="url(#clipPath4)" stroke="none">0</text>
          <text fill="rgb(64,32,32)" x="83" xml:space="preserve" y="93" clip-path="url(#clipPath4)" stroke="none">;</text>
          <text fill="black" x="86" xml:space="preserve" y="93" clip-path="url(#clipPath4)" stroke="none"> </text>
          <text x="0" xml:space="preserve" y="109" clip-path="url(#clipPath4)" stroke="none">disc</text>
          <text fill="black" x="23" xml:space="preserve" y="109" clip-path="url(#clipPath4)" stroke="none"> </text>
          <text x="26" xml:space="preserve" y="109" clip-path="url(#clipPath4)" stroke="none">int</text>
          <text fill="black" x="39" xml:space="preserve" y="109" clip-path="url(#clipPath4)" stroke="none"> </text>
          <text fill="black" x="42" xml:space="preserve" y="109" clip-path="url(#clipPath4)" stroke="none">n_w</text>
          <text fill="black" x="65" xml:space="preserve" y="109" clip-path="url(#clipPath4)" stroke="none"> </text>
          <text fill="rgb(64,32,32)" x="68" xml:space="preserve" y="109" clip-path="url(#clipPath4)" stroke="none">=</text>
          <text fill="black" x="75" xml:space="preserve" y="109" clip-path="url(#clipPath4)" stroke="none"> </text>
          <text fill="rgb(0,97,0)" x="78" xml:space="preserve" y="109" clip-path="url(#clipPath4)" stroke="none">0</text>
          <text fill="rgb(64,32,32)" x="85" xml:space="preserve" y="109" clip-path="url(#clipPath4)" stroke="none">;</text>
        </g>
      </g>
      <g text-rendering="geometricPrecision" stroke-miterlimit="1.45" shape-rendering="geometricPrecision" transform="matrix(1,0,0,1,19,119)" stroke-linecap="butt">
        <rect fill="none" x="324.5" width="117" height="146.6562" y="-53.3281"/>
      </g>
    </g>
    <g onmouseout="HideTooltip(evt)" id="y.node.2" onmousemove="ShowTooltip(evt)">
      <g fill="rgb(204,204,255)" text-rendering="geometricPrecision" shape-rendering="geometricPrecision" transform="matrix(1,0,0,1,19,119)" stroke="rgb(204,204,255)">
        <rect x="20" y="295" width="60" rx="4" ry="4" height="30" stroke="none"/>
      </g>
      <g/>
      <g text-rendering="geometricPrecision" stroke-miterlimit="1.45" shape-rendering="geometricPrecision" transform="matrix(1,0,0,1,19,119)" stroke-linecap="butt">
        <rect x="20" y="295" fill="none" width="60" rx="4" ry="4" height="30"/>
      </g>
    </g>
    <g onmouseout="HideTooltip(evt)" id="y.node.3" onmousemove="ShowTooltip(evt)"/>
    <g id="y.edge.1">
      <g text-rendering="geometricPrecision" stroke-miterlimit="1.45" shape-rendering="geometricPrecision" transform="matrix(1,0,0,1,19,119)" stroke-linecap="butt">
        <path fill="none" d="M65 294.9731 L65 250 L65.625 245.625 L67.5 242.5 L70.625 240.625 L75 240 L210 240 L214.375 240.625 L217.5 242.5 L219.375 245.625 L220 250 L220 290 L219.375 294.375 L217.5 297.5 L214.375 299.375 L210 300 L88 300"/>
        <path d="M80 300 L92 305 L89 300 L92 295 Z" stroke="none"/>
      </g>
      <g>
        <g stroke-linecap="butt" transform="matrix(1,0,0,1,19,119)" fill="rgb(238,238,238)" text-rendering="geometricPrecision" shape-rendering="geometricPrecision" stroke="rgb(238,238,238)" stroke-miterlimit="1.45">
          <rect x="66" width="123" height="52" y="186" stroke="none"/>
        </g>
        <g text-rendering="geometricPrecision" stroke-miterlimit="1.45" shape-rendering="geometricPrecision" font-family="sans-serif" transform="matrix(1,0,0,1,19,119) translate(68,188)" stroke-linecap="butt">
          <text x="0" xml:space="preserve" y="13" clip-path="url(#clipPath5)" stroke="none">in_b</text>
          <text x="24" xml:space="preserve" y="13" clip-path="url(#clipPath5)" stroke="none"> </text>
          <text fill="blue" x="0" xml:space="preserve" y="29" clip-path="url(#clipPath5)" stroke="none">when</text>
          <text x="30" xml:space="preserve" y="29" clip-path="url(#clipPath5)" stroke="none"> </text>
          <text x="33" xml:space="preserve" y="29" clip-path="url(#clipPath5)" stroke="none">n_b</text>
          <text x="54" xml:space="preserve" y="29" clip-path="url(#clipPath5)" stroke="none"> </text>
          <text fill="rgb(64,32,32)" x="57" xml:space="preserve" y="29" clip-path="url(#clipPath5)" stroke="none">+</text>
          <text x="64" xml:space="preserve" y="29" clip-path="url(#clipPath5)" stroke="none"> </text>
          <text x="67" xml:space="preserve" y="29" clip-path="url(#clipPath5)" stroke="none">n_w</text>
          <text x="90" xml:space="preserve" y="29" clip-path="url(#clipPath5)" stroke="none"> </text>
          <text fill="rgb(64,32,32)" x="93" xml:space="preserve" y="29" clip-path="url(#clipPath5)" stroke="none">&lt;=</text>
          <text x="107" xml:space="preserve" y="29" clip-path="url(#clipPath5)" stroke="none"> </text>
          <text x="110" xml:space="preserve" y="29" clip-path="url(#clipPath5)" stroke="none">N</text>
          <text x="119" xml:space="preserve" y="29" clip-path="url(#clipPath5)" stroke="none"> </text>
          <text fill="blue" x="0" xml:space="preserve" y="45" clip-path="url(#clipPath5)" stroke="none">do</text>
          <text x="14" xml:space="preserve" y="45" clip-path="url(#clipPath5)" stroke="none"> </text>
          <text x="17" xml:space="preserve" y="45" clip-path="url(#clipPath5)" stroke="none">n_b</text>
          <text x="38" xml:space="preserve" y="45" clip-path="url(#clipPath5)" stroke="none"> </text>
          <text fill="rgb(64,32,32)" x="41" xml:space="preserve" y="45" clip-path="url(#clipPath5)" stroke="none">:=</text>
          <text x="51" xml:space="preserve" y="45" clip-path="url(#clipPath5)" stroke="none"> </text>
          <text x="54" xml:space="preserve" y="45" clip-path="url(#clipPath5)" stroke="none">n_b</text>
          <text x="75" xml:space="preserve" y="45" clip-path="url(#clipPath5)" stroke="none"> </text>
          <text fill="rgb(64,32,32)" x="78" xml:space="preserve" y="45" clip-path="url(#clipPath5)" stroke="none">+</text>
          <text x="85" xml:space="preserve" y="45" clip-path="url(#clipPath5)" stroke="none"> </text>
          <text fill="rgb(0,97,0)" x="88" xml:space="preserve" y="45" clip-path="url(#clipPath5)" stroke="none">1</text>
        </g>
      </g>
    </g>
    <g id="y.edge.2">
      <g text-rendering="geometricPrecision" stroke-miterlimit="1.45" shape-rendering="geometricPrecision" transform="matrix(1,0,0,1,19,119)" stroke-linecap="butt">
        <path fill="none" d="M60 294.9695 L60 180 L60.625 175.625 L62.5 172.5 L65.625 170.625 L70 170 L226 170 L230.375 170.625 L233.5 172.5 L235.375 175.625 L236 180 L236 293.3333 L235.375 297.7083 L233.5 300.8333 L230.375 302.7083 L226 303.3333 L88 303.3333"/>
        <path d="M80 303.3333 L92 308.3333 L89 303.3333 L92 298.3333 Z" stroke="none"/>
      </g>
      <g>
        <g stroke-linecap="butt" transform="matrix(1,0,0,1,19,119)" fill="rgb(238,238,238)" text-rendering="geometricPrecision" shape-rendering="geometricPrecision" stroke="rgb(238,238,238)" stroke-miterlimit="1.45">
          <rect x="86.5" width="123" height="52" y="116" stroke="none"/>
        </g>
        <g text-rendering="geometricPrecision" stroke-miterlimit="1.45" shape-rendering="geometricPrecision" font-family="sans-serif" transform="matrix(1,0,0,1,19,119) translate(88,118)" stroke-linecap="butt">
          <text x="0" xml:space="preserve" y="13" clip-path="url(#clipPath5)" stroke="none">in_w</text>
          <text x="26" xml:space="preserve" y="13" clip-path="url(#clipPath5)" stroke="none"> </text>
          <text fill="blue" x="0" xml:space="preserve" y="29" clip-path="url(#clipPath5)" stroke="none">when</text>
          <text x="30" xml:space="preserve" y="29" clip-path="url(#clipPath5)" stroke="none"> </text>
          <text x="33" xml:space="preserve" y="29" clip-path="url(#clipPath5)" stroke="none">n_b</text>
          <text x="54" xml:space="preserve" y="29" clip-path="url(#clipPath5)" stroke="none"> </text>
          <text fill="rgb(64,32,32)" x="57" xml:space="preserve" y="29" clip-path="url(#clipPath5)" stroke="none">+</text>
          <text x="64" xml:space="preserve" y="29" clip-path="url(#clipPath5)" stroke="none"> </text>
          <text x="67" xml:space="preserve" y="29" clip-path="url(#clipPath5)" stroke="none">n_w</text>
          <text x="90" xml:space="preserve" y="29" clip-path="url(#clipPath5)" stroke="none"> </text>
          <text fill="rgb(64,32,32)" x="93" xml:space="preserve" y="29" clip-path="url(#clipPath5)" stroke="none">&lt;=</text>
          <text x="107" xml:space="preserve" y="29" clip-path="url(#clipPath5)" stroke="none"> </text>
          <text x="110" xml:space="preserve" y="29" clip-path="url(#clipPath5)" stroke="none">N</text>
          <text x="119" xml:space="preserve" y="29" clip-path="url(#clipPath5)" stroke="none"> </text>
          <text fill="blue" x="0" xml:space="preserve" y="45" clip-path="url(#clipPath5)" stroke="none">do</text>
          <text x="14" xml:space="preserve" y="45" clip-path="url(#clipPath5)" stroke="none"> </text>
          <text x="17" xml:space="preserve" y="45" clip-path="url(#clipPath5)" stroke="none">n_w</text>
          <text x="40" xml:space="preserve" y="45" clip-path="url(#clipPath5)" stroke="none"> </text>
          <text fill="rgb(64,32,32)" x="43" xml:space="preserve" y="45" clip-path="url(#clipPath5)" stroke="none">:=</text>
          <text x="53" xml:space="preserve" y="45" clip-path="url(#clipPath5)" stroke="none"> </text>
          <text x="56" xml:space="preserve" y="45" clip-path="url(#clipPath5)" stroke="none">n_w</text>
          <text x="79" xml:space="preserve" y="45" clip-path="url(#clipPath5)" stroke="none"> </text>
          <text fill="rgb(64,32,32)" x="82" xml:space="preserve" y="45" clip-path="url(#clipPath5)" stroke="none">+</text>
          <text x="89" xml:space="preserve" y="45" clip-path="url(#clipPath5)" stroke="none"> </text>
          <text fill="rgb(0,97,0)" x="92" xml:space="preserve" y="45" clip-path="url(#clipPath5)" stroke="none">1</text>
        </g>
      </g>
    </g>
    <g id="y.edge.3">
      <g text-rendering="geometricPrecision" stroke-miterlimit="1.45" shape-rendering="geometricPrecision" transform="matrix(1,0,0,1,19,119)" stroke-linecap="butt">
        <path fill="none" d="M55 294.9524 L55 110 L55.625 105.625 L57.5 102.5 L60.625 100.625 L65 100 L250 100 L254.375 100.625 L257.5 102.5 L259.375 105.625 L260 110 L260 296.6667 L259.375 301.0417 L257.5 304.1667 L254.375 306.0417 L250 306.6667 L88 306.6667"/>
        <path d="M80 306.6667 L92 311.6667 L89 306.6667 L92 301.6667 Z" stroke="none"/>
      </g>
      <g>
        <g stroke-linecap="butt" transform="matrix(1,0,0,1,19,119)" fill="rgb(238,238,238)" text-rendering="geometricPrecision" shape-rendering="geometricPrecision" stroke="rgb(238,238,238)" stroke-miterlimit="1.45">
          <rect x="109.5" width="96" height="52" y="46" stroke="none"/>
        </g>
        <g text-rendering="geometricPrecision" stroke-miterlimit="1.45" shape-rendering="geometricPrecision" font-family="sans-serif" transform="matrix(1,0,0,1,19,119) translate(111,48)" stroke-linecap="butt">
          <text x="0" xml:space="preserve" y="13" clip-path="url(#clipPath6)" stroke="none">out_b</text>
          <text x="31" xml:space="preserve" y="13" clip-path="url(#clipPath6)" stroke="none"> </text>
          <text fill="blue" x="0" xml:space="preserve" y="29" clip-path="url(#clipPath6)" stroke="none">when</text>
          <text x="30" xml:space="preserve" y="29" clip-path="url(#clipPath6)" stroke="none"> </text>
          <text x="33" xml:space="preserve" y="29" clip-path="url(#clipPath6)" stroke="none">n_b</text>
          <text x="54" xml:space="preserve" y="29" clip-path="url(#clipPath6)" stroke="none"> </text>
          <text fill="rgb(64,32,32)" x="57" xml:space="preserve" y="29" clip-path="url(#clipPath6)" stroke="none">&gt;</text>
          <text x="64" xml:space="preserve" y="29" clip-path="url(#clipPath6)" stroke="none"> </text>
          <text fill="rgb(0,97,0)" x="67" xml:space="preserve" y="29" clip-path="url(#clipPath6)" stroke="none">0</text>
          <text x="74" xml:space="preserve" y="29" clip-path="url(#clipPath6)" stroke="none"> </text>
          <text fill="blue" x="0" xml:space="preserve" y="45" clip-path="url(#clipPath6)" stroke="none">do</text>
          <text x="14" xml:space="preserve" y="45" clip-path="url(#clipPath6)" stroke="none"> </text>
          <text x="17" xml:space="preserve" y="45" clip-path="url(#clipPath6)" stroke="none">n_b</text>
          <text x="38" xml:space="preserve" y="45" clip-path="url(#clipPath6)" stroke="none"> </text>
          <text fill="rgb(64,32,32)" x="41" xml:space="preserve" y="45" clip-path="url(#clipPath6)" stroke="none">:=</text>
          <text x="51" xml:space="preserve" y="45" clip-path="url(#clipPath6)" stroke="none"> </text>
          <text x="54" xml:space="preserve" y="45" clip-path="url(#clipPath6)" stroke="none">n_b</text>
          <text x="75" xml:space="preserve" y="45" clip-path="url(#clipPath6)" stroke="none"> </text>
          <text fill="rgb(64,32,32)" x="78" xml:space="preserve" y="45" clip-path="url(#clipPath6)" stroke="none">-</text>
          <text x="82" xml:space="preserve" y="45" clip-path="url(#clipPath6)" stroke="none"> </text>
          <text fill="rgb(0,97,0)" x="85" xml:space="preserve" y="45" clip-path="url(#clipPath6)" stroke="none">1</text>
        </g>
      </g>
    </g>
    <g id="y.edge.4">
      <g text-rendering="geometricPrecision" stroke-miterlimit="1.45" shape-rendering="geometricPrecision" transform="matrix(1,0,0,1,19,119)" stroke-linecap="butt">
        <path fill="none" d="M50 294.9677 L50 40 L50.625 35.625 L52.5 32.5 L55.625 30.625 L60 30 L289 30 L293.375 30.625 L296.5 32.5 L298.375 35.625 L299 40 L299 300 L298.375 304.375 L296.5 307.5 L293.375 309.375 L289 310 L88 310"/>
        <path d="M80 310 L92 315 L89 310 L92 305 Z" stroke="none"/>
      </g>
      <g>
        <g stroke-linecap="butt" transform="matrix(1,0,0,1,19,119)" fill="rgb(238,238,238)" text-rendering="geometricPrecision" shape-rendering="geometricPrecision" stroke="rgb(238,238,238)" stroke-miterlimit="1.45">
          <rect x="124.5" width="100" height="52" y="-24" stroke="none"/>
        </g>
        <g text-rendering="geometricPrecision" stroke-miterlimit="1.45" shape-rendering="geometricPrecision" font-family="sans-serif" transform="matrix(1,0,0,1,19,119) translate(126,-22)" stroke-linecap="butt">
          <text x="0" xml:space="preserve" y="13" clip-path="url(#clipPath7)" stroke="none">out_w</text>
          <text x="33" xml:space="preserve" y="13" clip-path="url(#clipPath7)" stroke="none"> </text>
          <text fill="blue" x="0" xml:space="preserve" y="29" clip-path="url(#clipPath7)" stroke="none">when</text>
          <text x="30" xml:space="preserve" y="29" clip-path="url(#clipPath7)" stroke="none"> </text>
          <text x="33" xml:space="preserve" y="29" clip-path="url(#clipPath7)" stroke="none">n_w</text>
          <text x="56" xml:space="preserve" y="29" clip-path="url(#clipPath7)" stroke="none"> </text>
          <text fill="rgb(64,32,32)" x="59" xml:space="preserve" y="29" clip-path="url(#clipPath7)" stroke="none">&gt;</text>
          <text x="66" xml:space="preserve" y="29" clip-path="url(#clipPath7)" stroke="none"> </text>
          <text fill="rgb(0,97,0)" x="69" xml:space="preserve" y="29" clip-path="url(#clipPath7)" stroke="none">0</text>
          <text x="76" xml:space="preserve" y="29" clip-path="url(#clipPath7)" stroke="none"> </text>
          <text fill="blue" x="0" xml:space="preserve" y="45" clip-path="url(#clipPath7)" stroke="none">do</text>
          <text x="14" xml:space="preserve" y="45" clip-path="url(#clipPath7)" stroke="none"> </text>
          <text x="17" xml:space="preserve" y="45" clip-path="url(#clipPath7)" stroke="none">n_w</text>
          <text x="40" xml:space="preserve" y="45" clip-path="url(#clipPath7)" stroke="none"> </text>
          <text fill="rgb(64,32,32)" x="43" xml:space="preserve" y="45" clip-path="url(#clipPath7)" stroke="none">:=</text>
          <text x="53" xml:space="preserve" y="45" clip-path="url(#clipPath7)" stroke="none"> </text>
          <text x="56" xml:space="preserve" y="45" clip-path="url(#clipPath7)" stroke="none">n_w</text>
          <text x="79" xml:space="preserve" y="45" clip-path="url(#clipPath7)" stroke="none"> </text>
          <text fill="rgb(64,32,32)" x="82" xml:space="preserve" y="45" clip-path="url(#clipPath7)" stroke="none">-</text>
          <text x="86" xml:space="preserve" y="45" clip-path="url(#clipPath7)" stroke="none"> </text>
          <text fill="rgb(0,97,0)" x="89" xml:space="preserve" y="45" clip-path="url(#clipPath7)" stroke="none">1</text>
        </g>
      </g>
    </g>
    <g id="y.edge.0">
      <g text-rendering="geometricPrecision" stroke-miterlimit="1.45" shape-rendering="geometricPrecision" transform="matrix(1,0,0,1,19,119)" stroke-linecap="butt">
        <path fill="none" d="M50 344.4756 L50 333"/>
        <path d="M50 325 L45 337 L50 334 L55 337 Z" stroke="none"/>
      </g>
    </g>
    <g visibility="hidden" id="tooltip.y.node.0" pointer-events="none">
      <g fill="rgb(255,255,225)" text-rendering="geometricPrecision" shape-rendering="geometricPrecision" font-family="'Segoe UI'" stroke="rgb(255,255,225)">
        <rect x="0" width="123" height="18" y="0" clip-path="url(#clipPath8)" stroke="none"/>
        <text fill="black" x="4" xml:space="preserve" y="14" clip-path="url(#clipPath8)" stroke="none">automaton buffer_bw</text>
      </g>
      <g font-family="'Segoe UI'" text-rendering="geometricPrecision" shape-rendering="geometricPrecision">
        <path d="M0 0 L123 0 L123 18 L0 18 L0 0 ZM1 1 L122 1 L122 17 L1 17 L1 1 Z" fill-rule="evenodd" clip-path="url(#clipPath8)" stroke="none"/>
      </g>
    </g>
    <g visibility="hidden" id="tooltip.y.node.1" pointer-events="none">
      <g fill="rgb(255,255,225)" text-rendering="geometricPrecision" shape-rendering="geometricPrecision" font-family="'Segoe UI'" stroke="rgb(255,255,225)">
        <rect x="0" width="73" height="18" y="0" clip-path="url(#clipPath9)" stroke="none"/>
        <text fill="black" x="4" xml:space="preserve" y="14" clip-path="url(#clipPath9)" stroke="none">Declarations</text>
      </g>
      <g font-family="'Segoe UI'" text-rendering="geometricPrecision" shape-rendering="geometricPrecision">
        <path d="M0 0 L73 0 L73 18 L0 18 L0 0 ZM1 1 L72 1 L72 17 L1 17 L1 1 Z" fill-rule="evenodd" clip-path="url(#clipPath9)" stroke="none"/>
      </g>
    </g>
    <g visibility="hidden" id="tooltip.y.node.2" pointer-events="none">
      <g fill="rgb(255,255,225)" text-rendering="geometricPrecision" shape-rendering="geometricPrecision" font-family="'Segoe UI'" stroke="rgb(255,255,225)">
        <rect x="0" width="51" height="18" y="0" clip-path="url(#clipPath10)" stroke="none"/>
        <text fill="black" x="4" xml:space="preserve" y="14" clip-path="url(#clipPath10)" stroke="none">location</text>
      </g>
      <g font-family="'Segoe UI'" text-rendering="geometricPrecision" shape-rendering="geometricPrecision">
        <path d="M0 0 L51 0 L51 18 L0 18 L0 0 ZM1 1 L50 1 L50 17 L1 17 L1 1 Z" fill-rule="evenodd" clip-path="url(#clipPath10)" stroke="none"/>
      </g>
    </g>
    <g visibility="hidden" id="tooltip.y.node.3" pointer-events="none">
      <g fill="rgb(255,255,225)" text-rendering="geometricPrecision" shape-rendering="geometricPrecision" font-family="'Segoe UI'" stroke="rgb(255,255,225)">
        <rect x="0" width="8" height="18" y="0" clip-path="url(#clipPath11)" stroke="none"/>
      </g>
      <g font-family="'Segoe UI'" text-rendering="geometricPrecision" shape-rendering="geometricPrecision">
        <path d="M0 0 L8 0 L8 18 L0 18 L0 0 ZM1 1 L7 1 L7 17 L1 17 L1 1 Z" fill-rule="evenodd" clip-path="url(#clipPath11)" stroke="none"/>
      </g>
    </g>
  </g>
</svg>
