<?xml version="1.0" encoding="UTF-8"?><svg xmlns="http://www.w3.org/2000/svg" xmlns:xlink="http://www.w3.org/1999/xlink" fill-opacity="1" color-rendering="auto" color-interpolation="auto" text-rendering="auto" stroke="black" stroke-linecap="square" width="681" stroke-miterlimit="10" shape-rendering="auto" stroke-opacity="1" fill="black" stroke-dasharray="none" font-weight="normal" stroke-width="1" height="532" font-family="'Dialog'" font-style="normal" stroke-linejoin="miter" font-size="12px" stroke-dashoffset="0" image-rendering="auto">
  <!--Generated by ySVG 2.5-->
  <defs id="genericDefs"/>
  <g>
    <defs id="defs1">
      <clipPath clipPathUnits="userSpaceOnUse" id="clipPath1">
        <path d="M0 0 L681 0 L681 532 L0 532 L0 0 Z"/>
      </clipPath>
      <clipPath clipPathUnits="userSpaceOnUse" id="clipPath2">
        <path d="M-109 -211 L572 -211 L572 321 L-109 321 L-109 -211 Z"/>
      </clipPath>
      <clipPath clipPathUnits="userSpaceOnUse" id="clipPath3">
        <path d="M0 0 L512 0 L512 16 L0 16 L0 0 Z"/>
      </clipPath>
      <clipPath clipPathUnits="userSpaceOnUse" id="clipPath4">
        <path d="M0 0 L124 0 L124 144 L0 144 L0 0 Z"/>
      </clipPath>
      <clipPath clipPathUnits="userSpaceOnUse" id="clipPath5">
        <path d="M0 0 L122 0 L122 48 L0 48 L0 0 Z"/>
      </clipPath>
      <clipPath clipPathUnits="userSpaceOnUse" id="clipPath6">
        <path d="M0 0 L137 0 L137 48 L0 48 L0 0 Z"/>
      </clipPath>
      <clipPath clipPathUnits="userSpaceOnUse" id="clipPath7">
        <path d="M0 0 L104 0 L104 16 L0 16 L0 0 Z"/>
      </clipPath>
      <clipPath clipPathUnits="userSpaceOnUse" id="clipPath8">
        <path d="M0 0 L0 18 L89 18 L89 0 Z"/>
      </clipPath>
      <clipPath clipPathUnits="userSpaceOnUse" id="clipPath9">
        <path d="M0 0 L0 18 L73 18 L73 0 Z"/>
      </clipPath>
      <clipPath clipPathUnits="userSpaceOnUse" id="clipPath10">
        <path d="M0 0 L0 18 L51 18 L51 0 Z"/>
      </clipPath>
      <clipPath clipPathUnits="userSpaceOnUse" id="clipPath11">
        <path d="M0 0 L0 18 L8 18 L8 0 Z"/>
      </clipPath>
      <script type="text/ecmascript">
        <![CDATA[      var SVGDocument = null;
      var SVGRoot = null;
      var TrueCoords = null;
      var lastElement = null;
      var initialized = null;
      var tipGroup;
      function Init(evt)
      {
         SVGDocument = evt.target.ownerDocument;
         SVGRoot = SVGDocument.documentElement;
         TrueCoords = SVGRoot.createSVGPoint();
         initialized = evt;
      };
      function GetTrueCoords(evt)
      {
         var newScale = SVGRoot.currentScale;
         var translation = SVGRoot.currentTranslate;
         TrueCoords.x = (evt.clientX - translation.x)/newScale;
         TrueCoords.y = (evt.clientY - translation.y)/newScale;
      };
      function HideTooltip( evt )
      {
         if(initialized == null) {
           Init(evt);
         }
         if(tipGroup != null) {
           tipGroup.setAttributeNS(null, 'visibility', 'hidden');
         }
      };
      function ShowTooltip( evt )
      {
         if(initialized == null) {
           Init(evt);
         }
         GetTrueCoords( evt );
         var tipScale = 1/SVGRoot.currentScale;
         var targetElement = evt.currentTarget;
         if ( lastElement != targetElement )
         {
            var targetId = targetElement.getAttributeNS(null, 'id');
            var tipId = 'tooltip.' + targetId;
            tipGroup = SVGDocument.getElementById(tipId);
            var xPos = TrueCoords.x + (10 * tipScale);
            var yPos = TrueCoords.y + (10 * tipScale);
            tipGroup.setAttributeNS(null, 'transform', 'translate(' + xPos + ',' + yPos + ') scale(' + tipScale + ')');
            tipGroup.setAttributeNS(null, 'visibility', 'visible');
         }
      };
]]>
      </script>
    </defs>
    <g fill="white" text-rendering="geometricPrecision" shape-rendering="geometricPrecision" transform="translate(109,211)" stroke="white">
      <rect x="-109" width="681" height="532" y="-211" clip-path="url(#clipPath2)" stroke="none"/>
    </g>
    <g onmouseout="HideTooltip(evt)" id="y.node.0" onmousemove="ShowTooltip(evt)">
      <g fill="rgb(238,238,238)" text-rendering="geometricPrecision" shape-rendering="geometricPrecision" transform="matrix(1,0,0,1,109,211)" stroke="rgb(238,238,238)">
        <rect x="-94" width="516" height="501" y="-195.5" stroke="none"/>
      </g>
      <g>
        <g fill="red" text-rendering="geometricPrecision" shape-rendering="geometricPrecision" transform="matrix(1,0,0,1,109,211)" stroke="red">
          <rect x="-94" width="516" height="20" y="-195.5" stroke="none"/>
        </g>
        <g text-rendering="geometricPrecision" stroke-miterlimit="1.45" shape-rendering="geometricPrecision" font-family="sans-serif" transform="matrix(1,0,0,1,109,211) translate(-92,-193)" stroke-linecap="butt">
          <text x="0" xml:space="preserve" y="13" clip-path="url(#clipPath3)" stroke="none">     </text>
          <text fill="blue" x="15" xml:space="preserve" y="13" clip-path="url(#clipPath3)" stroke="none">automaton</text>
          <text x="74" xml:space="preserve" y="13" clip-path="url(#clipPath3)" stroke="none"> </text>
          <text x="77" xml:space="preserve" y="13" clip-path="url(#clipPath3)" stroke="none">ball</text>
        </g>
      </g>
      <g text-rendering="geometricPrecision" stroke-miterlimit="1.45" shape-rendering="geometricPrecision" transform="matrix(1,0,0,1,109,211)" stroke-linecap="butt">
        <rect fill="none" x="-94" width="516" height="501" y="-195.5"/>
      </g>
    </g>
    <g onmouseout="HideTooltip(evt)" id="y.node.1" onmousemove="ShowTooltip(evt)">
      <g fill="rgb(235,235,184)" text-rendering="geometricPrecision" shape-rendering="geometricPrecision" transform="matrix(1,0,0,1,109,211)" stroke="rgb(235,235,184)">
        <rect x="270" width="134" height="178.8438" y="-158.8438" stroke="none"/>
      </g>
      <g>
        <g fill="rgb(238,238,128)" text-rendering="geometricPrecision" shape-rendering="geometricPrecision" transform="matrix(1,0,0,1,109,211)" stroke="rgb(238,238,128)">
          <rect x="270" width="134" height="18.7012" y="-158.8438" stroke="none"/>
        </g>
        <g text-rendering="geometricPrecision" stroke-miterlimit="1.45" shape-rendering="geometricPrecision" font-family="sans-serif" transform="matrix(1,0,0,1,109,211)" stroke-linecap="butt">
          <text x="272" xml:space="preserve" y="-144.7793" stroke="none">     Declarations</text>
        </g>
      </g>
      <g>
        <g stroke-linecap="butt" transform="matrix(1,0,0,1,109,211) translate(275,-137)" fill="blue" text-rendering="geometricPrecision" font-family="sans-serif" shape-rendering="geometricPrecision" stroke="blue" stroke-miterlimit="1.45">
          <text x="0" xml:space="preserve" y="13" clip-path="url(#clipPath4)" stroke="none">event</text>
          <text fill="black" x="29" xml:space="preserve" y="13" clip-path="url(#clipPath4)" stroke="none"> </text>
          <text fill="black" x="32" xml:space="preserve" y="13" clip-path="url(#clipPath4)" stroke="none">bounce</text>
          <text fill="rgb(64,32,32)" x="73" xml:space="preserve" y="13" clip-path="url(#clipPath4)" stroke="none">;</text>
          <text fill="black" x="76" xml:space="preserve" y="13" clip-path="url(#clipPath4)" stroke="none"> </text>
          <text x="0" xml:space="preserve" y="29" clip-path="url(#clipPath4)" stroke="none">event</text>
          <text fill="black" x="29" xml:space="preserve" y="29" clip-path="url(#clipPath4)" stroke="none"> </text>
          <text fill="black" x="32" xml:space="preserve" y="29" clip-path="url(#clipPath4)" stroke="none">sidebounceright</text>
          <text fill="rgb(64,32,32)" x="121" xml:space="preserve" y="29" clip-path="url(#clipPath4)" stroke="none">;</text>
          <text fill="black" x="124" xml:space="preserve" y="29" clip-path="url(#clipPath4)" stroke="none"> </text>
          <text x="0" xml:space="preserve" y="45" clip-path="url(#clipPath4)" stroke="none">event</text>
          <text fill="black" x="29" xml:space="preserve" y="45" clip-path="url(#clipPath4)" stroke="none"> </text>
          <text fill="black" x="32" xml:space="preserve" y="45" clip-path="url(#clipPath4)" stroke="none">sidebounceleft</text>
          <text fill="rgb(64,32,32)" x="113" xml:space="preserve" y="45" clip-path="url(#clipPath4)" stroke="none">;</text>
          <text fill="black" x="116" xml:space="preserve" y="45" clip-path="url(#clipPath4)" stroke="none"> </text>
          <text x="0" xml:space="preserve" y="61" clip-path="url(#clipPath4)" stroke="none">const</text>
          <text fill="black" x="30" xml:space="preserve" y="61" clip-path="url(#clipPath4)" stroke="none"> </text>
          <text x="33" xml:space="preserve" y="61" clip-path="url(#clipPath4)" stroke="none">real</text>
          <text fill="black" x="54" xml:space="preserve" y="61" clip-path="url(#clipPath4)" stroke="none"> </text>
          <text fill="black" x="57" xml:space="preserve" y="61" clip-path="url(#clipPath4)" stroke="none">COR</text>
          <text fill="black" x="84" xml:space="preserve" y="61" clip-path="url(#clipPath4)" stroke="none"> </text>
          <text fill="rgb(64,32,32)" x="87" xml:space="preserve" y="61" clip-path="url(#clipPath4)" stroke="none">=</text>
          <text fill="black" x="94" xml:space="preserve" y="61" clip-path="url(#clipPath4)" stroke="none"> </text>
          <text fill="rgb(0,97,0)" x="97" xml:space="preserve" y="61" clip-path="url(#clipPath4)" stroke="none">0.75</text>
          <text fill="rgb(64,32,32)" x="121" xml:space="preserve" y="61" clip-path="url(#clipPath4)" stroke="none">;</text>
          <text fill="black" x="124" xml:space="preserve" y="61" clip-path="url(#clipPath4)" stroke="none"> </text>
          <text x="0" xml:space="preserve" y="77" clip-path="url(#clipPath4)" stroke="none">const</text>
          <text fill="black" x="30" xml:space="preserve" y="77" clip-path="url(#clipPath4)" stroke="none"> </text>
          <text x="33" xml:space="preserve" y="77" clip-path="url(#clipPath4)" stroke="none">real</text>
          <text fill="black" x="54" xml:space="preserve" y="77" clip-path="url(#clipPath4)" stroke="none"> </text>
          <text fill="black" x="57" xml:space="preserve" y="77" clip-path="url(#clipPath4)" stroke="none">wall</text>
          <text fill="black" x="79" xml:space="preserve" y="77" clip-path="url(#clipPath4)" stroke="none"> </text>
          <text fill="rgb(64,32,32)" x="82" xml:space="preserve" y="77" clip-path="url(#clipPath4)" stroke="none">=</text>
          <text fill="black" x="89" xml:space="preserve" y="77" clip-path="url(#clipPath4)" stroke="none"> </text>
          <text fill="rgb(0,97,0)" x="92" xml:space="preserve" y="77" clip-path="url(#clipPath4)" stroke="none">25.0</text>
          <text fill="rgb(64,32,32)" x="116" xml:space="preserve" y="77" clip-path="url(#clipPath4)" stroke="none">;</text>
          <text fill="black" x="119" xml:space="preserve" y="77" clip-path="url(#clipPath4)" stroke="none"> </text>
          <text x="0" xml:space="preserve" y="93" clip-path="url(#clipPath4)" stroke="none">cont</text>
          <text fill="black" x="23" xml:space="preserve" y="93" clip-path="url(#clipPath4)" stroke="none"> </text>
          <text fill="black" x="26" xml:space="preserve" y="93" clip-path="url(#clipPath4)" stroke="none">y</text>
          <text fill="black" x="31" xml:space="preserve" y="93" clip-path="url(#clipPath4)" stroke="none"> </text>
          <text fill="rgb(64,32,32)" x="34" xml:space="preserve" y="93" clip-path="url(#clipPath4)" stroke="none">=</text>
          <text fill="black" x="41" xml:space="preserve" y="93" clip-path="url(#clipPath4)" stroke="none"> </text>
          <text fill="rgb(0,97,0)" x="44" xml:space="preserve" y="93" clip-path="url(#clipPath4)" stroke="none">15.0</text>
          <text fill="black" x="68" xml:space="preserve" y="93" clip-path="url(#clipPath4)" stroke="none"> </text>
          <text x="71" xml:space="preserve" y="93" clip-path="url(#clipPath4)" stroke="none">der</text>
          <text fill="black" x="89" xml:space="preserve" y="93" clip-path="url(#clipPath4)" stroke="none"> </text>
          <text fill="black" x="92" xml:space="preserve" y="93" clip-path="url(#clipPath4)" stroke="none">vy</text>
          <text fill="rgb(64,32,32)" x="102" xml:space="preserve" y="93" clip-path="url(#clipPath4)" stroke="none">;</text>
          <text fill="black" x="105" xml:space="preserve" y="93" clip-path="url(#clipPath4)" stroke="none"> </text>
          <text x="0" xml:space="preserve" y="109" clip-path="url(#clipPath4)" stroke="none">cont</text>
          <text fill="black" x="23" xml:space="preserve" y="109" clip-path="url(#clipPath4)" stroke="none"> </text>
          <text fill="black" x="26" xml:space="preserve" y="109" clip-path="url(#clipPath4)" stroke="none">vy</text>
          <text fill="black" x="36" xml:space="preserve" y="109" clip-path="url(#clipPath4)" stroke="none"> </text>
          <text x="39" xml:space="preserve" y="109" clip-path="url(#clipPath4)" stroke="none">der</text>
          <text fill="black" x="57" xml:space="preserve" y="109" clip-path="url(#clipPath4)" stroke="none"> </text>
          <text fill="rgb(64,32,32)" x="60" xml:space="preserve" y="109" clip-path="url(#clipPath4)" stroke="none">-</text>
          <text fill="black" x="64" xml:space="preserve" y="109" clip-path="url(#clipPath4)" stroke="none">g</text>
          <text fill="rgb(64,32,32)" x="71" xml:space="preserve" y="109" clip-path="url(#clipPath4)" stroke="none">;</text>
          <text fill="black" x="74" xml:space="preserve" y="109" clip-path="url(#clipPath4)" stroke="none"> </text>
          <text x="0" xml:space="preserve" y="125" clip-path="url(#clipPath4)" stroke="none">cont</text>
          <text fill="black" x="23" xml:space="preserve" y="125" clip-path="url(#clipPath4)" stroke="none"> </text>
          <text fill="black" x="26" xml:space="preserve" y="125" clip-path="url(#clipPath4)" stroke="none">x</text>
          <text fill="black" x="31" xml:space="preserve" y="125" clip-path="url(#clipPath4)" stroke="none"> </text>
          <text fill="rgb(64,32,32)" x="34" xml:space="preserve" y="125" clip-path="url(#clipPath4)" stroke="none">=</text>
          <text fill="black" x="41" xml:space="preserve" y="125" clip-path="url(#clipPath4)" stroke="none"> </text>
          <text fill="rgb(0,97,0)" x="44" xml:space="preserve" y="125" clip-path="url(#clipPath4)" stroke="none">0.0</text>
          <text fill="black" x="61" xml:space="preserve" y="125" clip-path="url(#clipPath4)" stroke="none"> </text>
          <text x="64" xml:space="preserve" y="125" clip-path="url(#clipPath4)" stroke="none">der</text>
          <text fill="black" x="82" xml:space="preserve" y="125" clip-path="url(#clipPath4)" stroke="none"> </text>
          <text fill="black" x="85" xml:space="preserve" y="125" clip-path="url(#clipPath4)" stroke="none">vx</text>
          <text fill="rgb(64,32,32)" x="95" xml:space="preserve" y="125" clip-path="url(#clipPath4)" stroke="none">;</text>
          <text fill="black" x="98" xml:space="preserve" y="125" clip-path="url(#clipPath4)" stroke="none"> </text>
          <text x="0" xml:space="preserve" y="141" clip-path="url(#clipPath4)" stroke="none">disc</text>
          <text fill="black" x="23" xml:space="preserve" y="141" clip-path="url(#clipPath4)" stroke="none"> </text>
          <text x="26" xml:space="preserve" y="141" clip-path="url(#clipPath4)" stroke="none">real</text>
          <text fill="black" x="47" xml:space="preserve" y="141" clip-path="url(#clipPath4)" stroke="none"> </text>
          <text fill="black" x="50" xml:space="preserve" y="141" clip-path="url(#clipPath4)" stroke="none">vx</text>
          <text fill="black" x="60" xml:space="preserve" y="141" clip-path="url(#clipPath4)" stroke="none"> </text>
          <text fill="rgb(64,32,32)" x="63" xml:space="preserve" y="141" clip-path="url(#clipPath4)" stroke="none">=</text>
          <text fill="black" x="70" xml:space="preserve" y="141" clip-path="url(#clipPath4)" stroke="none"> </text>
          <text fill="rgb(0,97,0)" x="73" xml:space="preserve" y="141" clip-path="url(#clipPath4)" stroke="none">10.0</text>
          <text fill="rgb(64,32,32)" x="97" xml:space="preserve" y="141" clip-path="url(#clipPath4)" stroke="none">;</text>
        </g>
      </g>
      <g text-rendering="geometricPrecision" stroke-miterlimit="1.45" shape-rendering="geometricPrecision" transform="matrix(1,0,0,1,109,211)" stroke-linecap="butt">
        <rect fill="none" x="270" width="134" height="178.8438" y="-158.8438"/>
      </g>
    </g>
    <g onmouseout="HideTooltip(evt)" id="y.node.2" onmousemove="ShowTooltip(evt)">
      <g fill="rgb(204,204,255)" text-rendering="geometricPrecision" shape-rendering="geometricPrecision" transform="matrix(1,0,0,1,109,211)" stroke="rgb(204,204,255)">
        <rect x="20" y="235" width="60" rx="4" ry="4" height="30" stroke="none"/>
      </g>
      <g/>
      <g text-rendering="geometricPrecision" stroke-miterlimit="1.45" shape-rendering="geometricPrecision" transform="matrix(1,0,0,1,109,211)" stroke-linecap="butt">
        <rect x="20" y="235" fill="none" width="60" rx="4" ry="4" height="30"/>
      </g>
    </g>
    <g onmouseout="HideTooltip(evt)" id="y.node.3" onmousemove="ShowTooltip(evt)"/>
    <g id="y.edge.1">
      <g text-rendering="geometricPrecision" stroke-miterlimit="1.45" shape-rendering="geometricPrecision" transform="matrix(1,0,0,1,109,211)" stroke-linecap="butt">
        <path fill="none" d="M50 234.9663 L50 155.9049 L49.375 151.5299 L47.5 148.4049 L44.375 146.5299 L40 145.9049 L-6.4 145.9049 L-10.775 145.2799 L-13.9 143.4049 L-15.775 140.2799 L-16.4 135.9049 L-16.4 50 L-15.775 45.625 L-13.9 42.5 L-10.775 40.625 L-6.4 40 L220 40 L224.375 40.625 L227.5 42.5 L229.375 45.625 L230 50 L230 230 L229.375 234.375 L227.5 237.5 L224.375 239.375 L220 240 L88 240"/>
        <path d="M80 240 L92 245 L89 240 L92 235 Z" stroke="none"/>
      </g>
      <g>
        <g stroke-linecap="butt" transform="matrix(1,0,0,1,109,211)" fill="rgb(238,238,238)" text-rendering="geometricPrecision" shape-rendering="geometricPrecision" stroke="rgb(238,238,238)" stroke-miterlimit="1.45">
          <rect x="43.8" width="126" height="52" y="42" stroke="none"/>
        </g>
        <g text-rendering="geometricPrecision" stroke-miterlimit="1.45" shape-rendering="geometricPrecision" font-family="sans-serif" transform="matrix(1,0,0,1,109,211) translate(45,44)" stroke-linecap="butt">
          <text x="0" xml:space="preserve" y="13" clip-path="url(#clipPath5)" stroke="none">bounce</text>
          <text x="41" xml:space="preserve" y="13" clip-path="url(#clipPath5)" stroke="none"> </text>
          <text fill="blue" x="0" xml:space="preserve" y="29" clip-path="url(#clipPath5)" stroke="none">when</text>
          <text x="30" xml:space="preserve" y="29" clip-path="url(#clipPath5)" stroke="none"> </text>
          <text x="33" xml:space="preserve" y="29" clip-path="url(#clipPath5)" stroke="none">y</text>
          <text x="38" xml:space="preserve" y="29" clip-path="url(#clipPath5)" stroke="none"> </text>
          <text fill="rgb(64,32,32)" x="41" xml:space="preserve" y="29" clip-path="url(#clipPath5)" stroke="none">&lt;=</text>
          <text x="55" xml:space="preserve" y="29" clip-path="url(#clipPath5)" stroke="none"> </text>
          <text fill="rgb(0,97,0)" x="58" xml:space="preserve" y="29" clip-path="url(#clipPath5)" stroke="none">0</text>
          <text x="65" xml:space="preserve" y="29" clip-path="url(#clipPath5)" stroke="none"> </text>
          <text fill="rgb(0,97,192)" x="68" xml:space="preserve" y="29" clip-path="url(#clipPath5)" stroke="none">and</text>
          <text x="89" xml:space="preserve" y="29" clip-path="url(#clipPath5)" stroke="none"> </text>
          <text x="92" xml:space="preserve" y="29" clip-path="url(#clipPath5)" stroke="none">vy</text>
          <text x="102" xml:space="preserve" y="29" clip-path="url(#clipPath5)" stroke="none"> </text>
          <text fill="rgb(64,32,32)" x="105" xml:space="preserve" y="29" clip-path="url(#clipPath5)" stroke="none">&lt;</text>
          <text x="112" xml:space="preserve" y="29" clip-path="url(#clipPath5)" stroke="none"> </text>
          <text fill="rgb(0,97,0)" x="115" xml:space="preserve" y="29" clip-path="url(#clipPath5)" stroke="none">0</text>
          <text x="122" xml:space="preserve" y="29" clip-path="url(#clipPath5)" stroke="none"> </text>
          <text fill="blue" x="0" xml:space="preserve" y="45" clip-path="url(#clipPath5)" stroke="none">do</text>
          <text x="14" xml:space="preserve" y="45" clip-path="url(#clipPath5)" stroke="none"> </text>
          <text x="17" xml:space="preserve" y="45" clip-path="url(#clipPath5)" stroke="none">vy</text>
          <text x="27" xml:space="preserve" y="45" clip-path="url(#clipPath5)" stroke="none"> </text>
          <text fill="rgb(64,32,32)" x="30" xml:space="preserve" y="45" clip-path="url(#clipPath5)" stroke="none">:=</text>
          <text x="40" xml:space="preserve" y="45" clip-path="url(#clipPath5)" stroke="none"> </text>
          <text fill="rgb(64,32,32)" x="43" xml:space="preserve" y="45" clip-path="url(#clipPath5)" stroke="none">-</text>
          <text x="47" xml:space="preserve" y="45" clip-path="url(#clipPath5)" stroke="none">vy</text>
          <text x="57" xml:space="preserve" y="45" clip-path="url(#clipPath5)" stroke="none"> </text>
          <text fill="rgb(64,32,32)" x="60" xml:space="preserve" y="45" clip-path="url(#clipPath5)" stroke="none">*</text>
          <text x="65" xml:space="preserve" y="45" clip-path="url(#clipPath5)" stroke="none"> </text>
          <text x="68" xml:space="preserve" y="45" clip-path="url(#clipPath5)" stroke="none">COR</text>
        </g>
      </g>
    </g>
    <g id="y.edge.2">
      <g text-rendering="geometricPrecision" stroke-miterlimit="1.45" shape-rendering="geometricPrecision" transform="matrix(1,0,0,1,109,211)" stroke-linecap="butt">
        <path fill="none" d="M30.8965 234.9826 L30.8965 182.4913 L30.2715 178.1163 L28.3965 174.9913 L25.2715 173.1163 L20.8965 172.4913 L-39.9035 172.4913 L-44.2785 171.8663 L-47.4035 169.9913 L-49.2785 166.8663 L-49.9035 162.4913 L-49.9035 -54.2 L-49.2785 -58.575 L-47.4035 -61.7 L-44.2785 -63.575 L-39.9035 -64.2 L230 -64.2 L234.375 -63.575 L237.5 -61.7 L239.375 -58.575 L240 -54.2 L240 235 L239.375 239.375 L237.5 242.5 L234.375 244.375 L230 245 L88 245"/>
        <path d="M80 245 L92 250 L89 245 L92 240 Z" stroke="none"/>
      </g>
      <g>
        <g stroke-linecap="butt" transform="matrix(1,0,0,1,109,211)" fill="rgb(238,238,238)" text-rendering="geometricPrecision" shape-rendering="geometricPrecision" stroke="rgb(238,238,238)" stroke-miterlimit="1.45">
          <rect x="24.5483" width="141" height="52" y="-62.2" stroke="none"/>
        </g>
        <g text-rendering="geometricPrecision" stroke-miterlimit="1.45" shape-rendering="geometricPrecision" font-family="sans-serif" transform="matrix(1,0,0,1,109,211) translate(26,-60)" stroke-linecap="butt">
          <text x="0" xml:space="preserve" y="13" clip-path="url(#clipPath6)" stroke="none">sidebounceright</text>
          <text x="89" xml:space="preserve" y="13" clip-path="url(#clipPath6)" stroke="none"> </text>
          <text fill="blue" x="0" xml:space="preserve" y="29" clip-path="url(#clipPath6)" stroke="none">when</text>
          <text x="30" xml:space="preserve" y="29" clip-path="url(#clipPath6)" stroke="none"> </text>
          <text x="33" xml:space="preserve" y="29" clip-path="url(#clipPath6)" stroke="none">x</text>
          <text x="38" xml:space="preserve" y="29" clip-path="url(#clipPath6)" stroke="none"> </text>
          <text fill="rgb(64,32,32)" x="41" xml:space="preserve" y="29" clip-path="url(#clipPath6)" stroke="none">&gt;=</text>
          <text x="55" xml:space="preserve" y="29" clip-path="url(#clipPath6)" stroke="none"> </text>
          <text x="58" xml:space="preserve" y="29" clip-path="url(#clipPath6)" stroke="none">wall</text>
          <text x="80" xml:space="preserve" y="29" clip-path="url(#clipPath6)" stroke="none"> </text>
          <text fill="rgb(0,97,192)" x="83" xml:space="preserve" y="29" clip-path="url(#clipPath6)" stroke="none">and</text>
          <text x="104" xml:space="preserve" y="29" clip-path="url(#clipPath6)" stroke="none"> </text>
          <text x="107" xml:space="preserve" y="29" clip-path="url(#clipPath6)" stroke="none">vx</text>
          <text x="117" xml:space="preserve" y="29" clip-path="url(#clipPath6)" stroke="none"> </text>
          <text fill="rgb(64,32,32)" x="120" xml:space="preserve" y="29" clip-path="url(#clipPath6)" stroke="none">&gt;</text>
          <text x="127" xml:space="preserve" y="29" clip-path="url(#clipPath6)" stroke="none"> </text>
          <text fill="rgb(0,97,0)" x="130" xml:space="preserve" y="29" clip-path="url(#clipPath6)" stroke="none">0</text>
          <text x="137" xml:space="preserve" y="29" clip-path="url(#clipPath6)" stroke="none"> </text>
          <text fill="blue" x="0" xml:space="preserve" y="45" clip-path="url(#clipPath6)" stroke="none">do</text>
          <text x="14" xml:space="preserve" y="45" clip-path="url(#clipPath6)" stroke="none"> </text>
          <text x="17" xml:space="preserve" y="45" clip-path="url(#clipPath6)" stroke="none">vx</text>
          <text x="27" xml:space="preserve" y="45" clip-path="url(#clipPath6)" stroke="none"> </text>
          <text fill="rgb(64,32,32)" x="30" xml:space="preserve" y="45" clip-path="url(#clipPath6)" stroke="none">:=</text>
          <text x="40" xml:space="preserve" y="45" clip-path="url(#clipPath6)" stroke="none"> </text>
          <text fill="rgb(64,32,32)" x="43" xml:space="preserve" y="45" clip-path="url(#clipPath6)" stroke="none">-</text>
          <text x="47" xml:space="preserve" y="45" clip-path="url(#clipPath6)" stroke="none">vx</text>
          <text x="57" xml:space="preserve" y="45" clip-path="url(#clipPath6)" stroke="none"> </text>
          <text fill="rgb(64,32,32)" x="60" xml:space="preserve" y="45" clip-path="url(#clipPath6)" stroke="none">*</text>
          <text x="65" xml:space="preserve" y="45" clip-path="url(#clipPath6)" stroke="none"> </text>
          <text x="68" xml:space="preserve" y="45" clip-path="url(#clipPath6)" stroke="none">COR</text>
        </g>
      </g>
    </g>
    <g id="y.edge.3">
      <g text-rendering="geometricPrecision" stroke-miterlimit="1.45" shape-rendering="geometricPrecision" transform="matrix(1,0,0,1,109,211)" stroke-linecap="butt">
        <path fill="none" d="M19.9609 250 L-64 250 L-68.375 249.375 L-71.5 247.5 L-73.375 244.375 L-74 240 L-74 -145 L-73.375 -149.375 L-71.5 -152.5 L-68.375 -154.375 L-64 -155 L240 -155 L244.375 -154.375 L247.5 -152.5 L249.375 -149.375 L250 -145 L250 240 L249.375 244.375 L247.5 247.5 L244.375 249.375 L240 250 L88 250"/>
        <path d="M80 250 L92 255 L89 250 L92 245 Z" stroke="none"/>
      </g>
      <g>
        <g stroke-linecap="butt" transform="matrix(1,0,0,1,109,211)" fill="rgb(238,238,238)" text-rendering="geometricPrecision" shape-rendering="geometricPrecision" stroke="rgb(238,238,238)" stroke-miterlimit="1.45">
          <rect x="25" width="126" height="52" y="-153" stroke="none"/>
        </g>
        <g text-rendering="geometricPrecision" stroke-miterlimit="1.45" shape-rendering="geometricPrecision" font-family="sans-serif" transform="matrix(1,0,0,1,109,211) translate(27,-151)" stroke-linecap="butt">
          <text x="0" xml:space="preserve" y="13" clip-path="url(#clipPath5)" stroke="none">sidebounceleft</text>
          <text x="81" xml:space="preserve" y="13" clip-path="url(#clipPath5)" stroke="none"> </text>
          <text fill="blue" x="0" xml:space="preserve" y="29" clip-path="url(#clipPath5)" stroke="none">when</text>
          <text x="30" xml:space="preserve" y="29" clip-path="url(#clipPath5)" stroke="none"> </text>
          <text x="33" xml:space="preserve" y="29" clip-path="url(#clipPath5)" stroke="none">x</text>
          <text x="38" xml:space="preserve" y="29" clip-path="url(#clipPath5)" stroke="none"> </text>
          <text fill="rgb(64,32,32)" x="41" xml:space="preserve" y="29" clip-path="url(#clipPath5)" stroke="none">&lt;=</text>
          <text x="55" xml:space="preserve" y="29" clip-path="url(#clipPath5)" stroke="none"> </text>
          <text fill="rgb(0,97,0)" x="58" xml:space="preserve" y="29" clip-path="url(#clipPath5)" stroke="none">0</text>
          <text x="65" xml:space="preserve" y="29" clip-path="url(#clipPath5)" stroke="none"> </text>
          <text fill="rgb(0,97,192)" x="68" xml:space="preserve" y="29" clip-path="url(#clipPath5)" stroke="none">and</text>
          <text x="89" xml:space="preserve" y="29" clip-path="url(#clipPath5)" stroke="none"> </text>
          <text x="92" xml:space="preserve" y="29" clip-path="url(#clipPath5)" stroke="none">vx</text>
          <text x="102" xml:space="preserve" y="29" clip-path="url(#clipPath5)" stroke="none"> </text>
          <text fill="rgb(64,32,32)" x="105" xml:space="preserve" y="29" clip-path="url(#clipPath5)" stroke="none">&lt;</text>
          <text x="112" xml:space="preserve" y="29" clip-path="url(#clipPath5)" stroke="none"> </text>
          <text fill="rgb(0,97,0)" x="115" xml:space="preserve" y="29" clip-path="url(#clipPath5)" stroke="none">0</text>
          <text x="122" xml:space="preserve" y="29" clip-path="url(#clipPath5)" stroke="none"> </text>
          <text fill="blue" x="0" xml:space="preserve" y="45" clip-path="url(#clipPath5)" stroke="none">do</text>
          <text x="14" xml:space="preserve" y="45" clip-path="url(#clipPath5)" stroke="none"> </text>
          <text x="17" xml:space="preserve" y="45" clip-path="url(#clipPath5)" stroke="none">vx</text>
          <text x="27" xml:space="preserve" y="45" clip-path="url(#clipPath5)" stroke="none"> </text>
          <text fill="rgb(64,32,32)" x="30" xml:space="preserve" y="45" clip-path="url(#clipPath5)" stroke="none">:=</text>
          <text x="40" xml:space="preserve" y="45" clip-path="url(#clipPath5)" stroke="none"> </text>
          <text fill="rgb(64,32,32)" x="43" xml:space="preserve" y="45" clip-path="url(#clipPath5)" stroke="none">-</text>
          <text x="47" xml:space="preserve" y="45" clip-path="url(#clipPath5)" stroke="none">vx</text>
          <text x="57" xml:space="preserve" y="45" clip-path="url(#clipPath5)" stroke="none"> </text>
          <text fill="rgb(64,32,32)" x="60" xml:space="preserve" y="45" clip-path="url(#clipPath5)" stroke="none">*</text>
          <text x="65" xml:space="preserve" y="45" clip-path="url(#clipPath5)" stroke="none"> </text>
          <text x="68" xml:space="preserve" y="45" clip-path="url(#clipPath5)" stroke="none">COR</text>
        </g>
      </g>
    </g>
    <g id="y.edge.0">
      <g text-rendering="geometricPrecision" stroke-miterlimit="1.45" shape-rendering="geometricPrecision" transform="matrix(1,0,0,1,109,211)" stroke-linecap="butt">
        <path fill="none" d="M50 284.4756 L50 273"/>
        <path d="M50 265 L45 277 L50 274 L55 277 Z" stroke="none"/>
      </g>
    </g>
    <g onmouseout="HideTooltip(evt)" id="y.node.4" onmousemove="ShowTooltip(evt)">
      <g fill="rgb(255,255,204)" text-rendering="geometricPrecision" shape-rendering="geometricPrecision" transform="matrix(1,0,0,1,109,211)" stroke="rgb(255,255,204)">
        <rect x="443" width="114" height="54" y="-195.5" stroke="none"/>
      </g>
      <g>
        <g fill="rgb(238,238,128)" text-rendering="geometricPrecision" shape-rendering="geometricPrecision" transform="matrix(1,0,0,1,109,211)" stroke="rgb(238,238,128)">
          <rect x="443" width="114" height="18.7012" y="-195.5" stroke="none"/>
        </g>
        <g text-rendering="geometricPrecision" stroke-miterlimit="1.45" shape-rendering="geometricPrecision" font-family="sans-serif" transform="matrix(1,0,0,1,109,211)" stroke-linecap="butt">
          <text x="445" xml:space="preserve" y="-181.4355" stroke="none">     Declarations</text>
        </g>
      </g>
      <g>
        <g stroke-linecap="butt" transform="matrix(1,0,0,1,109,211) translate(448,-174)" fill="blue" text-rendering="geometricPrecision" font-family="sans-serif" shape-rendering="geometricPrecision" stroke="blue" stroke-miterlimit="1.45">
          <text x="0" xml:space="preserve" y="13" clip-path="url(#clipPath7)" stroke="none">const</text>
          <text fill="black" x="30" xml:space="preserve" y="13" clip-path="url(#clipPath7)" stroke="none"> </text>
          <text x="33" xml:space="preserve" y="13" clip-path="url(#clipPath7)" stroke="none">real</text>
          <text fill="black" x="54" xml:space="preserve" y="13" clip-path="url(#clipPath7)" stroke="none"> </text>
          <text fill="black" x="57" xml:space="preserve" y="13" clip-path="url(#clipPath7)" stroke="none">g</text>
          <text fill="black" x="64" xml:space="preserve" y="13" clip-path="url(#clipPath7)" stroke="none"> </text>
          <text fill="rgb(64,32,32)" x="67" xml:space="preserve" y="13" clip-path="url(#clipPath7)" stroke="none">=</text>
          <text fill="black" x="74" xml:space="preserve" y="13" clip-path="url(#clipPath7)" stroke="none"> </text>
          <text fill="rgb(0,97,0)" x="77" xml:space="preserve" y="13" clip-path="url(#clipPath7)" stroke="none">9.81</text>
          <text fill="rgb(64,32,32)" x="101" xml:space="preserve" y="13" clip-path="url(#clipPath7)" stroke="none">;</text>
        </g>
      </g>
      <g text-rendering="geometricPrecision" stroke-miterlimit="1.45" shape-rendering="geometricPrecision" transform="matrix(1,0,0,1,109,211)" stroke-linecap="butt">
        <rect fill="none" x="443" width="114" height="54" y="-195.5"/>
      </g>
    </g>
    <g visibility="hidden" id="tooltip.y.node.0" pointer-events="none">
      <g fill="rgb(255,255,225)" text-rendering="geometricPrecision" shape-rendering="geometricPrecision" font-family="'Segoe UI'" stroke="rgb(255,255,225)">
        <rect x="0" width="89" height="18" y="0" clip-path="url(#clipPath8)" stroke="none"/>
        <text fill="black" x="4" xml:space="preserve" y="14" clip-path="url(#clipPath8)" stroke="none">automaton ball</text>
      </g>
      <g font-family="'Segoe UI'" text-rendering="geometricPrecision" shape-rendering="geometricPrecision">
        <path d="M0 0 L89 0 L89 18 L0 18 L0 0 ZM1 1 L88 1 L88 17 L1 17 L1 1 Z" fill-rule="evenodd" clip-path="url(#clipPath8)" stroke="none"/>
      </g>
    </g>
    <g visibility="hidden" id="tooltip.y.node.1" pointer-events="none">
      <g fill="rgb(255,255,225)" text-rendering="geometricPrecision" shape-rendering="geometricPrecision" font-family="'Segoe UI'" stroke="rgb(255,255,225)">
        <rect x="0" width="73" height="18" y="0" clip-path="url(#clipPath9)" stroke="none"/>
        <text fill="black" x="4" xml:space="preserve" y="14" clip-path="url(#clipPath9)" stroke="none">Declarations</text>
      </g>
      <g font-family="'Segoe UI'" text-rendering="geometricPrecision" shape-rendering="geometricPrecision">
        <path d="M0 0 L73 0 L73 18 L0 18 L0 0 ZM1 1 L72 1 L72 17 L1 17 L1 1 Z" fill-rule="evenodd" clip-path="url(#clipPath9)" stroke="none"/>
      </g>
    </g>
    <g visibility="hidden" id="tooltip.y.node.2" pointer-events="none">
      <g fill="rgb(255,255,225)" text-rendering="geometricPrecision" shape-rendering="geometricPrecision" font-family="'Segoe UI'" stroke="rgb(255,255,225)">
        <rect x="0" width="51" height="18" y="0" clip-path="url(#clipPath10)" stroke="none"/>
        <text fill="black" x="4" xml:space="preserve" y="14" clip-path="url(#clipPath10)" stroke="none">location</text>
      </g>
      <g font-family="'Segoe UI'" text-rendering="geometricPrecision" shape-rendering="geometricPrecision">
        <path d="M0 0 L51 0 L51 18 L0 18 L0 0 ZM1 1 L50 1 L50 17 L1 17 L1 1 Z" fill-rule="evenodd" clip-path="url(#clipPath10)" stroke="none"/>
      </g>
    </g>
    <g visibility="hidden" id="tooltip.y.node.3" pointer-events="none">
      <g fill="rgb(255,255,225)" text-rendering="geometricPrecision" shape-rendering="geometricPrecision" font-family="'Segoe UI'" stroke="rgb(255,255,225)">
        <rect x="0" width="8" height="18" y="0" clip-path="url(#clipPath11)" stroke="none"/>
      </g>
      <g font-family="'Segoe UI'" text-rendering="geometricPrecision" shape-rendering="geometricPrecision">
        <path d="M0 0 L8 0 L8 18 L0 18 L0 0 ZM1 1 L7 1 L7 17 L1 17 L1 1 Z" fill-rule="evenodd" clip-path="url(#clipPath11)" stroke="none"/>
      </g>
    </g>
    <g visibility="hidden" id="tooltip.y.node.4" pointer-events="none">
      <g fill="rgb(255,255,225)" text-rendering="geometricPrecision" shape-rendering="geometricPrecision" font-family="'Segoe UI'" stroke="rgb(255,255,225)">
        <rect x="0" width="73" height="18" y="0" clip-path="url(#clipPath9)" stroke="none"/>
        <text fill="black" x="4" xml:space="preserve" y="14" clip-path="url(#clipPath9)" stroke="none">Declarations</text>
      </g>
      <g font-family="'Segoe UI'" text-rendering="geometricPrecision" shape-rendering="geometricPrecision">
        <path d="M0 0 L73 0 L73 18 L0 18 L0 0 ZM1 1 L72 1 L72 17 L1 17 L1 1 Z" fill-rule="evenodd" clip-path="url(#clipPath9)" stroke="none"/>
      </g>
    </g>
  </g>
</svg>
