<?xml version="1.0" encoding="UTF-8"?><svg xmlns="http://www.w3.org/2000/svg" xmlns:xlink="http://www.w3.org/1999/xlink" fill-opacity="1" color-rendering="auto" color-interpolation="auto" text-rendering="auto" stroke="black" stroke-linecap="square" width="698" stroke-miterlimit="10" shape-rendering="auto" stroke-opacity="1" fill="black" stroke-dasharray="none" font-weight="normal" stroke-width="1" height="490" font-family="'Dialog'" font-style="normal" stroke-linejoin="miter" font-size="12px" stroke-dashoffset="0" image-rendering="auto">
  <!--Generated by ySVG 2.5-->
  <defs id="genericDefs"/>
  <g>
    <defs id="defs1">
      <clipPath clipPathUnits="userSpaceOnUse" id="clipPath1">
        <path d="M0 0 L698 0 L698 490 L0 490 L0 0 Z"/>
      </clipPath>
      <clipPath clipPathUnits="userSpaceOnUse" id="clipPath2">
        <path d="M-19 -15 L679 -15 L679 475 L-19 475 L-19 -15 Z"/>
      </clipPath>
      <clipPath clipPathUnits="userSpaceOnUse" id="clipPath3">
        <path d="M0 0 L664 0 L664 16 L0 16 L0 0 Z"/>
      </clipPath>
      <clipPath clipPathUnits="userSpaceOnUse" id="clipPath4">
        <path d="M0 0 L68 0 L68 64 L0 64 L0 0 Z"/>
      </clipPath>
      <clipPath clipPathUnits="userSpaceOnUse" id="clipPath5">
        <path d="M0 0 L50 0 L50 16 L0 16 L0 0 Z"/>
      </clipPath>
      <clipPath clipPathUnits="userSpaceOnUse" id="clipPath6">
        <path d="M0 0 L7 0 L7 16 L0 16 L0 0 Z"/>
      </clipPath>
      <clipPath clipPathUnits="userSpaceOnUse" id="clipPath7">
        <path d="M0 0 L9 0 L9 16 L0 16 L0 0 Z"/>
      </clipPath>
      <clipPath clipPathUnits="userSpaceOnUse" id="clipPath8">
        <path d="M0 0 L14 0 L14 16 L0 16 L0 0 Z"/>
      </clipPath>
      <clipPath clipPathUnits="userSpaceOnUse" id="clipPath9">
        <path d="M0 0 L16 0 L16 16 L0 16 L0 0 Z"/>
      </clipPath>
      <clipPath clipPathUnits="userSpaceOnUse" id="clipPath10">
        <path d="M0 0 L18 0 L18 16 L0 16 L0 0 Z"/>
      </clipPath>
      <clipPath clipPathUnits="userSpaceOnUse" id="clipPath11">
        <path d="M0 0 L24 0 L24 16 L0 16 L0 0 Z"/>
      </clipPath>
      <clipPath clipPathUnits="userSpaceOnUse" id="clipPath12">
        <path d="M0 0 L31 0 L31 16 L0 16 L0 0 Z"/>
      </clipPath>
      <clipPath clipPathUnits="userSpaceOnUse" id="clipPath13">
        <path d="M0 0 L26 0 L26 16 L0 16 L0 0 Z"/>
      </clipPath>
      <clipPath clipPathUnits="userSpaceOnUse" id="clipPath14">
        <path d="M0 0 L33 0 L33 16 L0 16 L0 0 Z"/>
      </clipPath>
      <clipPath clipPathUnits="userSpaceOnUse" id="clipPath15">
        <path d="M0 0 L0 18 L123 18 L123 0 Z"/>
      </clipPath>
      <clipPath clipPathUnits="userSpaceOnUse" id="clipPath16">
        <path d="M0 0 L0 18 L73 18 L73 0 Z"/>
      </clipPath>
      <clipPath clipPathUnits="userSpaceOnUse" id="clipPath17">
        <path d="M0 0 L0 18 L101 18 L101 0 Z"/>
      </clipPath>
      <clipPath clipPathUnits="userSpaceOnUse" id="clipPath18">
        <path d="M0 0 L0 18 L8 18 L8 0 Z"/>
      </clipPath>
      <clipPath clipPathUnits="userSpaceOnUse" id="clipPath19">
        <path d="M0 0 L0 18 L61 18 L61 0 Z"/>
      </clipPath>
      <clipPath clipPathUnits="userSpaceOnUse" id="clipPath20">
        <path d="M0 0 L0 18 L63 18 L63 0 Z"/>
      </clipPath>
      <clipPath clipPathUnits="userSpaceOnUse" id="clipPath21">
        <path d="M0 0 L0 18 L68 18 L68 0 Z"/>
      </clipPath>
      <clipPath clipPathUnits="userSpaceOnUse" id="clipPath22">
        <path d="M0 0 L0 18 L70 18 L70 0 Z"/>
      </clipPath>
      <clipPath clipPathUnits="userSpaceOnUse" id="clipPath23">
        <path d="M0 0 L0 18 L72 18 L72 0 Z"/>
      </clipPath>
      <script type="text/ecmascript">
        <![CDATA[      var SVGDocument = null;
      var SVGRoot = null;
      var TrueCoords = null;
      var lastElement = null;
      var initialized = null;
      var tipGroup;
      function Init(evt)
      {
         SVGDocument = evt.target.ownerDocument;
         SVGRoot = SVGDocument.documentElement;
         TrueCoords = SVGRoot.createSVGPoint();
         initialized = evt;
      };
      function GetTrueCoords(evt)
      {
         var newScale = SVGRoot.currentScale;
         var translation = SVGRoot.currentTranslate;
         TrueCoords.x = (evt.clientX - translation.x)/newScale;
         TrueCoords.y = (evt.clientY - translation.y)/newScale;
      };
      function HideTooltip( evt )
      {
         if(initialized == null) {
           Init(evt);
         }
         if(tipGroup != null) {
           tipGroup.setAttributeNS(null, 'visibility', 'hidden');
         }
      };
      function ShowTooltip( evt )
      {
         if(initialized == null) {
           Init(evt);
         }
         GetTrueCoords( evt );
         var tipScale = 1/SVGRoot.currentScale;
         var targetElement = evt.currentTarget;
         if ( lastElement != targetElement )
         {
            var targetId = targetElement.getAttributeNS(null, 'id');
            var tipId = 'tooltip.' + targetId;
            tipGroup = SVGDocument.getElementById(tipId);
            var xPos = TrueCoords.x + (10 * tipScale);
            var yPos = TrueCoords.y + (10 * tipScale);
            tipGroup.setAttributeNS(null, 'transform', 'translate(' + xPos + ',' + yPos + ') scale(' + tipScale + ')');
            tipGroup.setAttributeNS(null, 'visibility', 'visible');
         }
      };
]]>
      </script>
    </defs>
    <g fill="white" text-rendering="geometricPrecision" shape-rendering="geometricPrecision" transform="translate(19,15)" stroke="white">
      <rect x="-19" width="698" height="490" y="-15" clip-path="url(#clipPath2)" stroke="none"/>
    </g>
    <g onmouseout="HideTooltip(evt)" id="y.node.0" onmousemove="ShowTooltip(evt)">
      <g fill="rgb(238,238,238)" text-rendering="geometricPrecision" shape-rendering="geometricPrecision" transform="matrix(1,0,0,1,19,15)" stroke="rgb(238,238,238)">
        <rect x="-4" width="668" height="460" y="0" stroke="none"/>
      </g>
      <g>
        <g fill="red" text-rendering="geometricPrecision" shape-rendering="geometricPrecision" transform="matrix(1,0,0,1,19,15)" stroke="red">
          <rect x="-4" width="668" height="20" y="0" stroke="none"/>
        </g>
        <g text-rendering="geometricPrecision" stroke-miterlimit="1.45" shape-rendering="geometricPrecision" font-family="sans-serif" transform="matrix(1,0,0,1,19,15) translate(-2,2)" stroke-linecap="butt">
          <text x="0" xml:space="preserve" y="13" clip-path="url(#clipPath3)" stroke="none">     </text>
          <text fill="blue" x="15" xml:space="preserve" y="13" clip-path="url(#clipPath3)" stroke="none">automaton</text>
          <text x="74" xml:space="preserve" y="13" clip-path="url(#clipPath3)" stroke="none"> </text>
          <text x="77" xml:space="preserve" y="13" clip-path="url(#clipPath3)" stroke="none">buffer_bw</text>
        </g>
      </g>
      <g text-rendering="geometricPrecision" stroke-miterlimit="1.45" shape-rendering="geometricPrecision" transform="matrix(1,0,0,1,19,15)" stroke-linecap="butt">
        <rect fill="none" x="-4" width="668" height="460" y="0"/>
      </g>
    </g>
    <g onmouseout="HideTooltip(evt)" id="y.node.1" onmousemove="ShowTooltip(evt)">
      <g fill="rgb(235,235,184)" text-rendering="geometricPrecision" shape-rendering="geometricPrecision" transform="matrix(1,0,0,1,19,15)" stroke="rgb(235,235,184)">
        <rect x="12.5" width="95" height="98.375" y="340.8125" stroke="none"/>
      </g>
      <g>
        <g fill="rgb(238,238,128)" text-rendering="geometricPrecision" shape-rendering="geometricPrecision" transform="matrix(1,0,0,1,19,15)" stroke="rgb(238,238,128)">
          <rect x="12.5" width="95" height="18.7012" y="340.8125" stroke="none"/>
        </g>
        <g text-rendering="geometricPrecision" stroke-miterlimit="1.45" shape-rendering="geometricPrecision" font-family="sans-serif" transform="matrix(1,0,0,1,19,15)" stroke-linecap="butt">
          <text x="14.5" xml:space="preserve" y="354.877" stroke="none">     Declarations</text>
        </g>
      </g>
      <g>
        <g stroke-linecap="butt" transform="matrix(1,0,0,1,19,15) translate(26,361)" fill="blue" text-rendering="geometricPrecision" font-family="sans-serif" shape-rendering="geometricPrecision" stroke="blue" stroke-miterlimit="1.45">
          <text x="0" xml:space="preserve" y="13" clip-path="url(#clipPath4)" stroke="none">event</text>
          <text fill="black" x="29" xml:space="preserve" y="13" clip-path="url(#clipPath4)" stroke="none"> </text>
          <text fill="black" x="32" xml:space="preserve" y="13" clip-path="url(#clipPath4)" stroke="none">in_b</text>
          <text fill="rgb(64,32,32)" x="56" xml:space="preserve" y="13" clip-path="url(#clipPath4)" stroke="none">;</text>
          <text fill="black" x="59" xml:space="preserve" y="13" clip-path="url(#clipPath4)" stroke="none"> </text>
          <text x="0" xml:space="preserve" y="29" clip-path="url(#clipPath4)" stroke="none">event</text>
          <text fill="black" x="29" xml:space="preserve" y="29" clip-path="url(#clipPath4)" stroke="none"> </text>
          <text fill="black" x="32" xml:space="preserve" y="29" clip-path="url(#clipPath4)" stroke="none">in_w</text>
          <text fill="rgb(64,32,32)" x="58" xml:space="preserve" y="29" clip-path="url(#clipPath4)" stroke="none">;</text>
          <text fill="black" x="61" xml:space="preserve" y="29" clip-path="url(#clipPath4)" stroke="none"> </text>
          <text x="0" xml:space="preserve" y="45" clip-path="url(#clipPath4)" stroke="none">event</text>
          <text fill="black" x="29" xml:space="preserve" y="45" clip-path="url(#clipPath4)" stroke="none"> </text>
          <text fill="black" x="32" xml:space="preserve" y="45" clip-path="url(#clipPath4)" stroke="none">out_b</text>
          <text fill="rgb(64,32,32)" x="63" xml:space="preserve" y="45" clip-path="url(#clipPath4)" stroke="none">;</text>
          <text fill="black" x="66" xml:space="preserve" y="45" clip-path="url(#clipPath4)" stroke="none"> </text>
          <text x="0" xml:space="preserve" y="61" clip-path="url(#clipPath4)" stroke="none">event</text>
          <text fill="black" x="29" xml:space="preserve" y="61" clip-path="url(#clipPath4)" stroke="none"> </text>
          <text fill="black" x="32" xml:space="preserve" y="61" clip-path="url(#clipPath4)" stroke="none">out_w</text>
          <text fill="rgb(64,32,32)" x="65" xml:space="preserve" y="61" clip-path="url(#clipPath4)" stroke="none">;</text>
        </g>
      </g>
      <g text-rendering="geometricPrecision" stroke-miterlimit="1.45" shape-rendering="geometricPrecision" transform="matrix(1,0,0,1,19,15)" stroke-linecap="butt">
        <rect fill="none" x="12.5" width="95" height="98.375" y="340.8125"/>
      </g>
    </g>
    <g onmouseout="HideTooltip(evt)" id="y.node.2" onmousemove="ShowTooltip(evt)">
      <g fill="rgb(204,204,255)" text-rendering="geometricPrecision" shape-rendering="geometricPrecision" transform="matrix(1,0,0,1,19,15)" stroke="rgb(204,204,255)">
        <rect x="225" y="255" width="90" rx="4" ry="4" height="30" stroke="none"/>
      </g>
      <g>
        <g text-rendering="geometricPrecision" stroke-miterlimit="1.45" shape-rendering="geometricPrecision" font-family="sans-serif" transform="matrix(1,0,0,1,19,15) translate(245,262)" stroke-linecap="butt">
          <text x="0" xml:space="preserve" y="13" clip-path="url(#clipPath5)" stroke="none">is_empty</text>
        </g>
      </g>
      <g text-rendering="geometricPrecision" stroke-miterlimit="1.45" shape-rendering="geometricPrecision" transform="matrix(1,0,0,1,19,15)" stroke-linecap="butt">
        <rect x="225" y="255" fill="none" width="90" rx="4" ry="4" height="30"/>
      </g>
    </g>
    <g onmouseout="HideTooltip(evt)" id="y.node.3" onmousemove="ShowTooltip(evt)">
      <g/>
    </g>
    <g onmouseout="HideTooltip(evt)" id="y.node.4" onmousemove="ShowTooltip(evt)">
      <g fill="rgb(204,204,255)" text-rendering="geometricPrecision" shape-rendering="geometricPrecision" transform="matrix(1,0,0,1,19,15)" stroke="rgb(204,204,255)">
        <rect x="400" y="255" width="60" rx="4" ry="4" height="30" stroke="none"/>
      </g>
      <g>
        <g text-rendering="geometricPrecision" stroke-miterlimit="1.45" shape-rendering="geometricPrecision" font-family="sans-serif" transform="matrix(1,0,0,1,19,15) translate(426,262)" stroke-linecap="butt">
          <text x="0" xml:space="preserve" y="13" clip-path="url(#clipPath6)" stroke="none">b</text>
        </g>
      </g>
      <g text-rendering="geometricPrecision" stroke-miterlimit="1.45" shape-rendering="geometricPrecision" transform="matrix(1,0,0,1,19,15)" stroke-linecap="butt">
        <rect x="400" y="255" fill="none" width="60" rx="4" ry="4" height="30"/>
      </g>
    </g>
    <g onmouseout="HideTooltip(evt)" id="y.node.5" onmousemove="ShowTooltip(evt)">
      <g fill="rgb(204,204,255)" text-rendering="geometricPrecision" shape-rendering="geometricPrecision" transform="matrix(1,0,0,1,19,15)" stroke="rgb(204,204,255)">
        <rect x="240" y="135" width="60" rx="4" ry="4" height="30" stroke="none"/>
      </g>
      <g>
        <g text-rendering="geometricPrecision" stroke-miterlimit="1.45" shape-rendering="geometricPrecision" font-family="sans-serif" transform="matrix(1,0,0,1,19,15) translate(265,142)" stroke-linecap="butt">
          <text x="0" xml:space="preserve" y="13" clip-path="url(#clipPath7)" stroke="none">w</text>
        </g>
      </g>
      <g text-rendering="geometricPrecision" stroke-miterlimit="1.45" shape-rendering="geometricPrecision" transform="matrix(1,0,0,1,19,15)" stroke-linecap="butt">
        <rect x="240" y="135" fill="none" width="60" rx="4" ry="4" height="30"/>
      </g>
    </g>
    <g onmouseout="HideTooltip(evt)" id="y.node.6" onmousemove="ShowTooltip(evt)">
      <g fill="rgb(204,204,255)" text-rendering="geometricPrecision" shape-rendering="geometricPrecision" transform="matrix(1,0,0,1,19,15)" stroke="rgb(204,204,255)">
        <rect x="540" y="255" width="60" rx="4" ry="4" height="30" stroke="none"/>
      </g>
      <g>
        <g text-rendering="geometricPrecision" stroke-miterlimit="1.45" shape-rendering="geometricPrecision" font-family="sans-serif" transform="matrix(1,0,0,1,19,15) translate(563,262)" stroke-linecap="butt">
          <text x="0" xml:space="preserve" y="13" clip-path="url(#clipPath8)" stroke="none">bb</text>
        </g>
      </g>
      <g text-rendering="geometricPrecision" stroke-miterlimit="1.45" shape-rendering="geometricPrecision" transform="matrix(1,0,0,1,19,15)" stroke-linecap="butt">
        <rect x="540" y="255" fill="none" width="60" rx="4" ry="4" height="30"/>
      </g>
    </g>
    <g onmouseout="HideTooltip(evt)" id="y.node.7" onmousemove="ShowTooltip(evt)">
      <g fill="rgb(204,204,255)" text-rendering="geometricPrecision" shape-rendering="geometricPrecision" transform="matrix(1,0,0,1,19,15)" stroke="rgb(204,204,255)">
        <rect x="400" y="135" width="60" rx="4" ry="4" height="30" stroke="none"/>
      </g>
      <g>
        <g text-rendering="geometricPrecision" stroke-miterlimit="1.45" shape-rendering="geometricPrecision" font-family="sans-serif" transform="matrix(1,0,0,1,19,15) translate(422,142)" stroke-linecap="butt">
          <text x="0" xml:space="preserve" y="13" clip-path="url(#clipPath9)" stroke="none">bw</text>
        </g>
      </g>
      <g text-rendering="geometricPrecision" stroke-miterlimit="1.45" shape-rendering="geometricPrecision" transform="matrix(1,0,0,1,19,15)" stroke-linecap="butt">
        <rect x="400" y="135" fill="none" width="60" rx="4" ry="4" height="30"/>
      </g>
    </g>
    <g onmouseout="HideTooltip(evt)" id="y.node.8" onmousemove="ShowTooltip(evt)">
      <g fill="rgb(204,204,255)" text-rendering="geometricPrecision" shape-rendering="geometricPrecision" transform="matrix(1,0,0,1,19,15)" stroke="rgb(204,204,255)">
        <rect x="240" y="35" width="60" rx="4" ry="4" height="30" stroke="none"/>
      </g>
      <g>
        <g text-rendering="geometricPrecision" stroke-miterlimit="1.45" shape-rendering="geometricPrecision" font-family="sans-serif" transform="matrix(1,0,0,1,19,15) translate(262,42)" stroke-linecap="butt">
          <text x="0" xml:space="preserve" y="13" clip-path="url(#clipPath9)" stroke="none">wb</text>
        </g>
      </g>
      <g text-rendering="geometricPrecision" stroke-miterlimit="1.45" shape-rendering="geometricPrecision" transform="matrix(1,0,0,1,19,15)" stroke-linecap="butt">
        <rect x="240" y="35" fill="none" width="60" rx="4" ry="4" height="30"/>
      </g>
    </g>
    <g onmouseout="HideTooltip(evt)" id="y.node.9" onmousemove="ShowTooltip(evt)">
      <g fill="rgb(204,204,255)" text-rendering="geometricPrecision" shape-rendering="geometricPrecision" transform="matrix(1,0,0,1,19,15)" stroke="rgb(204,204,255)">
        <rect x="20" y="135" width="60" rx="4" ry="4" height="30" stroke="none"/>
      </g>
      <g>
        <g text-rendering="geometricPrecision" stroke-miterlimit="1.45" shape-rendering="geometricPrecision" font-family="sans-serif" transform="matrix(1,0,0,1,19,15) translate(41,142)" stroke-linecap="butt">
          <text x="0" xml:space="preserve" y="13" clip-path="url(#clipPath10)" stroke="none">ww</text>
        </g>
      </g>
      <g text-rendering="geometricPrecision" stroke-miterlimit="1.45" shape-rendering="geometricPrecision" transform="matrix(1,0,0,1,19,15)" stroke-linecap="butt">
        <rect x="20" y="135" fill="none" width="60" rx="4" ry="4" height="30"/>
      </g>
    </g>
    <g id="y.edge.0">
      <g text-rendering="geometricPrecision" stroke-miterlimit="1.45" shape-rendering="geometricPrecision" transform="matrix(1,0,0,1,19,15)" stroke-linecap="butt">
        <path fill="none" d="M270.5 314.48 L270.5 293"/>
        <path d="M270.5 285 L265.5 297 L270.5 294 L275.5 297 Z" stroke="none"/>
      </g>
    </g>
    <g id="y.edge.1">
      <g text-rendering="geometricPrecision" stroke-miterlimit="1.45" shape-rendering="geometricPrecision" transform="matrix(1,0,0,1,19,15)" stroke-linecap="butt">
        <path fill="none" d="M290.5 285 L290.5 302.1429 L291.125 306.5179 L293 309.6429 L296.125 311.5179 L300.5 312.1429 L411.5 312.1429 L415.875 311.5446 L419 309.75 L420.875 306.7589 L421.5 302.5714 L421.5 293"/>
        <path d="M421.5 285 L416.5 297 L421.5 294 L426.5 297 Z" stroke="none"/>
      </g>
      <g>
        <g stroke-linecap="butt" transform="matrix(1,0,0,1,19,15)" fill="rgb(238,238,238)" text-rendering="geometricPrecision" shape-rendering="geometricPrecision" stroke="rgb(238,238,238)" stroke-miterlimit="1.45">
          <rect x="291.5" width="28" height="20" y="290.1429" stroke="none"/>
        </g>
        <g text-rendering="geometricPrecision" stroke-miterlimit="1.45" shape-rendering="geometricPrecision" font-family="sans-serif" transform="matrix(1,0,0,1,19,15) translate(293,292)" stroke-linecap="butt">
          <text x="0" xml:space="preserve" y="13" clip-path="url(#clipPath11)" stroke="none">in_b</text>
        </g>
      </g>
    </g>
    <g id="y.edge.5">
      <g text-rendering="geometricPrecision" stroke-miterlimit="1.45" shape-rendering="geometricPrecision" transform="matrix(1,0,0,1,19,15)" stroke-linecap="butt">
        <path fill="none" d="M421.5 254.9554 L421.5 242.1429 L420.875 237.7679 L419 234.6429 L415.875 232.7679 L411.5 232.1429 L299.25 232.1429 L294.875 232.6057 L291.75 233.9944 L289.875 236.3089 L289.25 239.5491 L289.25 246.9554"/>
        <path d="M289.25 254.9554 L294.25 242.9554 L289.25 245.9554 L284.25 242.9554 Z" stroke="none"/>
      </g>
      <g>
        <g stroke-linecap="butt" transform="matrix(1,0,0,1,19,15)" fill="rgb(238,238,238)" text-rendering="geometricPrecision" shape-rendering="geometricPrecision" stroke="rgb(238,238,238)" stroke-miterlimit="1.45">
          <rect x="385.5" width="35" height="20" y="234.1429" stroke="none"/>
        </g>
        <g text-rendering="geometricPrecision" stroke-miterlimit="1.45" shape-rendering="geometricPrecision" font-family="sans-serif" transform="matrix(1,0,0,1,19,15) translate(387,236)" stroke-linecap="butt">
          <text x="0" xml:space="preserve" y="13" clip-path="url(#clipPath12)" stroke="none">out_b</text>
        </g>
      </g>
    </g>
    <g id="y.edge.2">
      <g text-rendering="geometricPrecision" stroke-miterlimit="1.45" shape-rendering="geometricPrecision" transform="matrix(1,0,0,1,19,15)" stroke-linecap="butt">
        <path fill="none" d="M277.75 254.9561 L277.75 173"/>
        <path d="M277.75 165 L272.75 177 L277.75 174 L282.75 177 Z" stroke="none"/>
      </g>
      <g>
        <g stroke-linecap="butt" transform="matrix(1,0,0,1,19,15)" fill="rgb(238,238,238)" text-rendering="geometricPrecision" shape-rendering="geometricPrecision" stroke="rgb(238,238,238)" stroke-miterlimit="1.45">
          <rect x="279.75" width="30" height="20" y="175.125" stroke="none"/>
        </g>
        <g text-rendering="geometricPrecision" stroke-miterlimit="1.45" shape-rendering="geometricPrecision" font-family="sans-serif" transform="matrix(1,0,0,1,19,15) translate(281,177)" stroke-linecap="butt">
          <text x="0" xml:space="preserve" y="13" clip-path="url(#clipPath13)" stroke="none">in_w</text>
        </g>
      </g>
    </g>
    <g id="y.edge.8">
      <g text-rendering="geometricPrecision" stroke-miterlimit="1.45" shape-rendering="geometricPrecision" transform="matrix(1,0,0,1,19,15)" stroke-linecap="butt">
        <path fill="none" d="M266.25 165 L266.25 246.9561"/>
        <path d="M266.25 254.9561 L271.25 242.9561 L266.25 245.9561 L261.25 242.9561 Z" stroke="none"/>
      </g>
      <g>
        <g stroke-linecap="butt" transform="matrix(1,0,0,1,19,15)" fill="rgb(238,238,238)" text-rendering="geometricPrecision" shape-rendering="geometricPrecision" stroke="rgb(238,238,238)" stroke-miterlimit="1.45">
          <rect x="227.25" width="37" height="20" y="200" stroke="none"/>
        </g>
        <g text-rendering="geometricPrecision" stroke-miterlimit="1.45" shape-rendering="geometricPrecision" font-family="sans-serif" transform="matrix(1,0,0,1,19,15) translate(229,202)" stroke-linecap="butt">
          <text x="0" xml:space="preserve" y="13" clip-path="url(#clipPath14)" stroke="none">out_w</text>
        </g>
      </g>
    </g>
    <g id="y.edge.3">
      <g text-rendering="geometricPrecision" stroke-miterlimit="1.45" shape-rendering="geometricPrecision" transform="matrix(1,0,0,1,19,15)" stroke-linecap="butt">
        <path fill="none" d="M438.5 285 L438.5 302.1429 L439.125 306.5179 L441 309.6429 L444.125 311.5179 L448.5 312.1429 L570 312.1429 L574.375 311.5446 L577.5 309.75 L579.375 306.7589 L580 302.5714 L580 293"/>
        <path d="M580 285 L575 297 L580 294 L585 297 Z" stroke="none"/>
      </g>
      <g>
        <g stroke-linecap="butt" transform="matrix(1,0,0,1,19,15)" fill="rgb(238,238,238)" text-rendering="geometricPrecision" shape-rendering="geometricPrecision" stroke="rgb(238,238,238)" stroke-miterlimit="1.45">
          <rect x="439.5" width="28" height="20" y="290.1429" stroke="none"/>
        </g>
        <g text-rendering="geometricPrecision" stroke-miterlimit="1.45" shape-rendering="geometricPrecision" font-family="sans-serif" transform="matrix(1,0,0,1,19,15) translate(441,292)" stroke-linecap="butt">
          <text x="0" xml:space="preserve" y="13" clip-path="url(#clipPath11)" stroke="none">in_b</text>
        </g>
      </g>
    </g>
    <g id="y.edge.9">
      <g text-rendering="geometricPrecision" stroke-miterlimit="1.45" shape-rendering="geometricPrecision" transform="matrix(1,0,0,1,19,15)" stroke-linecap="butt">
        <path fill="none" d="M580 254.9554 L580 242.1429 L579.375 237.7679 L577.5 234.6429 L574.375 232.7679 L570 232.1429 L448.5 232.1429 L444.125 232.6057 L441 233.9944 L439.125 236.3089 L438.5 239.5491 L438.5 246.9554"/>
        <path d="M438.5 254.9554 L443.5 242.9554 L438.5 245.9554 L433.5 242.9554 Z" stroke="none"/>
      </g>
      <g>
        <g stroke-linecap="butt" transform="matrix(1,0,0,1,19,15)" fill="rgb(238,238,238)" text-rendering="geometricPrecision" shape-rendering="geometricPrecision" stroke="rgb(238,238,238)" stroke-miterlimit="1.45">
          <rect x="544" width="35" height="20" y="234.1429" stroke="none"/>
        </g>
        <g text-rendering="geometricPrecision" stroke-miterlimit="1.45" shape-rendering="geometricPrecision" font-family="sans-serif" transform="matrix(1,0,0,1,19,15) translate(546,236)" stroke-linecap="butt">
          <text x="0" xml:space="preserve" y="13" clip-path="url(#clipPath12)" stroke="none">out_b</text>
        </g>
      </g>
    </g>
    <g id="y.edge.4">
      <g text-rendering="geometricPrecision" stroke-miterlimit="1.45" shape-rendering="geometricPrecision" transform="matrix(1,0,0,1,19,15)" stroke-linecap="butt">
        <path fill="none" d="M430 254.9561 L430 173"/>
        <path d="M430 165 L425 177 L430 174 L435 177 Z" stroke="none"/>
      </g>
      <g>
        <g stroke-linecap="butt" transform="matrix(1,0,0,1,19,15)" fill="rgb(238,238,238)" text-rendering="geometricPrecision" shape-rendering="geometricPrecision" stroke="rgb(238,238,238)" stroke-miterlimit="1.45">
          <rect x="432" width="30" height="20" y="200" stroke="none"/>
        </g>
        <g text-rendering="geometricPrecision" stroke-miterlimit="1.45" shape-rendering="geometricPrecision" font-family="sans-serif" transform="matrix(1,0,0,1,19,15) translate(434,202)" stroke-linecap="butt">
          <text x="0" xml:space="preserve" y="13" clip-path="url(#clipPath13)" stroke="none">in_w</text>
        </g>
      </g>
    </g>
    <g id="y.edge.10">
      <g text-rendering="geometricPrecision" stroke-miterlimit="1.45" shape-rendering="geometricPrecision" transform="matrix(1,0,0,1,19,15)" stroke-linecap="butt">
        <path fill="none" d="M430 134.9609 L430 124.9805 L429.375 120.614 L427.5 117.4951 L424.375 115.6238 L420 115 L289.5 115 L282 116.4951 L280.125 118.364 L279.5 120.9805 L279.5 126.9609"/>
        <path d="M279.5 134.9609 L284.5 122.9609 L279.5 125.9609 L274.5 122.9609 Z" stroke="none"/>
      </g>
      <g>
        <g stroke-linecap="butt" transform="matrix(1,0,0,1,19,15)" fill="rgb(238,238,238)" text-rendering="geometricPrecision" shape-rendering="geometricPrecision" stroke="rgb(238,238,238)" stroke-miterlimit="1.45">
          <rect x="432" width="35" height="20" y="110.4375" stroke="none"/>
        </g>
        <g text-rendering="geometricPrecision" stroke-miterlimit="1.45" shape-rendering="geometricPrecision" font-family="sans-serif" transform="matrix(1,0,0,1,19,15) translate(434,112)" stroke-linecap="butt">
          <text x="0" xml:space="preserve" y="13" clip-path="url(#clipPath12)" stroke="none">out_b</text>
        </g>
      </g>
    </g>
    <g id="y.edge.6">
      <g text-rendering="geometricPrecision" stroke-miterlimit="1.45" shape-rendering="geometricPrecision" transform="matrix(1,0,0,1,19,15)" stroke-linecap="butt">
        <path fill="none" d="M270 134.9658 L270 73"/>
        <path d="M270 65 L265 77 L270 74 L275 77 Z" stroke="none"/>
      </g>
      <g>
        <g stroke-linecap="butt" transform="matrix(1,0,0,1,19,15)" fill="rgb(238,238,238)" text-rendering="geometricPrecision" shape-rendering="geometricPrecision" stroke="rgb(238,238,238)" stroke-miterlimit="1.45">
          <rect x="240" width="28" height="20" y="75.125" stroke="none"/>
        </g>
        <g text-rendering="geometricPrecision" stroke-miterlimit="1.45" shape-rendering="geometricPrecision" font-family="sans-serif" transform="matrix(1,0,0,1,19,15) translate(242,77)" stroke-linecap="butt">
          <text x="0" xml:space="preserve" y="13" clip-path="url(#clipPath11)" stroke="none">in_b</text>
        </g>
      </g>
    </g>
    <g id="y.edge.11">
      <g text-rendering="geometricPrecision" stroke-miterlimit="1.45" shape-rendering="geometricPrecision" transform="matrix(1,0,0,1,19,15)" stroke-linecap="butt">
        <path fill="none" d="M296.0312 35 L650 35 L654.375 35.625 L657.5 37.5 L659.375 40.625 L660 45 L660 382.1429 L659.375 386.5179 L657.5 389.6429 L654.375 391.5179 L650 392.1429 L440 392.1429 L435.625 391.5179 L432.5 389.6429 L430.625 386.5179 L430 382.1429 L430 293"/>
        <path d="M430 285 L425 297 L430 294 L435 297 Z" stroke="none"/>
      </g>
      <g>
        <g stroke-linecap="butt" transform="matrix(1,0,0,1,19,15)" fill="rgb(238,238,238)" text-rendering="geometricPrecision" shape-rendering="geometricPrecision" stroke="rgb(238,238,238)" stroke-miterlimit="1.45">
          <rect x="431" width="37" height="20" y="370.1429" stroke="none"/>
        </g>
        <g text-rendering="geometricPrecision" stroke-miterlimit="1.45" shape-rendering="geometricPrecision" font-family="sans-serif" transform="matrix(1,0,0,1,19,15) translate(433,372)" stroke-linecap="butt">
          <text x="0" xml:space="preserve" y="13" clip-path="url(#clipPath14)" stroke="none">out_w</text>
        </g>
      </g>
    </g>
    <g id="y.edge.7">
      <g text-rendering="geometricPrecision" stroke-miterlimit="1.45" shape-rendering="geometricPrecision" transform="matrix(1,0,0,1,19,15)" stroke-linecap="butt">
        <path fill="none" d="M241.5862 164.2069 L240.7931 164.6035 L230 165 L90 165 L79.2069 164.6035 L78.4138 164.2069"/>
        <path d="M78.4138 164.2069 L86.911 174.0456 L86.4637 168.2318 L91.383 165.1013 Z" stroke="none"/>
      </g>
      <g>
        <g stroke-linecap="butt" transform="matrix(1,0,0,1,19,15)" fill="rgb(238,238,238)" text-rendering="geometricPrecision" shape-rendering="geometricPrecision" stroke="rgb(238,238,238)" stroke-miterlimit="1.45">
          <rect x="172.4375" width="30" height="20" y="167" stroke="none"/>
        </g>
        <g text-rendering="geometricPrecision" stroke-miterlimit="1.45" shape-rendering="geometricPrecision" font-family="sans-serif" transform="matrix(1,0,0,1,19,15) translate(174,169)" stroke-linecap="butt">
          <text x="0" xml:space="preserve" y="13" clip-path="url(#clipPath13)" stroke="none">in_w</text>
        </g>
      </g>
    </g>
    <g id="y.edge.12">
      <g text-rendering="geometricPrecision" stroke-miterlimit="1.45" shape-rendering="geometricPrecision" transform="matrix(1,0,0,1,19,15)" stroke-linecap="butt">
        <path fill="none" d="M50 134.9609 L50 124.9805 L50.625 120.614 L52.5 117.4951 L55.625 115.6238 L60 115 L250.5 115 L258 116.4951 L259.875 118.364 L260.5 120.9805 L260.5 126.9609"/>
        <path d="M260.5 134.9609 L265.5 122.9609 L260.5 125.9609 L255.5 122.9609 Z" stroke="none"/>
      </g>
      <g>
        <g stroke-linecap="butt" transform="matrix(1,0,0,1,19,15)" fill="rgb(238,238,238)" text-rendering="geometricPrecision" shape-rendering="geometricPrecision" stroke="rgb(238,238,238)" stroke-miterlimit="1.45">
          <rect x="11" width="37" height="20" y="110.4375" stroke="none"/>
        </g>
        <g text-rendering="geometricPrecision" stroke-miterlimit="1.45" shape-rendering="geometricPrecision" font-family="sans-serif" transform="matrix(1,0,0,1,19,15) translate(13,112)" stroke-linecap="butt">
          <text x="0" xml:space="preserve" y="13" clip-path="url(#clipPath14)" stroke="none">out_w</text>
        </g>
      </g>
    </g>
    <g visibility="hidden" id="tooltip.y.node.0" pointer-events="none">
      <g fill="rgb(255,255,225)" text-rendering="geometricPrecision" shape-rendering="geometricPrecision" font-family="'Segoe UI'" stroke="rgb(255,255,225)">
        <rect x="0" width="123" height="18" y="0" clip-path="url(#clipPath15)" stroke="none"/>
        <text fill="black" x="4" xml:space="preserve" y="14" clip-path="url(#clipPath15)" stroke="none">automaton buffer_bw</text>
      </g>
      <g font-family="'Segoe UI'" text-rendering="geometricPrecision" shape-rendering="geometricPrecision">
        <path d="M0 0 L123 0 L123 18 L0 18 L0 0 ZM1 1 L122 1 L122 17 L1 17 L1 1 Z" fill-rule="evenodd" clip-path="url(#clipPath15)" stroke="none"/>
      </g>
    </g>
    <g visibility="hidden" id="tooltip.y.node.1" pointer-events="none">
      <g fill="rgb(255,255,225)" text-rendering="geometricPrecision" shape-rendering="geometricPrecision" font-family="'Segoe UI'" stroke="rgb(255,255,225)">
        <rect x="0" width="73" height="18" y="0" clip-path="url(#clipPath16)" stroke="none"/>
        <text fill="black" x="4" xml:space="preserve" y="14" clip-path="url(#clipPath16)" stroke="none">Declarations</text>
      </g>
      <g font-family="'Segoe UI'" text-rendering="geometricPrecision" shape-rendering="geometricPrecision">
        <path d="M0 0 L73 0 L73 18 L0 18 L0 0 ZM1 1 L72 1 L72 17 L1 17 L1 1 Z" fill-rule="evenodd" clip-path="url(#clipPath16)" stroke="none"/>
      </g>
    </g>
    <g visibility="hidden" id="tooltip.y.node.2" pointer-events="none">
      <g fill="rgb(255,255,225)" text-rendering="geometricPrecision" shape-rendering="geometricPrecision" font-family="'Segoe UI'" stroke="rgb(255,255,225)">
        <rect x="0" width="101" height="18" y="0" clip-path="url(#clipPath17)" stroke="none"/>
        <text fill="black" x="4" xml:space="preserve" y="14" clip-path="url(#clipPath17)" stroke="none">location is_empty</text>
      </g>
      <g font-family="'Segoe UI'" text-rendering="geometricPrecision" shape-rendering="geometricPrecision">
        <path d="M0 0 L101 0 L101 18 L0 18 L0 0 ZM1 1 L100 1 L100 17 L1 17 L1 1 Z" fill-rule="evenodd" clip-path="url(#clipPath17)" stroke="none"/>
      </g>
    </g>
    <g visibility="hidden" id="tooltip.y.node.3" pointer-events="none">
      <g fill="rgb(255,255,225)" text-rendering="geometricPrecision" shape-rendering="geometricPrecision" font-family="'Segoe UI'" stroke="rgb(255,255,225)">
        <rect x="0" width="8" height="18" y="0" clip-path="url(#clipPath18)" stroke="none"/>
      </g>
      <g font-family="'Segoe UI'" text-rendering="geometricPrecision" shape-rendering="geometricPrecision">
        <path d="M0 0 L8 0 L8 18 L0 18 L0 0 ZM1 1 L7 1 L7 17 L1 17 L1 1 Z" fill-rule="evenodd" clip-path="url(#clipPath18)" stroke="none"/>
      </g>
    </g>
    <g visibility="hidden" id="tooltip.y.node.4" pointer-events="none">
      <g fill="rgb(255,255,225)" text-rendering="geometricPrecision" shape-rendering="geometricPrecision" font-family="'Segoe UI'" stroke="rgb(255,255,225)">
        <rect x="0" width="61" height="18" y="0" clip-path="url(#clipPath19)" stroke="none"/>
        <text fill="black" x="4" xml:space="preserve" y="14" clip-path="url(#clipPath19)" stroke="none">location b</text>
      </g>
      <g font-family="'Segoe UI'" text-rendering="geometricPrecision" shape-rendering="geometricPrecision">
        <path d="M0 0 L61 0 L61 18 L0 18 L0 0 ZM1 1 L60 1 L60 17 L1 17 L1 1 Z" fill-rule="evenodd" clip-path="url(#clipPath19)" stroke="none"/>
      </g>
    </g>
    <g visibility="hidden" id="tooltip.y.node.5" pointer-events="none">
      <g fill="rgb(255,255,225)" text-rendering="geometricPrecision" shape-rendering="geometricPrecision" font-family="'Segoe UI'" stroke="rgb(255,255,225)">
        <rect x="0" width="63" height="18" y="0" clip-path="url(#clipPath20)" stroke="none"/>
        <text fill="black" x="4" xml:space="preserve" y="14" clip-path="url(#clipPath20)" stroke="none">location w</text>
      </g>
      <g font-family="'Segoe UI'" text-rendering="geometricPrecision" shape-rendering="geometricPrecision">
        <path d="M0 0 L63 0 L63 18 L0 18 L0 0 ZM1 1 L62 1 L62 17 L1 17 L1 1 Z" fill-rule="evenodd" clip-path="url(#clipPath20)" stroke="none"/>
      </g>
    </g>
    <g visibility="hidden" id="tooltip.y.node.6" pointer-events="none">
      <g fill="rgb(255,255,225)" text-rendering="geometricPrecision" shape-rendering="geometricPrecision" font-family="'Segoe UI'" stroke="rgb(255,255,225)">
        <rect x="0" width="68" height="18" y="0" clip-path="url(#clipPath21)" stroke="none"/>
        <text fill="black" x="4" xml:space="preserve" y="14" clip-path="url(#clipPath21)" stroke="none">location bb</text>
      </g>
      <g font-family="'Segoe UI'" text-rendering="geometricPrecision" shape-rendering="geometricPrecision">
        <path d="M0 0 L68 0 L68 18 L0 18 L0 0 ZM1 1 L67 1 L67 17 L1 17 L1 1 Z" fill-rule="evenodd" clip-path="url(#clipPath21)" stroke="none"/>
      </g>
    </g>
    <g visibility="hidden" id="tooltip.y.node.7" pointer-events="none">
      <g fill="rgb(255,255,225)" text-rendering="geometricPrecision" shape-rendering="geometricPrecision" font-family="'Segoe UI'" stroke="rgb(255,255,225)">
        <rect x="0" width="70" height="18" y="0" clip-path="url(#clipPath22)" stroke="none"/>
        <text fill="black" x="4" xml:space="preserve" y="14" clip-path="url(#clipPath22)" stroke="none">location bw</text>
      </g>
      <g font-family="'Segoe UI'" text-rendering="geometricPrecision" shape-rendering="geometricPrecision">
        <path d="M0 0 L70 0 L70 18 L0 18 L0 0 ZM1 1 L69 1 L69 17 L1 17 L1 1 Z" fill-rule="evenodd" clip-path="url(#clipPath22)" stroke="none"/>
      </g>
    </g>
    <g visibility="hidden" id="tooltip.y.node.8" pointer-events="none">
      <g fill="rgb(255,255,225)" text-rendering="geometricPrecision" shape-rendering="geometricPrecision" font-family="'Segoe UI'" stroke="rgb(255,255,225)">
        <rect x="0" width="70" height="18" y="0" clip-path="url(#clipPath22)" stroke="none"/>
        <text fill="black" x="4" xml:space="preserve" y="14" clip-path="url(#clipPath22)" stroke="none">location wb</text>
      </g>
      <g font-family="'Segoe UI'" text-rendering="geometricPrecision" shape-rendering="geometricPrecision">
        <path d="M0 0 L70 0 L70 18 L0 18 L0 0 ZM1 1 L69 1 L69 17 L1 17 L1 1 Z" fill-rule="evenodd" clip-path="url(#clipPath22)" stroke="none"/>
      </g>
    </g>
    <g visibility="hidden" id="tooltip.y.node.9" pointer-events="none">
      <g fill="rgb(255,255,225)" text-rendering="geometricPrecision" shape-rendering="geometricPrecision" font-family="'Segoe UI'" stroke="rgb(255,255,225)">
        <rect x="0" width="72" height="18" y="0" clip-path="url(#clipPath23)" stroke="none"/>
        <text fill="black" x="4" xml:space="preserve" y="14" clip-path="url(#clipPath23)" stroke="none">location ww</text>
      </g>
      <g font-family="'Segoe UI'" text-rendering="geometricPrecision" shape-rendering="geometricPrecision">
        <path d="M0 0 L72 0 L72 18 L0 18 L0 0 ZM1 1 L71 1 L71 17 L1 17 L1 1 Z" fill-rule="evenodd" clip-path="url(#clipPath23)" stroke="none"/>
      </g>
    </g>
  </g>
</svg>
