<?xml version="1.0" encoding="UTF-8"?><svg xmlns="http://www.w3.org/2000/svg" xmlns:xlink="http://www.w3.org/1999/xlink" fill-opacity="1" color-rendering="auto" color-interpolation="auto" text-rendering="auto" stroke="black" stroke-linecap="square" width="564" stroke-miterlimit="10" shape-rendering="auto" stroke-opacity="1" fill="black" stroke-dasharray="none" font-weight="normal" stroke-width="1" height="463" font-family="'Dialog'" font-style="normal" stroke-linejoin="miter" font-size="12px" stroke-dashoffset="0" image-rendering="auto">
  <!--Generated by ySVG 2.5-->
  <defs id="genericDefs"/>
  <g>
    <defs id="defs1">
      <clipPath clipPathUnits="userSpaceOnUse" id="clipPath1">
        <path d="M0 0 L564 0 L564 463 L0 463 L0 0 Z"/>
      </clipPath>
      <clipPath clipPathUnits="userSpaceOnUse" id="clipPath2">
        <path d="M-20 -22 L544 -22 L544 441 L-20 441 L-20 -22 Z"/>
      </clipPath>
      <clipPath clipPathUnits="userSpaceOnUse" id="clipPath3">
        <path d="M0 0 L386 0 L386 16 L0 16 L0 0 Z"/>
      </clipPath>
      <clipPath clipPathUnits="userSpaceOnUse" id="clipPath4">
        <path d="M0 0 L76 0 L76 80 L0 80 L0 0 Z"/>
      </clipPath>
      <clipPath clipPathUnits="userSpaceOnUse" id="clipPath5">
        <path d="M0 0 L97 0 L97 48 L0 48 L0 0 Z"/>
      </clipPath>
      <clipPath clipPathUnits="userSpaceOnUse" id="clipPath6">
        <path d="M0 0 L167 0 L167 48 L0 48 L0 0 Z"/>
      </clipPath>
      <clipPath clipPathUnits="userSpaceOnUse" id="clipPath7">
        <path d="M0 0 L107 0 L107 16 L0 16 L0 0 Z"/>
      </clipPath>
      <clipPath clipPathUnits="userSpaceOnUse" id="clipPath8">
        <path d="M0 0 L0 18 L123 18 L123 0 Z"/>
      </clipPath>
      <clipPath clipPathUnits="userSpaceOnUse" id="clipPath9">
        <path d="M0 0 L0 18 L73 18 L73 0 Z"/>
      </clipPath>
      <clipPath clipPathUnits="userSpaceOnUse" id="clipPath10">
        <path d="M0 0 L0 18 L51 18 L51 0 Z"/>
      </clipPath>
      <clipPath clipPathUnits="userSpaceOnUse" id="clipPath11">
        <path d="M0 0 L0 18 L8 18 L8 0 Z"/>
      </clipPath>
      <script type="text/ecmascript">
        <![CDATA[      var SVGDocument = null;
      var SVGRoot = null;
      var TrueCoords = null;
      var lastElement = null;
      var initialized = null;
      var tipGroup;
      function Init(evt)
      {
         SVGDocument = evt.target.ownerDocument;
         SVGRoot = SVGDocument.documentElement;
         TrueCoords = SVGRoot.createSVGPoint();
         initialized = evt;
      };
      function GetTrueCoords(evt)
      {
         var newScale = SVGRoot.currentScale;
         var translation = SVGRoot.currentTranslate;
         TrueCoords.x = (evt.clientX - translation.x)/newScale;
         TrueCoords.y = (evt.clientY - translation.y)/newScale;
      };
      function HideTooltip( evt )
      {
         if(initialized == null) {
           Init(evt);
         }
         if(tipGroup != null) {
           tipGroup.setAttributeNS(null, 'visibility', 'hidden');
         }
      };
      function ShowTooltip( evt )
      {
         if(initialized == null) {
           Init(evt);
         }
         GetTrueCoords( evt );
         var tipScale = 1/SVGRoot.currentScale;
         var targetElement = evt.currentTarget;
         if ( lastElement != targetElement )
         {
            var targetId = targetElement.getAttributeNS(null, 'id');
            var tipId = 'tooltip.' + targetId;
            tipGroup = SVGDocument.getElementById(tipId);
            var xPos = TrueCoords.x + (10 * tipScale);
            var yPos = TrueCoords.y + (10 * tipScale);
            tipGroup.setAttributeNS(null, 'transform', 'translate(' + xPos + ',' + yPos + ') scale(' + tipScale + ')');
            tipGroup.setAttributeNS(null, 'visibility', 'visible');
         }
      };
]]>
      </script>
    </defs>
    <g fill="white" text-rendering="geometricPrecision" shape-rendering="geometricPrecision" transform="translate(20,22)" stroke="white">
      <rect x="-20" width="564" height="463" y="-22" clip-path="url(#clipPath2)" stroke="none"/>
    </g>
    <g onmouseout="HideTooltip(evt)" id="y.node.0" onmousemove="ShowTooltip(evt)">
      <g fill="rgb(238,238,238)" text-rendering="geometricPrecision" shape-rendering="geometricPrecision" transform="matrix(1,0,0,1,20,22)" stroke="rgb(238,238,238)">
        <rect x="-5" width="390" height="431" y="-5.5" stroke="none"/>
      </g>
      <g>
        <g fill="red" text-rendering="geometricPrecision" shape-rendering="geometricPrecision" transform="matrix(1,0,0,1,20,22)" stroke="red">
          <rect x="-5" width="390" height="20" y="-5.5" stroke="none"/>
        </g>
        <g text-rendering="geometricPrecision" stroke-miterlimit="1.45" shape-rendering="geometricPrecision" font-family="sans-serif" transform="matrix(1,0,0,1,20,22) translate(-3,-3)" stroke-linecap="butt">
          <text x="0" xml:space="preserve" y="13" clip-path="url(#clipPath3)" stroke="none">     </text>
          <text fill="blue" x="15" xml:space="preserve" y="13" clip-path="url(#clipPath3)" stroke="none">automaton</text>
          <text x="74" xml:space="preserve" y="13" clip-path="url(#clipPath3)" stroke="none"> </text>
          <text x="77" xml:space="preserve" y="13" clip-path="url(#clipPath3)" stroke="none">buffer_bw</text>
        </g>
      </g>
      <g text-rendering="geometricPrecision" stroke-miterlimit="1.45" shape-rendering="geometricPrecision" transform="matrix(1,0,0,1,20,22)" stroke-linecap="butt">
        <rect fill="none" x="-5" width="390" height="431" y="-5.5"/>
      </g>
    </g>
    <g onmouseout="HideTooltip(evt)" id="y.node.1" onmousemove="ShowTooltip(evt)">
      <g fill="rgb(235,235,184)" text-rendering="geometricPrecision" shape-rendering="geometricPrecision" transform="matrix(1,0,0,1,20,22)" stroke="rgb(235,235,184)">
        <rect x="272.5" width="95" height="114.4688" y="32.7656" stroke="none"/>
      </g>
      <g>
        <g fill="rgb(238,238,128)" text-rendering="geometricPrecision" shape-rendering="geometricPrecision" transform="matrix(1,0,0,1,20,22)" stroke="rgb(238,238,128)">
          <rect x="272.5" width="95" height="18.7012" y="32.7656" stroke="none"/>
        </g>
        <g text-rendering="geometricPrecision" stroke-miterlimit="1.45" shape-rendering="geometricPrecision" font-family="sans-serif" transform="matrix(1,0,0,1,20,22)" stroke-linecap="butt">
          <text x="274.5" xml:space="preserve" y="46.8301" stroke="none">     Declarations</text>
        </g>
      </g>
      <g>
        <g stroke-linecap="butt" transform="matrix(1,0,0,1,20,22) translate(282,53)" fill="blue" text-rendering="geometricPrecision" font-family="sans-serif" shape-rendering="geometricPrecision" stroke="blue" stroke-miterlimit="1.45">
          <text x="0" xml:space="preserve" y="13" clip-path="url(#clipPath4)" stroke="none">event</text>
          <text fill="black" x="29" xml:space="preserve" y="13" clip-path="url(#clipPath4)" stroke="none"> </text>
          <text fill="black" x="32" xml:space="preserve" y="13" clip-path="url(#clipPath4)" stroke="none">in_b</text>
          <text fill="rgb(64,32,32)" x="56" xml:space="preserve" y="13" clip-path="url(#clipPath4)" stroke="none">;</text>
          <text fill="black" x="59" xml:space="preserve" y="13" clip-path="url(#clipPath4)" stroke="none"> </text>
          <text x="0" xml:space="preserve" y="29" clip-path="url(#clipPath4)" stroke="none">event</text>
          <text fill="black" x="29" xml:space="preserve" y="29" clip-path="url(#clipPath4)" stroke="none"> </text>
          <text fill="black" x="32" xml:space="preserve" y="29" clip-path="url(#clipPath4)" stroke="none">in_w</text>
          <text fill="rgb(64,32,32)" x="58" xml:space="preserve" y="29" clip-path="url(#clipPath4)" stroke="none">;</text>
          <text fill="black" x="61" xml:space="preserve" y="29" clip-path="url(#clipPath4)" stroke="none"> </text>
          <text x="0" xml:space="preserve" y="45" clip-path="url(#clipPath4)" stroke="none">event</text>
          <text fill="black" x="29" xml:space="preserve" y="45" clip-path="url(#clipPath4)" stroke="none"> </text>
          <text fill="black" x="32" xml:space="preserve" y="45" clip-path="url(#clipPath4)" stroke="none">out_b</text>
          <text fill="rgb(64,32,32)" x="63" xml:space="preserve" y="45" clip-path="url(#clipPath4)" stroke="none">;</text>
          <text fill="black" x="66" xml:space="preserve" y="45" clip-path="url(#clipPath4)" stroke="none"> </text>
          <text x="0" xml:space="preserve" y="61" clip-path="url(#clipPath4)" stroke="none">event</text>
          <text fill="black" x="29" xml:space="preserve" y="61" clip-path="url(#clipPath4)" stroke="none"> </text>
          <text fill="black" x="32" xml:space="preserve" y="61" clip-path="url(#clipPath4)" stroke="none">out_w</text>
          <text fill="rgb(64,32,32)" x="65" xml:space="preserve" y="61" clip-path="url(#clipPath4)" stroke="none">;</text>
          <text fill="black" x="68" xml:space="preserve" y="61" clip-path="url(#clipPath4)" stroke="none"> </text>
          <text x="0" xml:space="preserve" y="77" clip-path="url(#clipPath4)" stroke="none">disc</text>
          <text fill="black" x="23" xml:space="preserve" y="77" clip-path="url(#clipPath4)" stroke="none"> </text>
          <text x="26" xml:space="preserve" y="77" clip-path="url(#clipPath4)" stroke="none">list</text>
          <text fill="black" x="42" xml:space="preserve" y="77" clip-path="url(#clipPath4)" stroke="none"> </text>
          <text x="45" xml:space="preserve" y="77" clip-path="url(#clipPath4)" stroke="none">int</text>
          <text fill="black" x="58" xml:space="preserve" y="77" clip-path="url(#clipPath4)" stroke="none"> </text>
          <text fill="black" x="61" xml:space="preserve" y="77" clip-path="url(#clipPath4)" stroke="none">xs</text>
          <text fill="rgb(64,32,32)" x="73" xml:space="preserve" y="77" clip-path="url(#clipPath4)" stroke="none">;</text>
        </g>
      </g>
      <g text-rendering="geometricPrecision" stroke-miterlimit="1.45" shape-rendering="geometricPrecision" transform="matrix(1,0,0,1,20,22)" stroke-linecap="butt">
        <rect fill="none" x="272.5" width="95" height="114.4688" y="32.7656"/>
      </g>
    </g>
    <g onmouseout="HideTooltip(evt)" id="y.node.2" onmousemove="ShowTooltip(evt)">
      <g fill="rgb(204,204,255)" text-rendering="geometricPrecision" shape-rendering="geometricPrecision" transform="matrix(1,0,0,1,20,22)" stroke="rgb(204,204,255)">
        <rect x="10" y="355" width="60" rx="4" ry="4" height="30" stroke="none"/>
      </g>
      <g/>
      <g text-rendering="geometricPrecision" stroke-miterlimit="1.45" shape-rendering="geometricPrecision" transform="matrix(1,0,0,1,20,22)" stroke-linecap="butt">
        <rect x="10" y="355" fill="none" width="60" rx="4" ry="4" height="30"/>
      </g>
    </g>
    <g onmouseout="HideTooltip(evt)" id="y.node.3" onmousemove="ShowTooltip(evt)"/>
    <g id="y.edge.1">
      <g text-rendering="geometricPrecision" stroke-miterlimit="1.45" shape-rendering="geometricPrecision" transform="matrix(1,0,0,1,20,22)" stroke-linecap="butt">
        <path fill="none" d="M55 354.9731 L55 310 L55.625 305.625 L57.5 302.5 L60.625 300.625 L65 300 L180 300 L184.375 300.625 L187.5 302.5 L189.375 305.625 L190 310 L190 350 L189.375 354.375 L187.5 357.5 L184.375 359.375 L180 360 L78 360"/>
        <path d="M70 360 L82 365 L79 360 L82 355 Z" stroke="none"/>
      </g>
      <g>
        <g stroke-linecap="butt" transform="matrix(1,0,0,1,20,22)" fill="rgb(238,238,238)" text-rendering="geometricPrecision" shape-rendering="geometricPrecision" stroke="rgb(238,238,238)" stroke-miterlimit="1.45">
          <rect x="56" width="101" height="52" y="302" stroke="none"/>
        </g>
        <g text-rendering="geometricPrecision" stroke-miterlimit="1.45" shape-rendering="geometricPrecision" font-family="sans-serif" transform="matrix(1,0,0,1,20,22) translate(58,304)" stroke-linecap="butt">
          <text x="0" xml:space="preserve" y="13" clip-path="url(#clipPath5)" stroke="none">in_b</text>
          <text x="24" xml:space="preserve" y="13" clip-path="url(#clipPath5)" stroke="none"> </text>
          <text fill="blue" x="0" xml:space="preserve" y="29" clip-path="url(#clipPath5)" stroke="none">when</text>
          <text x="30" xml:space="preserve" y="29" clip-path="url(#clipPath5)" stroke="none"> </text>
          <text fill="rgb(128,0,255)" x="33" xml:space="preserve" y="29" clip-path="url(#clipPath5)" stroke="none">size</text>
          <text fill="rgb(64,32,32)" x="55" xml:space="preserve" y="29" clip-path="url(#clipPath5)" stroke="none">(</text>
          <text x="59" xml:space="preserve" y="29" clip-path="url(#clipPath5)" stroke="none">xs</text>
          <text fill="rgb(64,32,32)" x="71" xml:space="preserve" y="29" clip-path="url(#clipPath5)" stroke="none">)</text>
          <text x="75" xml:space="preserve" y="29" clip-path="url(#clipPath5)" stroke="none"> </text>
          <text fill="rgb(64,32,32)" x="78" xml:space="preserve" y="29" clip-path="url(#clipPath5)" stroke="none">&lt;</text>
          <text x="85" xml:space="preserve" y="29" clip-path="url(#clipPath5)" stroke="none"> </text>
          <text x="88" xml:space="preserve" y="29" clip-path="url(#clipPath5)" stroke="none">N</text>
          <text x="97" xml:space="preserve" y="29" clip-path="url(#clipPath5)" stroke="none"> </text>
          <text fill="blue" x="0" xml:space="preserve" y="45" clip-path="url(#clipPath5)" stroke="none">do</text>
          <text x="14" xml:space="preserve" y="45" clip-path="url(#clipPath5)" stroke="none"> </text>
          <text x="17" xml:space="preserve" y="45" clip-path="url(#clipPath5)" stroke="none">xs</text>
          <text x="29" xml:space="preserve" y="45" clip-path="url(#clipPath5)" stroke="none"> </text>
          <text fill="rgb(64,32,32)" x="32" xml:space="preserve" y="45" clip-path="url(#clipPath5)" stroke="none">:=</text>
          <text x="42" xml:space="preserve" y="45" clip-path="url(#clipPath5)" stroke="none"> </text>
          <text x="45" xml:space="preserve" y="45" clip-path="url(#clipPath5)" stroke="none">xs</text>
          <text x="57" xml:space="preserve" y="45" clip-path="url(#clipPath5)" stroke="none"> </text>
          <text fill="rgb(64,32,32)" x="60" xml:space="preserve" y="45" clip-path="url(#clipPath5)" stroke="none">+</text>
          <text x="67" xml:space="preserve" y="45" clip-path="url(#clipPath5)" stroke="none"> </text>
          <text fill="rgb(64,32,32)" x="70" xml:space="preserve" y="45" clip-path="url(#clipPath5)" stroke="none">[</text>
          <text fill="rgb(0,97,0)" x="73" xml:space="preserve" y="45" clip-path="url(#clipPath5)" stroke="none">0</text>
          <text fill="rgb(64,32,32)" x="80" xml:space="preserve" y="45" clip-path="url(#clipPath5)" stroke="none">]</text>
        </g>
      </g>
    </g>
    <g id="y.edge.2">
      <g text-rendering="geometricPrecision" stroke-miterlimit="1.45" shape-rendering="geometricPrecision" transform="matrix(1,0,0,1,20,22)" stroke-linecap="butt">
        <path fill="none" d="M50 354.9695 L50 240 L50.625 235.625 L52.5 232.5 L55.625 230.625 L60 230 L190 230 L194.375 230.625 L197.5 232.5 L199.375 235.625 L200 240 L200 353.3333 L199.375 357.7083 L197.5 360.8333 L194.375 362.7083 L190 363.3333 L78 363.3333"/>
        <path d="M70 363.3333 L82 368.3333 L79 363.3333 L82 358.3333 Z" stroke="none"/>
      </g>
      <g>
        <g stroke-linecap="butt" transform="matrix(1,0,0,1,20,22)" fill="rgb(238,238,238)" text-rendering="geometricPrecision" shape-rendering="geometricPrecision" stroke="rgb(238,238,238)" stroke-miterlimit="1.45">
          <rect x="97" width="101" height="52" y="231" stroke="none"/>
        </g>
        <g text-rendering="geometricPrecision" stroke-miterlimit="1.45" shape-rendering="geometricPrecision" font-family="sans-serif" transform="matrix(1,0,0,1,20,22) translate(99,233)" stroke-linecap="butt">
          <text x="0" xml:space="preserve" y="13" clip-path="url(#clipPath5)" stroke="none">in_w</text>
          <text x="26" xml:space="preserve" y="13" clip-path="url(#clipPath5)" stroke="none"> </text>
          <text fill="blue" x="0" xml:space="preserve" y="29" clip-path="url(#clipPath5)" stroke="none">when</text>
          <text x="30" xml:space="preserve" y="29" clip-path="url(#clipPath5)" stroke="none"> </text>
          <text fill="rgb(128,0,255)" x="33" xml:space="preserve" y="29" clip-path="url(#clipPath5)" stroke="none">size</text>
          <text fill="rgb(64,32,32)" x="55" xml:space="preserve" y="29" clip-path="url(#clipPath5)" stroke="none">(</text>
          <text x="59" xml:space="preserve" y="29" clip-path="url(#clipPath5)" stroke="none">xs</text>
          <text fill="rgb(64,32,32)" x="71" xml:space="preserve" y="29" clip-path="url(#clipPath5)" stroke="none">)</text>
          <text x="75" xml:space="preserve" y="29" clip-path="url(#clipPath5)" stroke="none"> </text>
          <text fill="rgb(64,32,32)" x="78" xml:space="preserve" y="29" clip-path="url(#clipPath5)" stroke="none">&lt;</text>
          <text x="85" xml:space="preserve" y="29" clip-path="url(#clipPath5)" stroke="none"> </text>
          <text x="88" xml:space="preserve" y="29" clip-path="url(#clipPath5)" stroke="none">N</text>
          <text x="97" xml:space="preserve" y="29" clip-path="url(#clipPath5)" stroke="none"> </text>
          <text fill="blue" x="0" xml:space="preserve" y="45" clip-path="url(#clipPath5)" stroke="none">do</text>
          <text x="14" xml:space="preserve" y="45" clip-path="url(#clipPath5)" stroke="none"> </text>
          <text x="17" xml:space="preserve" y="45" clip-path="url(#clipPath5)" stroke="none">xs</text>
          <text x="29" xml:space="preserve" y="45" clip-path="url(#clipPath5)" stroke="none"> </text>
          <text fill="rgb(64,32,32)" x="32" xml:space="preserve" y="45" clip-path="url(#clipPath5)" stroke="none">:=</text>
          <text x="42" xml:space="preserve" y="45" clip-path="url(#clipPath5)" stroke="none"> </text>
          <text x="45" xml:space="preserve" y="45" clip-path="url(#clipPath5)" stroke="none">xs</text>
          <text x="57" xml:space="preserve" y="45" clip-path="url(#clipPath5)" stroke="none"> </text>
          <text fill="rgb(64,32,32)" x="60" xml:space="preserve" y="45" clip-path="url(#clipPath5)" stroke="none">+</text>
          <text x="67" xml:space="preserve" y="45" clip-path="url(#clipPath5)" stroke="none"> </text>
          <text fill="rgb(64,32,32)" x="70" xml:space="preserve" y="45" clip-path="url(#clipPath5)" stroke="none">[</text>
          <text fill="rgb(0,97,0)" x="73" xml:space="preserve" y="45" clip-path="url(#clipPath5)" stroke="none">1</text>
          <text fill="rgb(64,32,32)" x="80" xml:space="preserve" y="45" clip-path="url(#clipPath5)" stroke="none">]</text>
        </g>
      </g>
    </g>
    <g id="y.edge.3">
      <g text-rendering="geometricPrecision" stroke-miterlimit="1.45" shape-rendering="geometricPrecision" transform="matrix(1,0,0,1,20,22)" stroke-linecap="butt">
        <path fill="none" d="M45 354.9524 L45 170 L45.625 165.625 L47.5 162.5 L50.625 160.625 L55 160 L230 160 L234.375 160.625 L237.5 162.5 L239.375 165.625 L240 170 L240 356.6667 L239.375 361.0417 L237.5 364.1667 L234.375 366.0417 L230 366.6667 L78 366.6667"/>
        <path d="M70 366.6667 L82 371.6667 L79 366.6667 L82 361.6667 Z" stroke="none"/>
      </g>
      <g>
        <g stroke-linecap="butt" transform="matrix(1,0,0,1,20,22)" fill="rgb(238,238,238)" text-rendering="geometricPrecision" shape-rendering="geometricPrecision" stroke="rgb(238,238,238)" stroke-miterlimit="1.45">
          <rect x="46" width="171" height="52" y="162" stroke="none"/>
        </g>
        <g text-rendering="geometricPrecision" stroke-miterlimit="1.45" shape-rendering="geometricPrecision" font-family="sans-serif" transform="matrix(1,0,0,1,20,22) translate(48,164)" stroke-linecap="butt">
          <text x="0" xml:space="preserve" y="13" clip-path="url(#clipPath6)" stroke="none">out_b</text>
          <text x="31" xml:space="preserve" y="13" clip-path="url(#clipPath6)" stroke="none"> </text>
          <text fill="blue" x="0" xml:space="preserve" y="29" clip-path="url(#clipPath6)" stroke="none">when</text>
          <text x="30" xml:space="preserve" y="29" clip-path="url(#clipPath6)" stroke="none"> </text>
          <text fill="rgb(128,0,255)" x="33" xml:space="preserve" y="29" clip-path="url(#clipPath6)" stroke="none">size</text>
          <text fill="rgb(64,32,32)" x="55" xml:space="preserve" y="29" clip-path="url(#clipPath6)" stroke="none">(</text>
          <text x="59" xml:space="preserve" y="29" clip-path="url(#clipPath6)" stroke="none">xs</text>
          <text fill="rgb(64,32,32)" x="71" xml:space="preserve" y="29" clip-path="url(#clipPath6)" stroke="none">)</text>
          <text x="75" xml:space="preserve" y="29" clip-path="url(#clipPath6)" stroke="none"> </text>
          <text fill="rgb(64,32,32)" x="78" xml:space="preserve" y="29" clip-path="url(#clipPath6)" stroke="none">&gt;</text>
          <text x="85" xml:space="preserve" y="29" clip-path="url(#clipPath6)" stroke="none"> </text>
          <text fill="rgb(0,97,0)" x="88" xml:space="preserve" y="29" clip-path="url(#clipPath6)" stroke="none">0</text>
          <text x="95" xml:space="preserve" y="29" clip-path="url(#clipPath6)" stroke="none"> </text>
          <text fill="rgb(0,97,192)" x="98" xml:space="preserve" y="29" clip-path="url(#clipPath6)" stroke="none">and</text>
          <text x="119" xml:space="preserve" y="29" clip-path="url(#clipPath6)" stroke="none"> </text>
          <text x="122" xml:space="preserve" y="29" clip-path="url(#clipPath6)" stroke="none">xs</text>
          <text fill="rgb(64,32,32)" x="134" xml:space="preserve" y="29" clip-path="url(#clipPath6)" stroke="none">[</text>
          <text fill="rgb(0,97,0)" x="137" xml:space="preserve" y="29" clip-path="url(#clipPath6)" stroke="none">0</text>
          <text fill="rgb(64,32,32)" x="144" xml:space="preserve" y="29" clip-path="url(#clipPath6)" stroke="none">]</text>
          <text x="147" xml:space="preserve" y="29" clip-path="url(#clipPath6)" stroke="none"> </text>
          <text fill="rgb(64,32,32)" x="150" xml:space="preserve" y="29" clip-path="url(#clipPath6)" stroke="none">=</text>
          <text x="157" xml:space="preserve" y="29" clip-path="url(#clipPath6)" stroke="none"> </text>
          <text fill="rgb(0,97,0)" x="160" xml:space="preserve" y="29" clip-path="url(#clipPath6)" stroke="none">0</text>
          <text x="167" xml:space="preserve" y="29" clip-path="url(#clipPath6)" stroke="none"> </text>
          <text fill="blue" x="0" xml:space="preserve" y="45" clip-path="url(#clipPath6)" stroke="none">do</text>
          <text x="14" xml:space="preserve" y="45" clip-path="url(#clipPath6)" stroke="none"> </text>
          <text x="17" xml:space="preserve" y="45" clip-path="url(#clipPath6)" stroke="none">xs</text>
          <text x="29" xml:space="preserve" y="45" clip-path="url(#clipPath6)" stroke="none"> </text>
          <text fill="rgb(64,32,32)" x="32" xml:space="preserve" y="45" clip-path="url(#clipPath6)" stroke="none">:=</text>
          <text x="42" xml:space="preserve" y="45" clip-path="url(#clipPath6)" stroke="none"> </text>
          <text x="45" xml:space="preserve" y="45" clip-path="url(#clipPath6)" stroke="none">xs</text>
          <text fill="rgb(64,32,32)" x="57" xml:space="preserve" y="45" clip-path="url(#clipPath6)" stroke="none">[</text>
          <text fill="rgb(0,97,0)" x="60" xml:space="preserve" y="45" clip-path="url(#clipPath6)" stroke="none">1</text>
          <text fill="rgb(64,32,32)" x="67" xml:space="preserve" y="45" clip-path="url(#clipPath6)" stroke="none">:]</text>
        </g>
      </g>
    </g>
    <g id="y.edge.4">
      <g text-rendering="geometricPrecision" stroke-miterlimit="1.45" shape-rendering="geometricPrecision" transform="matrix(1,0,0,1,20,22)" stroke-linecap="butt">
        <path fill="none" d="M40 354.9677 L40 100 L40.625 95.625 L42.5 92.5 L45.625 90.625 L50 90 L240 90 L244.375 90.625 L247.5 92.5 L249.375 95.625 L250 100 L250 360 L249.375 364.375 L247.5 367.5 L244.375 369.375 L240 370 L78 370"/>
        <path d="M70 370 L82 375 L79 370 L82 365 Z" stroke="none"/>
      </g>
      <g>
        <g stroke-linecap="butt" transform="matrix(1,0,0,1,20,22)" fill="rgb(238,238,238)" text-rendering="geometricPrecision" shape-rendering="geometricPrecision" stroke="rgb(238,238,238)" stroke-miterlimit="1.45">
          <rect x="41" width="171" height="52" y="36" stroke="none"/>
        </g>
        <g text-rendering="geometricPrecision" stroke-miterlimit="1.45" shape-rendering="geometricPrecision" font-family="sans-serif" transform="matrix(1,0,0,1,20,22) translate(43,38)" stroke-linecap="butt">
          <text x="0" xml:space="preserve" y="13" clip-path="url(#clipPath6)" stroke="none">out_w</text>
          <text x="33" xml:space="preserve" y="13" clip-path="url(#clipPath6)" stroke="none"> </text>
          <text fill="blue" x="0" xml:space="preserve" y="29" clip-path="url(#clipPath6)" stroke="none">when</text>
          <text x="30" xml:space="preserve" y="29" clip-path="url(#clipPath6)" stroke="none"> </text>
          <text fill="rgb(128,0,255)" x="33" xml:space="preserve" y="29" clip-path="url(#clipPath6)" stroke="none">size</text>
          <text fill="rgb(64,32,32)" x="55" xml:space="preserve" y="29" clip-path="url(#clipPath6)" stroke="none">(</text>
          <text x="59" xml:space="preserve" y="29" clip-path="url(#clipPath6)" stroke="none">xs</text>
          <text fill="rgb(64,32,32)" x="71" xml:space="preserve" y="29" clip-path="url(#clipPath6)" stroke="none">)</text>
          <text x="75" xml:space="preserve" y="29" clip-path="url(#clipPath6)" stroke="none"> </text>
          <text fill="rgb(64,32,32)" x="78" xml:space="preserve" y="29" clip-path="url(#clipPath6)" stroke="none">&gt;</text>
          <text x="85" xml:space="preserve" y="29" clip-path="url(#clipPath6)" stroke="none"> </text>
          <text fill="rgb(0,97,0)" x="88" xml:space="preserve" y="29" clip-path="url(#clipPath6)" stroke="none">0</text>
          <text x="95" xml:space="preserve" y="29" clip-path="url(#clipPath6)" stroke="none"> </text>
          <text fill="rgb(0,97,192)" x="98" xml:space="preserve" y="29" clip-path="url(#clipPath6)" stroke="none">and</text>
          <text x="119" xml:space="preserve" y="29" clip-path="url(#clipPath6)" stroke="none"> </text>
          <text x="122" xml:space="preserve" y="29" clip-path="url(#clipPath6)" stroke="none">xs</text>
          <text fill="rgb(64,32,32)" x="134" xml:space="preserve" y="29" clip-path="url(#clipPath6)" stroke="none">[</text>
          <text fill="rgb(0,97,0)" x="137" xml:space="preserve" y="29" clip-path="url(#clipPath6)" stroke="none">0</text>
          <text fill="rgb(64,32,32)" x="144" xml:space="preserve" y="29" clip-path="url(#clipPath6)" stroke="none">]</text>
          <text x="147" xml:space="preserve" y="29" clip-path="url(#clipPath6)" stroke="none"> </text>
          <text fill="rgb(64,32,32)" x="150" xml:space="preserve" y="29" clip-path="url(#clipPath6)" stroke="none">=</text>
          <text x="157" xml:space="preserve" y="29" clip-path="url(#clipPath6)" stroke="none"> </text>
          <text fill="rgb(0,97,0)" x="160" xml:space="preserve" y="29" clip-path="url(#clipPath6)" stroke="none">1</text>
          <text x="167" xml:space="preserve" y="29" clip-path="url(#clipPath6)" stroke="none"> </text>
          <text fill="blue" x="0" xml:space="preserve" y="45" clip-path="url(#clipPath6)" stroke="none">do</text>
          <text x="14" xml:space="preserve" y="45" clip-path="url(#clipPath6)" stroke="none"> </text>
          <text x="17" xml:space="preserve" y="45" clip-path="url(#clipPath6)" stroke="none">xs</text>
          <text x="29" xml:space="preserve" y="45" clip-path="url(#clipPath6)" stroke="none"> </text>
          <text fill="rgb(64,32,32)" x="32" xml:space="preserve" y="45" clip-path="url(#clipPath6)" stroke="none">:=</text>
          <text x="42" xml:space="preserve" y="45" clip-path="url(#clipPath6)" stroke="none"> </text>
          <text x="45" xml:space="preserve" y="45" clip-path="url(#clipPath6)" stroke="none">xs</text>
          <text fill="rgb(64,32,32)" x="57" xml:space="preserve" y="45" clip-path="url(#clipPath6)" stroke="none">[</text>
          <text fill="rgb(0,97,0)" x="60" xml:space="preserve" y="45" clip-path="url(#clipPath6)" stroke="none">1</text>
          <text fill="rgb(64,32,32)" x="67" xml:space="preserve" y="45" clip-path="url(#clipPath6)" stroke="none">:]</text>
        </g>
      </g>
    </g>
    <g id="y.edge.0">
      <g text-rendering="geometricPrecision" stroke-miterlimit="1.45" shape-rendering="geometricPrecision" transform="matrix(1,0,0,1,20,22)" stroke-linecap="butt">
        <path fill="none" d="M40 404.4756 L40 393"/>
        <path d="M40 385 L35 397 L40 394 L45 397 Z" stroke="none"/>
      </g>
    </g>
    <g onmouseout="HideTooltip(evt)" id="y.node.4" onmousemove="ShowTooltip(evt)">
      <g fill="rgb(255,255,204)" text-rendering="geometricPrecision" shape-rendering="geometricPrecision" transform="matrix(1,0,0,1,20,22)" stroke="rgb(255,255,204)">
        <rect x="411.5" width="117" height="54" y="-7" stroke="none"/>
      </g>
      <g>
        <g fill="rgb(238,238,128)" text-rendering="geometricPrecision" shape-rendering="geometricPrecision" transform="matrix(1,0,0,1,20,22)" stroke="rgb(238,238,128)">
          <rect x="411.5" width="117" height="18.7012" y="-7" stroke="none"/>
        </g>
        <g text-rendering="geometricPrecision" stroke-miterlimit="1.45" shape-rendering="geometricPrecision" font-family="sans-serif" transform="matrix(1,0,0,1,20,22)" stroke-linecap="butt">
          <text x="413.5" xml:space="preserve" y="7.0645" stroke="none">     Declarations</text>
        </g>
      </g>
      <g>
        <g stroke-linecap="butt" transform="matrix(1,0,0,1,20,22) translate(416,14)" fill="blue" text-rendering="geometricPrecision" font-family="sans-serif" shape-rendering="geometricPrecision" stroke="blue" stroke-miterlimit="1.45">
          <text x="0" xml:space="preserve" y="13" clip-path="url(#clipPath7)" stroke="none">const</text>
          <text fill="black" x="30" xml:space="preserve" y="13" clip-path="url(#clipPath7)" stroke="none"> </text>
          <text x="33" xml:space="preserve" y="13" clip-path="url(#clipPath7)" stroke="none">int</text>
          <text fill="rgb(64,32,32)" x="46" xml:space="preserve" y="13" clip-path="url(#clipPath7)" stroke="none">[</text>
          <text fill="rgb(0,97,0)" x="49" xml:space="preserve" y="13" clip-path="url(#clipPath7)" stroke="none">5</text>
          <text fill="rgb(64,32,32)" x="56" xml:space="preserve" y="13" clip-path="url(#clipPath7)" stroke="none">..</text>
          <text fill="rgb(0,97,0)" x="62" xml:space="preserve" y="13" clip-path="url(#clipPath7)" stroke="none">5</text>
          <text fill="rgb(64,32,32)" x="69" xml:space="preserve" y="13" clip-path="url(#clipPath7)" stroke="none">]</text>
          <text fill="black" x="72" xml:space="preserve" y="13" clip-path="url(#clipPath7)" stroke="none"> </text>
          <text fill="black" x="75" xml:space="preserve" y="13" clip-path="url(#clipPath7)" stroke="none">N</text>
          <text fill="black" x="84" xml:space="preserve" y="13" clip-path="url(#clipPath7)" stroke="none"> </text>
          <text fill="rgb(64,32,32)" x="87" xml:space="preserve" y="13" clip-path="url(#clipPath7)" stroke="none">=</text>
          <text fill="black" x="94" xml:space="preserve" y="13" clip-path="url(#clipPath7)" stroke="none"> </text>
          <text fill="rgb(0,97,0)" x="97" xml:space="preserve" y="13" clip-path="url(#clipPath7)" stroke="none">5</text>
          <text fill="rgb(64,32,32)" x="104" xml:space="preserve" y="13" clip-path="url(#clipPath7)" stroke="none">;</text>
        </g>
      </g>
      <g text-rendering="geometricPrecision" stroke-miterlimit="1.45" shape-rendering="geometricPrecision" transform="matrix(1,0,0,1,20,22)" stroke-linecap="butt">
        <rect fill="none" x="411.5" width="117" height="54" y="-7"/>
      </g>
    </g>
    <g visibility="hidden" id="tooltip.y.node.0" pointer-events="none">
      <g fill="rgb(255,255,225)" text-rendering="geometricPrecision" shape-rendering="geometricPrecision" font-family="'Segoe UI'" stroke="rgb(255,255,225)">
        <rect x="0" width="123" height="18" y="0" clip-path="url(#clipPath8)" stroke="none"/>
        <text fill="black" x="4" xml:space="preserve" y="14" clip-path="url(#clipPath8)" stroke="none">automaton buffer_bw</text>
      </g>
      <g font-family="'Segoe UI'" text-rendering="geometricPrecision" shape-rendering="geometricPrecision">
        <path d="M0 0 L123 0 L123 18 L0 18 L0 0 ZM1 1 L122 1 L122 17 L1 17 L1 1 Z" fill-rule="evenodd" clip-path="url(#clipPath8)" stroke="none"/>
      </g>
    </g>
    <g visibility="hidden" id="tooltip.y.node.1" pointer-events="none">
      <g fill="rgb(255,255,225)" text-rendering="geometricPrecision" shape-rendering="geometricPrecision" font-family="'Segoe UI'" stroke="rgb(255,255,225)">
        <rect x="0" width="73" height="18" y="0" clip-path="url(#clipPath9)" stroke="none"/>
        <text fill="black" x="4" xml:space="preserve" y="14" clip-path="url(#clipPath9)" stroke="none">Declarations</text>
      </g>
      <g font-family="'Segoe UI'" text-rendering="geometricPrecision" shape-rendering="geometricPrecision">
        <path d="M0 0 L73 0 L73 18 L0 18 L0 0 ZM1 1 L72 1 L72 17 L1 17 L1 1 Z" fill-rule="evenodd" clip-path="url(#clipPath9)" stroke="none"/>
      </g>
    </g>
    <g visibility="hidden" id="tooltip.y.node.2" pointer-events="none">
      <g fill="rgb(255,255,225)" text-rendering="geometricPrecision" shape-rendering="geometricPrecision" font-family="'Segoe UI'" stroke="rgb(255,255,225)">
        <rect x="0" width="51" height="18" y="0" clip-path="url(#clipPath10)" stroke="none"/>
        <text fill="black" x="4" xml:space="preserve" y="14" clip-path="url(#clipPath10)" stroke="none">location</text>
      </g>
      <g font-family="'Segoe UI'" text-rendering="geometricPrecision" shape-rendering="geometricPrecision">
        <path d="M0 0 L51 0 L51 18 L0 18 L0 0 ZM1 1 L50 1 L50 17 L1 17 L1 1 Z" fill-rule="evenodd" clip-path="url(#clipPath10)" stroke="none"/>
      </g>
    </g>
    <g visibility="hidden" id="tooltip.y.node.3" pointer-events="none">
      <g fill="rgb(255,255,225)" text-rendering="geometricPrecision" shape-rendering="geometricPrecision" font-family="'Segoe UI'" stroke="rgb(255,255,225)">
        <rect x="0" width="8" height="18" y="0" clip-path="url(#clipPath11)" stroke="none"/>
      </g>
      <g font-family="'Segoe UI'" text-rendering="geometricPrecision" shape-rendering="geometricPrecision">
        <path d="M0 0 L8 0 L8 18 L0 18 L0 0 ZM1 1 L7 1 L7 17 L1 17 L1 1 Z" fill-rule="evenodd" clip-path="url(#clipPath11)" stroke="none"/>
      </g>
    </g>
    <g visibility="hidden" id="tooltip.y.node.4" pointer-events="none">
      <g fill="rgb(255,255,225)" text-rendering="geometricPrecision" shape-rendering="geometricPrecision" font-family="'Segoe UI'" stroke="rgb(255,255,225)">
        <rect x="0" width="73" height="18" y="0" clip-path="url(#clipPath9)" stroke="none"/>
        <text fill="black" x="4" xml:space="preserve" y="14" clip-path="url(#clipPath9)" stroke="none">Declarations</text>
      </g>
      <g font-family="'Segoe UI'" text-rendering="geometricPrecision" shape-rendering="geometricPrecision">
        <path d="M0 0 L73 0 L73 18 L0 18 L0 0 ZM1 1 L72 1 L72 17 L1 17 L1 1 Z" fill-rule="evenodd" clip-path="url(#clipPath9)" stroke="none"/>
      </g>
    </g>
  </g>
</svg>
