<?xml version="1.0" encoding="UTF-8"?><svg xmlns="http://www.w3.org/2000/svg" xmlns:xlink="http://www.w3.org/1999/xlink" fill-opacity="1" color-rendering="auto" color-interpolation="auto" text-rendering="auto" stroke="black" stroke-linecap="square" width="406" stroke-miterlimit="10" shape-rendering="auto" stroke-opacity="1" fill="black" stroke-dasharray="none" font-weight="normal" stroke-width="1" height="194" font-family="'Dialog'" font-style="normal" stroke-linejoin="miter" font-size="12px" stroke-dashoffset="0" image-rendering="auto">
  <!--Generated by ySVG 2.5-->
  <defs id="genericDefs"/>
  <g>
    <defs id="defs1">
      <clipPath clipPathUnits="userSpaceOnUse" id="clipPath1">
        <path d="M0 0 L406 0 L406 194 L0 194 L0 0 Z"/>
      </clipPath>
      <clipPath clipPathUnits="userSpaceOnUse" id="clipPath2">
        <path d="M15 113 L421 113 L421 307 L15 307 L15 113 Z"/>
      </clipPath>
    </defs>
    <g fill="white" text-rendering="geometricPrecision" shape-rendering="geometricPrecision" transform="translate(-15,-113)" stroke="white">
      <rect x="15" width="406" height="194" y="113" clip-path="url(#clipPath2)" stroke="none"/>
    </g>
    <g fill="rgb(255,204,0)" text-rendering="geometricPrecision" shape-rendering="geometricPrecision" transform="matrix(1,0,0,1,-15,-113)" stroke="rgb(255,204,0)">
      <ellipse rx="60" ry="21" clip-path="url(#clipPath2)" cx="330" cy="150" stroke="none"/>
    </g>
    <g text-rendering="geometricPrecision" stroke-miterlimit="1.45" shape-rendering="geometricPrecision" transform="matrix(1,0,0,1,-15,-113)" stroke-linecap="butt">
      <ellipse rx="60" fill="none" ry="21" clip-path="url(#clipPath2)" cx="330" cy="150"/>
      <text x="294.082" xml:space="preserve" y="154.5352" clip-path="url(#clipPath2)" font-family="sans-serif" stroke="none">Accelerating</text>
    </g>
    <g fill="rgb(255,204,0)" text-rendering="geometricPrecision" shape-rendering="geometricPrecision" transform="matrix(1,0,0,1,-15,-113)" stroke="rgb(255,204,0)">
      <ellipse rx="60" ry="21" clip-path="url(#clipPath2)" cx="330" cy="270" stroke="none"/>
    </g>
    <g text-rendering="geometricPrecision" stroke-miterlimit="1.45" shape-rendering="geometricPrecision" transform="matrix(1,0,0,1,-15,-113)" stroke-linecap="butt">
      <ellipse rx="60" fill="none" ry="21" clip-path="url(#clipPath2)" cx="330" cy="270"/>
      <text x="293.458" xml:space="preserve" y="274.5352" clip-path="url(#clipPath2)" font-family="sans-serif" stroke="none">Decelerating</text>
    </g>
    <g fill="rgb(255,204,0)" text-rendering="geometricPrecision" shape-rendering="geometricPrecision" transform="matrix(1,0,0,1,-15,-113)" stroke="rgb(255,204,0)">
      <ellipse rx="60" ry="21" clip-path="url(#clipPath2)" cx="90" cy="210" stroke="none"/>
    </g>
    <g text-rendering="geometricPrecision" stroke-miterlimit="1.45" shape-rendering="geometricPrecision" transform="matrix(1,0,0,1,-15,-113)" stroke-linecap="butt">
      <ellipse rx="60" fill="none" ry="21" clip-path="url(#clipPath2)" cx="90" cy="210"/>
      <text x="74.8682" xml:space="preserve" y="214.5352" clip-path="url(#clipPath2)" font-family="sans-serif" stroke="none">Drive</text>
      <path fill="none" d="M316 170.4199 L316 241.6269" clip-path="url(#clipPath2)"/>
      <path d="M316 249.6269 L321 237.6269 L316 240.6269 L311 237.6269 Z" clip-path="url(#clipPath2)" stroke="none"/>
      <text x="256.0322" xml:space="preserve" y="214.5352" clip-path="url(#clipPath2)" font-family="sans-serif" stroke="none">decelerate</text>
      <path fill="none" d="M344 249.5801 L344 178.3731" clip-path="url(#clipPath2)"/>
      <path d="M344 170.3731 L339 182.3731 L344 179.3731 L349 182.3731 Z" clip-path="url(#clipPath2)" stroke="none"/>
      <text x="344.7646" xml:space="preserve" y="214.5352" clip-path="url(#clipPath2)" font-family="sans-serif" stroke="none">accelerate</text>
      <path fill="none" d="M270 150 L90 150 L90 181" clip-path="url(#clipPath2)"/>
      <path d="M90 189 L95 177 L90 180 L85 177 Z" clip-path="url(#clipPath2)" stroke="none"/>
      <text x="117.1201" xml:space="preserve" y="142.5352" clip-path="url(#clipPath2)" font-family="sans-serif" stroke="none">hold</text>
      <path fill="none" d="M270 270 L90 270 L90 239" clip-path="url(#clipPath2)"/>
      <path d="M90 231 L85 243 L90 240 L95 243 Z" clip-path="url(#clipPath2)" stroke="none"/>
      <text x="122.1201" xml:space="preserve" y="286.5352" clip-path="url(#clipPath2)" font-family="sans-serif" stroke="none">hold</text>
      <path fill="none" d="M138.824 197.794 L210 180 L273.4149 164.1463" clip-path="url(#clipPath2)"/>
      <path d="M281.176 162.206 L268.3216 160.2657 L272.4447 164.3888 L270.7469 169.9671 Z" clip-path="url(#clipPath2)" stroke="none"/>
      <rect x="163.7646" y="174.6836" clip-path="url(#clipPath2)" fill="white" width="62.4707" height="18.1328" stroke="none"/>
      <text x="165.7646" xml:space="preserve" y="188.2852" clip-path="url(#clipPath2)" font-family="sans-serif" stroke="none">accelerate</text>
      <path fill="none" d="M138.824 222.206 L273.4149 255.8537" clip-path="url(#clipPath2)"/>
      <path d="M281.176 257.794 L270.747 250.0329 L272.4447 255.6112 L268.3216 259.7343 Z" clip-path="url(#clipPath2)" stroke="none"/>
      <rect x="165" y="224.1755" clip-path="url(#clipPath2)" fill="white" width="63.9355" height="18.1328" stroke="none"/>
      <text x="167" xml:space="preserve" y="237.7771" clip-path="url(#clipPath2)" font-family="sans-serif" stroke="none">decelerate</text>
    </g>
  </g>
</svg>
