<?xml version="1.0" encoding="UTF-8"?><svg xmlns="http://www.w3.org/2000/svg" xmlns:xlink="http://www.w3.org/1999/xlink" fill-opacity="1" color-rendering="auto" color-interpolation="auto" text-rendering="auto" stroke="black" stroke-linecap="square" width="538" stroke-miterlimit="10" shape-rendering="auto" stroke-opacity="1" fill="black" stroke-dasharray="none" font-weight="normal" stroke-width="1" height="486" font-family="'Dialog'" font-style="normal" stroke-linejoin="miter" font-size="12px" stroke-dashoffset="0" image-rendering="auto">
  <!--Generated by ySVG 2.5-->
  <defs id="genericDefs"/>
  <g>
    <defs id="defs1">
      <clipPath clipPathUnits="userSpaceOnUse" id="clipPath1">
        <path d="M0 0 L538 0 L538 486 L0 486 L0 0 Z"/>
      </clipPath>
      <clipPath clipPathUnits="userSpaceOnUse" id="clipPath2">
        <path d="M-21 -17 L517 -17 L517 469 L-21 469 L-21 -17 Z"/>
      </clipPath>
      <clipPath clipPathUnits="userSpaceOnUse" id="clipPath3">
        <path d="M0 0 L308 0 L308 16 L0 16 L0 0 Z"/>
      </clipPath>
      <clipPath clipPathUnits="userSpaceOnUse" id="clipPath4">
        <path d="M0 0 L96 0 L96 16 L0 16 L0 0 Z"/>
      </clipPath>
      <clipPath clipPathUnits="userSpaceOnUse" id="clipPath5">
        <path d="M0 0 L20 0 L20 16 L0 16 L0 0 Z"/>
      </clipPath>
      <clipPath clipPathUnits="userSpaceOnUse" id="clipPath6">
        <path d="M0 0 L63 0 L63 16 L0 16 L0 0 Z"/>
      </clipPath>
      <clipPath clipPathUnits="userSpaceOnUse" id="clipPath7">
        <path d="M0 0 L32 0 L32 16 L0 16 L0 0 Z"/>
      </clipPath>
      <clipPath clipPathUnits="userSpaceOnUse" id="clipPath8">
        <path d="M0 0 L24 0 L24 16 L0 16 L0 0 Z"/>
      </clipPath>
      <clipPath clipPathUnits="userSpaceOnUse" id="clipPath9">
        <path d="M0 0 L30 0 L30 16 L0 16 L0 0 Z"/>
      </clipPath>
      <clipPath clipPathUnits="userSpaceOnUse" id="clipPath10">
        <path d="M0 0 L61 0 L61 16 L0 16 L0 0 Z"/>
      </clipPath>
      <clipPath clipPathUnits="userSpaceOnUse" id="clipPath11">
        <path d="M0 0 L160 0 L160 16 L0 16 L0 0 Z"/>
      </clipPath>
      <clipPath clipPathUnits="userSpaceOnUse" id="clipPath12">
        <path d="M0 0 L34 0 L34 16 L0 16 L0 0 Z"/>
      </clipPath>
      <clipPath clipPathUnits="userSpaceOnUse" id="clipPath13">
        <path d="M0 0 L44 0 L44 16 L0 16 L0 0 Z"/>
      </clipPath>
      <clipPath clipPathUnits="userSpaceOnUse" id="clipPath14">
        <path d="M0 0 L47 0 L47 16 L0 16 L0 0 Z"/>
      </clipPath>
      <clipPath clipPathUnits="userSpaceOnUse" id="clipPath15">
        <path d="M0 0 L200 0 L200 32 L0 32 L0 0 Z"/>
      </clipPath>
      <clipPath clipPathUnits="userSpaceOnUse" id="clipPath16">
        <path d="M0 0 L90 0 L90 96 L0 96 L0 0 Z"/>
      </clipPath>
      <clipPath clipPathUnits="userSpaceOnUse" id="clipPath17">
        <path d="M0 0 L0 18 L299 18 L299 0 Z"/>
      </clipPath>
      <clipPath clipPathUnits="userSpaceOnUse" id="clipPath18">
        <path d="M0 0 L0 18 L73 18 L73 0 Z"/>
      </clipPath>
      <clipPath clipPathUnits="userSpaceOnUse" id="clipPath19">
        <path d="M0 0 L0 18 L8 18 L8 0 Z"/>
      </clipPath>
      <clipPath clipPathUnits="userSpaceOnUse" id="clipPath20">
        <path d="M0 0 L0 18 L111 18 L111 0 Z"/>
      </clipPath>
      <clipPath clipPathUnits="userSpaceOnUse" id="clipPath21">
        <path d="M0 0 L0 18 L85 18 L85 0 Z"/>
      </clipPath>
      <clipPath clipPathUnits="userSpaceOnUse" id="clipPath22">
        <path d="M0 0 L0 18 L77 18 L77 0 Z"/>
      </clipPath>
      <clipPath clipPathUnits="userSpaceOnUse" id="clipPath23">
        <path d="M0 0 L0 18 L88 18 L88 0 Z"/>
      </clipPath>
      <clipPath clipPathUnits="userSpaceOnUse" id="clipPath24">
        <path d="M0 0 L0 18 L79 18 L79 0 Z"/>
      </clipPath>
      <script type="text/ecmascript">
        <![CDATA[      var SVGDocument = null;
      var SVGRoot = null;
      var TrueCoords = null;
      var lastElement = null;
      var initialized = null;
      var tipGroup;
      function Init(evt)
      {
         SVGDocument = evt.target.ownerDocument;
         SVGRoot = SVGDocument.documentElement;
         TrueCoords = SVGRoot.createSVGPoint();
         initialized = evt;
      };
      function GetTrueCoords(evt)
      {
         var newScale = SVGRoot.currentScale;
         var translation = SVGRoot.currentTranslate;
         TrueCoords.x = (evt.clientX - translation.x)/newScale;
         TrueCoords.y = (evt.clientY - translation.y)/newScale;
      };
      function HideTooltip( evt )
      {
         if(initialized == null) {
           Init(evt);
         }
         if(tipGroup != null) {
           tipGroup.setAttributeNS(null, 'visibility', 'hidden');
         }
      };
      function ShowTooltip( evt )
      {
         if(initialized == null) {
           Init(evt);
         }
         GetTrueCoords( evt );
         var tipScale = 1/SVGRoot.currentScale;
         var targetElement = evt.currentTarget;
         if ( lastElement != targetElement )
         {
            var targetId = targetElement.getAttributeNS(null, 'id');
            var tipId = 'tooltip.' + targetId;
            tipGroup = SVGDocument.getElementById(tipId);
            var xPos = TrueCoords.x + (10 * tipScale);
            var yPos = TrueCoords.y + (10 * tipScale);
            tipGroup.setAttributeNS(null, 'transform', 'translate(' + xPos + ',' + yPos + ') scale(' + tipScale + ')');
            tipGroup.setAttributeNS(null, 'visibility', 'visible');
         }
      };
]]>
      </script>
    </defs>
    <g fill="white" text-rendering="geometricPrecision" shape-rendering="geometricPrecision" transform="translate(21,17)" stroke="white">
      <rect x="-21" width="538" height="486" y="-17" clip-path="url(#clipPath2)" stroke="none"/>
    </g>
    <g onmouseout="HideTooltip(evt)" id="y.node.0" onmousemove="ShowTooltip(evt)">
      <g fill="rgb(238,238,238)" text-rendering="geometricPrecision" shape-rendering="geometricPrecision" transform="matrix(1,0,0,1,21,17)" stroke="rgb(238,238,238)">
        <rect x="-5" width="310" height="364" y="-2" stroke="none"/>
      </g>
      <g>
        <g fill="rgb(64,192,255)" text-rendering="geometricPrecision" shape-rendering="geometricPrecision" transform="matrix(1,0,0,1,21,17)" stroke="rgb(64,192,255)">
          <rect x="-6" width="312" height="20" y="-2" stroke="none"/>
        </g>
        <g text-rendering="geometricPrecision" stroke-miterlimit="1.45" shape-rendering="geometricPrecision" font-family="sans-serif" transform="matrix(1,0,0,1,21,17) translate(-4,0)" stroke-linecap="butt">
          <text x="0" xml:space="preserve" y="13" clip-path="url(#clipPath3)" stroke="none">     </text>
          <text fill="blue" x="15" xml:space="preserve" y="13" clip-path="url(#clipPath3)" stroke="none">automaton</text>
          <text x="74" xml:space="preserve" y="13" clip-path="url(#clipPath3)" stroke="none"> </text>
          <text fill="blue" x="77" xml:space="preserve" y="13" clip-path="url(#clipPath3)" stroke="none">def</text>
          <text x="94" xml:space="preserve" y="13" clip-path="url(#clipPath3)" stroke="none"> </text>
          <text x="97" xml:space="preserve" y="13" clip-path="url(#clipPath3)" stroke="none">M</text>
          <text fill="rgb(64,32,32)" x="106" xml:space="preserve" y="13" clip-path="url(#clipPath3)" stroke="none">(</text>
          <text fill="blue" x="110" xml:space="preserve" y="13" clip-path="url(#clipPath3)" stroke="none">event</text>
          <text x="139" xml:space="preserve" y="13" clip-path="url(#clipPath3)" stroke="none"> </text>
          <text x="142" xml:space="preserve" y="13" clip-path="url(#clipPath3)" stroke="none">start</text>
          <text fill="rgb(64,32,32)" x="166" xml:space="preserve" y="13" clip-path="url(#clipPath3)" stroke="none">;</text>
          <text x="169" xml:space="preserve" y="13" clip-path="url(#clipPath3)" stroke="none"> </text>
          <text fill="blue" x="172" xml:space="preserve" y="13" clip-path="url(#clipPath3)" stroke="none">event</text>
          <text x="201" xml:space="preserve" y="13" clip-path="url(#clipPath3)" stroke="none"> </text>
          <text x="204" xml:space="preserve" y="13" clip-path="url(#clipPath3)" stroke="none">finish</text>
          <text fill="rgb(64,32,32)" x="234" xml:space="preserve" y="13" clip-path="url(#clipPath3)" stroke="none">;</text>
          <text x="237" xml:space="preserve" y="13" clip-path="url(#clipPath3)" stroke="none"> </text>
          <text fill="blue" x="240" xml:space="preserve" y="13" clip-path="url(#clipPath3)" stroke="none">event</text>
          <text x="269" xml:space="preserve" y="13" clip-path="url(#clipPath3)" stroke="none"> </text>
          <text x="272" xml:space="preserve" y="13" clip-path="url(#clipPath3)" stroke="none">repair</text>
          <text fill="rgb(64,32,32)" x="304" xml:space="preserve" y="13" clip-path="url(#clipPath3)" stroke="none">)</text>
        </g>
      </g>
      <g text-rendering="geometricPrecision" stroke-miterlimit="1.45" shape-rendering="geometricPrecision" transform="matrix(1,0,0,1,21,17)" stroke-linecap="butt">
        <rect fill="none" x="-5" width="310" height="364" y="-2"/>
      </g>
    </g>
    <g onmouseout="HideTooltip(evt)" id="y.node.1" onmousemove="ShowTooltip(evt)">
      <g fill="rgb(235,235,184)" text-rendering="geometricPrecision" shape-rendering="geometricPrecision" transform="matrix(1,0,0,1,21,17)" stroke="rgb(235,235,184)">
        <rect x="177" width="106" height="54" y="33" stroke="none"/>
      </g>
      <g>
        <g fill="rgb(238,238,128)" text-rendering="geometricPrecision" shape-rendering="geometricPrecision" transform="matrix(1,0,0,1,21,17)" stroke="rgb(238,238,128)">
          <rect x="177" width="106" height="18.7012" y="33" stroke="none"/>
        </g>
        <g text-rendering="geometricPrecision" stroke-miterlimit="1.45" shape-rendering="geometricPrecision" font-family="sans-serif" transform="matrix(1,0,0,1,21,17)" stroke-linecap="butt">
          <text x="179" xml:space="preserve" y="47.0645" stroke="none">     Declarations</text>
        </g>
      </g>
      <g>
        <g stroke-linecap="butt" transform="matrix(1,0,0,1,21,17) translate(182,54)" fill="blue" text-rendering="geometricPrecision" font-family="sans-serif" shape-rendering="geometricPrecision" stroke="blue" stroke-miterlimit="1.45">
          <text x="0" xml:space="preserve" y="13" clip-path="url(#clipPath4)" stroke="none">event</text>
          <text fill="black" x="29" xml:space="preserve" y="13" clip-path="url(#clipPath4)" stroke="none"> </text>
          <text fill="black" x="32" xml:space="preserve" y="13" clip-path="url(#clipPath4)" stroke="none">breakdown</text>
          <text fill="rgb(64,32,32)" x="93" xml:space="preserve" y="13" clip-path="url(#clipPath4)" stroke="none">;</text>
        </g>
      </g>
      <g text-rendering="geometricPrecision" stroke-miterlimit="1.45" shape-rendering="geometricPrecision" transform="matrix(1,0,0,1,21,17)" stroke-linecap="butt">
        <rect fill="none" x="177" width="106" height="54" y="33"/>
      </g>
    </g>
    <g onmouseout="HideTooltip(evt)" id="y.node.2" onmousemove="ShowTooltip(evt)">
      <g fill="rgb(204,204,255)" text-rendering="geometricPrecision" shape-rendering="geometricPrecision" transform="matrix(1,0,0,1,21,17)" stroke="rgb(204,204,255)">
        <rect x="70" y="275" width="60" rx="4" ry="4" height="30" stroke="none"/>
      </g>
      <g>
        <g text-rendering="geometricPrecision" stroke-miterlimit="1.45" shape-rendering="geometricPrecision" font-family="sans-serif" transform="matrix(1,0,0,1,21,17) translate(90,282)" stroke-linecap="butt">
          <text x="0" xml:space="preserve" y="13" clip-path="url(#clipPath5)" stroke="none">Idle</text>
        </g>
      </g>
      <g text-rendering="geometricPrecision" stroke-miterlimit="1.45" shape-rendering="geometricPrecision" transform="matrix(1,0,0,1,21,17)" stroke-linecap="butt">
        <rect x="70" y="275" fill="none" width="60" rx="4" ry="4" height="30"/>
      </g>
    </g>
    <g onmouseout="HideTooltip(evt)" id="y.node.3" onmousemove="ShowTooltip(evt)">
      <g/>
    </g>
    <g onmouseout="HideTooltip(evt)" id="y.node.4" onmousemove="ShowTooltip(evt)">
      <g fill="rgb(204,204,255)" text-rendering="geometricPrecision" shape-rendering="geometricPrecision" transform="matrix(1,0,0,1,21,17)" stroke="rgb(204,204,255)">
        <rect x="48.5" y="155" width="103" rx="4" ry="4" height="30" stroke="none"/>
      </g>
      <g>
        <g text-rendering="geometricPrecision" stroke-miterlimit="1.45" shape-rendering="geometricPrecision" font-family="sans-serif" transform="matrix(1,0,0,1,21,17) translate(68,162)" stroke-linecap="butt">
          <text x="0" xml:space="preserve" y="13" clip-path="url(#clipPath6)" stroke="none">Processing</text>
        </g>
      </g>
      <g text-rendering="geometricPrecision" stroke-miterlimit="1.45" shape-rendering="geometricPrecision" transform="matrix(1,0,0,1,21,17)" stroke-linecap="butt">
        <rect x="48.5" y="155" fill="none" width="103" rx="4" ry="4" height="30"/>
      </g>
    </g>
    <g onmouseout="HideTooltip(evt)" id="y.node.5" onmousemove="ShowTooltip(evt)">
      <g fill="rgb(204,204,255)" text-rendering="geometricPrecision" shape-rendering="geometricPrecision" transform="matrix(1,0,0,1,21,17)" stroke="rgb(204,204,255)">
        <rect x="64" y="35" width="72" rx="4" ry="4" height="30" stroke="none"/>
      </g>
      <g>
        <g text-rendering="geometricPrecision" stroke-miterlimit="1.45" shape-rendering="geometricPrecision" font-family="sans-serif" transform="matrix(1,0,0,1,21,17) translate(84,42)" stroke-linecap="butt">
          <text x="0" xml:space="preserve" y="13" clip-path="url(#clipPath7)" stroke="none">Down</text>
        </g>
      </g>
      <g text-rendering="geometricPrecision" stroke-miterlimit="1.45" shape-rendering="geometricPrecision" transform="matrix(1,0,0,1,21,17)" stroke-linecap="butt">
        <rect x="64" y="35" fill="none" width="72" rx="4" ry="4" height="30"/>
      </g>
    </g>
    <g id="y.edge.0">
      <g text-rendering="geometricPrecision" stroke-miterlimit="1.45" shape-rendering="geometricPrecision" transform="matrix(1,0,0,1,21,17)" stroke-linecap="butt">
        <path fill="none" d="M100 334.48 L100 313"/>
        <path d="M100 305 L95 317 L100 314 L105 317 Z" stroke="none"/>
      </g>
    </g>
    <g id="y.edge.1">
      <g text-rendering="geometricPrecision" stroke-miterlimit="1.45" shape-rendering="geometricPrecision" transform="matrix(1,0,0,1,21,17)" stroke-linecap="butt">
        <path fill="none" d="M95 274.9561 L95 193"/>
        <path d="M95 185 L90 197 L95 194 L100 197 Z" stroke="none"/>
      </g>
      <g>
        <g stroke-linecap="butt" transform="matrix(1,0,0,1,21,17)" fill="rgb(238,238,238)" text-rendering="geometricPrecision" shape-rendering="geometricPrecision" stroke="rgb(238,238,238)" stroke-miterlimit="1.45">
          <rect x="65" width="28" height="20" y="244.875" stroke="none"/>
        </g>
        <g text-rendering="geometricPrecision" stroke-miterlimit="1.45" shape-rendering="geometricPrecision" font-family="sans-serif" transform="matrix(1,0,0,1,21,17) translate(67,246)" stroke-linecap="butt">
          <text x="0" xml:space="preserve" y="13" clip-path="url(#clipPath8)" stroke="none">start</text>
        </g>
      </g>
    </g>
    <g id="y.edge.2">
      <g text-rendering="geometricPrecision" stroke-miterlimit="1.45" shape-rendering="geometricPrecision" transform="matrix(1,0,0,1,21,17)" stroke-linecap="butt">
        <path fill="none" d="M105 185 L105 266.9561"/>
        <path d="M105 274.9561 L110 262.9561 L105 265.9561 L100 262.9561 Z" stroke="none"/>
      </g>
      <g>
        <g stroke-linecap="butt" transform="matrix(1,0,0,1,21,17)" fill="rgb(238,238,238)" text-rendering="geometricPrecision" shape-rendering="geometricPrecision" stroke="rgb(238,238,238)" stroke-miterlimit="1.45">
          <rect x="107" width="34" height="20" y="195.125" stroke="none"/>
        </g>
        <g text-rendering="geometricPrecision" stroke-miterlimit="1.45" shape-rendering="geometricPrecision" font-family="sans-serif" transform="matrix(1,0,0,1,21,17) translate(109,197)" stroke-linecap="butt">
          <text x="0" xml:space="preserve" y="13" clip-path="url(#clipPath9)" stroke="none">finish</text>
        </g>
      </g>
    </g>
    <g id="y.edge.3">
      <g text-rendering="geometricPrecision" stroke-miterlimit="1.45" shape-rendering="geometricPrecision" transform="matrix(1,0,0,1,21,17)" stroke-linecap="butt">
        <path fill="none" d="M92 154.9561 L92 73"/>
        <path d="M92 65 L87 77 L92 74 L97 77 Z" stroke="none"/>
      </g>
      <g>
        <g stroke-linecap="butt" transform="matrix(1,0,0,1,21,17)" fill="rgb(238,238,238)" text-rendering="geometricPrecision" shape-rendering="geometricPrecision" stroke="rgb(238,238,238)" stroke-miterlimit="1.45">
          <rect x="25" width="65" height="20" y="124.875" stroke="none"/>
        </g>
        <g text-rendering="geometricPrecision" stroke-miterlimit="1.45" shape-rendering="geometricPrecision" font-family="sans-serif" transform="matrix(1,0,0,1,21,17) translate(27,126)" stroke-linecap="butt">
          <text x="0" xml:space="preserve" y="13" clip-path="url(#clipPath10)" stroke="none">breakdown</text>
        </g>
      </g>
    </g>
    <g id="y.edge.4">
      <g text-rendering="geometricPrecision" stroke-miterlimit="1.45" shape-rendering="geometricPrecision" transform="matrix(1,0,0,1,21,17)" stroke-linecap="butt">
        <path fill="none" d="M108 65 L108 146.9561"/>
        <path d="M108 154.9561 L113 142.9561 L108 145.9561 L103 142.9561 Z" stroke="none"/>
      </g>
      <g>
        <g stroke-linecap="butt" transform="matrix(1,0,0,1,21,17)" fill="rgb(238,238,238)" text-rendering="geometricPrecision" shape-rendering="geometricPrecision" stroke="rgb(238,238,238)" stroke-miterlimit="1.45">
          <rect x="110" width="36" height="20" y="75.125" stroke="none"/>
        </g>
        <g text-rendering="geometricPrecision" stroke-miterlimit="1.45" shape-rendering="geometricPrecision" font-family="sans-serif" transform="matrix(1,0,0,1,21,17) translate(112,77)" stroke-linecap="butt">
          <text x="0" xml:space="preserve" y="13" clip-path="url(#clipPath7)" stroke="none">repair</text>
        </g>
      </g>
    </g>
    <g onmouseout="HideTooltip(evt)" id="y.node.6" onmousemove="ShowTooltip(evt)">
      <g fill="rgb(238,238,238)" text-rendering="geometricPrecision" shape-rendering="geometricPrecision" transform="matrix(1,0,0,1,21,17)" stroke="rgb(238,238,238)">
        <rect x="338" width="164" height="240" y="0" stroke="none"/>
      </g>
      <g>
        <g fill="red" text-rendering="geometricPrecision" shape-rendering="geometricPrecision" transform="matrix(1,0,0,1,21,17)" stroke="red">
          <rect x="338" width="164" height="20" y="0" stroke="none"/>
        </g>
        <g text-rendering="geometricPrecision" stroke-miterlimit="1.45" shape-rendering="geometricPrecision" font-family="sans-serif" transform="matrix(1,0,0,1,21,17) translate(340,2)" stroke-linecap="butt">
          <text x="0" xml:space="preserve" y="13" clip-path="url(#clipPath11)" stroke="none">     </text>
          <text fill="blue" x="15" xml:space="preserve" y="13" clip-path="url(#clipPath11)" stroke="none">automaton</text>
          <text x="74" xml:space="preserve" y="13" clip-path="url(#clipPath11)" stroke="none"> </text>
          <text x="77" xml:space="preserve" y="13" clip-path="url(#clipPath11)" stroke="none">B</text>
        </g>
      </g>
      <g text-rendering="geometricPrecision" stroke-miterlimit="1.45" shape-rendering="geometricPrecision" transform="matrix(1,0,0,1,21,17)" stroke-linecap="butt">
        <rect fill="none" x="338" width="164" height="240" y="0"/>
      </g>
    </g>
    <g onmouseout="HideTooltip(evt)" id="y.node.7" onmousemove="ShowTooltip(evt)">
      <g fill="rgb(204,204,255)" text-rendering="geometricPrecision" shape-rendering="geometricPrecision" transform="matrix(1,0,0,1,21,17)" stroke="rgb(204,204,255)">
        <rect x="413" y="155" width="74" rx="4" ry="4" height="30" stroke="none"/>
      </g>
      <g>
        <g text-rendering="geometricPrecision" stroke-miterlimit="1.45" shape-rendering="geometricPrecision" font-family="sans-serif" transform="matrix(1,0,0,1,21,17) translate(433,162)" stroke-linecap="butt">
          <text x="0" xml:space="preserve" y="13" clip-path="url(#clipPath12)" stroke="none">Empty</text>
        </g>
      </g>
      <g text-rendering="geometricPrecision" stroke-miterlimit="1.45" shape-rendering="geometricPrecision" transform="matrix(1,0,0,1,21,17)" stroke-linecap="butt">
        <rect x="413" y="155" fill="none" width="74" rx="4" ry="4" height="30"/>
      </g>
    </g>
    <g onmouseout="HideTooltip(evt)" id="y.node.8" onmousemove="ShowTooltip(evt)">
      <g/>
    </g>
    <g onmouseout="HideTooltip(evt)" id="y.node.9" onmousemove="ShowTooltip(evt)">
      <g fill="rgb(204,204,255)" text-rendering="geometricPrecision" shape-rendering="geometricPrecision" transform="matrix(1,0,0,1,21,17)" stroke="rgb(204,204,255)">
        <rect x="420" y="35" width="60" rx="4" ry="4" height="30" stroke="none"/>
      </g>
      <g>
        <g text-rendering="geometricPrecision" stroke-miterlimit="1.45" shape-rendering="geometricPrecision" font-family="sans-serif" transform="matrix(1,0,0,1,21,17) translate(440,42)" stroke-linecap="butt">
          <text x="0" xml:space="preserve" y="13" clip-path="url(#clipPath5)" stroke="none">Full</text>
        </g>
      </g>
      <g text-rendering="geometricPrecision" stroke-miterlimit="1.45" shape-rendering="geometricPrecision" transform="matrix(1,0,0,1,21,17)" stroke-linecap="butt">
        <rect x="420" y="35" fill="none" width="60" rx="4" ry="4" height="30"/>
      </g>
    </g>
    <g id="y.edge.5">
      <g text-rendering="geometricPrecision" stroke-miterlimit="1.45" shape-rendering="geometricPrecision" transform="matrix(1,0,0,1,21,17)" stroke-linecap="butt">
        <path fill="none" d="M450 214.48 L450 193"/>
        <path d="M450 185 L445 197 L450 194 L455 197 Z" stroke="none"/>
      </g>
    </g>
    <g id="y.edge.6">
      <g text-rendering="geometricPrecision" stroke-miterlimit="1.45" shape-rendering="geometricPrecision" transform="matrix(1,0,0,1,21,17)" stroke-linecap="butt">
        <path fill="none" d="M445 154.9561 L445 73"/>
        <path d="M445 65 L440 77 L445 74 L450 77 Z" stroke="none"/>
      </g>
      <g>
        <g stroke-linecap="butt" transform="matrix(1,0,0,1,21,17)" fill="rgb(238,238,238)" text-rendering="geometricPrecision" shape-rendering="geometricPrecision" stroke="rgb(238,238,238)" stroke-miterlimit="1.45">
          <rect x="395" width="48" height="20" y="124.875" stroke="none"/>
        </g>
        <g text-rendering="geometricPrecision" stroke-miterlimit="1.45" shape-rendering="geometricPrecision" font-family="sans-serif" transform="matrix(1,0,0,1,21,17) translate(397,126)" stroke-linecap="butt">
          <text x="0" xml:space="preserve" y="13" clip-path="url(#clipPath13)" stroke="none">end_M1</text>
        </g>
      </g>
    </g>
    <g id="y.edge.7">
      <g text-rendering="geometricPrecision" stroke-miterlimit="1.45" shape-rendering="geometricPrecision" transform="matrix(1,0,0,1,21,17)" stroke-linecap="butt">
        <path fill="none" d="M455 65 L455 146.9561"/>
        <path d="M455 154.9561 L460 142.9561 L455 145.9561 L450 142.9561 Z" stroke="none"/>
      </g>
      <g>
        <g stroke-linecap="butt" transform="matrix(1,0,0,1,21,17)" fill="rgb(238,238,238)" text-rendering="geometricPrecision" shape-rendering="geometricPrecision" stroke="rgb(238,238,238)" stroke-miterlimit="1.45">
          <rect x="404" width="51" height="20" y="75.125" stroke="none"/>
        </g>
        <g text-rendering="geometricPrecision" stroke-miterlimit="1.45" shape-rendering="geometricPrecision" font-family="sans-serif" transform="matrix(1,0,0,1,21,17) translate(406,77)" stroke-linecap="butt">
          <text x="0" xml:space="preserve" y="13" clip-path="url(#clipPath14)" stroke="none">start_M2</text>
        </g>
      </g>
    </g>
    <g onmouseout="HideTooltip(evt)" id="y.node.10" onmousemove="ShowTooltip(evt)">
      <g fill="rgb(238,238,238)" text-rendering="geometricPrecision" shape-rendering="geometricPrecision" transform="matrix(1,0,0,1,21,17)" stroke="rgb(238,238,238)">
        <rect x="-5" width="210" height="66.1875" y="386.9062" stroke="none"/>
      </g>
      <g>
        <g fill="rgb(255,128,0)" text-rendering="geometricPrecision" shape-rendering="geometricPrecision" transform="matrix(1,0,0,1,21,17)" stroke="rgb(255,128,0)">
          <rect x="-5" width="210" height="18.7012" y="386.9062" stroke="none"/>
        </g>
        <g text-rendering="geometricPrecision" stroke-miterlimit="1.45" shape-rendering="geometricPrecision" font-family="sans-serif" transform="matrix(1,0,0,1,21,17)" stroke-linecap="butt">
          <text x="-3" xml:space="preserve" y="400.9707" stroke="none">     Instantiations</text>
        </g>
      </g>
      <g>
        <g text-rendering="geometricPrecision" stroke-miterlimit="1.45" shape-rendering="geometricPrecision" font-family="sans-serif" transform="matrix(1,0,0,1,21,17) translate(0,407)" stroke-linecap="butt">
          <text x="0" xml:space="preserve" y="13" clip-path="url(#clipPath15)" stroke="none">M1</text>
          <text fill="rgb(64,32,32)" x="16" xml:space="preserve" y="13" clip-path="url(#clipPath15)" stroke="none">:</text>
          <text x="19" xml:space="preserve" y="13" clip-path="url(#clipPath15)" stroke="none"> </text>
          <text x="22" xml:space="preserve" y="13" clip-path="url(#clipPath15)" stroke="none">M</text>
          <text fill="rgb(64,32,32)" x="31" xml:space="preserve" y="13" clip-path="url(#clipPath15)" stroke="none">(</text>
          <text x="35" xml:space="preserve" y="13" clip-path="url(#clipPath15)" stroke="none">start_M1</text>
          <text fill="rgb(64,32,32)" x="82" xml:space="preserve" y="13" clip-path="url(#clipPath15)" stroke="none">,</text>
          <text x="85" xml:space="preserve" y="13" clip-path="url(#clipPath15)" stroke="none"> </text>
          <text x="88" xml:space="preserve" y="13" clip-path="url(#clipPath15)" stroke="none">end_M1</text>
          <text fill="rgb(64,32,32)" x="132" xml:space="preserve" y="13" clip-path="url(#clipPath15)" stroke="none">,</text>
          <text x="135" xml:space="preserve" y="13" clip-path="url(#clipPath15)" stroke="none"> </text>
          <text x="138" xml:space="preserve" y="13" clip-path="url(#clipPath15)" stroke="none">repair_M1</text>
          <text fill="rgb(64,32,32)" x="193" xml:space="preserve" y="13" clip-path="url(#clipPath15)" stroke="none">);</text>
          <text x="200" xml:space="preserve" y="13" clip-path="url(#clipPath15)" stroke="none"> </text>
          <text x="0" xml:space="preserve" y="29" clip-path="url(#clipPath15)" stroke="none">M2</text>
          <text fill="rgb(64,32,32)" x="16" xml:space="preserve" y="29" clip-path="url(#clipPath15)" stroke="none">:</text>
          <text x="19" xml:space="preserve" y="29" clip-path="url(#clipPath15)" stroke="none"> </text>
          <text x="22" xml:space="preserve" y="29" clip-path="url(#clipPath15)" stroke="none">M</text>
          <text fill="rgb(64,32,32)" x="31" xml:space="preserve" y="29" clip-path="url(#clipPath15)" stroke="none">(</text>
          <text x="35" xml:space="preserve" y="29" clip-path="url(#clipPath15)" stroke="none">start_M2</text>
          <text fill="rgb(64,32,32)" x="82" xml:space="preserve" y="29" clip-path="url(#clipPath15)" stroke="none">,</text>
          <text x="85" xml:space="preserve" y="29" clip-path="url(#clipPath15)" stroke="none"> </text>
          <text x="88" xml:space="preserve" y="29" clip-path="url(#clipPath15)" stroke="none">end_M2</text>
          <text fill="rgb(64,32,32)" x="132" xml:space="preserve" y="29" clip-path="url(#clipPath15)" stroke="none">,</text>
          <text x="135" xml:space="preserve" y="29" clip-path="url(#clipPath15)" stroke="none"> </text>
          <text x="138" xml:space="preserve" y="29" clip-path="url(#clipPath15)" stroke="none">repair_M2</text>
          <text fill="rgb(64,32,32)" x="193" xml:space="preserve" y="29" clip-path="url(#clipPath15)" stroke="none">);</text>
        </g>
      </g>
      <g text-rendering="geometricPrecision" stroke-miterlimit="1.45" shape-rendering="geometricPrecision" transform="matrix(1,0,0,1,21,17)" stroke-linecap="butt">
        <rect fill="none" x="-5" width="210" height="66.1875" y="386.9062"/>
      </g>
    </g>
    <g onmouseout="HideTooltip(evt)" id="y.node.11" onmousemove="ShowTooltip(evt)">
      <g fill="rgb(255,255,204)" text-rendering="geometricPrecision" shape-rendering="geometricPrecision" transform="matrix(1,0,0,1,21,17)" stroke="rgb(255,255,204)">
        <rect x="338" width="100" height="130.5625" y="270" stroke="none"/>
      </g>
      <g>
        <g fill="rgb(238,238,128)" text-rendering="geometricPrecision" shape-rendering="geometricPrecision" transform="matrix(1,0,0,1,21,17)" stroke="rgb(238,238,128)">
          <rect x="338" width="100" height="18.7012" y="270" stroke="none"/>
        </g>
        <g text-rendering="geometricPrecision" stroke-miterlimit="1.45" shape-rendering="geometricPrecision" font-family="sans-serif" transform="matrix(1,0,0,1,21,17)" stroke-linecap="butt">
          <text x="340" xml:space="preserve" y="284.0645" stroke="none">     Declarations</text>
        </g>
      </g>
      <g>
        <g stroke-linecap="butt" transform="matrix(1,0,0,1,21,17) translate(343,291)" fill="blue" text-rendering="geometricPrecision" font-family="sans-serif" shape-rendering="geometricPrecision" stroke="blue" stroke-miterlimit="1.45">
          <text x="0" xml:space="preserve" y="13" clip-path="url(#clipPath16)" stroke="none">event</text>
          <text fill="black" x="29" xml:space="preserve" y="13" clip-path="url(#clipPath16)" stroke="none"> </text>
          <text fill="black" x="32" xml:space="preserve" y="13" clip-path="url(#clipPath16)" stroke="none">start_M1</text>
          <text fill="rgb(64,32,32)" x="79" xml:space="preserve" y="13" clip-path="url(#clipPath16)" stroke="none">;</text>
          <text fill="black" x="82" xml:space="preserve" y="13" clip-path="url(#clipPath16)" stroke="none"> </text>
          <text x="0" xml:space="preserve" y="29" clip-path="url(#clipPath16)" stroke="none">event</text>
          <text fill="black" x="29" xml:space="preserve" y="29" clip-path="url(#clipPath16)" stroke="none"> </text>
          <text fill="black" x="32" xml:space="preserve" y="29" clip-path="url(#clipPath16)" stroke="none">end_M1</text>
          <text fill="rgb(64,32,32)" x="76" xml:space="preserve" y="29" clip-path="url(#clipPath16)" stroke="none">;</text>
          <text fill="black" x="79" xml:space="preserve" y="29" clip-path="url(#clipPath16)" stroke="none"> </text>
          <text x="0" xml:space="preserve" y="45" clip-path="url(#clipPath16)" stroke="none">event</text>
          <text fill="black" x="29" xml:space="preserve" y="45" clip-path="url(#clipPath16)" stroke="none"> </text>
          <text fill="black" x="32" xml:space="preserve" y="45" clip-path="url(#clipPath16)" stroke="none">repair_M1</text>
          <text fill="rgb(64,32,32)" x="87" xml:space="preserve" y="45" clip-path="url(#clipPath16)" stroke="none">;</text>
          <text fill="black" x="90" xml:space="preserve" y="45" clip-path="url(#clipPath16)" stroke="none"> </text>
          <text x="0" xml:space="preserve" y="61" clip-path="url(#clipPath16)" stroke="none">event</text>
          <text fill="black" x="29" xml:space="preserve" y="61" clip-path="url(#clipPath16)" stroke="none"> </text>
          <text fill="black" x="32" xml:space="preserve" y="61" clip-path="url(#clipPath16)" stroke="none">start_M2</text>
          <text fill="rgb(64,32,32)" x="79" xml:space="preserve" y="61" clip-path="url(#clipPath16)" stroke="none">;</text>
          <text fill="black" x="82" xml:space="preserve" y="61" clip-path="url(#clipPath16)" stroke="none"> </text>
          <text x="0" xml:space="preserve" y="77" clip-path="url(#clipPath16)" stroke="none">event</text>
          <text fill="black" x="29" xml:space="preserve" y="77" clip-path="url(#clipPath16)" stroke="none"> </text>
          <text fill="black" x="32" xml:space="preserve" y="77" clip-path="url(#clipPath16)" stroke="none">end_M2</text>
          <text fill="rgb(64,32,32)" x="76" xml:space="preserve" y="77" clip-path="url(#clipPath16)" stroke="none">;</text>
          <text fill="black" x="79" xml:space="preserve" y="77" clip-path="url(#clipPath16)" stroke="none"> </text>
          <text x="0" xml:space="preserve" y="93" clip-path="url(#clipPath16)" stroke="none">event</text>
          <text fill="black" x="29" xml:space="preserve" y="93" clip-path="url(#clipPath16)" stroke="none"> </text>
          <text fill="black" x="32" xml:space="preserve" y="93" clip-path="url(#clipPath16)" stroke="none">repair_M2</text>
          <text fill="rgb(64,32,32)" x="87" xml:space="preserve" y="93" clip-path="url(#clipPath16)" stroke="none">;</text>
        </g>
      </g>
      <g text-rendering="geometricPrecision" stroke-miterlimit="1.45" shape-rendering="geometricPrecision" transform="matrix(1,0,0,1,21,17)" stroke-linecap="butt">
        <rect fill="none" x="338" width="100" height="130.5625" y="270"/>
      </g>
    </g>
    <g visibility="hidden" id="tooltip.y.node.0" pointer-events="none">
      <g fill="rgb(255,255,225)" text-rendering="geometricPrecision" shape-rendering="geometricPrecision" font-family="'Segoe UI'" stroke="rgb(255,255,225)">
        <rect x="0" width="299" height="18" y="0" clip-path="url(#clipPath17)" stroke="none"/>
        <text fill="black" x="4" xml:space="preserve" y="14" clip-path="url(#clipPath17)" stroke="none">automaton def M(event start; event finish; event repair)</text>
      </g>
      <g font-family="'Segoe UI'" text-rendering="geometricPrecision" shape-rendering="geometricPrecision">
        <path d="M0 0 L299 0 L299 18 L0 18 L0 0 ZM1 1 L298 1 L298 17 L1 17 L1 1 Z" fill-rule="evenodd" clip-path="url(#clipPath17)" stroke="none"/>
      </g>
    </g>
    <g visibility="hidden" id="tooltip.y.node.1" pointer-events="none">
      <g fill="rgb(255,255,225)" text-rendering="geometricPrecision" shape-rendering="geometricPrecision" font-family="'Segoe UI'" stroke="rgb(255,255,225)">
        <rect x="0" width="73" height="18" y="0" clip-path="url(#clipPath18)" stroke="none"/>
        <text fill="black" x="4" xml:space="preserve" y="14" clip-path="url(#clipPath18)" stroke="none">Declarations</text>
      </g>
      <g font-family="'Segoe UI'" text-rendering="geometricPrecision" shape-rendering="geometricPrecision">
        <path d="M0 0 L73 0 L73 18 L0 18 L0 0 ZM1 1 L72 1 L72 17 L1 17 L1 1 Z" fill-rule="evenodd" clip-path="url(#clipPath18)" stroke="none"/>
      </g>
    </g>
    <g visibility="hidden" id="tooltip.y.node.2" pointer-events="none">
      <g fill="rgb(255,255,225)" text-rendering="geometricPrecision" shape-rendering="geometricPrecision" font-family="'Segoe UI'" stroke="rgb(255,255,225)">
        <rect x="0" width="73" height="18" y="0" clip-path="url(#clipPath18)" stroke="none"/>
        <text fill="black" x="4" xml:space="preserve" y="14" clip-path="url(#clipPath18)" stroke="none">location Idle</text>
      </g>
      <g font-family="'Segoe UI'" text-rendering="geometricPrecision" shape-rendering="geometricPrecision">
        <path d="M0 0 L73 0 L73 18 L0 18 L0 0 ZM1 1 L72 1 L72 17 L1 17 L1 1 Z" fill-rule="evenodd" clip-path="url(#clipPath18)" stroke="none"/>
      </g>
    </g>
    <g visibility="hidden" id="tooltip.y.node.3" pointer-events="none">
      <g fill="rgb(255,255,225)" text-rendering="geometricPrecision" shape-rendering="geometricPrecision" font-family="'Segoe UI'" stroke="rgb(255,255,225)">
        <rect x="0" width="8" height="18" y="0" clip-path="url(#clipPath19)" stroke="none"/>
      </g>
      <g font-family="'Segoe UI'" text-rendering="geometricPrecision" shape-rendering="geometricPrecision">
        <path d="M0 0 L8 0 L8 18 L0 18 L0 0 ZM1 1 L7 1 L7 17 L1 17 L1 1 Z" fill-rule="evenodd" clip-path="url(#clipPath19)" stroke="none"/>
      </g>
    </g>
    <g visibility="hidden" id="tooltip.y.node.4" pointer-events="none">
      <g fill="rgb(255,255,225)" text-rendering="geometricPrecision" shape-rendering="geometricPrecision" font-family="'Segoe UI'" stroke="rgb(255,255,225)">
        <rect x="0" width="111" height="18" y="0" clip-path="url(#clipPath20)" stroke="none"/>
        <text fill="black" x="4" xml:space="preserve" y="14" clip-path="url(#clipPath20)" stroke="none">location Processing</text>
      </g>
      <g font-family="'Segoe UI'" text-rendering="geometricPrecision" shape-rendering="geometricPrecision">
        <path d="M0 0 L111 0 L111 18 L0 18 L0 0 ZM1 1 L110 1 L110 17 L1 17 L1 1 Z" fill-rule="evenodd" clip-path="url(#clipPath20)" stroke="none"/>
      </g>
    </g>
    <g visibility="hidden" id="tooltip.y.node.5" pointer-events="none">
      <g fill="rgb(255,255,225)" text-rendering="geometricPrecision" shape-rendering="geometricPrecision" font-family="'Segoe UI'" stroke="rgb(255,255,225)">
        <rect x="0" width="85" height="18" y="0" clip-path="url(#clipPath21)" stroke="none"/>
        <text fill="black" x="4" xml:space="preserve" y="14" clip-path="url(#clipPath21)" stroke="none">location Down</text>
      </g>
      <g font-family="'Segoe UI'" text-rendering="geometricPrecision" shape-rendering="geometricPrecision">
        <path d="M0 0 L85 0 L85 18 L0 18 L0 0 ZM1 1 L84 1 L84 17 L1 17 L1 1 Z" fill-rule="evenodd" clip-path="url(#clipPath21)" stroke="none"/>
      </g>
    </g>
    <g visibility="hidden" id="tooltip.y.node.6" pointer-events="none">
      <g fill="rgb(255,255,225)" text-rendering="geometricPrecision" shape-rendering="geometricPrecision" font-family="'Segoe UI'" stroke="rgb(255,255,225)">
        <rect x="0" width="77" height="18" y="0" clip-path="url(#clipPath22)" stroke="none"/>
        <text fill="black" x="4" xml:space="preserve" y="14" clip-path="url(#clipPath22)" stroke="none">automaton B</text>
      </g>
      <g font-family="'Segoe UI'" text-rendering="geometricPrecision" shape-rendering="geometricPrecision">
        <path d="M0 0 L77 0 L77 18 L0 18 L0 0 ZM1 1 L76 1 L76 17 L1 17 L1 1 Z" fill-rule="evenodd" clip-path="url(#clipPath22)" stroke="none"/>
      </g>
    </g>
    <g visibility="hidden" id="tooltip.y.node.7" pointer-events="none">
      <g fill="rgb(255,255,225)" text-rendering="geometricPrecision" shape-rendering="geometricPrecision" font-family="'Segoe UI'" stroke="rgb(255,255,225)">
        <rect x="0" width="88" height="18" y="0" clip-path="url(#clipPath23)" stroke="none"/>
        <text fill="black" x="4" xml:space="preserve" y="14" clip-path="url(#clipPath23)" stroke="none">location Empty</text>
      </g>
      <g font-family="'Segoe UI'" text-rendering="geometricPrecision" shape-rendering="geometricPrecision">
        <path d="M0 0 L88 0 L88 18 L0 18 L0 0 ZM1 1 L87 1 L87 17 L1 17 L1 1 Z" fill-rule="evenodd" clip-path="url(#clipPath23)" stroke="none"/>
      </g>
    </g>
    <g visibility="hidden" id="tooltip.y.node.8" pointer-events="none">
      <g fill="rgb(255,255,225)" text-rendering="geometricPrecision" shape-rendering="geometricPrecision" font-family="'Segoe UI'" stroke="rgb(255,255,225)">
        <rect x="0" width="8" height="18" y="0" clip-path="url(#clipPath19)" stroke="none"/>
      </g>
      <g font-family="'Segoe UI'" text-rendering="geometricPrecision" shape-rendering="geometricPrecision">
        <path d="M0 0 L8 0 L8 18 L0 18 L0 0 ZM1 1 L7 1 L7 17 L1 17 L1 1 Z" fill-rule="evenodd" clip-path="url(#clipPath19)" stroke="none"/>
      </g>
    </g>
    <g visibility="hidden" id="tooltip.y.node.9" pointer-events="none">
      <g fill="rgb(255,255,225)" text-rendering="geometricPrecision" shape-rendering="geometricPrecision" font-family="'Segoe UI'" stroke="rgb(255,255,225)">
        <rect x="0" width="73" height="18" y="0" clip-path="url(#clipPath18)" stroke="none"/>
        <text fill="black" x="4" xml:space="preserve" y="14" clip-path="url(#clipPath18)" stroke="none">location Full</text>
      </g>
      <g font-family="'Segoe UI'" text-rendering="geometricPrecision" shape-rendering="geometricPrecision">
        <path d="M0 0 L73 0 L73 18 L0 18 L0 0 ZM1 1 L72 1 L72 17 L1 17 L1 1 Z" fill-rule="evenodd" clip-path="url(#clipPath18)" stroke="none"/>
      </g>
    </g>
    <g visibility="hidden" id="tooltip.y.node.10" pointer-events="none">
      <g fill="rgb(255,255,225)" text-rendering="geometricPrecision" shape-rendering="geometricPrecision" font-family="'Segoe UI'" stroke="rgb(255,255,225)">
        <rect x="0" width="79" height="18" y="0" clip-path="url(#clipPath24)" stroke="none"/>
        <text fill="black" x="4" xml:space="preserve" y="14" clip-path="url(#clipPath24)" stroke="none">Instantiations</text>
      </g>
      <g font-family="'Segoe UI'" text-rendering="geometricPrecision" shape-rendering="geometricPrecision">
        <path d="M0 0 L79 0 L79 18 L0 18 L0 0 ZM1 1 L78 1 L78 17 L1 17 L1 1 Z" fill-rule="evenodd" clip-path="url(#clipPath24)" stroke="none"/>
      </g>
    </g>
    <g visibility="hidden" id="tooltip.y.node.11" pointer-events="none">
      <g fill="rgb(255,255,225)" text-rendering="geometricPrecision" shape-rendering="geometricPrecision" font-family="'Segoe UI'" stroke="rgb(255,255,225)">
        <rect x="0" width="73" height="18" y="0" clip-path="url(#clipPath18)" stroke="none"/>
        <text fill="black" x="4" xml:space="preserve" y="14" clip-path="url(#clipPath18)" stroke="none">Declarations</text>
      </g>
      <g font-family="'Segoe UI'" text-rendering="geometricPrecision" shape-rendering="geometricPrecision">
        <path d="M0 0 L73 0 L73 18 L0 18 L0 0 ZM1 1 L72 1 L72 17 L1 17 L1 1 Z" fill-rule="evenodd" clip-path="url(#clipPath18)" stroke="none"/>
      </g>
    </g>
  </g>
</svg>
