<?xml version="1.0" encoding="UTF-8"?><svg xmlns="http://www.w3.org/2000/svg" xmlns:xlink="http://www.w3.org/1999/xlink" fill-opacity="1" color-rendering="auto" color-interpolation="auto" text-rendering="auto" stroke="black" stroke-linecap="square" width="664" stroke-miterlimit="10" shape-rendering="auto" stroke-opacity="1" fill="black" stroke-dasharray="none" font-weight="normal" stroke-width="1" height="368" font-family="'Dialog'" font-style="normal" stroke-linejoin="miter" font-size="12px" stroke-dashoffset="0" image-rendering="auto">
  <!--Generated by ySVG 2.5-->
  <defs id="genericDefs"/>
  <g>
    <defs id="defs1">
      <clipPath clipPathUnits="userSpaceOnUse" id="clipPath1">
        <path d="M0 0 L664 0 L664 368 L0 368 L0 0 Z"/>
      </clipPath>
      <clipPath clipPathUnits="userSpaceOnUse" id="clipPath2">
        <path d="M7 -17 L671 -17 L671 351 L7 351 L7 -17 Z"/>
      </clipPath>
      <clipPath clipPathUnits="userSpaceOnUse" id="clipPath3">
        <path d="M0 0 L162 0 L162 15 L0 15 L0 0 Z"/>
      </clipPath>
      <clipPath clipPathUnits="userSpaceOnUse" id="clipPath4">
        <path d="M0 0 L8 0 L8 15 L0 15 L0 0 Z"/>
      </clipPath>
      <clipPath clipPathUnits="userSpaceOnUse" id="clipPath5">
        <path d="M0 0 L14 0 L14 15 L0 15 L0 0 Z"/>
      </clipPath>
      <clipPath clipPathUnits="userSpaceOnUse" id="clipPath6">
        <path d="M0 0 L7 0 L7 15 L0 15 L0 0 Z"/>
      </clipPath>
      <clipPath clipPathUnits="userSpaceOnUse" id="clipPath7">
        <path d="M0 0 L24 0 L24 15 L0 15 L0 0 Z"/>
      </clipPath>
      <clipPath clipPathUnits="userSpaceOnUse" id="clipPath8">
        <path d="M0 0 L20 0 L20 15 L0 15 L0 0 Z"/>
      </clipPath>
      <clipPath clipPathUnits="userSpaceOnUse" id="clipPath9">
        <path d="M0 0 L116 0 L116 15 L0 15 L0 0 Z"/>
      </clipPath>
      <clipPath clipPathUnits="userSpaceOnUse" id="clipPath10">
        <path d="M0 0 L3 0 L3 15 L0 15 L0 0 Z"/>
      </clipPath>
      <clipPath clipPathUnits="userSpaceOnUse" id="clipPath11">
        <path d="M0 0 L25 0 L25 15 L0 15 L0 0 Z"/>
      </clipPath>
      <clipPath clipPathUnits="userSpaceOnUse" id="clipPath12">
        <path d="M0 0 L48 0 L48 15 L0 15 L0 0 Z"/>
      </clipPath>
      <clipPath clipPathUnits="userSpaceOnUse" id="clipPath13">
        <path d="M0 0 L87 0 L87 60 L0 60 L0 0 Z"/>
      </clipPath>
      <clipPath clipPathUnits="userSpaceOnUse" id="clipPath14">
        <path d="M0 0 L0 18 L139 18 L139 0 Z"/>
      </clipPath>
      <clipPath clipPathUnits="userSpaceOnUse" id="clipPath15">
        <path d="M0 0 L0 18 L59 18 L59 0 Z"/>
      </clipPath>
      <clipPath clipPathUnits="userSpaceOnUse" id="clipPath16">
        <path d="M0 0 L0 19 L6 19 L6 0 Z"/>
      </clipPath>
      <clipPath clipPathUnits="userSpaceOnUse" id="clipPath17">
        <path d="M0 0 L0 18 L65 18 L65 0 Z"/>
      </clipPath>
      <clipPath clipPathUnits="userSpaceOnUse" id="clipPath18">
        <path d="M0 0 L0 18 L58 18 L58 0 Z"/>
      </clipPath>
      <clipPath clipPathUnits="userSpaceOnUse" id="clipPath19">
        <path d="M0 0 L0 18 L96 18 L96 0 Z"/>
      </clipPath>
      <clipPath clipPathUnits="userSpaceOnUse" id="clipPath20">
        <path d="M0 0 L0 18 L55 18 L55 0 Z"/>
      </clipPath>
      <clipPath clipPathUnits="userSpaceOnUse" id="clipPath21">
        <path d="M0 0 L0 18 L73 18 L73 0 Z"/>
      </clipPath>
      <script type="text/ecmascript">
        <![CDATA[      var SVGDocument = null;
      var SVGRoot = null;
      var TrueCoords = null;
      var lastElement = null;
      var initialized = null;
      var tipGroup;
      function Init(evt)
      {
         SVGDocument = evt.target.ownerDocument;
         SVGRoot = SVGDocument.documentElement;
         TrueCoords = SVGRoot.createSVGPoint();
         initialized = evt;
      };
      function GetTrueCoords(evt)
      {
         var newScale = SVGRoot.currentScale;
         var translation = SVGRoot.currentTranslate;
         TrueCoords.x = (evt.clientX - translation.x)/newScale;
         TrueCoords.y = (evt.clientY - translation.y)/newScale;
      };
      function HideTooltip( evt )
      {
         if(initialized == null) {
           Init(evt);
         }
         if(tipGroup != null) {
           tipGroup.setAttributeNS(null, 'visibility', 'hidden');
         }
      };
      function ShowTooltip( evt )
      {
         if(initialized == null) {
           Init(evt);
         }
         GetTrueCoords( evt );
         var tipScale = 1/SVGRoot.currentScale;
         var targetElement = evt.currentTarget;
         if ( lastElement != targetElement )
         {
            var targetId = targetElement.getAttributeNS(null, 'id');
            var tipId = 'tooltip.' + targetId;
            tipGroup = SVGDocument.getElementById(tipId);
            var xPos = TrueCoords.x + (10 * tipScale);
            var yPos = TrueCoords.y + (10 * tipScale);
            tipGroup.setAttributeNS(null, 'transform', 'translate(' + xPos + ',' + yPos + ') scale(' + tipScale + ')');
            tipGroup.setAttributeNS(null, 'visibility', 'visible');
         }
      };
]]>
      </script>
    </defs>
    <g fill="white" text-rendering="geometricPrecision" shape-rendering="geometricPrecision" transform="translate(-7,17)" stroke="white">
      <rect x="7" width="664" height="368" y="-17" clip-path="url(#clipPath2)" stroke="none"/>
    </g>
    <g onmouseout="HideTooltip(evt)" id="y.node.0" onmousemove="ShowTooltip(evt)">
      <g fill="rgb(238,238,238)" text-rendering="geometricPrecision" shape-rendering="geometricPrecision" transform="matrix(1,0,0,1,-7,17)" stroke="rgb(238,238,238)">
        <rect x="22.5" width="166" height="336" y="-1.5" stroke="none"/>
      </g>
      <g>
        <g fill="red" text-rendering="geometricPrecision" shape-rendering="geometricPrecision" transform="matrix(1,0,0,1,-7,17)" stroke="red">
          <rect x="22.5" width="166" height="19" y="-1.5" stroke="none"/>
        </g>
        <g text-rendering="geometricPrecision" stroke-miterlimit="1.45" shape-rendering="geometricPrecision" font-family="sans-serif" transform="matrix(1,0,0,1,-7,17) translate(24,0)" stroke-linecap="butt">
          <text x="0" xml:space="preserve" y="12" clip-path="url(#clipPath3)" stroke="none">     </text>
          <text fill="blue" x="20" xml:space="preserve" y="12" clip-path="url(#clipPath3)" stroke="none">automaton</text>
          <text x="81" xml:space="preserve" y="12" clip-path="url(#clipPath3)" stroke="none"> </text>
          <text x="85" xml:space="preserve" y="12" clip-path="url(#clipPath3)" stroke="none">philosopher1</text>
        </g>
      </g>
      <g text-rendering="geometricPrecision" stroke-miterlimit="1.45" shape-rendering="geometricPrecision" transform="matrix(1,0,0,1,-7,17)" stroke-linecap="butt">
        <rect fill="none" x="22.5" width="166" height="336" y="-1.5"/>
      </g>
    </g>
    <g onmouseout="HideTooltip(evt)" id="y.node.1" onmousemove="ShowTooltip(evt)">
      <g fill="rgb(204,204,255)" text-rendering="geometricPrecision" shape-rendering="geometricPrecision" transform="matrix(1,0,0,1,-7,17)" stroke="rgb(204,204,255)">
        <rect x="59.7222" y="79.5" width="60" rx="4" ry="4" height="30" stroke="none"/>
      </g>
      <g>
        <g text-rendering="geometricPrecision" stroke-miterlimit="1.45" shape-rendering="geometricPrecision" font-family="sans-serif" transform="matrix(1,0,0,1,-7,17) translate(85,87)" stroke-linecap="butt">
          <text x="0" xml:space="preserve" y="12" clip-path="url(#clipPath4)" stroke="none">T</text>
        </g>
      </g>
      <g text-rendering="geometricPrecision" stroke-miterlimit="1.45" shape-rendering="geometricPrecision" transform="matrix(1,0,0,1,-7,17)" stroke-linecap="butt">
        <rect x="59.7222" y="79.5" fill="none" width="60" rx="4" ry="4" height="30"/>
      </g>
    </g>
    <g onmouseout="HideTooltip(evt)" id="y.node.2" onmousemove="ShowTooltip(evt)">
      <g/>
    </g>
    <g onmouseout="HideTooltip(evt)" id="y.node.3" onmousemove="ShowTooltip(evt)">
      <g fill="rgb(204,204,255)" text-rendering="geometricPrecision" shape-rendering="geometricPrecision" transform="matrix(1,0,0,1,-7,17)" stroke="rgb(204,204,255)">
        <rect x="59.7222" y="184.5" width="60" rx="4" ry="4" height="30" stroke="none"/>
      </g>
      <g>
        <g text-rendering="geometricPrecision" stroke-miterlimit="1.45" shape-rendering="geometricPrecision" font-family="sans-serif" transform="matrix(1,0,0,1,-7,17) translate(82,192)" stroke-linecap="butt">
          <text x="0" xml:space="preserve" y="12" clip-path="url(#clipPath5)" stroke="none">F1</text>
        </g>
      </g>
      <g text-rendering="geometricPrecision" stroke-miterlimit="1.45" shape-rendering="geometricPrecision" transform="matrix(1,0,0,1,-7,17)" stroke-linecap="butt">
        <rect x="59.7222" y="184.5" fill="none" width="60" rx="4" ry="4" height="30"/>
      </g>
    </g>
    <g onmouseout="HideTooltip(evt)" id="y.node.4" onmousemove="ShowTooltip(evt)">
      <g fill="rgb(204,204,255)" text-rendering="geometricPrecision" shape-rendering="geometricPrecision" transform="matrix(1,0,0,1,-7,17)" stroke="rgb(204,204,255)">
        <rect x="59.7222" y="289.5" width="60" rx="4" ry="4" height="30" stroke="none"/>
      </g>
      <g>
        <g text-rendering="geometricPrecision" stroke-miterlimit="1.45" shape-rendering="geometricPrecision" font-family="sans-serif" transform="matrix(1,0,0,1,-7,17) translate(86,297)" stroke-linecap="butt">
          <text x="0" xml:space="preserve" y="12" clip-path="url(#clipPath6)" stroke="none">E</text>
        </g>
      </g>
      <g text-rendering="geometricPrecision" stroke-miterlimit="1.45" shape-rendering="geometricPrecision" transform="matrix(1,0,0,1,-7,17)" stroke-linecap="butt">
        <rect x="59.7222" y="289.5" fill="none" width="60" rx="4" ry="4" height="30"/>
      </g>
    </g>
    <g id="y.edge.0">
      <g text-rendering="geometricPrecision" stroke-miterlimit="1.45" shape-rendering="geometricPrecision" transform="matrix(1,0,0,1,-7,17)" stroke-linecap="butt">
        <path fill="none" d="M89.7222 39.9976 L89.7222 71.4614"/>
      </g>
      <g text-rendering="geometricPrecision" stroke-miterlimit="1.45" shape-rendering="geometricPrecision" transform="matrix(1,0,0,1,-7,17)" stroke-linecap="butt">
        <path d="M89.7222 79.4614 L94.7222 67.4614 L89.7222 70.4614 L84.7222 67.4614 Z" stroke="none"/>
      </g>
    </g>
    <g id="y.edge.1">
      <g text-rendering="geometricPrecision" stroke-miterlimit="1.45" shape-rendering="geometricPrecision" transform="matrix(1,0,0,1,-7,17)" stroke-linecap="butt">
        <path fill="none" d="M89.7222 109.5 L89.7222 176.4634"/>
        <path d="M89.7222 184.4634 L94.7222 172.4634 L89.7222 175.4634 L84.7222 172.4634 Z" stroke="none"/>
      </g>
      <g>
        <g stroke-linecap="butt" transform="matrix(1,0,0,1,-7,17)" fill="rgb(238,238,238)" text-rendering="geometricPrecision" shape-rendering="geometricPrecision" stroke="rgb(238,238,238)" stroke-miterlimit="1.45">
          <rect x="59.7222" width="28" height="19" y="137.5" stroke="none"/>
        </g>
        <g text-rendering="geometricPrecision" stroke-miterlimit="1.45" shape-rendering="geometricPrecision" font-family="sans-serif" transform="matrix(1,0,0,1,-7,17) translate(61,139)" stroke-linecap="butt">
          <text x="0" xml:space="preserve" y="12" clip-path="url(#clipPath7)" stroke="none">pf1</text>
          <text fill="rgb(64,32,32)" x="20" xml:space="preserve" y="12" clip-path="url(#clipPath7)" stroke="none">!</text>
        </g>
      </g>
    </g>
    <g id="y.edge.2">
      <g text-rendering="geometricPrecision" stroke-miterlimit="1.45" shape-rendering="geometricPrecision" transform="matrix(1,0,0,1,-7,17)" stroke-linecap="butt">
        <path fill="none" d="M89.7222 214.5 L89.7222 281.4634"/>
        <path d="M89.7222 289.4634 L94.7222 277.4634 L89.7222 280.4634 L84.7222 277.4634 Z" stroke="none"/>
      </g>
      <g>
        <g stroke-linecap="butt" transform="matrix(1,0,0,1,-7,17)" fill="rgb(238,238,238)" text-rendering="geometricPrecision" shape-rendering="geometricPrecision" stroke="rgb(238,238,238)" stroke-miterlimit="1.45">
          <rect x="59.7222" width="28" height="19" y="242.5" stroke="none"/>
        </g>
        <g text-rendering="geometricPrecision" stroke-miterlimit="1.45" shape-rendering="geometricPrecision" font-family="sans-serif" transform="matrix(1,0,0,1,-7,17) translate(61,244)" stroke-linecap="butt">
          <text x="0" xml:space="preserve" y="12" clip-path="url(#clipPath7)" stroke="none">pf2</text>
          <text fill="rgb(64,32,32)" x="20" xml:space="preserve" y="12" clip-path="url(#clipPath7)" stroke="none">!</text>
        </g>
      </g>
    </g>
    <g id="y.edge.3">
      <g text-rendering="geometricPrecision" stroke-miterlimit="1.45" shape-rendering="geometricPrecision" transform="matrix(1,0,0,1,-7,17)" stroke-linecap="butt">
        <path fill="none" d="M119.7222 304.5 L139.7222 304.5 L144.0972 303.875 L147.2222 302 L149.0972 298.875 L149.7222 294.5 L149.7222 104.5 L149.0972 100.125 L147.2222 97 L144.0972 95.125 L139.7222 94.5 L127.7222 94.5"/>
        <path d="M119.7222 94.5 L131.7222 99.5 L128.7222 94.5 L131.7222 89.5 Z" stroke="none"/>
      </g>
      <g>
        <g stroke-linecap="butt" transform="matrix(1,0,0,1,-7,17)" fill="rgb(238,238,238)" text-rendering="geometricPrecision" shape-rendering="geometricPrecision" stroke="rgb(238,238,238)" stroke-miterlimit="1.45">
          <rect x="123.7222" width="24" height="19" y="190" stroke="none"/>
        </g>
        <g text-rendering="geometricPrecision" stroke-miterlimit="1.45" shape-rendering="geometricPrecision" font-family="sans-serif" transform="matrix(1,0,0,1,-7,17) translate(125,192)" stroke-linecap="butt">
          <text x="0" xml:space="preserve" y="12" clip-path="url(#clipPath8)" stroke="none">p1f</text>
        </g>
      </g>
    </g>
    <g onmouseout="HideTooltip(evt)" id="y.node.5" onmousemove="ShowTooltip(evt)">
      <g fill="rgb(238,238,238)" text-rendering="geometricPrecision" shape-rendering="geometricPrecision" transform="matrix(1,0,0,1,-7,17)" stroke="rgb(238,238,238)">
        <rect x="208.5" width="166" height="336" y="-1.5" stroke="none"/>
      </g>
      <g>
        <g fill="red" text-rendering="geometricPrecision" shape-rendering="geometricPrecision" transform="matrix(1,0,0,1,-7,17)" stroke="red">
          <rect x="208.5" width="166" height="19" y="-1.5" stroke="none"/>
        </g>
        <g text-rendering="geometricPrecision" stroke-miterlimit="1.45" shape-rendering="geometricPrecision" font-family="sans-serif" transform="matrix(1,0,0,1,-7,17) translate(210,0)" stroke-linecap="butt">
          <text x="0" xml:space="preserve" y="12" clip-path="url(#clipPath3)" stroke="none">     </text>
          <text fill="blue" x="20" xml:space="preserve" y="12" clip-path="url(#clipPath3)" stroke="none">automaton</text>
          <text x="81" xml:space="preserve" y="12" clip-path="url(#clipPath3)" stroke="none"> </text>
          <text x="85" xml:space="preserve" y="12" clip-path="url(#clipPath3)" stroke="none">philosopher2</text>
        </g>
      </g>
      <g text-rendering="geometricPrecision" stroke-miterlimit="1.45" shape-rendering="geometricPrecision" transform="matrix(1,0,0,1,-7,17)" stroke-linecap="butt">
        <rect fill="none" x="208.5" width="166" height="336" y="-1.5"/>
      </g>
    </g>
    <g onmouseout="HideTooltip(evt)" id="y.node.6" onmousemove="ShowTooltip(evt)">
      <g fill="rgb(204,204,255)" text-rendering="geometricPrecision" shape-rendering="geometricPrecision" transform="matrix(1,0,0,1,-7,17)" stroke="rgb(204,204,255)">
        <rect x="247.8056" y="79.5" width="60" rx="4" ry="4" height="30" stroke="none"/>
      </g>
      <g>
        <g text-rendering="geometricPrecision" stroke-miterlimit="1.45" shape-rendering="geometricPrecision" font-family="sans-serif" transform="matrix(1,0,0,1,-7,17) translate(273,87)" stroke-linecap="butt">
          <text x="0" xml:space="preserve" y="12" clip-path="url(#clipPath4)" stroke="none">T</text>
        </g>
      </g>
      <g text-rendering="geometricPrecision" stroke-miterlimit="1.45" shape-rendering="geometricPrecision" transform="matrix(1,0,0,1,-7,17)" stroke-linecap="butt">
        <rect x="247.8056" y="79.5" fill="none" width="60" rx="4" ry="4" height="30"/>
      </g>
    </g>
    <g onmouseout="HideTooltip(evt)" id="y.node.7" onmousemove="ShowTooltip(evt)">
      <g/>
    </g>
    <g onmouseout="HideTooltip(evt)" id="y.node.8" onmousemove="ShowTooltip(evt)">
      <g fill="rgb(204,204,255)" text-rendering="geometricPrecision" shape-rendering="geometricPrecision" transform="matrix(1,0,0,1,-7,17)" stroke="rgb(204,204,255)">
        <rect x="247.8056" y="184.5" width="60" rx="4" ry="4" height="30" stroke="none"/>
      </g>
      <g>
        <g text-rendering="geometricPrecision" stroke-miterlimit="1.45" shape-rendering="geometricPrecision" font-family="sans-serif" transform="matrix(1,0,0,1,-7,17) translate(270,192)" stroke-linecap="butt">
          <text x="0" xml:space="preserve" y="12" clip-path="url(#clipPath5)" stroke="none">F1</text>
        </g>
      </g>
      <g text-rendering="geometricPrecision" stroke-miterlimit="1.45" shape-rendering="geometricPrecision" transform="matrix(1,0,0,1,-7,17)" stroke-linecap="butt">
        <rect x="247.8056" y="184.5" fill="none" width="60" rx="4" ry="4" height="30"/>
      </g>
    </g>
    <g onmouseout="HideTooltip(evt)" id="y.node.9" onmousemove="ShowTooltip(evt)">
      <g fill="rgb(204,204,255)" text-rendering="geometricPrecision" shape-rendering="geometricPrecision" transform="matrix(1,0,0,1,-7,17)" stroke="rgb(204,204,255)">
        <rect x="247.8056" y="289.5" width="60" rx="4" ry="4" height="30" stroke="none"/>
      </g>
      <g>
        <g text-rendering="geometricPrecision" stroke-miterlimit="1.45" shape-rendering="geometricPrecision" font-family="sans-serif" transform="matrix(1,0,0,1,-7,17) translate(274,297)" stroke-linecap="butt">
          <text x="0" xml:space="preserve" y="12" clip-path="url(#clipPath6)" stroke="none">E</text>
        </g>
      </g>
      <g text-rendering="geometricPrecision" stroke-miterlimit="1.45" shape-rendering="geometricPrecision" transform="matrix(1,0,0,1,-7,17)" stroke-linecap="butt">
        <rect x="247.8056" y="289.5" fill="none" width="60" rx="4" ry="4" height="30"/>
      </g>
    </g>
    <g id="y.edge.4">
      <g text-rendering="geometricPrecision" stroke-miterlimit="1.45" shape-rendering="geometricPrecision" transform="matrix(1,0,0,1,-7,17)" stroke-linecap="butt">
        <path fill="none" d="M277.8055 39.9976 L277.8055 71.4614"/>
        <path d="M277.8055 79.4614 L282.8055 67.4614 L277.8055 70.4614 L272.8055 67.4614 Z" stroke="none"/>
      </g>
    </g>
    <g id="y.edge.5">
      <g text-rendering="geometricPrecision" stroke-miterlimit="1.45" shape-rendering="geometricPrecision" transform="matrix(1,0,0,1,-7,17)" stroke-linecap="butt">
        <path fill="none" d="M277.8055 109.5 L277.8055 176.4634"/>
        <path d="M277.8055 184.4634 L282.8055 172.4634 L277.8055 175.4634 L272.8055 172.4634 Z" stroke="none"/>
      </g>
      <g>
        <g stroke-linecap="butt" transform="matrix(1,0,0,1,-7,17)" fill="rgb(238,238,238)" text-rendering="geometricPrecision" shape-rendering="geometricPrecision" stroke="rgb(238,238,238)" stroke-miterlimit="1.45">
          <rect x="247.8056" width="28" height="19" y="137.5" stroke="none"/>
        </g>
        <g text-rendering="geometricPrecision" stroke-miterlimit="1.45" shape-rendering="geometricPrecision" font-family="sans-serif" transform="matrix(1,0,0,1,-7,17) translate(249,139)" stroke-linecap="butt">
          <text x="0" xml:space="preserve" y="12" clip-path="url(#clipPath7)" stroke="none">pf1</text>
          <text fill="rgb(64,32,32)" x="20" xml:space="preserve" y="12" clip-path="url(#clipPath7)" stroke="none">!</text>
        </g>
      </g>
    </g>
    <g id="y.edge.6">
      <g text-rendering="geometricPrecision" stroke-miterlimit="1.45" shape-rendering="geometricPrecision" transform="matrix(1,0,0,1,-7,17)" stroke-linecap="butt">
        <path fill="none" d="M277.8055 214.5 L277.8055 281.4634"/>
        <path d="M277.8055 289.4634 L282.8055 277.4634 L277.8055 280.4634 L272.8055 277.4634 Z" stroke="none"/>
      </g>
      <g>
        <g stroke-linecap="butt" transform="matrix(1,0,0,1,-7,17)" fill="rgb(238,238,238)" text-rendering="geometricPrecision" shape-rendering="geometricPrecision" stroke="rgb(238,238,238)" stroke-miterlimit="1.45">
          <rect x="247.8056" width="28" height="19" y="242.5" stroke="none"/>
        </g>
        <g text-rendering="geometricPrecision" stroke-miterlimit="1.45" shape-rendering="geometricPrecision" font-family="sans-serif" transform="matrix(1,0,0,1,-7,17) translate(249,244)" stroke-linecap="butt">
          <text x="0" xml:space="preserve" y="12" clip-path="url(#clipPath7)" stroke="none">pf2</text>
          <text fill="rgb(64,32,32)" x="20" xml:space="preserve" y="12" clip-path="url(#clipPath7)" stroke="none">!</text>
        </g>
      </g>
    </g>
    <g id="y.edge.7">
      <g text-rendering="geometricPrecision" stroke-miterlimit="1.45" shape-rendering="geometricPrecision" transform="matrix(1,0,0,1,-7,17)" stroke-linecap="butt">
        <path fill="none" d="M307.8055 304.5 L327.8055 304.5 L332.1805 303.875 L335.3055 302 L337.1805 298.875 L337.8055 294.5 L337.8055 104.5 L337.1805 100.125 L335.3055 97 L332.1805 95.125 L327.8055 94.5 L315.8055 94.5"/>
        <path d="M307.8055 94.5 L319.8055 99.5 L316.8055 94.5 L319.8055 89.5 Z" stroke="none"/>
      </g>
      <g>
        <g stroke-linecap="butt" transform="matrix(1,0,0,1,-7,17)" fill="rgb(238,238,238)" text-rendering="geometricPrecision" shape-rendering="geometricPrecision" stroke="rgb(238,238,238)" stroke-miterlimit="1.45">
          <rect x="311.8056" width="24" height="19" y="190" stroke="none"/>
        </g>
        <g text-rendering="geometricPrecision" stroke-miterlimit="1.45" shape-rendering="geometricPrecision" font-family="sans-serif" transform="matrix(1,0,0,1,-7,17) translate(313,192)" stroke-linecap="butt">
          <text x="0" xml:space="preserve" y="12" clip-path="url(#clipPath8)" stroke="none">p2f</text>
        </g>
      </g>
    </g>
    <g onmouseout="HideTooltip(evt)" id="y.node.10" onmousemove="ShowTooltip(evt)">
      <g fill="rgb(238,238,238)" text-rendering="geometricPrecision" shape-rendering="geometricPrecision" transform="matrix(1,0,0,1,-7,17)" stroke="rgb(238,238,238)">
        <rect x="535.5" width="120" height="221" y="1.5" stroke="none"/>
      </g>
      <g>
        <g fill="red" text-rendering="geometricPrecision" shape-rendering="geometricPrecision" transform="matrix(1,0,0,1,-7,17)" stroke="red">
          <rect x="535.5" width="120" height="19" y="1.5" stroke="none"/>
        </g>
        <g text-rendering="geometricPrecision" stroke-miterlimit="1.45" shape-rendering="geometricPrecision" font-family="sans-serif" transform="matrix(1,0,0,1,-7,17) translate(537,3)" stroke-linecap="butt">
          <text x="0" xml:space="preserve" y="12" clip-path="url(#clipPath9)" stroke="none">     </text>
          <text fill="blue" x="20" xml:space="preserve" y="12" clip-path="url(#clipPath9)" stroke="none">automaton</text>
          <text x="81" xml:space="preserve" y="12" clip-path="url(#clipPath9)" stroke="none"> </text>
          <text x="85" xml:space="preserve" y="12" clip-path="url(#clipPath9)" stroke="none">fork1</text>
        </g>
      </g>
      <g text-rendering="geometricPrecision" stroke-miterlimit="1.45" shape-rendering="geometricPrecision" transform="matrix(1,0,0,1,-7,17)" stroke-linecap="butt">
        <rect fill="none" x="535.5" width="120" height="221" y="1.5"/>
      </g>
    </g>
    <g onmouseout="HideTooltip(evt)" id="y.node.11" onmousemove="ShowTooltip(evt)">
      <g fill="rgb(204,204,255)" text-rendering="geometricPrecision" shape-rendering="geometricPrecision" transform="matrix(1,0,0,1,-7,17)" stroke="rgb(204,204,255)">
        <rect x="564.3889" y="79.5" width="60" rx="4" ry="4" height="30" stroke="none"/>
      </g>
      <g>
        <g text-rendering="geometricPrecision" stroke-miterlimit="1.45" shape-rendering="geometricPrecision" font-family="sans-serif" transform="matrix(1,0,0,1,-7,17) translate(592,87)" stroke-linecap="butt">
          <text x="0" xml:space="preserve" y="12" clip-path="url(#clipPath10)" stroke="none">I</text>
        </g>
      </g>
      <g text-rendering="geometricPrecision" stroke-miterlimit="1.45" shape-rendering="geometricPrecision" transform="matrix(1,0,0,1,-7,17)" stroke-linecap="butt">
        <rect x="564.3889" y="79.5" fill="none" width="60" rx="4" ry="4" height="30"/>
      </g>
    </g>
    <g onmouseout="HideTooltip(evt)" id="y.node.12" onmousemove="ShowTooltip(evt)">
      <g/>
    </g>
    <g onmouseout="HideTooltip(evt)" id="y.node.13" onmousemove="ShowTooltip(evt)">
      <g fill="rgb(204,204,255)" text-rendering="geometricPrecision" shape-rendering="geometricPrecision" transform="matrix(1,0,0,1,-7,17)" stroke="rgb(204,204,255)">
        <rect x="564.3889" y="177.5" width="60" rx="4" ry="4" height="30" stroke="none"/>
      </g>
      <g>
        <g text-rendering="geometricPrecision" stroke-miterlimit="1.45" shape-rendering="geometricPrecision" font-family="sans-serif" transform="matrix(1,0,0,1,-7,17) translate(590,185)" stroke-linecap="butt">
          <text x="0" xml:space="preserve" y="12" clip-path="url(#clipPath4)" stroke="none">X</text>
        </g>
      </g>
      <g text-rendering="geometricPrecision" stroke-miterlimit="1.45" shape-rendering="geometricPrecision" transform="matrix(1,0,0,1,-7,17)" stroke-linecap="butt">
        <rect x="564.3889" y="177.5" fill="none" width="60" rx="4" ry="4" height="30"/>
      </g>
    </g>
    <g id="y.edge.8">
      <g text-rendering="geometricPrecision" stroke-miterlimit="1.45" shape-rendering="geometricPrecision" transform="matrix(1,0,0,1,-7,17)" stroke-linecap="butt">
        <path fill="none" d="M594.3889 38 L594.3889 71.5198"/>
        <path d="M594.3889 79.5198 L599.3889 67.5198 L594.3889 70.5198 L589.3889 67.5198 Z" stroke="none"/>
      </g>
    </g>
    <g id="y.edge.9">
      <g text-rendering="geometricPrecision" stroke-miterlimit="1.45" shape-rendering="geometricPrecision" transform="matrix(1,0,0,1,-7,17)" stroke-linecap="butt">
        <path fill="none" d="M611.96 109.5254 L611.96 169.4766"/>
        <path d="M611.96 177.4766 L616.96 165.4766 L611.96 168.4766 L606.96 165.4766 Z" stroke="none"/>
      </g>
      <g>
        <g stroke-linecap="butt" transform="matrix(1,0,0,1,-7,17)" fill="rgb(238,238,238)" text-rendering="geometricPrecision" shape-rendering="geometricPrecision" stroke="rgb(238,238,238)" stroke-miterlimit="1.45">
          <rect x="613.96" width="29" height="19" y="134" stroke="none"/>
        </g>
        <g text-rendering="geometricPrecision" stroke-miterlimit="1.45" shape-rendering="geometricPrecision" font-family="sans-serif" transform="matrix(1,0,0,1,-7,17) translate(615,136)" stroke-linecap="butt">
          <text x="0" xml:space="preserve" y="12" clip-path="url(#clipPath11)" stroke="none">pf1</text>
          <text fill="rgb(64,32,32)" x="20" xml:space="preserve" y="12" clip-path="url(#clipPath11)" stroke="none">?</text>
        </g>
      </g>
    </g>
    <g id="y.edge.10">
      <g text-rendering="geometricPrecision" stroke-miterlimit="1.45" shape-rendering="geometricPrecision" transform="matrix(1,0,0,1,-7,17)" stroke-linecap="butt">
        <path fill="none" d="M576.3889 177.4668 L576.3889 117.5"/>
        <path d="M576.3889 109.5 L571.3889 121.5 L576.3889 118.5 L581.3889 121.5 Z" stroke="none"/>
      </g>
      <g>
        <g stroke-linecap="butt" transform="matrix(1,0,0,1,-7,17)" fill="rgb(238,238,238)" text-rendering="geometricPrecision" shape-rendering="geometricPrecision" stroke="rgb(238,238,238)" stroke-miterlimit="1.45">
          <rect x="522.3889" width="52" height="19" y="134" stroke="none"/>
        </g>
        <g text-rendering="geometricPrecision" stroke-miterlimit="1.45" shape-rendering="geometricPrecision" font-family="sans-serif" transform="matrix(1,0,0,1,-7,17) translate(524,136)" stroke-linecap="butt">
          <text x="0" xml:space="preserve" y="12" clip-path="url(#clipPath12)" stroke="none">p1f</text>
          <text fill="rgb(64,32,32)" x="20" xml:space="preserve" y="12" clip-path="url(#clipPath12)" stroke="none">,</text>
          <text x="24" xml:space="preserve" y="12" clip-path="url(#clipPath12)" stroke="none"> </text>
          <text x="28" xml:space="preserve" y="12" clip-path="url(#clipPath12)" stroke="none">p2f</text>
        </g>
      </g>
    </g>
    <g onmouseout="HideTooltip(evt)" id="y.node.14" onmousemove="ShowTooltip(evt)">
      <g fill="rgb(238,238,238)" text-rendering="geometricPrecision" shape-rendering="geometricPrecision" transform="matrix(1,0,0,1,-7,17)" stroke="rgb(238,238,238)">
        <rect x="395" width="120" height="221" y="1.5" stroke="none"/>
      </g>
      <g>
        <g fill="red" text-rendering="geometricPrecision" shape-rendering="geometricPrecision" transform="matrix(1,0,0,1,-7,17)" stroke="red">
          <rect x="395" width="120" height="19" y="1.5" stroke="none"/>
        </g>
        <g text-rendering="geometricPrecision" stroke-miterlimit="1.45" shape-rendering="geometricPrecision" font-family="sans-serif" transform="matrix(1,0,0,1,-7,17) translate(397,3)" stroke-linecap="butt">
          <text x="0" xml:space="preserve" y="12" clip-path="url(#clipPath9)" stroke="none">     </text>
          <text fill="blue" x="20" xml:space="preserve" y="12" clip-path="url(#clipPath9)" stroke="none">automaton</text>
          <text x="81" xml:space="preserve" y="12" clip-path="url(#clipPath9)" stroke="none"> </text>
          <text x="85" xml:space="preserve" y="12" clip-path="url(#clipPath9)" stroke="none">fork2</text>
        </g>
      </g>
      <g text-rendering="geometricPrecision" stroke-miterlimit="1.45" shape-rendering="geometricPrecision" transform="matrix(1,0,0,1,-7,17)" stroke-linecap="butt">
        <rect fill="none" x="395" width="120" height="221" y="1.5"/>
      </g>
    </g>
    <g onmouseout="HideTooltip(evt)" id="y.node.15" onmousemove="ShowTooltip(evt)">
      <g fill="rgb(204,204,255)" text-rendering="geometricPrecision" shape-rendering="geometricPrecision" transform="matrix(1,0,0,1,-7,17)" stroke="rgb(204,204,255)">
        <rect x="425" y="79.5" width="60" rx="4" ry="4" height="30" stroke="none"/>
      </g>
      <g>
        <g text-rendering="geometricPrecision" stroke-miterlimit="1.45" shape-rendering="geometricPrecision" font-family="sans-serif" transform="matrix(1,0,0,1,-7,17) translate(453,87)" stroke-linecap="butt">
          <text x="0" xml:space="preserve" y="12" clip-path="url(#clipPath10)" stroke="none">I</text>
        </g>
      </g>
      <g text-rendering="geometricPrecision" stroke-miterlimit="1.45" shape-rendering="geometricPrecision" transform="matrix(1,0,0,1,-7,17)" stroke-linecap="butt">
        <rect x="425" y="79.5" fill="none" width="60" rx="4" ry="4" height="30"/>
      </g>
    </g>
    <g onmouseout="HideTooltip(evt)" id="y.node.16" onmousemove="ShowTooltip(evt)">
      <g/>
    </g>
    <g onmouseout="HideTooltip(evt)" id="y.node.17" onmousemove="ShowTooltip(evt)">
      <g fill="rgb(204,204,255)" text-rendering="geometricPrecision" shape-rendering="geometricPrecision" transform="matrix(1,0,0,1,-7,17)" stroke="rgb(204,204,255)">
        <rect x="425" y="177.5" width="60" rx="4" ry="4" height="30" stroke="none"/>
      </g>
      <g>
        <g text-rendering="geometricPrecision" stroke-miterlimit="1.45" shape-rendering="geometricPrecision" font-family="sans-serif" transform="matrix(1,0,0,1,-7,17) translate(451,185)" stroke-linecap="butt">
          <text x="0" xml:space="preserve" y="12" clip-path="url(#clipPath4)" stroke="none">X</text>
        </g>
      </g>
      <g text-rendering="geometricPrecision" stroke-miterlimit="1.45" shape-rendering="geometricPrecision" transform="matrix(1,0,0,1,-7,17)" stroke-linecap="butt">
        <rect x="425" y="177.5" fill="none" width="60" rx="4" ry="4" height="30"/>
      </g>
    </g>
    <g id="y.edge.11">
      <g text-rendering="geometricPrecision" stroke-miterlimit="1.45" shape-rendering="geometricPrecision" transform="matrix(1,0,0,1,-7,17)" stroke-linecap="butt">
        <path fill="none" d="M455 38 L455 71.5198"/>
        <path d="M455 79.5198 L460 67.5198 L455 70.5198 L450 67.5198 Z" stroke="none"/>
      </g>
    </g>
    <g id="y.edge.12">
      <g text-rendering="geometricPrecision" stroke-miterlimit="1.45" shape-rendering="geometricPrecision" transform="matrix(1,0,0,1,-7,17)" stroke-linecap="butt">
        <path fill="none" d="M472.779 109.5313 L472.779 169.4922"/>
        <path d="M472.779 177.4922 L477.779 165.4922 L472.779 168.4922 L467.779 165.4922 Z" stroke="none"/>
      </g>
      <g>
        <g stroke-linecap="butt" transform="matrix(1,0,0,1,-7,17)" fill="rgb(238,238,238)" text-rendering="geometricPrecision" shape-rendering="geometricPrecision" stroke="rgb(238,238,238)" stroke-miterlimit="1.45">
          <rect x="474.779" width="29" height="19" y="134" stroke="none"/>
        </g>
        <g text-rendering="geometricPrecision" stroke-miterlimit="1.45" shape-rendering="geometricPrecision" font-family="sans-serif" transform="matrix(1,0,0,1,-7,17) translate(476,136)" stroke-linecap="butt">
          <text x="0" xml:space="preserve" y="12" clip-path="url(#clipPath11)" stroke="none">pf2</text>
          <text fill="rgb(64,32,32)" x="20" xml:space="preserve" y="12" clip-path="url(#clipPath11)" stroke="none">?</text>
        </g>
      </g>
    </g>
    <g id="y.edge.13">
      <g text-rendering="geometricPrecision" stroke-miterlimit="1.45" shape-rendering="geometricPrecision" transform="matrix(1,0,0,1,-7,17)" stroke-linecap="butt">
        <path fill="none" d="M437 177.4668 L437 117.5"/>
        <path d="M437 109.5 L432 121.5 L437 118.5 L442 121.5 Z" stroke="none"/>
      </g>
      <g>
        <g stroke-linecap="butt" transform="matrix(1,0,0,1,-7,17)" fill="rgb(238,238,238)" text-rendering="geometricPrecision" shape-rendering="geometricPrecision" stroke="rgb(238,238,238)" stroke-miterlimit="1.45">
          <rect x="383" width="52" height="19" y="134" stroke="none"/>
        </g>
        <g text-rendering="geometricPrecision" stroke-miterlimit="1.45" shape-rendering="geometricPrecision" font-family="sans-serif" transform="matrix(1,0,0,1,-7,17) translate(385,136)" stroke-linecap="butt">
          <text x="0" xml:space="preserve" y="12" clip-path="url(#clipPath12)" stroke="none">p1f</text>
          <text fill="rgb(64,32,32)" x="20" xml:space="preserve" y="12" clip-path="url(#clipPath12)" stroke="none">,</text>
          <text x="24" xml:space="preserve" y="12" clip-path="url(#clipPath12)" stroke="none"> </text>
          <text x="28" xml:space="preserve" y="12" clip-path="url(#clipPath12)" stroke="none">p2f</text>
        </g>
      </g>
    </g>
    <g onmouseout="HideTooltip(evt)" id="y.node.18" onmousemove="ShowTooltip(evt)">
      <g fill="rgb(255,255,204)" text-rendering="geometricPrecision" shape-rendering="geometricPrecision" transform="matrix(1,0,0,1,-7,17)" stroke="rgb(255,255,204)">
        <rect x="400.3333" width="95" height="98.375" y="237.5" stroke="none"/>
      </g>
      <g>
        <g fill="rgb(238,238,128)" text-rendering="geometricPrecision" shape-rendering="geometricPrecision" transform="matrix(1,0,0,1,-7,17)" stroke="rgb(238,238,128)">
          <rect x="400.1683" width="95.3301" height="18.1328" y="237.5" stroke="none"/>
        </g>
        <g text-rendering="geometricPrecision" stroke-miterlimit="1.45" shape-rendering="geometricPrecision" font-family="sans-serif" transform="matrix(1,0,0,1,-7,17)" stroke-linecap="butt">
          <text x="402.1683" xml:space="preserve" y="251.1016" stroke="none">     Declarations</text>
        </g>
      </g>
      <g>
        <g stroke-linecap="butt" transform="matrix(1,0,0,1,-7,17) translate(404,258)" fill="blue" text-rendering="geometricPrecision" font-family="sans-serif" shape-rendering="geometricPrecision" stroke="blue" stroke-miterlimit="1.45">
          <text x="0" xml:space="preserve" y="12" clip-path="url(#clipPath13)" stroke="none">event</text>
          <text fill="black" x="31" xml:space="preserve" y="12" clip-path="url(#clipPath13)" stroke="none"> </text>
          <text x="35" xml:space="preserve" y="12" clip-path="url(#clipPath13)" stroke="none">void</text>
          <text fill="black" x="59" xml:space="preserve" y="12" clip-path="url(#clipPath13)" stroke="none"> </text>
          <text fill="black" x="63" xml:space="preserve" y="12" clip-path="url(#clipPath13)" stroke="none">pf1</text>
          <text fill="rgb(64,32,32)" x="83" xml:space="preserve" y="12" clip-path="url(#clipPath13)" stroke="none">;</text>
          <text fill="black" x="87" xml:space="preserve" y="12" clip-path="url(#clipPath13)" stroke="none"> </text>
          <text x="0" xml:space="preserve" y="27" clip-path="url(#clipPath13)" stroke="none">event</text>
          <text fill="black" x="31" xml:space="preserve" y="27" clip-path="url(#clipPath13)" stroke="none"> </text>
          <text x="35" xml:space="preserve" y="27" clip-path="url(#clipPath13)" stroke="none">void</text>
          <text fill="black" x="59" xml:space="preserve" y="27" clip-path="url(#clipPath13)" stroke="none"> </text>
          <text fill="black" x="63" xml:space="preserve" y="27" clip-path="url(#clipPath13)" stroke="none">pf2</text>
          <text fill="rgb(64,32,32)" x="83" xml:space="preserve" y="27" clip-path="url(#clipPath13)" stroke="none">;</text>
          <text fill="black" x="87" xml:space="preserve" y="27" clip-path="url(#clipPath13)" stroke="none"> </text>
          <text x="0" xml:space="preserve" y="42" clip-path="url(#clipPath13)" stroke="none">event</text>
          <text fill="black" x="31" xml:space="preserve" y="42" clip-path="url(#clipPath13)" stroke="none"> </text>
          <text fill="black" x="35" xml:space="preserve" y="42" clip-path="url(#clipPath13)" stroke="none">p1f</text>
          <text fill="rgb(64,32,32)" x="55" xml:space="preserve" y="42" clip-path="url(#clipPath13)" stroke="none">;</text>
          <text fill="black" x="59" xml:space="preserve" y="42" clip-path="url(#clipPath13)" stroke="none"> </text>
          <text x="0" xml:space="preserve" y="57" clip-path="url(#clipPath13)" stroke="none">event</text>
          <text fill="black" x="31" xml:space="preserve" y="57" clip-path="url(#clipPath13)" stroke="none"> </text>
          <text fill="black" x="35" xml:space="preserve" y="57" clip-path="url(#clipPath13)" stroke="none">p2f</text>
          <text fill="rgb(64,32,32)" x="55" xml:space="preserve" y="57" clip-path="url(#clipPath13)" stroke="none">;</text>
        </g>
      </g>
      <g text-rendering="geometricPrecision" stroke-miterlimit="1.45" shape-rendering="geometricPrecision" transform="matrix(1,0,0,1,-7,17)" stroke-linecap="butt">
        <rect fill="none" x="400.3333" width="95" height="98.375" y="237.5"/>
      </g>
    </g>
    <g visibility="hidden" id="tooltip.y.node.0" pointer-events="none">
      <g fill="rgb(255,255,204)" text-rendering="geometricPrecision" font-size="11px" shape-rendering="geometricPrecision" font-family="'Lucida Grande'" stroke="rgb(255,255,204)">
        <rect x="0" width="139" height="18" y="0" clip-path="url(#clipPath14)" stroke="none"/>
        <text fill="black" x="3" xml:space="preserve" y="13" clip-path="url(#clipPath14)" stroke="none">automaton philosopher1</text>
      </g>
    </g>
    <g visibility="hidden" id="tooltip.y.node.1" pointer-events="none">
      <g fill="rgb(255,255,204)" text-rendering="geometricPrecision" font-size="11px" shape-rendering="geometricPrecision" font-family="'Lucida Grande'" stroke="rgb(255,255,204)">
        <rect x="0" width="59" height="18" y="0" clip-path="url(#clipPath15)" stroke="none"/>
        <text fill="black" x="3" xml:space="preserve" y="13" clip-path="url(#clipPath15)" stroke="none">location T</text>
      </g>
    </g>
    <g visibility="hidden" id="tooltip.y.node.2" pointer-events="none">
      <g fill="rgb(255,255,204)" text-rendering="geometricPrecision" font-size="11px" shape-rendering="geometricPrecision" font-family="'Lucida Grande'" stroke="rgb(255,255,204)">
        <rect x="0" width="6" height="19" y="0" clip-path="url(#clipPath16)" stroke="none"/>
      </g>
    </g>
    <g visibility="hidden" id="tooltip.y.node.3" pointer-events="none">
      <g fill="rgb(255,255,204)" text-rendering="geometricPrecision" font-size="11px" shape-rendering="geometricPrecision" font-family="'Lucida Grande'" stroke="rgb(255,255,204)">
        <rect x="0" width="65" height="18" y="0" clip-path="url(#clipPath17)" stroke="none"/>
        <text fill="black" x="3" xml:space="preserve" y="13" clip-path="url(#clipPath17)" stroke="none">location F1</text>
      </g>
    </g>
    <g visibility="hidden" id="tooltip.y.node.4" pointer-events="none">
      <g fill="rgb(255,255,204)" text-rendering="geometricPrecision" font-size="11px" shape-rendering="geometricPrecision" font-family="'Lucida Grande'" stroke="rgb(255,255,204)">
        <rect x="0" width="58" height="18" y="0" clip-path="url(#clipPath18)" stroke="none"/>
        <text fill="black" x="3" xml:space="preserve" y="13" clip-path="url(#clipPath18)" stroke="none">location E</text>
      </g>
    </g>
    <g visibility="hidden" id="tooltip.y.node.5" pointer-events="none">
      <g fill="rgb(255,255,204)" text-rendering="geometricPrecision" font-size="11px" shape-rendering="geometricPrecision" font-family="'Lucida Grande'" stroke="rgb(255,255,204)">
        <rect x="0" width="139" height="18" y="0" clip-path="url(#clipPath14)" stroke="none"/>
        <text fill="black" x="3" xml:space="preserve" y="13" clip-path="url(#clipPath14)" stroke="none">automaton philosopher2</text>
      </g>
    </g>
    <g visibility="hidden" id="tooltip.y.node.6" pointer-events="none">
      <g fill="rgb(255,255,204)" text-rendering="geometricPrecision" font-size="11px" shape-rendering="geometricPrecision" font-family="'Lucida Grande'" stroke="rgb(255,255,204)">
        <rect x="0" width="59" height="18" y="0" clip-path="url(#clipPath15)" stroke="none"/>
        <text fill="black" x="3" xml:space="preserve" y="13" clip-path="url(#clipPath15)" stroke="none">location T</text>
      </g>
    </g>
    <g visibility="hidden" id="tooltip.y.node.7" pointer-events="none">
      <g fill="rgb(255,255,204)" text-rendering="geometricPrecision" font-size="11px" shape-rendering="geometricPrecision" font-family="'Lucida Grande'" stroke="rgb(255,255,204)">
        <rect x="0" width="6" height="19" y="0" clip-path="url(#clipPath16)" stroke="none"/>
      </g>
    </g>
    <g visibility="hidden" id="tooltip.y.node.8" pointer-events="none">
      <g fill="rgb(255,255,204)" text-rendering="geometricPrecision" font-size="11px" shape-rendering="geometricPrecision" font-family="'Lucida Grande'" stroke="rgb(255,255,204)">
        <rect x="0" width="65" height="18" y="0" clip-path="url(#clipPath17)" stroke="none"/>
        <text fill="black" x="3" xml:space="preserve" y="13" clip-path="url(#clipPath17)" stroke="none">location F1</text>
      </g>
    </g>
    <g visibility="hidden" id="tooltip.y.node.9" pointer-events="none">
      <g fill="rgb(255,255,204)" text-rendering="geometricPrecision" font-size="11px" shape-rendering="geometricPrecision" font-family="'Lucida Grande'" stroke="rgb(255,255,204)">
        <rect x="0" width="58" height="18" y="0" clip-path="url(#clipPath18)" stroke="none"/>
        <text fill="black" x="3" xml:space="preserve" y="13" clip-path="url(#clipPath18)" stroke="none">location E</text>
      </g>
    </g>
    <g visibility="hidden" id="tooltip.y.node.10" pointer-events="none">
      <g fill="rgb(255,255,204)" text-rendering="geometricPrecision" font-size="11px" shape-rendering="geometricPrecision" font-family="'Lucida Grande'" stroke="rgb(255,255,204)">
        <rect x="0" width="96" height="18" y="0" clip-path="url(#clipPath19)" stroke="none"/>
        <text fill="black" x="3" xml:space="preserve" y="13" clip-path="url(#clipPath19)" stroke="none">automaton fork1</text>
      </g>
    </g>
    <g visibility="hidden" id="tooltip.y.node.11" pointer-events="none">
      <g fill="rgb(255,255,204)" text-rendering="geometricPrecision" font-size="11px" shape-rendering="geometricPrecision" font-family="'Lucida Grande'" stroke="rgb(255,255,204)">
        <rect x="0" width="55" height="18" y="0" clip-path="url(#clipPath20)" stroke="none"/>
        <text fill="black" x="3" xml:space="preserve" y="13" clip-path="url(#clipPath20)" stroke="none">location I</text>
      </g>
    </g>
    <g visibility="hidden" id="tooltip.y.node.12" pointer-events="none">
      <g fill="rgb(255,255,204)" text-rendering="geometricPrecision" font-size="11px" shape-rendering="geometricPrecision" font-family="'Lucida Grande'" stroke="rgb(255,255,204)">
        <rect x="0" width="6" height="19" y="0" clip-path="url(#clipPath16)" stroke="none"/>
      </g>
    </g>
    <g visibility="hidden" id="tooltip.y.node.13" pointer-events="none">
      <g fill="rgb(255,255,204)" text-rendering="geometricPrecision" font-size="11px" shape-rendering="geometricPrecision" font-family="'Lucida Grande'" stroke="rgb(255,255,204)">
        <rect x="0" width="58" height="18" y="0" clip-path="url(#clipPath18)" stroke="none"/>
        <text fill="black" x="3" xml:space="preserve" y="13" clip-path="url(#clipPath18)" stroke="none">location P</text>
      </g>
    </g>
    <g visibility="hidden" id="tooltip.y.node.14" pointer-events="none">
      <g fill="rgb(255,255,204)" text-rendering="geometricPrecision" font-size="11px" shape-rendering="geometricPrecision" font-family="'Lucida Grande'" stroke="rgb(255,255,204)">
        <rect x="0" width="96" height="18" y="0" clip-path="url(#clipPath19)" stroke="none"/>
        <text fill="black" x="3" xml:space="preserve" y="13" clip-path="url(#clipPath19)" stroke="none">automaton fork2</text>
      </g>
    </g>
    <g visibility="hidden" id="tooltip.y.node.15" pointer-events="none">
      <g fill="rgb(255,255,204)" text-rendering="geometricPrecision" font-size="11px" shape-rendering="geometricPrecision" font-family="'Lucida Grande'" stroke="rgb(255,255,204)">
        <rect x="0" width="55" height="18" y="0" clip-path="url(#clipPath20)" stroke="none"/>
        <text fill="black" x="3" xml:space="preserve" y="13" clip-path="url(#clipPath20)" stroke="none">location I</text>
      </g>
    </g>
    <g visibility="hidden" id="tooltip.y.node.16" pointer-events="none">
      <g fill="rgb(255,255,204)" text-rendering="geometricPrecision" font-size="11px" shape-rendering="geometricPrecision" font-family="'Lucida Grande'" stroke="rgb(255,255,204)">
        <rect x="0" width="6" height="19" y="0" clip-path="url(#clipPath16)" stroke="none"/>
      </g>
    </g>
    <g visibility="hidden" id="tooltip.y.node.17" pointer-events="none">
      <g fill="rgb(255,255,204)" text-rendering="geometricPrecision" font-size="11px" shape-rendering="geometricPrecision" font-family="'Lucida Grande'" stroke="rgb(255,255,204)">
        <rect x="0" width="58" height="18" y="0" clip-path="url(#clipPath18)" stroke="none"/>
        <text fill="black" x="3" xml:space="preserve" y="13" clip-path="url(#clipPath18)" stroke="none">location P</text>
      </g>
    </g>
    <g visibility="hidden" id="tooltip.y.node.18" pointer-events="none">
      <g fill="rgb(255,255,204)" text-rendering="geometricPrecision" font-size="11px" shape-rendering="geometricPrecision" font-family="'Lucida Grande'" stroke="rgb(255,255,204)">
        <rect x="0" width="73" height="18" y="0" clip-path="url(#clipPath21)" stroke="none"/>
        <text fill="black" x="3" xml:space="preserve" y="13" clip-path="url(#clipPath21)" stroke="none">Declarations</text>
      </g>
    </g>
  </g>
</svg>
