<?xml version="1.0" encoding="UTF-8"?><svg xmlns="http://www.w3.org/2000/svg" xmlns:xlink="http://www.w3.org/1999/xlink" fill-opacity="1" color-rendering="auto" color-interpolation="auto" text-rendering="auto" stroke="black" stroke-linecap="square" width="1469" stroke-miterlimit="10" shape-rendering="auto" stroke-opacity="1" fill="black" stroke-dasharray="none" font-weight="normal" stroke-width="1" height="327" font-family="'Dialog'" font-style="normal" stroke-linejoin="miter" font-size="12px" stroke-dashoffset="0" image-rendering="auto">
  <!--Generated by ySVG 2.5-->
  <defs id="genericDefs"/>
  <g>
    <defs id="defs1">
      <clipPath clipPathUnits="userSpaceOnUse" id="clipPath1">
        <path d="M0 0 L1469 0 L1469 327 L0 327 L0 0 Z"/>
      </clipPath>
      <clipPath clipPathUnits="userSpaceOnUse" id="clipPath2">
        <path d="M-4 -15 L1465 -15 L1465 312 L-4 312 L-4 -15 Z"/>
      </clipPath>
      <clipPath clipPathUnits="userSpaceOnUse" id="clipPath3">
        <path d="M0 0 L1434 0 L1434 16 L0 16 L0 0 Z"/>
      </clipPath>
      <clipPath clipPathUnits="userSpaceOnUse" id="clipPath4">
        <path d="M0 0 L253 0 L253 144 L0 144 L0 0 Z"/>
      </clipPath>
      <clipPath clipPathUnits="userSpaceOnUse" id="clipPath5">
        <path d="M0 0 L40 0 L40 16 L0 16 L0 0 Z"/>
      </clipPath>
      <clipPath clipPathUnits="userSpaceOnUse" id="clipPath6">
        <path d="M0 0 L18 0 L18 16 L0 16 L0 0 Z"/>
      </clipPath>
      <clipPath clipPathUnits="userSpaceOnUse" id="clipPath7">
        <path d="M0 0 L173 0 L173 32 L0 32 L0 0 Z"/>
      </clipPath>
      <clipPath clipPathUnits="userSpaceOnUse" id="clipPath8">
        <path d="M0 0 L176 0 L176 32 L0 32 L0 0 Z"/>
      </clipPath>
      <clipPath clipPathUnits="userSpaceOnUse" id="clipPath9">
        <path d="M0 0 L93 0 L93 32 L0 32 L0 0 Z"/>
      </clipPath>
      <clipPath clipPathUnits="userSpaceOnUse" id="clipPath10">
        <path d="M0 0 L169 0 L169 48 L0 48 L0 0 Z"/>
      </clipPath>
      <clipPath clipPathUnits="userSpaceOnUse" id="clipPath11">
        <path d="M0 0 L202 0 L202 48 L0 48 L0 0 Z"/>
      </clipPath>
      <clipPath clipPathUnits="userSpaceOnUse" id="clipPath12">
        <path d="M0 0 L0 18 L106 18 L106 0 Z"/>
      </clipPath>
      <clipPath clipPathUnits="userSpaceOnUse" id="clipPath13">
        <path d="M0 0 L0 18 L73 18 L73 0 Z"/>
      </clipPath>
      <clipPath clipPathUnits="userSpaceOnUse" id="clipPath14">
        <path d="M0 0 L0 18 L93 18 L93 0 Z"/>
      </clipPath>
      <clipPath clipPathUnits="userSpaceOnUse" id="clipPath15">
        <path d="M0 0 L0 18 L8 18 L8 0 Z"/>
      </clipPath>
      <clipPath clipPathUnits="userSpaceOnUse" id="clipPath16">
        <path d="M0 0 L0 18 L70 18 L70 0 Z"/>
      </clipPath>
      <script type="text/ecmascript">
        <![CDATA[      var SVGDocument = null;
      var SVGRoot = null;
      var TrueCoords = null;
      var lastElement = null;
      var initialized = null;
      var tipGroup;
      function Init(evt)
      {
         SVGDocument = evt.target.ownerDocument;
         SVGRoot = SVGDocument.documentElement;
         TrueCoords = SVGRoot.createSVGPoint();
         initialized = evt;
      };
      function GetTrueCoords(evt)
      {
         var newScale = SVGRoot.currentScale;
         var translation = SVGRoot.currentTranslate;
         TrueCoords.x = (evt.clientX - translation.x)/newScale;
         TrueCoords.y = (evt.clientY - translation.y)/newScale;
      };
      function HideTooltip( evt )
      {
         if(initialized == null) {
           Init(evt);
         }
         if(tipGroup != null) {
           tipGroup.setAttributeNS(null, 'visibility', 'hidden');
         }
      };
      function ShowTooltip( evt )
      {
         if(initialized == null) {
           Init(evt);
         }
         GetTrueCoords( evt );
         var tipScale = 1/SVGRoot.currentScale;
         var targetElement = evt.currentTarget;
         if ( lastElement != targetElement )
         {
            var targetId = targetElement.getAttributeNS(null, 'id');
            var tipId = 'tooltip.' + targetId;
            tipGroup = SVGDocument.getElementById(tipId);
            var xPos = TrueCoords.x + (10 * tipScale);
            var yPos = TrueCoords.y + (10 * tipScale);
            tipGroup.setAttributeNS(null, 'transform', 'translate(' + xPos + ',' + yPos + ') scale(' + tipScale + ')');
            tipGroup.setAttributeNS(null, 'visibility', 'visible');
         }
      };
]]>
      </script>
    </defs>
    <g fill="white" text-rendering="geometricPrecision" shape-rendering="geometricPrecision" transform="translate(4,15)" stroke="white">
      <rect x="-4" width="1469" height="327" y="-15" clip-path="url(#clipPath2)" stroke="none"/>
    </g>
    <g onmouseout="HideTooltip(evt)" id="y.node.0" onmousemove="ShowTooltip(evt)">
      <g fill="rgb(238,238,238)" text-rendering="geometricPrecision" shape-rendering="geometricPrecision" transform="matrix(1,0,0,1,4,15)" stroke="rgb(238,238,238)">
        <rect x="11.1576" width="1438.5529" height="297" y="0" stroke="none"/>
      </g>
      <g>
        <g fill="red" text-rendering="geometricPrecision" shape-rendering="geometricPrecision" transform="matrix(1,0,0,1,4,15)" stroke="red">
          <rect x="11.1576" width="1438.5529" height="20" y="0" stroke="none"/>
        </g>
        <g text-rendering="geometricPrecision" stroke-miterlimit="1.45" shape-rendering="geometricPrecision" font-family="sans-serif" transform="matrix(1,0,0,1,4,15) translate(13,2)" stroke-linecap="butt">
          <text x="0" xml:space="preserve" y="13" clip-path="url(#clipPath3)" stroke="none">     </text>
          <text fill="blue" x="15" xml:space="preserve" y="13" clip-path="url(#clipPath3)" stroke="none">automaton</text>
          <text x="74" xml:space="preserve" y="13" clip-path="url(#clipPath3)" stroke="none"> </text>
          <text x="77" xml:space="preserve" y="13" clip-path="url(#clipPath3)" stroke="none">referee</text>
        </g>
      </g>
      <g text-rendering="geometricPrecision" stroke-miterlimit="1.45" shape-rendering="geometricPrecision" transform="matrix(1,0,0,1,4,15)" stroke-linecap="butt">
        <rect fill="none" x="11.1576" width="1438.5529" height="297" y="0"/>
      </g>
    </g>
    <g onmouseout="HideTooltip(evt)" id="y.node.1" onmousemove="ShowTooltip(evt)">
      <g fill="rgb(235,235,184)" text-rendering="geometricPrecision" shape-rendering="geometricPrecision" transform="matrix(1,0,0,1,4,15)" stroke="rgb(235,235,184)">
        <rect x="33.9717" width="263" height="178.8438" y="35" stroke="none"/>
      </g>
      <g>
        <g fill="rgb(238,238,128)" text-rendering="geometricPrecision" shape-rendering="geometricPrecision" transform="matrix(1,0,0,1,4,15)" stroke="rgb(238,238,128)">
          <rect x="33.9717" width="263" height="18.7012" y="35" stroke="none"/>
        </g>
        <g text-rendering="geometricPrecision" stroke-miterlimit="1.45" shape-rendering="geometricPrecision" font-family="sans-serif" transform="matrix(1,0,0,1,4,15)" stroke-linecap="butt">
          <text x="35.9717" xml:space="preserve" y="49.0645" stroke="none">     Declarations</text>
        </g>
      </g>
      <g>
        <g stroke-linecap="butt" transform="matrix(1,0,0,1,4,15) translate(38,56)" fill="blue" text-rendering="geometricPrecision" font-family="sans-serif" shape-rendering="geometricPrecision" stroke="blue" stroke-miterlimit="1.45">
          <text x="0" xml:space="preserve" y="13" clip-path="url(#clipPath4)" stroke="none">event</text>
          <text fill="black" x="29" xml:space="preserve" y="13" clip-path="url(#clipPath4)" stroke="none"> </text>
          <text fill="black" x="32" xml:space="preserve" y="13" clip-path="url(#clipPath4)" stroke="none">psv_score</text>
          <text fill="rgb(64,32,32)" x="89" xml:space="preserve" y="13" clip-path="url(#clipPath4)" stroke="none">;</text>
          <text fill="black" x="92" xml:space="preserve" y="13" clip-path="url(#clipPath4)" stroke="none"> </text>
          <text x="0" xml:space="preserve" y="29" clip-path="url(#clipPath4)" stroke="none">event</text>
          <text fill="black" x="29" xml:space="preserve" y="29" clip-path="url(#clipPath4)" stroke="none"> </text>
          <text fill="black" x="32" xml:space="preserve" y="29" clip-path="url(#clipPath4)" stroke="none">ajax_score</text>
          <text fill="rgb(64,32,32)" x="92" xml:space="preserve" y="29" clip-path="url(#clipPath4)" stroke="none">;</text>
          <text fill="black" x="95" xml:space="preserve" y="29" clip-path="url(#clipPath4)" stroke="none"> </text>
          <text x="0" xml:space="preserve" y="45" clip-path="url(#clipPath4)" stroke="none">event</text>
          <text fill="black" x="29" xml:space="preserve" y="45" clip-path="url(#clipPath4)" stroke="none"> </text>
          <text fill="black" x="32" xml:space="preserve" y="45" clip-path="url(#clipPath4)" stroke="none">next_half</text>
          <text fill="rgb(64,32,32)" x="81" xml:space="preserve" y="45" clip-path="url(#clipPath4)" stroke="none">;</text>
          <text fill="black" x="84" xml:space="preserve" y="45" clip-path="url(#clipPath4)" stroke="none"> </text>
          <text x="0" xml:space="preserve" y="61" clip-path="url(#clipPath4)" stroke="none">event</text>
          <text fill="black" x="29" xml:space="preserve" y="61" clip-path="url(#clipPath4)" stroke="none"> </text>
          <text fill="black" x="32" xml:space="preserve" y="61" clip-path="url(#clipPath4)" stroke="none">set_score</text>
          <text fill="rgb(64,32,32)" x="87" xml:space="preserve" y="61" clip-path="url(#clipPath4)" stroke="none">;</text>
          <text fill="black" x="90" xml:space="preserve" y="61" clip-path="url(#clipPath4)" stroke="none"> </text>
          <text x="0" xml:space="preserve" y="77" clip-path="url(#clipPath4)" stroke="none">disc</text>
          <text fill="black" x="23" xml:space="preserve" y="77" clip-path="url(#clipPath4)" stroke="none"> </text>
          <text x="26" xml:space="preserve" y="77" clip-path="url(#clipPath4)" stroke="none">int</text>
          <text fill="black" x="39" xml:space="preserve" y="77" clip-path="url(#clipPath4)" stroke="none"> </text>
          <text fill="black" x="42" xml:space="preserve" y="77" clip-path="url(#clipPath4)" stroke="none">psv_points</text>
          <text fill="rgb(64,32,32)" x="102" xml:space="preserve" y="77" clip-path="url(#clipPath4)" stroke="none">;</text>
          <text fill="black" x="105" xml:space="preserve" y="77" clip-path="url(#clipPath4)" stroke="none"> </text>
          <text x="0" xml:space="preserve" y="93" clip-path="url(#clipPath4)" stroke="none">disc</text>
          <text fill="black" x="23" xml:space="preserve" y="93" clip-path="url(#clipPath4)" stroke="none"> </text>
          <text x="26" xml:space="preserve" y="93" clip-path="url(#clipPath4)" stroke="none">int</text>
          <text fill="black" x="39" xml:space="preserve" y="93" clip-path="url(#clipPath4)" stroke="none"> </text>
          <text fill="black" x="42" xml:space="preserve" y="93" clip-path="url(#clipPath4)" stroke="none">ajax_points</text>
          <text fill="rgb(64,32,32)" x="105" xml:space="preserve" y="93" clip-path="url(#clipPath4)" stroke="none">;</text>
          <text fill="black" x="108" xml:space="preserve" y="93" clip-path="url(#clipPath4)" stroke="none"> </text>
          <text x="0" xml:space="preserve" y="109" clip-path="url(#clipPath4)" stroke="none">disc</text>
          <text fill="black" x="23" xml:space="preserve" y="109" clip-path="url(#clipPath4)" stroke="none"> </text>
          <text x="26" xml:space="preserve" y="109" clip-path="url(#clipPath4)" stroke="none">int</text>
          <text fill="black" x="39" xml:space="preserve" y="109" clip-path="url(#clipPath4)" stroke="none"> </text>
          <text fill="black" x="42" xml:space="preserve" y="109" clip-path="url(#clipPath4)" stroke="none">half</text>
          <text fill="black" x="62" xml:space="preserve" y="109" clip-path="url(#clipPath4)" stroke="none"> </text>
          <text fill="rgb(64,32,32)" x="65" xml:space="preserve" y="109" clip-path="url(#clipPath4)" stroke="none">=</text>
          <text fill="black" x="72" xml:space="preserve" y="109" clip-path="url(#clipPath4)" stroke="none"> </text>
          <text fill="rgb(0,97,0)" x="75" xml:space="preserve" y="109" clip-path="url(#clipPath4)" stroke="none">1</text>
          <text fill="rgb(64,32,32)" x="82" xml:space="preserve" y="109" clip-path="url(#clipPath4)" stroke="none">;</text>
          <text fill="black" x="85" xml:space="preserve" y="109" clip-path="url(#clipPath4)" stroke="none"> </text>
          <text x="0" xml:space="preserve" y="125" clip-path="url(#clipPath4)" stroke="none">disc</text>
          <text fill="black" x="23" xml:space="preserve" y="125" clip-path="url(#clipPath4)" stroke="none"> </text>
          <text x="26" xml:space="preserve" y="125" clip-path="url(#clipPath4)" stroke="none">bool</text>
          <text fill="black" x="50" xml:space="preserve" y="125" clip-path="url(#clipPath4)" stroke="none"> </text>
          <text fill="black" x="53" xml:space="preserve" y="125" clip-path="url(#clipPath4)" stroke="none">psv_win</text>
          <text fill="black" x="98" xml:space="preserve" y="125" clip-path="url(#clipPath4)" stroke="none"> </text>
          <text fill="rgb(64,32,32)" x="101" xml:space="preserve" y="125" clip-path="url(#clipPath4)" stroke="none">=</text>
          <text fill="black" x="108" xml:space="preserve" y="125" clip-path="url(#clipPath4)" stroke="none"> </text>
          <text fill="black" x="111" xml:space="preserve" y="125" clip-path="url(#clipPath4)" stroke="none">psv_points</text>
          <text fill="black" x="171" xml:space="preserve" y="125" clip-path="url(#clipPath4)" stroke="none"> </text>
          <text fill="rgb(64,32,32)" x="174" xml:space="preserve" y="125" clip-path="url(#clipPath4)" stroke="none">&gt;</text>
          <text fill="black" x="181" xml:space="preserve" y="125" clip-path="url(#clipPath4)" stroke="none"> </text>
          <text fill="black" x="184" xml:space="preserve" y="125" clip-path="url(#clipPath4)" stroke="none">ajax_points</text>
          <text fill="rgb(64,32,32)" x="247" xml:space="preserve" y="125" clip-path="url(#clipPath4)" stroke="none">;</text>
          <text fill="black" x="250" xml:space="preserve" y="125" clip-path="url(#clipPath4)" stroke="none"> </text>
          <text x="0" xml:space="preserve" y="141" clip-path="url(#clipPath4)" stroke="none">disc</text>
          <text fill="black" x="23" xml:space="preserve" y="141" clip-path="url(#clipPath4)" stroke="none"> </text>
          <text x="26" xml:space="preserve" y="141" clip-path="url(#clipPath4)" stroke="none">bool</text>
          <text fill="black" x="50" xml:space="preserve" y="141" clip-path="url(#clipPath4)" stroke="none"> </text>
          <text fill="black" x="53" xml:space="preserve" y="141" clip-path="url(#clipPath4)" stroke="none">ajax_win</text>
          <text fill="black" x="101" xml:space="preserve" y="141" clip-path="url(#clipPath4)" stroke="none"> </text>
          <text fill="rgb(64,32,32)" x="104" xml:space="preserve" y="141" clip-path="url(#clipPath4)" stroke="none">=</text>
          <text fill="black" x="111" xml:space="preserve" y="141" clip-path="url(#clipPath4)" stroke="none"> </text>
          <text fill="black" x="114" xml:space="preserve" y="141" clip-path="url(#clipPath4)" stroke="none">psv_points</text>
          <text fill="black" x="174" xml:space="preserve" y="141" clip-path="url(#clipPath4)" stroke="none"> </text>
          <text fill="rgb(64,32,32)" x="177" xml:space="preserve" y="141" clip-path="url(#clipPath4)" stroke="none">&lt;</text>
          <text fill="black" x="184" xml:space="preserve" y="141" clip-path="url(#clipPath4)" stroke="none"> </text>
          <text fill="black" x="187" xml:space="preserve" y="141" clip-path="url(#clipPath4)" stroke="none">ajax_points</text>
          <text fill="rgb(64,32,32)" x="250" xml:space="preserve" y="141" clip-path="url(#clipPath4)" stroke="none">;</text>
        </g>
      </g>
      <g text-rendering="geometricPrecision" stroke-miterlimit="1.45" shape-rendering="geometricPrecision" transform="matrix(1,0,0,1,4,15)" stroke-linecap="butt">
        <rect fill="none" x="33.9717" width="263" height="178.8438" y="35"/>
      </g>
    </g>
    <g onmouseout="HideTooltip(evt)" id="y.node.2" onmousemove="ShowTooltip(evt)">
      <g fill="rgb(204,204,255)" text-rendering="geometricPrecision" shape-rendering="geometricPrecision" transform="matrix(1,0,0,1,4,15)" stroke="rgb(204,204,255)">
        <rect x="534.875" y="215" width="890.25" rx="4" ry="4" height="30" stroke="none"/>
      </g>
      <g>
        <g text-rendering="geometricPrecision" stroke-miterlimit="1.45" shape-rendering="geometricPrecision" font-family="sans-serif" transform="matrix(1,0,0,1,4,15) translate(960,222)" stroke-linecap="butt">
          <text x="0" xml:space="preserve" y="13" clip-path="url(#clipPath5)" stroke="none">Playing</text>
        </g>
      </g>
      <g text-rendering="geometricPrecision" stroke-miterlimit="1.45" shape-rendering="geometricPrecision" transform="matrix(1,0,0,1,4,15)" stroke-linecap="butt">
        <rect x="534.875" y="215" fill="none" width="890.25" rx="4" ry="4" height="30"/>
      </g>
    </g>
    <g onmouseout="HideTooltip(evt)" id="y.node.3" onmousemove="ShowTooltip(evt)">
      <g/>
    </g>
    <g onmouseout="HideTooltip(evt)" id="y.node.4" onmousemove="ShowTooltip(evt)">
      <g fill="rgb(204,204,255)" text-rendering="geometricPrecision" shape-rendering="geometricPrecision" transform="matrix(1,0,0,1,4,15)" stroke="rgb(204,204,255)">
        <rect x="534.875" y="35" width="890.25" rx="4" ry="4" height="30" stroke="none"/>
      </g>
      <g>
        <g text-rendering="geometricPrecision" stroke-miterlimit="1.45" shape-rendering="geometricPrecision" font-family="sans-serif" transform="matrix(1,0,0,1,4,15) translate(971,42)" stroke-linecap="butt">
          <text x="0" xml:space="preserve" y="13" clip-path="url(#clipPath6)" stroke="none">Set</text>
        </g>
      </g>
      <g text-rendering="geometricPrecision" stroke-miterlimit="1.45" shape-rendering="geometricPrecision" transform="matrix(1,0,0,1,4,15)" stroke-linecap="butt">
        <rect x="534.875" y="35" fill="none" width="890.25" rx="4" ry="4" height="30"/>
      </g>
    </g>
    <g id="y.edge.0">
      <g text-rendering="geometricPrecision" stroke-miterlimit="1.45" shape-rendering="geometricPrecision" transform="matrix(1,0,0,1,4,15)" stroke-linecap="butt">
        <path fill="none" d="M980 274.48 L980 253"/>
        <path d="M980 245 L975 257 L980 254 L985 257 Z" stroke="none"/>
      </g>
    </g>
    <g id="y.edge.1">
      <g text-rendering="geometricPrecision" stroke-miterlimit="1.45" shape-rendering="geometricPrecision" transform="matrix(1,0,0,1,4,15)" stroke-linecap="butt">
        <path fill="none" d="M1419.4139 214.9634 L1419.4139 73"/>
        <path d="M1419.4139 65 L1414.4139 77 L1419.4139 74 L1424.4139 77 Z" stroke="none"/>
      </g>
      <g>
        <g stroke-linecap="butt" transform="matrix(1,0,0,1,4,15)" fill="rgb(238,238,238)" text-rendering="geometricPrecision" shape-rendering="geometricPrecision" stroke="rgb(238,238,238)" stroke-miterlimit="1.45">
          <rect x="1240.4139" width="177" height="36" y="122" stroke="none"/>
        </g>
        <g text-rendering="geometricPrecision" stroke-miterlimit="1.45" shape-rendering="geometricPrecision" font-family="sans-serif" transform="matrix(1,0,0,1,4,15) translate(1242,124)" stroke-linecap="butt">
          <text x="0" xml:space="preserve" y="13" clip-path="url(#clipPath7)" stroke="none">psv_score</text>
          <text x="57" xml:space="preserve" y="13" clip-path="url(#clipPath7)" stroke="none"> </text>
          <text fill="blue" x="0" xml:space="preserve" y="29" clip-path="url(#clipPath7)" stroke="none">do</text>
          <text x="14" xml:space="preserve" y="29" clip-path="url(#clipPath7)" stroke="none"> </text>
          <text x="17" xml:space="preserve" y="29" clip-path="url(#clipPath7)" stroke="none">psv_points</text>
          <text x="77" xml:space="preserve" y="29" clip-path="url(#clipPath7)" stroke="none"> </text>
          <text fill="rgb(64,32,32)" x="80" xml:space="preserve" y="29" clip-path="url(#clipPath7)" stroke="none">:=</text>
          <text x="90" xml:space="preserve" y="29" clip-path="url(#clipPath7)" stroke="none"> </text>
          <text x="93" xml:space="preserve" y="29" clip-path="url(#clipPath7)" stroke="none">psv_points</text>
          <text x="153" xml:space="preserve" y="29" clip-path="url(#clipPath7)" stroke="none"> </text>
          <text fill="rgb(64,32,32)" x="156" xml:space="preserve" y="29" clip-path="url(#clipPath7)" stroke="none">+</text>
          <text x="163" xml:space="preserve" y="29" clip-path="url(#clipPath7)" stroke="none"> </text>
          <text fill="rgb(0,97,0)" x="166" xml:space="preserve" y="29" clip-path="url(#clipPath7)" stroke="none">1</text>
        </g>
      </g>
    </g>
    <g id="y.edge.2">
      <g text-rendering="geometricPrecision" stroke-miterlimit="1.45" shape-rendering="geometricPrecision" transform="matrix(1,0,0,1,4,15)" stroke-linecap="butt">
        <path fill="none" d="M1239.5496 214.9634 L1239.5496 73"/>
        <path d="M1239.5496 65 L1234.5496 77 L1239.5496 74 L1244.5496 77 Z" stroke="none"/>
      </g>
      <g>
        <g stroke-linecap="butt" transform="matrix(1,0,0,1,4,15)" fill="rgb(238,238,238)" text-rendering="geometricPrecision" shape-rendering="geometricPrecision" stroke="rgb(238,238,238)" stroke-miterlimit="1.45">
          <rect x="1057.5495" width="180" height="36" y="122" stroke="none"/>
        </g>
        <g text-rendering="geometricPrecision" stroke-miterlimit="1.45" shape-rendering="geometricPrecision" font-family="sans-serif" transform="matrix(1,0,0,1,4,15) translate(1059,124)" stroke-linecap="butt">
          <text x="0" xml:space="preserve" y="13" clip-path="url(#clipPath8)" stroke="none">ajax_score</text>
          <text x="60" xml:space="preserve" y="13" clip-path="url(#clipPath8)" stroke="none"> </text>
          <text fill="blue" x="0" xml:space="preserve" y="29" clip-path="url(#clipPath8)" stroke="none">do</text>
          <text x="14" xml:space="preserve" y="29" clip-path="url(#clipPath8)" stroke="none"> </text>
          <text x="17" xml:space="preserve" y="29" clip-path="url(#clipPath8)" stroke="none">ajax_points</text>
          <text x="80" xml:space="preserve" y="29" clip-path="url(#clipPath8)" stroke="none"> </text>
          <text fill="rgb(64,32,32)" x="83" xml:space="preserve" y="29" clip-path="url(#clipPath8)" stroke="none">:=</text>
          <text x="93" xml:space="preserve" y="29" clip-path="url(#clipPath8)" stroke="none"> </text>
          <text x="96" xml:space="preserve" y="29" clip-path="url(#clipPath8)" stroke="none">psv_points</text>
          <text x="156" xml:space="preserve" y="29" clip-path="url(#clipPath8)" stroke="none"> </text>
          <text fill="rgb(64,32,32)" x="159" xml:space="preserve" y="29" clip-path="url(#clipPath8)" stroke="none">+</text>
          <text x="166" xml:space="preserve" y="29" clip-path="url(#clipPath8)" stroke="none"> </text>
          <text fill="rgb(0,97,0)" x="169" xml:space="preserve" y="29" clip-path="url(#clipPath8)" stroke="none">1</text>
        </g>
      </g>
    </g>
    <g id="y.edge.3">
      <g text-rendering="geometricPrecision" stroke-miterlimit="1.45" shape-rendering="geometricPrecision" transform="matrix(1,0,0,1,4,15)" stroke-linecap="butt">
        <path fill="none" d="M1059.3293 214.9634 L1059.3293 73"/>
        <path d="M1059.3293 65 L1054.3293 77 L1059.3293 74 L1064.3293 77 Z" stroke="none"/>
      </g>
      <g>
        <g stroke-linecap="butt" transform="matrix(1,0,0,1,4,15)" fill="rgb(238,238,238)" text-rendering="geometricPrecision" shape-rendering="geometricPrecision" stroke="rgb(238,238,238)" stroke-miterlimit="1.45">
          <rect x="960.3294" width="97" height="36" y="122" stroke="none"/>
        </g>
        <g text-rendering="geometricPrecision" stroke-miterlimit="1.45" shape-rendering="geometricPrecision" font-family="sans-serif" transform="matrix(1,0,0,1,4,15) translate(962,124)" stroke-linecap="butt">
          <text x="0" xml:space="preserve" y="13" clip-path="url(#clipPath9)" stroke="none">next_half</text>
          <text x="49" xml:space="preserve" y="13" clip-path="url(#clipPath9)" stroke="none"> </text>
          <text fill="blue" x="0" xml:space="preserve" y="29" clip-path="url(#clipPath9)" stroke="none">do</text>
          <text x="14" xml:space="preserve" y="29" clip-path="url(#clipPath9)" stroke="none"> </text>
          <text x="17" xml:space="preserve" y="29" clip-path="url(#clipPath9)" stroke="none">half</text>
          <text x="37" xml:space="preserve" y="29" clip-path="url(#clipPath9)" stroke="none"> </text>
          <text fill="rgb(64,32,32)" x="40" xml:space="preserve" y="29" clip-path="url(#clipPath9)" stroke="none">:=</text>
          <text x="50" xml:space="preserve" y="29" clip-path="url(#clipPath9)" stroke="none"> </text>
          <text x="53" xml:space="preserve" y="29" clip-path="url(#clipPath9)" stroke="none">half</text>
          <text x="73" xml:space="preserve" y="29" clip-path="url(#clipPath9)" stroke="none"> </text>
          <text fill="rgb(64,32,32)" x="76" xml:space="preserve" y="29" clip-path="url(#clipPath9)" stroke="none">+</text>
          <text x="83" xml:space="preserve" y="29" clip-path="url(#clipPath9)" stroke="none"> </text>
          <text fill="rgb(0,97,0)" x="86" xml:space="preserve" y="29" clip-path="url(#clipPath9)" stroke="none">1</text>
        </g>
      </g>
    </g>
    <g id="y.edge.4">
      <g text-rendering="geometricPrecision" stroke-miterlimit="1.45" shape-rendering="geometricPrecision" transform="matrix(1,0,0,1,4,15)" stroke-linecap="butt">
        <path fill="none" d="M897.9633 65 L897.9633 206.9634"/>
        <path d="M897.9633 214.9634 L902.9633 202.9634 L897.9633 205.9634 L892.9633 202.9634 Z" stroke="none"/>
      </g>
      <g>
        <g stroke-linecap="butt" transform="matrix(1,0,0,1,4,15)" fill="rgb(238,238,238)" text-rendering="geometricPrecision" shape-rendering="geometricPrecision" stroke="rgb(238,238,238)" stroke-miterlimit="1.45">
          <rect x="722.9633" width="173" height="52" y="114" stroke="none"/>
        </g>
        <g text-rendering="geometricPrecision" stroke-miterlimit="1.45" shape-rendering="geometricPrecision" font-family="sans-serif" transform="matrix(1,0,0,1,4,15) translate(724,116)" stroke-linecap="butt">
          <text x="0" xml:space="preserve" y="13" clip-path="url(#clipPath10)" stroke="none">set_score</text>
          <text x="55" xml:space="preserve" y="13" clip-path="url(#clipPath10)" stroke="none"> </text>
          <text fill="blue" x="0" xml:space="preserve" y="29" clip-path="url(#clipPath10)" stroke="none">when</text>
          <text x="30" xml:space="preserve" y="29" clip-path="url(#clipPath10)" stroke="none"> </text>
          <text x="33" xml:space="preserve" y="29" clip-path="url(#clipPath10)" stroke="none">psv_points</text>
          <text x="93" xml:space="preserve" y="29" clip-path="url(#clipPath10)" stroke="none"> </text>
          <text fill="rgb(64,32,32)" x="96" xml:space="preserve" y="29" clip-path="url(#clipPath10)" stroke="none">&gt;</text>
          <text x="103" xml:space="preserve" y="29" clip-path="url(#clipPath10)" stroke="none"> </text>
          <text x="106" xml:space="preserve" y="29" clip-path="url(#clipPath10)" stroke="none">ajax_points</text>
          <text x="169" xml:space="preserve" y="29" clip-path="url(#clipPath10)" stroke="none"> </text>
          <text fill="blue" x="0" xml:space="preserve" y="45" clip-path="url(#clipPath10)" stroke="none">do</text>
          <text x="14" xml:space="preserve" y="45" clip-path="url(#clipPath10)" stroke="none"> </text>
          <text x="17" xml:space="preserve" y="45" clip-path="url(#clipPath10)" stroke="none">psv_win</text>
          <text x="62" xml:space="preserve" y="45" clip-path="url(#clipPath10)" stroke="none"> </text>
          <text fill="rgb(64,32,32)" x="65" xml:space="preserve" y="45" clip-path="url(#clipPath10)" stroke="none">:=</text>
          <text x="75" xml:space="preserve" y="45" clip-path="url(#clipPath10)" stroke="none"> </text>
          <text fill="blue" x="78" xml:space="preserve" y="45" clip-path="url(#clipPath10)" stroke="none">true</text>
        </g>
      </g>
    </g>
    <g id="y.edge.5">
      <g text-rendering="geometricPrecision" stroke-miterlimit="1.45" shape-rendering="geometricPrecision" transform="matrix(1,0,0,1,4,15)" stroke-linecap="butt">
        <path fill="none" d="M718.0988 65 L718.0988 206.9634"/>
        <path d="M718.0988 214.9634 L723.0988 202.9634 L718.0988 205.9634 L713.0988 202.9634 Z" stroke="none"/>
      </g>
      <g>
        <g stroke-linecap="butt" transform="matrix(1,0,0,1,4,15)" fill="rgb(238,238,238)" text-rendering="geometricPrecision" shape-rendering="geometricPrecision" stroke="rgb(238,238,238)" stroke-miterlimit="1.45">
          <rect x="543.0988" width="173" height="52" y="114" stroke="none"/>
        </g>
        <g text-rendering="geometricPrecision" stroke-miterlimit="1.45" shape-rendering="geometricPrecision" font-family="sans-serif" transform="matrix(1,0,0,1,4,15) translate(545,116)" stroke-linecap="butt">
          <text x="0" xml:space="preserve" y="13" clip-path="url(#clipPath10)" stroke="none">set_score</text>
          <text x="55" xml:space="preserve" y="13" clip-path="url(#clipPath10)" stroke="none"> </text>
          <text fill="blue" x="0" xml:space="preserve" y="29" clip-path="url(#clipPath10)" stroke="none">when</text>
          <text x="30" xml:space="preserve" y="29" clip-path="url(#clipPath10)" stroke="none"> </text>
          <text x="33" xml:space="preserve" y="29" clip-path="url(#clipPath10)" stroke="none">ajax_points</text>
          <text x="96" xml:space="preserve" y="29" clip-path="url(#clipPath10)" stroke="none"> </text>
          <text fill="rgb(64,32,32)" x="99" xml:space="preserve" y="29" clip-path="url(#clipPath10)" stroke="none">&gt;</text>
          <text x="106" xml:space="preserve" y="29" clip-path="url(#clipPath10)" stroke="none"> </text>
          <text x="109" xml:space="preserve" y="29" clip-path="url(#clipPath10)" stroke="none">psv_points</text>
          <text x="169" xml:space="preserve" y="29" clip-path="url(#clipPath10)" stroke="none"> </text>
          <text fill="blue" x="0" xml:space="preserve" y="45" clip-path="url(#clipPath10)" stroke="none">do</text>
          <text x="14" xml:space="preserve" y="45" clip-path="url(#clipPath10)" stroke="none"> </text>
          <text x="17" xml:space="preserve" y="45" clip-path="url(#clipPath10)" stroke="none">ajax_win</text>
          <text x="65" xml:space="preserve" y="45" clip-path="url(#clipPath10)" stroke="none"> </text>
          <text fill="rgb(64,32,32)" x="68" xml:space="preserve" y="45" clip-path="url(#clipPath10)" stroke="none">:=</text>
          <text x="78" xml:space="preserve" y="45" clip-path="url(#clipPath10)" stroke="none"> </text>
          <text fill="blue" x="81" xml:space="preserve" y="45" clip-path="url(#clipPath10)" stroke="none">true</text>
        </g>
      </g>
    </g>
    <g id="y.edge.6">
      <g text-rendering="geometricPrecision" stroke-miterlimit="1.45" shape-rendering="geometricPrecision" transform="matrix(1,0,0,1,4,15)" stroke-linecap="butt">
        <path fill="none" d="M538.4324 65 L538.4324 207"/>
        <path d="M538.4324 215 L543.4324 203 L538.4324 206 L533.4324 203 Z" stroke="none"/>
      </g>
      <g>
        <g stroke-linecap="butt" transform="matrix(1,0,0,1,4,15)" fill="rgb(238,238,238)" text-rendering="geometricPrecision" shape-rendering="geometricPrecision" stroke="rgb(238,238,238)" stroke-miterlimit="1.45">
          <rect x="330.4324" width="206" height="52" y="114" stroke="none"/>
        </g>
        <g text-rendering="geometricPrecision" stroke-miterlimit="1.45" shape-rendering="geometricPrecision" font-family="sans-serif" transform="matrix(1,0,0,1,4,15) translate(332,116)" stroke-linecap="butt">
          <text x="0" xml:space="preserve" y="13" clip-path="url(#clipPath11)" stroke="none">set_score</text>
          <text x="55" xml:space="preserve" y="13" clip-path="url(#clipPath11)" stroke="none"> </text>
          <text fill="blue" x="0" xml:space="preserve" y="29" clip-path="url(#clipPath11)" stroke="none">when</text>
          <text x="30" xml:space="preserve" y="29" clip-path="url(#clipPath11)" stroke="none"> </text>
          <text x="33" xml:space="preserve" y="29" clip-path="url(#clipPath11)" stroke="none">psv_points</text>
          <text x="93" xml:space="preserve" y="29" clip-path="url(#clipPath11)" stroke="none"> </text>
          <text fill="rgb(64,32,32)" x="96" xml:space="preserve" y="29" clip-path="url(#clipPath11)" stroke="none">=</text>
          <text x="103" xml:space="preserve" y="29" clip-path="url(#clipPath11)" stroke="none"> </text>
          <text x="106" xml:space="preserve" y="29" clip-path="url(#clipPath11)" stroke="none">ajax_points</text>
          <text x="169" xml:space="preserve" y="29" clip-path="url(#clipPath11)" stroke="none"> </text>
          <text fill="blue" x="0" xml:space="preserve" y="45" clip-path="url(#clipPath11)" stroke="none">do</text>
          <text x="14" xml:space="preserve" y="45" clip-path="url(#clipPath11)" stroke="none"> </text>
          <text x="17" xml:space="preserve" y="45" clip-path="url(#clipPath11)" stroke="none">psv_win</text>
          <text x="62" xml:space="preserve" y="45" clip-path="url(#clipPath11)" stroke="none"> </text>
          <text fill="rgb(64,32,32)" x="65" xml:space="preserve" y="45" clip-path="url(#clipPath11)" stroke="none">:=</text>
          <text x="75" xml:space="preserve" y="45" clip-path="url(#clipPath11)" stroke="none"> </text>
          <text fill="blue" x="78" xml:space="preserve" y="45" clip-path="url(#clipPath11)" stroke="none">false</text>
          <text fill="rgb(64,32,32)" x="105" xml:space="preserve" y="45" clip-path="url(#clipPath11)" stroke="none">,</text>
          <text x="108" xml:space="preserve" y="45" clip-path="url(#clipPath11)" stroke="none"> </text>
          <text x="111" xml:space="preserve" y="45" clip-path="url(#clipPath11)" stroke="none">ajax_win</text>
          <text x="159" xml:space="preserve" y="45" clip-path="url(#clipPath11)" stroke="none"> </text>
          <text fill="rgb(64,32,32)" x="162" xml:space="preserve" y="45" clip-path="url(#clipPath11)" stroke="none">:=</text>
          <text x="172" xml:space="preserve" y="45" clip-path="url(#clipPath11)" stroke="none"> </text>
          <text fill="blue" x="175" xml:space="preserve" y="45" clip-path="url(#clipPath11)" stroke="none">false</text>
        </g>
      </g>
    </g>
    <g visibility="hidden" id="tooltip.y.node.0" pointer-events="none">
      <g fill="rgb(255,255,225)" text-rendering="geometricPrecision" shape-rendering="geometricPrecision" font-family="'Segoe UI'" stroke="rgb(255,255,225)">
        <rect x="0" width="106" height="18" y="0" clip-path="url(#clipPath12)" stroke="none"/>
        <text fill="black" x="4" xml:space="preserve" y="14" clip-path="url(#clipPath12)" stroke="none">automaton referee</text>
      </g>
      <g font-family="'Segoe UI'" text-rendering="geometricPrecision" shape-rendering="geometricPrecision">
        <path d="M0 0 L106 0 L106 18 L0 18 L0 0 ZM1 1 L105 1 L105 17 L1 17 L1 1 Z" fill-rule="evenodd" clip-path="url(#clipPath12)" stroke="none"/>
      </g>
    </g>
    <g visibility="hidden" id="tooltip.y.node.1" pointer-events="none">
      <g fill="rgb(255,255,225)" text-rendering="geometricPrecision" shape-rendering="geometricPrecision" font-family="'Segoe UI'" stroke="rgb(255,255,225)">
        <rect x="0" width="73" height="18" y="0" clip-path="url(#clipPath13)" stroke="none"/>
        <text fill="black" x="4" xml:space="preserve" y="14" clip-path="url(#clipPath13)" stroke="none">Declarations</text>
      </g>
      <g font-family="'Segoe UI'" text-rendering="geometricPrecision" shape-rendering="geometricPrecision">
        <path d="M0 0 L73 0 L73 18 L0 18 L0 0 ZM1 1 L72 1 L72 17 L1 17 L1 1 Z" fill-rule="evenodd" clip-path="url(#clipPath13)" stroke="none"/>
      </g>
    </g>
    <g visibility="hidden" id="tooltip.y.node.2" pointer-events="none">
      <g fill="rgb(255,255,225)" text-rendering="geometricPrecision" shape-rendering="geometricPrecision" font-family="'Segoe UI'" stroke="rgb(255,255,225)">
        <rect x="0" width="93" height="18" y="0" clip-path="url(#clipPath14)" stroke="none"/>
        <text fill="black" x="4" xml:space="preserve" y="14" clip-path="url(#clipPath14)" stroke="none">location Playing</text>
      </g>
      <g font-family="'Segoe UI'" text-rendering="geometricPrecision" shape-rendering="geometricPrecision">
        <path d="M0 0 L93 0 L93 18 L0 18 L0 0 ZM1 1 L92 1 L92 17 L1 17 L1 1 Z" fill-rule="evenodd" clip-path="url(#clipPath14)" stroke="none"/>
      </g>
    </g>
    <g visibility="hidden" id="tooltip.y.node.3" pointer-events="none">
      <g fill="rgb(255,255,225)" text-rendering="geometricPrecision" shape-rendering="geometricPrecision" font-family="'Segoe UI'" stroke="rgb(255,255,225)">
        <rect x="0" width="8" height="18" y="0" clip-path="url(#clipPath15)" stroke="none"/>
      </g>
      <g font-family="'Segoe UI'" text-rendering="geometricPrecision" shape-rendering="geometricPrecision">
        <path d="M0 0 L8 0 L8 18 L0 18 L0 0 ZM1 1 L7 1 L7 17 L1 17 L1 1 Z" fill-rule="evenodd" clip-path="url(#clipPath15)" stroke="none"/>
      </g>
    </g>
    <g visibility="hidden" id="tooltip.y.node.4" pointer-events="none">
      <g fill="rgb(255,255,225)" text-rendering="geometricPrecision" shape-rendering="geometricPrecision" font-family="'Segoe UI'" stroke="rgb(255,255,225)">
        <rect x="0" width="70" height="18" y="0" clip-path="url(#clipPath16)" stroke="none"/>
        <text fill="black" x="4" xml:space="preserve" y="14" clip-path="url(#clipPath16)" stroke="none">location Set</text>
      </g>
      <g font-family="'Segoe UI'" text-rendering="geometricPrecision" shape-rendering="geometricPrecision">
        <path d="M0 0 L70 0 L70 18 L0 18 L0 0 ZM1 1 L69 1 L69 17 L1 17 L1 1 Z" fill-rule="evenodd" clip-path="url(#clipPath16)" stroke="none"/>
      </g>
    </g>
  </g>
</svg>
