<?xml version="1.0" encoding="UTF-8"?><svg xmlns="http://www.w3.org/2000/svg" xmlns:xlink="http://www.w3.org/1999/xlink" fill-opacity="1" color-rendering="auto" color-interpolation="auto" text-rendering="auto" stroke="black" stroke-linecap="square" width="267" stroke-miterlimit="10" shape-rendering="auto" stroke-opacity="1" fill="black" stroke-dasharray="none" font-weight="normal" stroke-width="1" height="199" font-family="'Dialog'" font-style="normal" stroke-linejoin="miter" font-size="12px" stroke-dashoffset="0" image-rendering="auto">
  <!--Generated by ySVG 2.5-->
  <defs id="genericDefs"/>
  <g>
    <defs id="defs1">
      <clipPath clipPathUnits="userSpaceOnUse" id="clipPath1">
        <path d="M0 0 L267 0 L267 199 L0 199 L0 0 Z"/>
      </clipPath>
      <clipPath clipPathUnits="userSpaceOnUse" id="clipPath2">
        <path d="M-7 -39 L260 -39 L260 160 L-7 160 L-7 -39 Z"/>
      </clipPath>
    </defs>
    <g fill="white" text-rendering="geometricPrecision" shape-rendering="geometricPrecision" transform="translate(7,39)" stroke="white">
      <rect x="-7" width="267" height="199" y="-39" clip-path="url(#clipPath2)" stroke="none"/>
    </g>
    <g fill="rgb(255,204,0)" text-rendering="geometricPrecision" shape-rendering="geometricPrecision" transform="matrix(1,0,0,1,7,39)" stroke="rgb(255,204,0)">
      <circle r="25" clip-path="url(#clipPath2)" cx="80" cy="1" stroke="none"/>
    </g>
    <g text-rendering="geometricPrecision" stroke-miterlimit="1.45" shape-rendering="geometricPrecision" transform="matrix(1,0,0,1,7,39)" stroke-linecap="butt">
      <circle fill="none" r="25" clip-path="url(#clipPath2)" cx="80" cy="1"/>
      <text x="76.6836" xml:space="preserve" y="5.5352" clip-path="url(#clipPath2)" font-family="sans-serif" stroke="none">P</text>
    </g>
    <g fill="rgb(255,204,0)" text-rendering="geometricPrecision" shape-rendering="geometricPrecision" transform="matrix(1,0,0,1,7,39)" stroke="rgb(255,204,0)">
      <circle r="25" clip-path="url(#clipPath2)" cx="80" cy="120" stroke="none"/>
    </g>
    <g text-rendering="geometricPrecision" stroke-miterlimit="1.45" shape-rendering="geometricPrecision" transform="matrix(1,0,0,1,7,39)" stroke-linecap="butt">
      <circle fill="none" r="25" clip-path="url(#clipPath2)" cx="80" cy="120"/>
      <text x="76.2061" xml:space="preserve" y="124.5352" clip-path="url(#clipPath2)" font-family="sans-serif" stroke="none">R</text>
    </g>
    <g fill="rgb(255,204,0)" text-rendering="geometricPrecision" shape-rendering="geometricPrecision" transform="matrix(1,0,0,1,7,39)" stroke="rgb(255,204,0)">
      <circle r="25" clip-path="url(#clipPath2)" cx="220" cy="120" stroke="none"/>
    </g>
    <g text-rendering="geometricPrecision" stroke-miterlimit="1.45" shape-rendering="geometricPrecision" transform="matrix(1,0,0,1,7,39)" stroke-linecap="butt">
      <circle fill="none" r="25" clip-path="url(#clipPath2)" cx="220" cy="120"/>
      <text x="216.6836" xml:space="preserve" y="124.5352" clip-path="url(#clipPath2)" font-family="sans-serif" stroke="none">P</text>
    </g>
    <g fill="rgb(255,204,0)" text-rendering="geometricPrecision" shape-rendering="geometricPrecision" transform="matrix(1,0,0,1,7,39)" stroke="rgb(255,204,0)">
      <circle r="25" clip-path="url(#clipPath2)" cx="220" cy="1" stroke="none"/>
    </g>
    <g text-rendering="geometricPrecision" stroke-miterlimit="1.45" shape-rendering="geometricPrecision" transform="matrix(1,0,0,1,7,39)" stroke-linecap="butt">
      <circle fill="none" r="25" clip-path="url(#clipPath2)" cx="220" cy="1"/>
      <text x="215.3389" xml:space="preserve" y="5.5352" clip-path="url(#clipPath2)" font-family="sans-serif" stroke="none">Q</text>
      <circle stroke-linecap="square" clip-path="url(#clipPath2)" r="2.5" cx="11" cy="1" stroke="none" stroke-miterlimit="10"/>
      <circle fill="none" r="2.5" clip-path="url(#clipPath2)" cx="11" cy="1"/>
      <path fill="none" d="M80 95 L80 34" clip-path="url(#clipPath2)"/>
      <path d="M80 26 L75 38 L80 35 L85 38 Z" clip-path="url(#clipPath2)" stroke="none"/>
      <text x="84" xml:space="preserve" y="65.0352" clip-path="url(#clipPath2)" font-family="sans-serif" stroke="none">d</text>
      <path fill="none" d="M195 120 L113 120" clip-path="url(#clipPath2)"/>
      <path d="M105 120 L117 125 L114 120 L117 115 Z" clip-path="url(#clipPath2)" stroke="none"/>
      <text x="146.9268" xml:space="preserve" y="113.4688" clip-path="url(#clipPath2)" font-family="sans-serif" stroke="none">c</text>
      <path fill="none" d="M105 1 L187 1" clip-path="url(#clipPath2)"/>
      <path d="M195 1 L183 -4 L186 1 L183 6 Z" clip-path="url(#clipPath2)" stroke="none"/>
      <text x="146.6865" xml:space="preserve" y="16.6016" clip-path="url(#clipPath2)" font-family="sans-serif" stroke="none">a</text>
      <path fill="none" d="M220 26 L220 87" clip-path="url(#clipPath2)"/>
      <path d="M220 95 L225 83 L220 86 L215 83 Z" clip-path="url(#clipPath2)" stroke="none"/>
      <text x="224" xml:space="preserve" y="65.0352" clip-path="url(#clipPath2)" font-family="sans-serif" stroke="none">b</text>
      <path fill="none" d="M13.5 1 L47 1" clip-path="url(#clipPath2)"/>
      <path d="M55 1 L43 -4 L46 1 L43 6 Z" clip-path="url(#clipPath2)" stroke="none"/>
    </g>
  </g>
</svg>
