<?xml version="1.0" encoding="UTF-8"?><svg xmlns="http://www.w3.org/2000/svg" xmlns:xlink="http://www.w3.org/1999/xlink" fill-opacity="1" color-rendering="auto" color-interpolation="auto" text-rendering="auto" stroke="black" stroke-linecap="square" width="353" stroke-miterlimit="10" shape-rendering="auto" stroke-opacity="1" fill="black" stroke-dasharray="none" font-weight="normal" stroke-width="1" height="180" font-family="'Dialog'" font-style="normal" stroke-linejoin="miter" font-size="12px" stroke-dashoffset="0" image-rendering="auto">
  <!--Generated by ySVG 2.5-->
  <defs id="genericDefs"/>
  <g>
    <defs id="defs1">
      <clipPath clipPathUnits="userSpaceOnUse" id="clipPath1">
        <path d="M0 0 L353 0 L353 180 L0 180 L0 0 Z"/>
      </clipPath>
      <clipPath clipPathUnits="userSpaceOnUse" id="clipPath2">
        <path d="M-21 0 L332 0 L332 180 L-21 180 L-21 0 Z"/>
      </clipPath>
    </defs>
    <g fill="white" text-rendering="geometricPrecision" shape-rendering="geometricPrecision" transform="translate(21,0)" stroke="white">
      <rect x="-21" width="353" height="180" y="0" clip-path="url(#clipPath2)" stroke="none"/>
    </g>
    <g fill="rgb(255,204,0)" text-rendering="geometricPrecision" shape-rendering="geometricPrecision" transform="matrix(1,0,0,1,21,0)" stroke="rgb(255,204,0)">
      <circle r="25" clip-path="url(#clipPath2)" cx="100" cy="40" stroke="none"/>
    </g>
    <g text-rendering="geometricPrecision" stroke-miterlimit="1.45" shape-rendering="geometricPrecision" transform="matrix(1,0,0,1,21,0)" stroke-linecap="butt">
      <circle fill="none" r="25" clip-path="url(#clipPath2)" cx="100" cy="40"/>
      <text x="93.3965" xml:space="preserve" y="44.5352" clip-path="url(#clipPath2)" font-family="sans-serif" stroke="none">I/I</text>
    </g>
    <g fill="rgb(255,204,0)" text-rendering="geometricPrecision" shape-rendering="geometricPrecision" transform="matrix(1,0,0,1,21,0)" stroke="rgb(255,204,0)">
      <circle r="25" clip-path="url(#clipPath2)" cx="260" cy="40" stroke="none"/>
    </g>
    <g text-rendering="geometricPrecision" stroke-miterlimit="1.45" shape-rendering="geometricPrecision" transform="matrix(1,0,0,1,21,0)" stroke-linecap="butt">
      <circle fill="none" r="25" clip-path="url(#clipPath2)" cx="260" cy="40"/>
      <text x="249.3975" xml:space="preserve" y="44.5352" clip-path="url(#clipPath2)" font-family="sans-serif" stroke="none">P/A</text>
    </g>
    <g fill="rgb(255,204,0)" text-rendering="geometricPrecision" shape-rendering="geometricPrecision" transform="matrix(1,0,0,1,21,0)" stroke="rgb(255,204,0)">
      <circle r="25" clip-path="url(#clipPath2)" cx="180" cy="140" stroke="none"/>
    </g>
    <g text-rendering="geometricPrecision" stroke-miterlimit="1.45" shape-rendering="geometricPrecision" transform="matrix(1,0,0,1,21,0)" stroke-linecap="butt">
      <circle fill="none" r="25" clip-path="url(#clipPath2)" cx="180" cy="140"/>
      <text x="170.6309" xml:space="preserve" y="144.5352" clip-path="url(#clipPath2)" font-family="sans-serif" stroke="none">I/D</text>
      <path fill="none" d="M125 40 L227 40" clip-path="url(#clipPath2)"/>
      <path d="M235 40 L223 35 L226 40 L223 45 Z" clip-path="url(#clipPath2)" stroke="none"/>
      <text x="143.4287" xml:space="preserve" y="33.4688" clip-path="url(#clipPath2)" font-family="sans-serif" stroke="none">order_coffee</text>
      <path fill="none" d="M244.3826 59.5217 L200.6149 114.2313" clip-path="url(#clipPath2)"/>
      <path d="M195.6174 120.4783 L207.0181 114.2313 L201.2396 113.4505 L199.2094 107.9844 Z" clip-path="url(#clipPath2)" stroke="none"/>
      <text x="231.2531" xml:space="preserve" y="94.5352" clip-path="url(#clipPath2)" font-family="sans-serif" stroke="none">release_coffee</text>
      <path fill="none" d="M164.3826 120.4783 L120.6149 65.7687" clip-path="url(#clipPath2)"/>
      <path d="M115.6174 59.5217 L119.2094 72.0156 L121.2396 66.5495 L127.0181 65.7687 Z" clip-path="url(#clipPath2)" stroke="none"/>
      <text x="-3.8037" xml:space="preserve" y="115.8297" clip-path="url(#clipPath2)" font-family="sans-serif" stroke="none">student.done_drinking</text>
    </g>
  </g>
</svg>
