<?xml version="1.0" encoding="UTF-8"?><svg xmlns="http://www.w3.org/2000/svg" xmlns:xlink="http://www.w3.org/1999/xlink" fill-opacity="1" color-rendering="auto" color-interpolation="auto" text-rendering="auto" stroke="black" stroke-linecap="square" width="276" stroke-miterlimit="10" shape-rendering="auto" stroke-opacity="1" fill="black" stroke-dasharray="none" font-weight="normal" stroke-width="1" height="390" font-family="'Dialog'" font-style="normal" stroke-linejoin="miter" font-size="12px" stroke-dashoffset="0" image-rendering="auto">
  <!--Generated by ySVG 2.5-->
  <defs id="genericDefs"/>
  <g>
    <defs id="defs1">
      <clipPath clipPathUnits="userSpaceOnUse" id="clipPath1">
        <path d="M0 0 L276 0 L276 390 L0 390 L0 0 Z"/>
      </clipPath>
      <clipPath clipPathUnits="userSpaceOnUse" id="clipPath2">
        <path d="M-18 -15 L258 -15 L258 375 L-18 375 L-18 -15 Z"/>
      </clipPath>
      <clipPath clipPathUnits="userSpaceOnUse" id="clipPath3">
        <path d="M0 0 L241 0 L241 16 L0 16 L0 0 Z"/>
      </clipPath>
      <clipPath clipPathUnits="userSpaceOnUse" id="clipPath4">
        <path d="M0 0 L42 0 L42 48 L0 48 L0 0 Z"/>
      </clipPath>
      <clipPath clipPathUnits="userSpaceOnUse" id="clipPath5">
        <path d="M0 0 L23 0 L23 16 L0 16 L0 0 Z"/>
      </clipPath>
      <clipPath clipPathUnits="userSpaceOnUse" id="clipPath6">
        <path d="M0 0 L21 0 L21 16 L0 16 L0 0 Z"/>
      </clipPath>
      <clipPath clipPathUnits="userSpaceOnUse" id="clipPath7">
        <path d="M0 0 L19 0 L19 16 L0 16 L0 0 Z"/>
      </clipPath>
      <clipPath clipPathUnits="userSpaceOnUse" id="clipPath8">
        <path d="M0 0 L7 0 L7 16 L0 16 L0 0 Z"/>
      </clipPath>
      <clipPath clipPathUnits="userSpaceOnUse" id="clipPath9">
        <path d="M0 0 L0 18 L113 18 L113 0 Z"/>
      </clipPath>
      <clipPath clipPathUnits="userSpaceOnUse" id="clipPath10">
        <path d="M0 0 L0 18 L73 18 L73 0 Z"/>
      </clipPath>
      <clipPath clipPathUnits="userSpaceOnUse" id="clipPath11">
        <path d="M0 0 L0 18 L76 18 L76 0 Z"/>
      </clipPath>
      <clipPath clipPathUnits="userSpaceOnUse" id="clipPath12">
        <path d="M0 0 L0 18 L8 18 L8 0 Z"/>
      </clipPath>
      <clipPath clipPathUnits="userSpaceOnUse" id="clipPath13">
        <path d="M0 0 L0 18 L74 18 L74 0 Z"/>
      </clipPath>
      <script type="text/ecmascript">
        <![CDATA[      var SVGDocument = null;
      var SVGRoot = null;
      var TrueCoords = null;
      var lastElement = null;
      var initialized = null;
      var tipGroup;
      function Init(evt)
      {
         SVGDocument = evt.target.ownerDocument;
         SVGRoot = SVGDocument.documentElement;
         TrueCoords = SVGRoot.createSVGPoint();
         initialized = evt;
      };
      function GetTrueCoords(evt)
      {
         var newScale = SVGRoot.currentScale;
         var translation = SVGRoot.currentTranslate;
         TrueCoords.x = (evt.clientX - translation.x)/newScale;
         TrueCoords.y = (evt.clientY - translation.y)/newScale;
      };
      function HideTooltip( evt )
      {
         if(initialized == null) {
           Init(evt);
         }
         if(tipGroup != null) {
           tipGroup.setAttributeNS(null, 'visibility', 'hidden');
         }
      };
      function ShowTooltip( evt )
      {
         if(initialized == null) {
           Init(evt);
         }
         GetTrueCoords( evt );
         var tipScale = 1/SVGRoot.currentScale;
         var targetElement = evt.currentTarget;
         if ( lastElement != targetElement )
         {
            var targetId = targetElement.getAttributeNS(null, 'id');
            var tipId = 'tooltip.' + targetId;
            tipGroup = SVGDocument.getElementById(tipId);
            var xPos = TrueCoords.x + (10 * tipScale);
            var yPos = TrueCoords.y + (10 * tipScale);
            tipGroup.setAttributeNS(null, 'transform', 'translate(' + xPos + ',' + yPos + ') scale(' + tipScale + ')');
            tipGroup.setAttributeNS(null, 'visibility', 'visible');
         }
      };
]]>
      </script>
    </defs>
    <g fill="white" text-rendering="geometricPrecision" shape-rendering="geometricPrecision" transform="translate(18,15)" stroke="white">
      <rect x="-18" width="276" height="390" y="-15" clip-path="url(#clipPath2)" stroke="none"/>
    </g>
    <g onmouseout="HideTooltip(evt)" id="y.node.0" onmousemove="ShowTooltip(evt)">
      <g fill="rgb(238,238,238)" text-rendering="geometricPrecision" shape-rendering="geometricPrecision" transform="matrix(1,0,0,1,18,15)" stroke="rgb(238,238,238)">
        <rect x="-2.5" width="245" height="360" y="0" stroke="none"/>
      </g>
      <g>
        <g fill="red" text-rendering="geometricPrecision" shape-rendering="geometricPrecision" transform="matrix(1,0,0,1,18,15)" stroke="red">
          <rect x="-2.5" width="245" height="20" y="0" stroke="none"/>
        </g>
        <g text-rendering="geometricPrecision" stroke-miterlimit="1.45" shape-rendering="geometricPrecision" font-family="sans-serif" transform="matrix(1,0,0,1,18,15) translate(0,2)" stroke-linecap="butt">
          <text x="0" xml:space="preserve" y="13" clip-path="url(#clipPath3)" stroke="none">     </text>
          <text fill="blue" x="15" xml:space="preserve" y="13" clip-path="url(#clipPath3)" stroke="none">automaton</text>
          <text x="74" xml:space="preserve" y="13" clip-path="url(#clipPath3)" stroke="none"> </text>
          <text x="77" xml:space="preserve" y="13" clip-path="url(#clipPath3)" stroke="none">buffer_2</text>
        </g>
      </g>
      <g text-rendering="geometricPrecision" stroke-miterlimit="1.45" shape-rendering="geometricPrecision" transform="matrix(1,0,0,1,18,15)" stroke-linecap="butt">
        <rect fill="none" x="-2.5" width="245" height="360" y="0"/>
      </g>
    </g>
    <g onmouseout="HideTooltip(evt)" id="y.node.1" onmousemove="ShowTooltip(evt)">
      <g fill="rgb(235,235,184)" text-rendering="geometricPrecision" shape-rendering="geometricPrecision" transform="matrix(1,0,0,1,18,15)" stroke="rgb(235,235,184)">
        <rect x="132.5" width="95" height="82.2812" y="38.8594" stroke="none"/>
      </g>
      <g>
        <g fill="rgb(238,238,128)" text-rendering="geometricPrecision" shape-rendering="geometricPrecision" transform="matrix(1,0,0,1,18,15)" stroke="rgb(238,238,128)">
          <rect x="132.5" width="95" height="18.7012" y="38.8594" stroke="none"/>
        </g>
        <g text-rendering="geometricPrecision" stroke-miterlimit="1.45" shape-rendering="geometricPrecision" font-family="sans-serif" transform="matrix(1,0,0,1,18,15)" stroke-linecap="butt">
          <text x="134.5" xml:space="preserve" y="52.9238" stroke="none">     Declarations</text>
        </g>
      </g>
      <g>
        <g stroke-linecap="butt" transform="matrix(1,0,0,1,18,15) translate(159,59)" fill="blue" text-rendering="geometricPrecision" font-family="sans-serif" shape-rendering="geometricPrecision" stroke="blue" stroke-miterlimit="1.45">
          <text x="0" xml:space="preserve" y="13" clip-path="url(#clipPath4)" stroke="none">event</text>
          <text fill="black" x="29" xml:space="preserve" y="13" clip-path="url(#clipPath4)" stroke="none"> </text>
          <text fill="black" x="32" xml:space="preserve" y="13" clip-path="url(#clipPath4)" stroke="none">a</text>
          <text fill="rgb(64,32,32)" x="39" xml:space="preserve" y="13" clip-path="url(#clipPath4)" stroke="none">;</text>
          <text fill="black" x="42" xml:space="preserve" y="13" clip-path="url(#clipPath4)" stroke="none"> </text>
          <text x="0" xml:space="preserve" y="29" clip-path="url(#clipPath4)" stroke="none">event</text>
          <text fill="black" x="29" xml:space="preserve" y="29" clip-path="url(#clipPath4)" stroke="none"> </text>
          <text fill="black" x="32" xml:space="preserve" y="29" clip-path="url(#clipPath4)" stroke="none">b</text>
          <text fill="rgb(64,32,32)" x="39" xml:space="preserve" y="29" clip-path="url(#clipPath4)" stroke="none">;</text>
          <text fill="black" x="42" xml:space="preserve" y="29" clip-path="url(#clipPath4)" stroke="none"> </text>
          <text x="0" xml:space="preserve" y="45" clip-path="url(#clipPath4)" stroke="none">event</text>
          <text fill="black" x="29" xml:space="preserve" y="45" clip-path="url(#clipPath4)" stroke="none"> </text>
          <text fill="black" x="32" xml:space="preserve" y="45" clip-path="url(#clipPath4)" stroke="none">c</text>
          <text fill="rgb(64,32,32)" x="38" xml:space="preserve" y="45" clip-path="url(#clipPath4)" stroke="none">;</text>
        </g>
      </g>
      <g text-rendering="geometricPrecision" stroke-miterlimit="1.45" shape-rendering="geometricPrecision" transform="matrix(1,0,0,1,18,15)" stroke-linecap="butt">
        <rect fill="none" x="132.5" width="95" height="82.2812" y="38.8594"/>
      </g>
    </g>
    <g onmouseout="HideTooltip(evt)" id="y.node.2" onmousemove="ShowTooltip(evt)">
      <g fill="rgb(204,204,255)" text-rendering="geometricPrecision" shape-rendering="geometricPrecision" transform="matrix(1,0,0,1,18,15)" stroke="rgb(204,204,255)">
        <rect x="48.5" y="275" width="63" rx="4" ry="4" height="30" stroke="none"/>
      </g>
      <g>
        <g text-rendering="geometricPrecision" stroke-miterlimit="1.45" shape-rendering="geometricPrecision" font-family="sans-serif" transform="matrix(1,0,0,1,18,15) translate(68,282)" stroke-linecap="butt">
          <text x="0" xml:space="preserve" y="13" clip-path="url(#clipPath5)" stroke="none">zero</text>
        </g>
      </g>
      <g text-rendering="geometricPrecision" stroke-miterlimit="1.45" shape-rendering="geometricPrecision" transform="matrix(1,0,0,1,18,15)" stroke-linecap="butt">
        <rect x="48.5" y="275" fill="none" width="63" rx="4" ry="4" height="30"/>
      </g>
    </g>
    <g onmouseout="HideTooltip(evt)" id="y.node.3" onmousemove="ShowTooltip(evt)">
      <g/>
    </g>
    <g onmouseout="HideTooltip(evt)" id="y.node.4" onmousemove="ShowTooltip(evt)">
      <g fill="rgb(204,204,255)" text-rendering="geometricPrecision" shape-rendering="geometricPrecision" transform="matrix(1,0,0,1,18,15)" stroke="rgb(204,204,255)">
        <rect x="49.5" y="155" width="61" rx="4" ry="4" height="30" stroke="none"/>
      </g>
      <g>
        <g text-rendering="geometricPrecision" stroke-miterlimit="1.45" shape-rendering="geometricPrecision" font-family="sans-serif" transform="matrix(1,0,0,1,18,15) translate(69,162)" stroke-linecap="butt">
          <text x="0" xml:space="preserve" y="13" clip-path="url(#clipPath6)" stroke="none">one</text>
        </g>
      </g>
      <g text-rendering="geometricPrecision" stroke-miterlimit="1.45" shape-rendering="geometricPrecision" transform="matrix(1,0,0,1,18,15)" stroke-linecap="butt">
        <rect x="49.5" y="155" fill="none" width="61" rx="4" ry="4" height="30"/>
      </g>
    </g>
    <g onmouseout="HideTooltip(evt)" id="y.node.5" onmousemove="ShowTooltip(evt)">
      <g fill="rgb(204,204,255)" text-rendering="geometricPrecision" shape-rendering="geometricPrecision" transform="matrix(1,0,0,1,18,15)" stroke="rgb(204,204,255)">
        <rect x="50" y="35" width="60" rx="4" ry="4" height="30" stroke="none"/>
      </g>
      <g>
        <g text-rendering="geometricPrecision" stroke-miterlimit="1.45" shape-rendering="geometricPrecision" font-family="sans-serif" transform="matrix(1,0,0,1,18,15) translate(70,42)" stroke-linecap="butt">
          <text x="0" xml:space="preserve" y="13" clip-path="url(#clipPath7)" stroke="none">two</text>
        </g>
      </g>
      <g text-rendering="geometricPrecision" stroke-miterlimit="1.45" shape-rendering="geometricPrecision" transform="matrix(1,0,0,1,18,15)" stroke-linecap="butt">
        <rect x="50" y="35" fill="none" width="60" rx="4" ry="4" height="30"/>
      </g>
    </g>
    <g id="y.edge.0">
      <g text-rendering="geometricPrecision" stroke-miterlimit="1.45" shape-rendering="geometricPrecision" transform="matrix(1,0,0,1,18,15)" stroke-linecap="butt">
        <path fill="none" d="M80 334.48 L80 313"/>
        <path d="M80 305 L75 317 L80 314 L85 317 Z" stroke="none"/>
      </g>
    </g>
    <g id="y.edge.1">
      <g text-rendering="geometricPrecision" stroke-miterlimit="1.45" shape-rendering="geometricPrecision" transform="matrix(1,0,0,1,18,15)" stroke-linecap="butt">
        <path fill="none" d="M70.5 274.9561 L70.5 193"/>
        <path d="M70.5 185 L65.5 197 L70.5 194 L75.5 197 Z" stroke="none"/>
      </g>
      <g>
        <g stroke-linecap="butt" transform="matrix(1,0,0,1,18,15)" fill="rgb(238,238,238)" text-rendering="geometricPrecision" shape-rendering="geometricPrecision" stroke="rgb(238,238,238)" stroke-miterlimit="1.45">
          <rect x="45.5" width="23" height="20" y="244.875" stroke="none"/>
        </g>
        <g text-rendering="geometricPrecision" stroke-miterlimit="1.45" shape-rendering="geometricPrecision" font-family="sans-serif" transform="matrix(1,0,0,1,18,15) translate(47,246)" stroke-linecap="butt">
          <text x="0" xml:space="preserve" y="13" clip-path="url(#clipPath7)" stroke="none">b</text>
          <text fill="rgb(64,32,32)" x="7" xml:space="preserve" y="13" clip-path="url(#clipPath7)" stroke="none">,</text>
          <text x="10" xml:space="preserve" y="13" clip-path="url(#clipPath7)" stroke="none"> </text>
          <text x="13" xml:space="preserve" y="13" clip-path="url(#clipPath7)" stroke="none">c</text>
        </g>
      </g>
    </g>
    <g id="y.edge.3">
      <g text-rendering="geometricPrecision" stroke-miterlimit="1.45" shape-rendering="geometricPrecision" transform="matrix(1,0,0,1,18,15)" stroke-linecap="butt">
        <path fill="none" d="M90.5 185 L90.5 266.9561"/>
        <path d="M90.5 274.9561 L95.5 262.9561 L90.5 265.9561 L85.5 262.9561 Z" stroke="none"/>
      </g>
      <g>
        <g stroke-linecap="butt" transform="matrix(1,0,0,1,18,15)" fill="rgb(238,238,238)" text-rendering="geometricPrecision" shape-rendering="geometricPrecision" stroke="rgb(238,238,238)" stroke-miterlimit="1.45">
          <rect x="92.5" width="11" height="20" y="195.125" stroke="none"/>
        </g>
        <g text-rendering="geometricPrecision" stroke-miterlimit="1.45" shape-rendering="geometricPrecision" font-family="sans-serif" transform="matrix(1,0,0,1,18,15) translate(94,197)" stroke-linecap="butt">
          <text x="0" xml:space="preserve" y="13" clip-path="url(#clipPath8)" stroke="none">a</text>
        </g>
      </g>
    </g>
    <g id="y.edge.2">
      <g text-rendering="geometricPrecision" stroke-miterlimit="1.45" shape-rendering="geometricPrecision" transform="matrix(1,0,0,1,18,15)" stroke-linecap="butt">
        <path fill="none" d="M70 154.9561 L70 73"/>
        <path d="M70 65 L65 77 L70 74 L75 77 Z" stroke="none"/>
      </g>
      <g>
        <g stroke-linecap="butt" transform="matrix(1,0,0,1,18,15)" fill="rgb(238,238,238)" text-rendering="geometricPrecision" shape-rendering="geometricPrecision" stroke="rgb(238,238,238)" stroke-miterlimit="1.45">
          <rect x="45" width="23" height="20" y="124.875" stroke="none"/>
        </g>
        <g text-rendering="geometricPrecision" stroke-miterlimit="1.45" shape-rendering="geometricPrecision" font-family="sans-serif" transform="matrix(1,0,0,1,18,15) translate(47,126)" stroke-linecap="butt">
          <text x="0" xml:space="preserve" y="13" clip-path="url(#clipPath7)" stroke="none">b</text>
          <text fill="rgb(64,32,32)" x="7" xml:space="preserve" y="13" clip-path="url(#clipPath7)" stroke="none">,</text>
          <text x="10" xml:space="preserve" y="13" clip-path="url(#clipPath7)" stroke="none"> </text>
          <text x="13" xml:space="preserve" y="13" clip-path="url(#clipPath7)" stroke="none">c</text>
        </g>
      </g>
    </g>
    <g id="y.edge.4">
      <g text-rendering="geometricPrecision" stroke-miterlimit="1.45" shape-rendering="geometricPrecision" transform="matrix(1,0,0,1,18,15)" stroke-linecap="butt">
        <path fill="none" d="M90 65 L90 146.9561"/>
        <path d="M90 154.9561 L95 142.9561 L90 145.9561 L85 142.9561 Z" stroke="none"/>
      </g>
      <g>
        <g stroke-linecap="butt" transform="matrix(1,0,0,1,18,15)" fill="rgb(238,238,238)" text-rendering="geometricPrecision" shape-rendering="geometricPrecision" stroke="rgb(238,238,238)" stroke-miterlimit="1.45">
          <rect x="92" width="11" height="20" y="75.125" stroke="none"/>
        </g>
        <g text-rendering="geometricPrecision" stroke-miterlimit="1.45" shape-rendering="geometricPrecision" font-family="sans-serif" transform="matrix(1,0,0,1,18,15) translate(94,77)" stroke-linecap="butt">
          <text x="0" xml:space="preserve" y="13" clip-path="url(#clipPath8)" stroke="none">a</text>
        </g>
      </g>
    </g>
    <g visibility="hidden" id="tooltip.y.node.0" pointer-events="none">
      <g fill="rgb(255,255,225)" text-rendering="geometricPrecision" shape-rendering="geometricPrecision" font-family="'Segoe UI'" stroke="rgb(255,255,225)">
        <rect x="0" width="113" height="18" y="0" clip-path="url(#clipPath9)" stroke="none"/>
        <text fill="black" x="4" xml:space="preserve" y="14" clip-path="url(#clipPath9)" stroke="none">automaton buffer_2</text>
      </g>
      <g font-family="'Segoe UI'" text-rendering="geometricPrecision" shape-rendering="geometricPrecision">
        <path d="M0 0 L113 0 L113 18 L0 18 L0 0 ZM1 1 L112 1 L112 17 L1 17 L1 1 Z" fill-rule="evenodd" clip-path="url(#clipPath9)" stroke="none"/>
      </g>
    </g>
    <g visibility="hidden" id="tooltip.y.node.1" pointer-events="none">
      <g fill="rgb(255,255,225)" text-rendering="geometricPrecision" shape-rendering="geometricPrecision" font-family="'Segoe UI'" stroke="rgb(255,255,225)">
        <rect x="0" width="73" height="18" y="0" clip-path="url(#clipPath10)" stroke="none"/>
        <text fill="black" x="4" xml:space="preserve" y="14" clip-path="url(#clipPath10)" stroke="none">Declarations</text>
      </g>
      <g font-family="'Segoe UI'" text-rendering="geometricPrecision" shape-rendering="geometricPrecision">
        <path d="M0 0 L73 0 L73 18 L0 18 L0 0 ZM1 1 L72 1 L72 17 L1 17 L1 1 Z" fill-rule="evenodd" clip-path="url(#clipPath10)" stroke="none"/>
      </g>
    </g>
    <g visibility="hidden" id="tooltip.y.node.2" pointer-events="none">
      <g fill="rgb(255,255,225)" text-rendering="geometricPrecision" shape-rendering="geometricPrecision" font-family="'Segoe UI'" stroke="rgb(255,255,225)">
        <rect x="0" width="76" height="18" y="0" clip-path="url(#clipPath11)" stroke="none"/>
        <text fill="black" x="4" xml:space="preserve" y="14" clip-path="url(#clipPath11)" stroke="none">location zero</text>
      </g>
      <g font-family="'Segoe UI'" text-rendering="geometricPrecision" shape-rendering="geometricPrecision">
        <path d="M0 0 L76 0 L76 18 L0 18 L0 0 ZM1 1 L75 1 L75 17 L1 17 L1 1 Z" fill-rule="evenodd" clip-path="url(#clipPath11)" stroke="none"/>
      </g>
    </g>
    <g visibility="hidden" id="tooltip.y.node.3" pointer-events="none">
      <g fill="rgb(255,255,225)" text-rendering="geometricPrecision" shape-rendering="geometricPrecision" font-family="'Segoe UI'" stroke="rgb(255,255,225)">
        <rect x="0" width="8" height="18" y="0" clip-path="url(#clipPath12)" stroke="none"/>
      </g>
      <g font-family="'Segoe UI'" text-rendering="geometricPrecision" shape-rendering="geometricPrecision">
        <path d="M0 0 L8 0 L8 18 L0 18 L0 0 ZM1 1 L7 1 L7 17 L1 17 L1 1 Z" fill-rule="evenodd" clip-path="url(#clipPath12)" stroke="none"/>
      </g>
    </g>
    <g visibility="hidden" id="tooltip.y.node.4" pointer-events="none">
      <g fill="rgb(255,255,225)" text-rendering="geometricPrecision" shape-rendering="geometricPrecision" font-family="'Segoe UI'" stroke="rgb(255,255,225)">
        <rect x="0" width="74" height="18" y="0" clip-path="url(#clipPath13)" stroke="none"/>
        <text fill="black" x="4" xml:space="preserve" y="14" clip-path="url(#clipPath13)" stroke="none">location one</text>
      </g>
      <g font-family="'Segoe UI'" text-rendering="geometricPrecision" shape-rendering="geometricPrecision">
        <path d="M0 0 L74 0 L74 18 L0 18 L0 0 ZM1 1 L73 1 L73 17 L1 17 L1 1 Z" fill-rule="evenodd" clip-path="url(#clipPath13)" stroke="none"/>
      </g>
    </g>
    <g visibility="hidden" id="tooltip.y.node.5" pointer-events="none">
      <g fill="rgb(255,255,225)" text-rendering="geometricPrecision" shape-rendering="geometricPrecision" font-family="'Segoe UI'" stroke="rgb(255,255,225)">
        <rect x="0" width="74" height="18" y="0" clip-path="url(#clipPath13)" stroke="none"/>
        <text fill="black" x="4" xml:space="preserve" y="14" clip-path="url(#clipPath13)" stroke="none">location two</text>
      </g>
      <g font-family="'Segoe UI'" text-rendering="geometricPrecision" shape-rendering="geometricPrecision">
        <path d="M0 0 L74 0 L74 18 L0 18 L0 0 ZM1 1 L73 1 L73 17 L1 17 L1 1 Z" fill-rule="evenodd" clip-path="url(#clipPath13)" stroke="none"/>
      </g>
    </g>
  </g>
</svg>
