<?xml version="1.0" encoding="UTF-8"?><svg xmlns="http://www.w3.org/2000/svg" xmlns:xlink="http://www.w3.org/1999/xlink" fill-opacity="1" color-rendering="auto" color-interpolation="auto" text-rendering="auto" stroke="black" stroke-linecap="square" width="452" stroke-miterlimit="10" shape-rendering="auto" stroke-opacity="1" fill="black" stroke-dasharray="none" font-weight="normal" stroke-width="1" height="500" font-family="'Dialog'" font-style="normal" stroke-linejoin="miter" font-size="12px" stroke-dashoffset="0" image-rendering="auto">
  <!--Generated by ySVG 2.5-->
  <defs id="genericDefs"/>
  <g>
    <defs id="defs1">
      <clipPath clipPathUnits="userSpaceOnUse" id="clipPath1">
        <path d="M0 0 L452 0 L452 500 L0 500 L0 0 Z"/>
      </clipPath>
      <clipPath clipPathUnits="userSpaceOnUse" id="clipPath2">
        <path d="M-16 -16 L436 -16 L436 484 L-16 484 L-16 -16 Z"/>
      </clipPath>
      <clipPath clipPathUnits="userSpaceOnUse" id="clipPath3">
        <path d="M0 0 L418 0 L418 16 L0 16 L0 0 Z"/>
      </clipPath>
      <clipPath clipPathUnits="userSpaceOnUse" id="clipPath4">
        <path d="M0 0 L102 0 L102 96 L0 96 L0 0 Z"/>
      </clipPath>
      <clipPath clipPathUnits="userSpaceOnUse" id="clipPath5">
        <path d="M0 0 L22 0 L22 16 L0 16 L0 0 Z"/>
      </clipPath>
      <clipPath clipPathUnits="userSpaceOnUse" id="clipPath6">
        <path d="M0 0 L127 0 L127 32 L0 32 L0 0 Z"/>
      </clipPath>
      <clipPath clipPathUnits="userSpaceOnUse" id="clipPath7">
        <path d="M0 0 L134 0 L134 32 L0 32 L0 0 Z"/>
      </clipPath>
      <clipPath clipPathUnits="userSpaceOnUse" id="clipPath8">
        <path d="M0 0 L131 0 L131 48 L0 48 L0 0 Z"/>
      </clipPath>
      <clipPath clipPathUnits="userSpaceOnUse" id="clipPath9">
        <path d="M0 0 L77 0 L77 32 L0 32 L0 0 Z"/>
      </clipPath>
      <clipPath clipPathUnits="userSpaceOnUse" id="clipPath10">
        <path d="M0 0 L0 18 L164 18 L164 0 Z"/>
      </clipPath>
      <clipPath clipPathUnits="userSpaceOnUse" id="clipPath11">
        <path d="M0 0 L0 18 L73 18 L73 0 Z"/>
      </clipPath>
      <clipPath clipPathUnits="userSpaceOnUse" id="clipPath12">
        <path d="M0 0 L0 18 L76 18 L76 0 Z"/>
      </clipPath>
      <clipPath clipPathUnits="userSpaceOnUse" id="clipPath13">
        <path d="M0 0 L0 18 L8 18 L8 0 Z"/>
      </clipPath>
      <script type="text/ecmascript">
        <![CDATA[      var SVGDocument = null;
      var SVGRoot = null;
      var TrueCoords = null;
      var lastElement = null;
      var initialized = null;
      var tipGroup;
      function Init(evt)
      {
         SVGDocument = evt.target.ownerDocument;
         SVGRoot = SVGDocument.documentElement;
         TrueCoords = SVGRoot.createSVGPoint();
         initialized = evt;
      };
      function GetTrueCoords(evt)
      {
         var newScale = SVGRoot.currentScale;
         var translation = SVGRoot.currentTranslate;
         TrueCoords.x = (evt.clientX - translation.x)/newScale;
         TrueCoords.y = (evt.clientY - translation.y)/newScale;
      };
      function HideTooltip( evt )
      {
         if(initialized == null) {
           Init(evt);
         }
         if(tipGroup != null) {
           tipGroup.setAttributeNS(null, 'visibility', 'hidden');
         }
      };
      function ShowTooltip( evt )
      {
         if(initialized == null) {
           Init(evt);
         }
         GetTrueCoords( evt );
         var tipScale = 1/SVGRoot.currentScale;
         var targetElement = evt.currentTarget;
         if ( lastElement != targetElement )
         {
            var targetId = targetElement.getAttributeNS(null, 'id');
            var tipId = 'tooltip.' + targetId;
            tipGroup = SVGDocument.getElementById(tipId);
            var xPos = TrueCoords.x + (10 * tipScale);
            var yPos = TrueCoords.y + (10 * tipScale);
            tipGroup.setAttributeNS(null, 'transform', 'translate(' + xPos + ',' + yPos + ') scale(' + tipScale + ')');
            tipGroup.setAttributeNS(null, 'visibility', 'visible');
         }
      };
]]>
      </script>
    </defs>
    <g fill="white" text-rendering="geometricPrecision" shape-rendering="geometricPrecision" transform="translate(16,16)" stroke="white">
      <rect x="-16" width="452" height="500" y="-16" clip-path="url(#clipPath2)" stroke="none"/>
    </g>
    <g onmouseout="HideTooltip(evt)" id="y.node.0" onmousemove="ShowTooltip(evt)">
      <g fill="rgb(238,238,238)" text-rendering="geometricPrecision" shape-rendering="geometricPrecision" transform="matrix(1,0,0,1,16,16)" stroke="rgb(238,238,238)">
        <rect x="-1" width="422" height="468.3958" y="-0.2812" stroke="none"/>
      </g>
      <g>
        <g fill="red" text-rendering="geometricPrecision" shape-rendering="geometricPrecision" transform="matrix(1,0,0,1,16,16)" stroke="red">
          <rect x="-1" width="422" height="20" y="-0.2812" stroke="none"/>
        </g>
        <g text-rendering="geometricPrecision" stroke-miterlimit="1.45" shape-rendering="geometricPrecision" font-family="sans-serif" transform="matrix(1,0,0,1,16,16) translate(1,1)" stroke-linecap="butt">
          <text x="0" xml:space="preserve" y="13" clip-path="url(#clipPath3)" stroke="none">     </text>
          <text fill="blue" x="15" xml:space="preserve" y="13" clip-path="url(#clipPath3)" stroke="none">automaton</text>
          <text x="74" xml:space="preserve" y="13" clip-path="url(#clipPath3)" stroke="none"> </text>
          <text x="77" xml:space="preserve" y="13" clip-path="url(#clipPath3)" stroke="none">vending_machine</text>
        </g>
      </g>
      <g text-rendering="geometricPrecision" stroke-miterlimit="1.45" shape-rendering="geometricPrecision" transform="matrix(1,0,0,1,16,16)" stroke-linecap="butt">
        <rect fill="none" x="-1" width="422" height="468.3958" y="-0.2812"/>
      </g>
    </g>
    <g onmouseout="HideTooltip(evt)" id="y.node.1" onmousemove="ShowTooltip(evt)">
      <g fill="rgb(235,235,184)" text-rendering="geometricPrecision" shape-rendering="geometricPrecision" transform="matrix(1,0,0,1,16,16)" stroke="rgb(235,235,184)">
        <rect x="294" width="112" height="130.5625" y="34.7188" stroke="none"/>
      </g>
      <g>
        <g fill="rgb(238,238,128)" text-rendering="geometricPrecision" shape-rendering="geometricPrecision" transform="matrix(1,0,0,1,16,16)" stroke="rgb(238,238,128)">
          <rect x="294" width="112" height="18.7012" y="34.7188" stroke="none"/>
        </g>
        <g text-rendering="geometricPrecision" stroke-miterlimit="1.45" shape-rendering="geometricPrecision" font-family="sans-serif" transform="matrix(1,0,0,1,16,16)" stroke-linecap="butt">
          <text x="296" xml:space="preserve" y="48.7832" stroke="none">     Declarations</text>
        </g>
      </g>
      <g>
        <g stroke-linecap="butt" transform="matrix(1,0,0,1,16,16) translate(299,55)" fill="blue" text-rendering="geometricPrecision" font-family="sans-serif" shape-rendering="geometricPrecision" stroke="blue" stroke-miterlimit="1.45">
          <text x="0" xml:space="preserve" y="13" clip-path="url(#clipPath4)" stroke="none">event</text>
          <text fill="black" x="29" xml:space="preserve" y="13" clip-path="url(#clipPath4)" stroke="none"> </text>
          <text fill="black" x="32" xml:space="preserve" y="13" clip-path="url(#clipPath4)" stroke="none">d5</text>
          <text fill="rgb(64,32,32)" x="46" xml:space="preserve" y="13" clip-path="url(#clipPath4)" stroke="none">;</text>
          <text fill="black" x="49" xml:space="preserve" y="13" clip-path="url(#clipPath4)" stroke="none"> </text>
          <text x="0" xml:space="preserve" y="29" clip-path="url(#clipPath4)" stroke="none">event</text>
          <text fill="black" x="29" xml:space="preserve" y="29" clip-path="url(#clipPath4)" stroke="none"> </text>
          <text fill="black" x="32" xml:space="preserve" y="29" clip-path="url(#clipPath4)" stroke="none">d10</text>
          <text fill="rgb(64,32,32)" x="53" xml:space="preserve" y="29" clip-path="url(#clipPath4)" stroke="none">;</text>
          <text fill="black" x="56" xml:space="preserve" y="29" clip-path="url(#clipPath4)" stroke="none"> </text>
          <text x="0" xml:space="preserve" y="45" clip-path="url(#clipPath4)" stroke="none">event</text>
          <text fill="black" x="29" xml:space="preserve" y="45" clip-path="url(#clipPath4)" stroke="none"> </text>
          <text fill="black" x="32" xml:space="preserve" y="45" clip-path="url(#clipPath4)" stroke="none">d20</text>
          <text fill="rgb(64,32,32)" x="53" xml:space="preserve" y="45" clip-path="url(#clipPath4)" stroke="none">;</text>
          <text fill="black" x="56" xml:space="preserve" y="45" clip-path="url(#clipPath4)" stroke="none"> </text>
          <text x="0" xml:space="preserve" y="61" clip-path="url(#clipPath4)" stroke="none">event</text>
          <text fill="black" x="29" xml:space="preserve" y="61" clip-path="url(#clipPath4)" stroke="none"> </text>
          <text fill="black" x="32" xml:space="preserve" y="61" clip-path="url(#clipPath4)" stroke="none">D</text>
          <text fill="rgb(64,32,32)" x="41" xml:space="preserve" y="61" clip-path="url(#clipPath4)" stroke="none">;</text>
          <text fill="black" x="44" xml:space="preserve" y="61" clip-path="url(#clipPath4)" stroke="none"> </text>
          <text x="0" xml:space="preserve" y="77" clip-path="url(#clipPath4)" stroke="none">event</text>
          <text fill="black" x="29" xml:space="preserve" y="77" clip-path="url(#clipPath4)" stroke="none"> </text>
          <text fill="black" x="32" xml:space="preserve" y="77" clip-path="url(#clipPath4)" stroke="none">R</text>
          <text fill="rgb(64,32,32)" x="41" xml:space="preserve" y="77" clip-path="url(#clipPath4)" stroke="none">;</text>
          <text fill="black" x="44" xml:space="preserve" y="77" clip-path="url(#clipPath4)" stroke="none"> </text>
          <text x="0" xml:space="preserve" y="93" clip-path="url(#clipPath4)" stroke="none">disc</text>
          <text fill="black" x="23" xml:space="preserve" y="93" clip-path="url(#clipPath4)" stroke="none"> </text>
          <text x="26" xml:space="preserve" y="93" clip-path="url(#clipPath4)" stroke="none">int</text>
          <text fill="black" x="39" xml:space="preserve" y="93" clip-path="url(#clipPath4)" stroke="none"> </text>
          <text fill="black" x="42" xml:space="preserve" y="93" clip-path="url(#clipPath4)" stroke="none">money</text>
          <text fill="black" x="79" xml:space="preserve" y="93" clip-path="url(#clipPath4)" stroke="none"> </text>
          <text fill="rgb(64,32,32)" x="82" xml:space="preserve" y="93" clip-path="url(#clipPath4)" stroke="none">=</text>
          <text fill="black" x="89" xml:space="preserve" y="93" clip-path="url(#clipPath4)" stroke="none"> </text>
          <text fill="rgb(0,97,0)" x="92" xml:space="preserve" y="93" clip-path="url(#clipPath4)" stroke="none">0</text>
          <text fill="rgb(64,32,32)" x="99" xml:space="preserve" y="93" clip-path="url(#clipPath4)" stroke="none">;</text>
        </g>
      </g>
      <g text-rendering="geometricPrecision" stroke-miterlimit="1.45" shape-rendering="geometricPrecision" transform="matrix(1,0,0,1,16,16)" stroke-linecap="butt">
        <rect fill="none" x="294" width="112" height="130.5625" y="34.7188"/>
      </g>
    </g>
    <g onmouseout="HideTooltip(evt)" id="y.node.2" onmousemove="ShowTooltip(evt)">
      <g fill="rgb(204,204,255)" text-rendering="geometricPrecision" shape-rendering="geometricPrecision" transform="matrix(1,0,0,1,16,16)" stroke="rgb(204,204,255)">
        <rect x="19" y="305" width="62" rx="4" ry="4" height="113" stroke="none"/>
      </g>
      <g>
        <g text-rendering="geometricPrecision" stroke-miterlimit="1.45" shape-rendering="geometricPrecision" font-family="sans-serif" transform="matrix(1,0,0,1,16,16) translate(39,353)" stroke-linecap="butt">
          <text x="0" xml:space="preserve" y="13" clip-path="url(#clipPath5)" stroke="none">wait</text>
        </g>
      </g>
      <g text-rendering="geometricPrecision" stroke-miterlimit="1.45" shape-rendering="geometricPrecision" transform="matrix(1,0,0,1,16,16)" stroke-linecap="butt">
        <rect x="19" y="305" fill="none" width="62" rx="4" ry="4" height="113"/>
      </g>
    </g>
    <g onmouseout="HideTooltip(evt)" id="y.node.3" onmousemove="ShowTooltip(evt)">
      <g/>
    </g>
    <g id="y.edge.1">
      <g text-rendering="geometricPrecision" stroke-miterlimit="1.45" shape-rendering="geometricPrecision" transform="matrix(1,0,0,1,16,16)" stroke-linecap="butt">
        <path fill="none" d="M70 304.9561 L70 270 L70.625 265.625 L72.5 262.5 L75.625 260.625 L80 260 L220 260 L224.375 260.625 L227.5 262.5 L229.375 265.625 L230 270 L230 313.8333 L229.375 318.2083 L227.5 321.3333 L224.375 323.2083 L220 323.8333 L89 323.8333"/>
        <path d="M81 323.8333 L93 328.8333 L90 323.8333 L93 318.8333 Z" stroke="none"/>
      </g>
      <g>
        <g stroke-linecap="butt" transform="matrix(1,0,0,1,16,16)" fill="rgb(238,238,238)" text-rendering="geometricPrecision" shape-rendering="geometricPrecision" stroke="rgb(238,238,238)" stroke-miterlimit="1.45">
          <rect x="72" width="131" height="36" y="259.9375" stroke="none"/>
        </g>
        <g text-rendering="geometricPrecision" stroke-miterlimit="1.45" shape-rendering="geometricPrecision" font-family="sans-serif" transform="matrix(1,0,0,1,16,16) translate(74,261)" stroke-linecap="butt">
          <text x="0" xml:space="preserve" y="13" clip-path="url(#clipPath6)" stroke="none">d5</text>
          <text x="14" xml:space="preserve" y="13" clip-path="url(#clipPath6)" stroke="none"> </text>
          <text fill="blue" x="0" xml:space="preserve" y="29" clip-path="url(#clipPath6)" stroke="none">do</text>
          <text x="14" xml:space="preserve" y="29" clip-path="url(#clipPath6)" stroke="none"> </text>
          <text x="17" xml:space="preserve" y="29" clip-path="url(#clipPath6)" stroke="none">money</text>
          <text x="54" xml:space="preserve" y="29" clip-path="url(#clipPath6)" stroke="none"> </text>
          <text fill="rgb(64,32,32)" x="57" xml:space="preserve" y="29" clip-path="url(#clipPath6)" stroke="none">:=</text>
          <text x="67" xml:space="preserve" y="29" clip-path="url(#clipPath6)" stroke="none"> </text>
          <text x="70" xml:space="preserve" y="29" clip-path="url(#clipPath6)" stroke="none">money</text>
          <text x="107" xml:space="preserve" y="29" clip-path="url(#clipPath6)" stroke="none"> </text>
          <text fill="rgb(64,32,32)" x="110" xml:space="preserve" y="29" clip-path="url(#clipPath6)" stroke="none">+</text>
          <text x="117" xml:space="preserve" y="29" clip-path="url(#clipPath6)" stroke="none"> </text>
          <text fill="rgb(0,97,0)" x="120" xml:space="preserve" y="29" clip-path="url(#clipPath6)" stroke="none">5</text>
        </g>
      </g>
    </g>
    <g id="y.edge.2">
      <g text-rendering="geometricPrecision" stroke-miterlimit="1.45" shape-rendering="geometricPrecision" transform="matrix(1,0,0,1,16,16)" stroke-linecap="butt">
        <path fill="none" d="M65 304.9536 L65 220 L65.625 215.625 L67.5 212.5 L70.625 210.625 L75 210 L230 210 L234.375 210.625 L237.5 212.5 L239.375 215.625 L240 220 L240 323.25 L239.375 327.625 L237.5 330.75 L234.375 332.625 L230 333.25 L89 333.25"/>
        <path d="M81 333.25 L93 338.25 L90 333.25 L93 328.25 Z" stroke="none"/>
      </g>
      <g>
        <g stroke-linecap="butt" transform="matrix(1,0,0,1,16,16)" fill="rgb(238,238,238)" text-rendering="geometricPrecision" shape-rendering="geometricPrecision" stroke="rgb(238,238,238)" stroke-miterlimit="1.45">
          <rect x="67" width="138" height="36" y="211" stroke="none"/>
        </g>
        <g text-rendering="geometricPrecision" stroke-miterlimit="1.45" shape-rendering="geometricPrecision" font-family="sans-serif" transform="matrix(1,0,0,1,16,16) translate(69,213)" stroke-linecap="butt">
          <text x="0" xml:space="preserve" y="13" clip-path="url(#clipPath7)" stroke="none">d10</text>
          <text x="21" xml:space="preserve" y="13" clip-path="url(#clipPath7)" stroke="none"> </text>
          <text fill="blue" x="0" xml:space="preserve" y="29" clip-path="url(#clipPath7)" stroke="none">do</text>
          <text x="14" xml:space="preserve" y="29" clip-path="url(#clipPath7)" stroke="none"> </text>
          <text x="17" xml:space="preserve" y="29" clip-path="url(#clipPath7)" stroke="none">money</text>
          <text x="54" xml:space="preserve" y="29" clip-path="url(#clipPath7)" stroke="none"> </text>
          <text fill="rgb(64,32,32)" x="57" xml:space="preserve" y="29" clip-path="url(#clipPath7)" stroke="none">:=</text>
          <text x="67" xml:space="preserve" y="29" clip-path="url(#clipPath7)" stroke="none"> </text>
          <text x="70" xml:space="preserve" y="29" clip-path="url(#clipPath7)" stroke="none">money</text>
          <text x="107" xml:space="preserve" y="29" clip-path="url(#clipPath7)" stroke="none"> </text>
          <text fill="rgb(64,32,32)" x="110" xml:space="preserve" y="29" clip-path="url(#clipPath7)" stroke="none">+</text>
          <text x="117" xml:space="preserve" y="29" clip-path="url(#clipPath7)" stroke="none"> </text>
          <text fill="rgb(0,97,0)" x="120" xml:space="preserve" y="29" clip-path="url(#clipPath7)" stroke="none">10</text>
        </g>
      </g>
    </g>
    <g id="y.edge.3">
      <g text-rendering="geometricPrecision" stroke-miterlimit="1.45" shape-rendering="geometricPrecision" transform="matrix(1,0,0,1,16,16)" stroke-linecap="butt">
        <path fill="none" d="M60 304.9646 L60 170 L60.625 165.625 L62.5 162.5 L65.625 160.625 L70 160 L240 160 L244.375 160.625 L247.5 162.5 L249.375 165.625 L250 170 L250 332.6667 L249.375 337.0417 L247.5 340.1667 L244.375 342.0417 L240 342.6667 L89 342.6667"/>
        <path d="M81 342.6667 L93 347.6667 L90 342.6667 L93 337.6667 Z" stroke="none"/>
      </g>
      <g>
        <g stroke-linecap="butt" transform="matrix(1,0,0,1,16,16)" fill="rgb(238,238,238)" text-rendering="geometricPrecision" shape-rendering="geometricPrecision" stroke="rgb(238,238,238)" stroke-miterlimit="1.45">
          <rect x="62" width="138" height="36" y="161" stroke="none"/>
        </g>
        <g text-rendering="geometricPrecision" stroke-miterlimit="1.45" shape-rendering="geometricPrecision" font-family="sans-serif" transform="matrix(1,0,0,1,16,16) translate(64,163)" stroke-linecap="butt">
          <text x="0" xml:space="preserve" y="13" clip-path="url(#clipPath7)" stroke="none">d20</text>
          <text x="21" xml:space="preserve" y="13" clip-path="url(#clipPath7)" stroke="none"> </text>
          <text fill="blue" x="0" xml:space="preserve" y="29" clip-path="url(#clipPath7)" stroke="none">do</text>
          <text x="14" xml:space="preserve" y="29" clip-path="url(#clipPath7)" stroke="none"> </text>
          <text x="17" xml:space="preserve" y="29" clip-path="url(#clipPath7)" stroke="none">money</text>
          <text x="54" xml:space="preserve" y="29" clip-path="url(#clipPath7)" stroke="none"> </text>
          <text fill="rgb(64,32,32)" x="57" xml:space="preserve" y="29" clip-path="url(#clipPath7)" stroke="none">:=</text>
          <text x="67" xml:space="preserve" y="29" clip-path="url(#clipPath7)" stroke="none"> </text>
          <text x="70" xml:space="preserve" y="29" clip-path="url(#clipPath7)" stroke="none">money</text>
          <text x="107" xml:space="preserve" y="29" clip-path="url(#clipPath7)" stroke="none"> </text>
          <text fill="rgb(64,32,32)" x="110" xml:space="preserve" y="29" clip-path="url(#clipPath7)" stroke="none">+</text>
          <text x="117" xml:space="preserve" y="29" clip-path="url(#clipPath7)" stroke="none"> </text>
          <text fill="rgb(0,97,0)" x="120" xml:space="preserve" y="29" clip-path="url(#clipPath7)" stroke="none">20</text>
        </g>
      </g>
    </g>
    <g id="y.edge.4">
      <g text-rendering="geometricPrecision" stroke-miterlimit="1.45" shape-rendering="geometricPrecision" transform="matrix(1,0,0,1,16,16)" stroke-linecap="butt">
        <path fill="none" d="M55 304.975 L55 110 L55.625 105.625 L57.5 102.5 L60.625 100.625 L65 100 L250 100 L254.375 100.625 L257.5 102.5 L259.375 105.625 L260 110 L260 342.0833 L259.375 346.4583 L257.5 349.5833 L254.375 351.4583 L250 352.0833 L89 352.0833"/>
        <path d="M81 352.0833 L93 357.0833 L90 352.0833 L93 347.0833 Z" stroke="none"/>
      </g>
      <g>
        <g stroke-linecap="butt" transform="matrix(1,0,0,1,16,16)" fill="rgb(238,238,238)" text-rendering="geometricPrecision" shape-rendering="geometricPrecision" stroke="rgb(238,238,238)" stroke-miterlimit="1.45">
          <rect x="57" width="135" height="52" y="101" stroke="none"/>
        </g>
        <g text-rendering="geometricPrecision" stroke-miterlimit="1.45" shape-rendering="geometricPrecision" font-family="sans-serif" transform="matrix(1,0,0,1,16,16) translate(59,103)" stroke-linecap="butt">
          <text x="0" xml:space="preserve" y="13" clip-path="url(#clipPath8)" stroke="none">D</text>
          <text x="9" xml:space="preserve" y="13" clip-path="url(#clipPath8)" stroke="none"> </text>
          <text fill="blue" x="0" xml:space="preserve" y="29" clip-path="url(#clipPath8)" stroke="none">when</text>
          <text x="30" xml:space="preserve" y="29" clip-path="url(#clipPath8)" stroke="none"> </text>
          <text x="33" xml:space="preserve" y="29" clip-path="url(#clipPath8)" stroke="none">money</text>
          <text x="70" xml:space="preserve" y="29" clip-path="url(#clipPath8)" stroke="none"> </text>
          <text fill="rgb(64,32,32)" x="73" xml:space="preserve" y="29" clip-path="url(#clipPath8)" stroke="none">&gt;=</text>
          <text x="87" xml:space="preserve" y="29" clip-path="url(#clipPath8)" stroke="none"> </text>
          <text fill="rgb(0,97,0)" x="90" xml:space="preserve" y="29" clip-path="url(#clipPath8)" stroke="none">25</text>
          <text x="104" xml:space="preserve" y="29" clip-path="url(#clipPath8)" stroke="none"> </text>
          <text fill="blue" x="0" xml:space="preserve" y="45" clip-path="url(#clipPath8)" stroke="none">do</text>
          <text x="14" xml:space="preserve" y="45" clip-path="url(#clipPath8)" stroke="none"> </text>
          <text x="17" xml:space="preserve" y="45" clip-path="url(#clipPath8)" stroke="none">money</text>
          <text x="54" xml:space="preserve" y="45" clip-path="url(#clipPath8)" stroke="none"> </text>
          <text fill="rgb(64,32,32)" x="57" xml:space="preserve" y="45" clip-path="url(#clipPath8)" stroke="none">:=</text>
          <text x="67" xml:space="preserve" y="45" clip-path="url(#clipPath8)" stroke="none"> </text>
          <text x="70" xml:space="preserve" y="45" clip-path="url(#clipPath8)" stroke="none">money</text>
          <text x="107" xml:space="preserve" y="45" clip-path="url(#clipPath8)" stroke="none"> </text>
          <text fill="rgb(64,32,32)" x="110" xml:space="preserve" y="45" clip-path="url(#clipPath8)" stroke="none">-</text>
          <text x="114" xml:space="preserve" y="45" clip-path="url(#clipPath8)" stroke="none"> </text>
          <text fill="rgb(0,97,0)" x="117" xml:space="preserve" y="45" clip-path="url(#clipPath8)" stroke="none">25</text>
        </g>
      </g>
    </g>
    <g id="y.edge.5">
      <g text-rendering="geometricPrecision" stroke-miterlimit="1.45" shape-rendering="geometricPrecision" transform="matrix(1,0,0,1,16,16)" stroke-linecap="butt">
        <path fill="none" d="M50 304.9677 L50 50 L50.625 45.625 L52.5 42.5 L55.625 40.625 L60 40 L260 40 L264.375 40.625 L267.5 42.5 L269.375 45.625 L270 50 L270 351.5 L269.375 355.875 L267.5 359 L264.375 360.875 L260 361.5 L89 361.5"/>
        <path d="M81 361.5 L93 366.5 L90 361.5 L93 356.5 Z" stroke="none"/>
      </g>
      <g>
        <g stroke-linecap="butt" transform="matrix(1,0,0,1,16,16)" fill="rgb(238,238,238)" text-rendering="geometricPrecision" shape-rendering="geometricPrecision" stroke="rgb(238,238,238)" stroke-miterlimit="1.45">
          <rect x="52" width="81" height="36" y="41" stroke="none"/>
        </g>
        <g text-rendering="geometricPrecision" stroke-miterlimit="1.45" shape-rendering="geometricPrecision" font-family="sans-serif" transform="matrix(1,0,0,1,16,16) translate(54,43)" stroke-linecap="butt">
          <text x="0" xml:space="preserve" y="13" clip-path="url(#clipPath9)" stroke="none">R</text>
          <text x="9" xml:space="preserve" y="13" clip-path="url(#clipPath9)" stroke="none"> </text>
          <text fill="blue" x="0" xml:space="preserve" y="29" clip-path="url(#clipPath9)" stroke="none">do</text>
          <text x="14" xml:space="preserve" y="29" clip-path="url(#clipPath9)" stroke="none"> </text>
          <text x="17" xml:space="preserve" y="29" clip-path="url(#clipPath9)" stroke="none">money</text>
          <text x="54" xml:space="preserve" y="29" clip-path="url(#clipPath9)" stroke="none"> </text>
          <text fill="rgb(64,32,32)" x="57" xml:space="preserve" y="29" clip-path="url(#clipPath9)" stroke="none">:=</text>
          <text x="67" xml:space="preserve" y="29" clip-path="url(#clipPath9)" stroke="none"> </text>
          <text fill="rgb(0,97,0)" x="70" xml:space="preserve" y="29" clip-path="url(#clipPath9)" stroke="none">0</text>
        </g>
      </g>
    </g>
    <g id="y.edge.0">
      <g text-rendering="geometricPrecision" stroke-miterlimit="1.45" shape-rendering="geometricPrecision" transform="matrix(1,0,0,1,16,16)" stroke-linecap="butt">
        <path fill="none" d="M50 460 L50 426"/>
        <path d="M50 418 L45 430 L50 427 L55 430 Z" stroke="none"/>
      </g>
    </g>
    <g visibility="hidden" id="tooltip.y.node.0" pointer-events="none">
      <g fill="rgb(255,255,225)" text-rendering="geometricPrecision" shape-rendering="geometricPrecision" font-family="'Segoe UI'" stroke="rgb(255,255,225)">
        <rect x="0" width="164" height="18" y="0" clip-path="url(#clipPath10)" stroke="none"/>
        <text fill="black" x="4" xml:space="preserve" y="14" clip-path="url(#clipPath10)" stroke="none">automaton vending_machine</text>
      </g>
      <g font-family="'Segoe UI'" text-rendering="geometricPrecision" shape-rendering="geometricPrecision">
        <path d="M0 0 L164 0 L164 18 L0 18 L0 0 ZM1 1 L163 1 L163 17 L1 17 L1 1 Z" fill-rule="evenodd" clip-path="url(#clipPath10)" stroke="none"/>
      </g>
    </g>
    <g visibility="hidden" id="tooltip.y.node.1" pointer-events="none">
      <g fill="rgb(255,255,225)" text-rendering="geometricPrecision" shape-rendering="geometricPrecision" font-family="'Segoe UI'" stroke="rgb(255,255,225)">
        <rect x="0" width="73" height="18" y="0" clip-path="url(#clipPath11)" stroke="none"/>
        <text fill="black" x="4" xml:space="preserve" y="14" clip-path="url(#clipPath11)" stroke="none">Declarations</text>
      </g>
      <g font-family="'Segoe UI'" text-rendering="geometricPrecision" shape-rendering="geometricPrecision">
        <path d="M0 0 L73 0 L73 18 L0 18 L0 0 ZM1 1 L72 1 L72 17 L1 17 L1 1 Z" fill-rule="evenodd" clip-path="url(#clipPath11)" stroke="none"/>
      </g>
    </g>
    <g visibility="hidden" id="tooltip.y.node.2" pointer-events="none">
      <g fill="rgb(255,255,225)" text-rendering="geometricPrecision" shape-rendering="geometricPrecision" font-family="'Segoe UI'" stroke="rgb(255,255,225)">
        <rect x="0" width="76" height="18" y="0" clip-path="url(#clipPath12)" stroke="none"/>
        <text fill="black" x="4" xml:space="preserve" y="14" clip-path="url(#clipPath12)" stroke="none">location wait</text>
      </g>
      <g font-family="'Segoe UI'" text-rendering="geometricPrecision" shape-rendering="geometricPrecision">
        <path d="M0 0 L76 0 L76 18 L0 18 L0 0 ZM1 1 L75 1 L75 17 L1 17 L1 1 Z" fill-rule="evenodd" clip-path="url(#clipPath12)" stroke="none"/>
      </g>
    </g>
    <g visibility="hidden" id="tooltip.y.node.3" pointer-events="none">
      <g fill="rgb(255,255,225)" text-rendering="geometricPrecision" shape-rendering="geometricPrecision" font-family="'Segoe UI'" stroke="rgb(255,255,225)">
        <rect x="0" width="8" height="18" y="0" clip-path="url(#clipPath13)" stroke="none"/>
      </g>
      <g font-family="'Segoe UI'" text-rendering="geometricPrecision" shape-rendering="geometricPrecision">
        <path d="M0 0 L8 0 L8 18 L0 18 L0 0 ZM1 1 L7 1 L7 17 L1 17 L1 1 Z" fill-rule="evenodd" clip-path="url(#clipPath13)" stroke="none"/>
      </g>
    </g>
  </g>
</svg>
