<?xml version="1.0" encoding="UTF-8"?><svg xmlns="http://www.w3.org/2000/svg" xmlns:xlink="http://www.w3.org/1999/xlink" fill-opacity="1" color-rendering="auto" color-interpolation="auto" text-rendering="auto" stroke="black" stroke-linecap="square" width="326" stroke-miterlimit="10" shape-rendering="auto" stroke-opacity="1" fill="black" stroke-dasharray="none" font-weight="normal" stroke-width="1" height="129" font-family="'Dialog'" font-style="normal" stroke-linejoin="miter" font-size="12px" stroke-dashoffset="0" image-rendering="auto">
  <!--Generated by ySVG 2.5-->
  <defs id="genericDefs"/>
  <g>
    <defs id="defs1">
      <clipPath clipPathUnits="userSpaceOnUse" id="clipPath1">
        <path d="M0 0 L326 0 L326 129 L0 129 L0 0 Z"/>
      </clipPath>
      <clipPath clipPathUnits="userSpaceOnUse" id="clipPath2">
        <path d="M-138 53 L188 53 L188 182 L-138 182 L-138 53 Z"/>
      </clipPath>
    </defs>
    <g fill="white" text-rendering="geometricPrecision" shape-rendering="geometricPrecision" transform="translate(138,-53)" stroke="white">
      <rect x="-138" width="326" height="129" y="53" clip-path="url(#clipPath2)" stroke="none"/>
    </g>
    <g fill="rgb(255,204,0)" text-rendering="geometricPrecision" shape-rendering="geometricPrecision" transform="matrix(1,0,0,1,138,-53)" stroke="rgb(255,204,0)">
      <circle r="25" clip-path="url(#clipPath2)" cx="25" cy="133.1328" stroke="none"/>
    </g>
    <g text-rendering="geometricPrecision" stroke-miterlimit="1.45" shape-rendering="geometricPrecision" transform="matrix(1,0,0,1,138,-53)" stroke-linecap="butt">
      <circle fill="none" r="25" clip-path="url(#clipPath2)" cx="25" cy="133.1328"/>
      <text x="21.6836" xml:space="preserve" y="137.668" clip-path="url(#clipPath2)" font-family="sans-serif" stroke="none">P</text>
    </g>
    <g fill="rgb(255,204,0)" text-rendering="geometricPrecision" shape-rendering="geometricPrecision" transform="matrix(1,0,0,1,138,-53)" stroke="rgb(255,204,0)">
      <circle r="25" clip-path="url(#clipPath2)" cx="-98" cy="133.1328" stroke="none"/>
    </g>
    <g text-rendering="geometricPrecision" stroke-miterlimit="1.45" shape-rendering="geometricPrecision" transform="matrix(1,0,0,1,138,-53)" stroke-linecap="butt">
      <circle fill="none" r="25" clip-path="url(#clipPath2)" cx="-98" cy="133.1328"/>
      <text x="-101.7939" xml:space="preserve" y="137.668" clip-path="url(#clipPath2)" font-family="sans-serif" stroke="none">R</text>
    </g>
    <g fill="rgb(255,204,0)" text-rendering="geometricPrecision" shape-rendering="geometricPrecision" transform="matrix(1,0,0,1,138,-53)" stroke="rgb(255,204,0)">
      <circle r="25" clip-path="url(#clipPath2)" cx="148" cy="133.1328" stroke="none"/>
    </g>
    <g text-rendering="geometricPrecision" stroke-miterlimit="1.45" shape-rendering="geometricPrecision" transform="matrix(1,0,0,1,138,-53)" stroke-linecap="butt">
      <circle fill="none" r="25" clip-path="url(#clipPath2)" cx="148" cy="133.1328"/>
      <text x="143.3389" xml:space="preserve" y="137.668" clip-path="url(#clipPath2)" font-family="sans-serif" stroke="none">Q</text>
      <circle stroke-linecap="square" clip-path="url(#clipPath2)" r="2.5" cx="25" cy="70.5" stroke="none" stroke-miterlimit="10"/>
      <circle fill="none" r="2.5" clip-path="url(#clipPath2)" cx="25" cy="70.5"/>
      <path fill="none" d="M3.9292 146.6162 L-68.9293 146.6162" clip-path="url(#clipPath2)"/>
      <path d="M-76.9293 146.6162 L-64.9293 151.6162 L-67.9293 146.6162 L-64.9293 141.6162 Z" clip-path="url(#clipPath2)" stroke="none"/>
      <text x="-39.5732" xml:space="preserve" y="162.2178" clip-path="url(#clipPath2)" font-family="sans-serif" stroke="none">c</text>
      <path fill="none" d="M-73.2453 129.583 L-7.7547 129.583" clip-path="url(#clipPath2)"/>
      <path d="M0.2453 129.583 L-11.7547 124.583 L-8.7547 129.583 L-11.7547 134.583 Z" clip-path="url(#clipPath2)" stroke="none"/>
      <text x="-40.2764" xml:space="preserve" y="123.0518" clip-path="url(#clipPath2)" font-family="sans-serif" stroke="none">d</text>
      <path fill="none" d="M49.7547 129.583 L115.2453 129.583" clip-path="url(#clipPath2)"/>
      <path d="M123.2453 129.583 L111.2453 124.583 L114.2453 129.583 L111.2453 134.583 Z" clip-path="url(#clipPath2)" stroke="none"/>
      <text x="62.125" xml:space="preserve" y="123.0518" clip-path="url(#clipPath2)" font-family="sans-serif" stroke="none">a</text>
      <path fill="none" d="M126.9292 146.6162 L54.0708 146.6162" clip-path="url(#clipPath2)"/>
      <path d="M46.0708 146.6162 L58.0708 151.6162 L55.0708 146.6162 L58.0708 141.6162 Z" clip-path="url(#clipPath2)" stroke="none"/>
      <text x="103.3223" xml:space="preserve" y="162.2178" clip-path="url(#clipPath2)" font-family="sans-serif" stroke="none">b</text>
      <path fill="none" d="M25 73 L25 100.1328" clip-path="url(#clipPath2)"/>
      <path d="M25 108.1328 L30 96.1328 L25 99.1328 L20 96.1328 Z" clip-path="url(#clipPath2)" stroke="none"/>
    </g>
  </g>
</svg>
