<?xml version="1.0" encoding="UTF-8" standalone="no"?>
<svg
 xmlns:dc="http://purl.org/dc/elements/1.1/"
 xmlns:cc="http://creativecommons.org/ns#"
 xmlns:rdf="http://www.w3.org/1999/02/22-rdf-syntax-ns#"
 xmlns:svg="http://www.w3.org/2000/svg"
 xmlns="http://www.w3.org/2000/svg"
 xmlns:sodipodi="http://sodipodi.sourceforge.net/DTD/sodipodi-0.dtd"
 xmlns:inkscape="http://www.inkscape.org/namespaces/inkscape"
 width="297mm"
 height="210mm"
 viewBox="0 0 297 210"
 version="1.1"
 id="svg8"
 inkscape:version="1.0 (4035a4fb49, 2020-05-01)"
 sodipodi:docname="sliding_doors2.svg">
<defs
 id="defs2" />
<sodipodi:namedview
 id="base"
 pagecolor="#ffffff"
 bordercolor="#666666"
 borderopacity="1.0"
 inkscape:pageopacity="0.0"
 inkscape:pageshadow="2"
 inkscape:zoom="1.9317647"
 inkscape:cx="645.57679"
 inkscape:cy="328.87784"
 inkscape:document-units="mm"
 inkscape:current-layer="layer1"
 inkscape:document-rotation="0"
 showgrid="false"
 inkscape:window-width="1920"
 inkscape:window-height="1001"
 inkscape:window-x="-9"
 inkscape:window-y="-9"
 inkscape:window-maximized="1" />
<metadata
 id="metadata5">
<rdf:RDF>
<cc:Work
 rdf:about="">
<dc:format>image/svg+xml</dc:format>
<dc:type
 rdf:resource="http://purl.org/dc/dcmitype/StillImage" />
<dc:title />
</cc:Work>
</rdf:RDF>
</metadata>
<g
 inkscape:label="Layer 1"
 inkscape:groupmode="layer"
 id="layer1">
<rect
 style="fill:white;fill-opacity:1;stroke:black;stroke-width:0.501925;stroke-miterlimit:4;stroke-dasharray:none"
 id="frame"
 width="98.388405"
 height="97.631355"
 x="135.91673"
 y="36.920628" />
<rect
 y="45.178833"
 x="139.84796"
 height="89.379486"
 width="89.532814"
 id="frame_inside"
 style="fill:white;fill-opacity:1;stroke:black;stroke-width:0.458124;stroke-miterlimit:4;stroke-dasharray:none" />
<rect
 style="fill:#a5ffff;fill-opacity:1;stroke:black;stroke-width:0.456756;stroke-miterlimit:4;stroke-dasharray:none"
 id="sliding_door_left"
 width="44.720352"
 height="89.306381"
 x="139.86615"
 y="45.100262" />
<circle
 r="3.5"
 cy="40.553223"
 cx="184.39174"
 id="s_motion"
 style="opacity:1;vector-effect:none;fill:#241c1c;fill-opacity:1;fill-rule:evenodd;stroke:black;stroke-width:0.5;stroke-linecap:butt;stroke-linejoin:miter;stroke-miterlimit:4;stroke-dasharray:none;stroke-dashoffset:0;stroke-opacity:1" />
<g
 id="person">
<path
 transform="scale(0.26458333)"
 d="M 351.38672 252.09766 A 30.23622 30.23622 0 0 0 321.15039 282.33398 A 30.23622 30.23622 0 0 0 341.80078 311.00977 A 30.23622 30.23622 0 0 0 320.62695 339.85352 A 30.23622 30.23622 0 0 0 320.62695 339.98438 L 320.5332 339.98438 L 320.5332 381.44141 L 320.62695 381.44141 A 30.23622 30.23622 0 0 0 324.00391 395.31836 L 323.85156 395.31836 L 323.85156 500.77734 A 11.338583 9.5815612 0 0 0 323.83789 501.23438 A 11.338583 9.5815612 0 0 0 335.17773 510.81445 A 11.338583 9.5815612 0 0 0 346.51562 501.23438 A 11.338583 9.5815612 0 0 0 346.50781 500.92773 L 346.5293 500.92773 L 346.5293 411.35938 A 30.23622 30.23622 0 0 0 350.86328 411.67383 A 30.23622 30.23622 0 0 0 354.61719 411.4375 L 354.61719 501.54883 L 354.66406 501.54883 A 11.338583 9.5815612 0 0 0 365.99023 510.70508 A 11.338583 9.5815612 0 0 0 377.32812 501.12305 A 11.338583 9.5815612 0 0 0 377.29297 500.37109 L 377.29297 396.12305 A 30.23622 30.23622 0 0 0 381.09961 381.4375 A 30.23622 30.23622 0 0 0 381.00586 379.06445 L 381.00586 342.23242 A 30.23622 30.23622 0 0 0 381.09961 339.85352 A 30.23622 30.23622 0 0 0 360.44922 311.17773 A 30.23622 30.23622 0 0 0 381.62305 282.33398 A 30.23622 30.23622 0 0 0 351.38672 252.09766 z "
 style="vector-effect:none;fill:#fd5;fill-opacity:1;fill-rule:evenodd;stroke-width:0.999999;stroke-linecap:butt;stroke-linejoin:miter;stroke-miterlimit:4;stroke-dasharray:none;stroke-dashoffset:0;stroke-opacity:1"
 id="person_things" />
</g>
<rect
 y="45.100262"
 x="184.5865"
 height="89.306381"
 width="44.720352"
 id="sliding_door_right"
 style="fill:#a5ffff;fill-opacity:1;stroke:black;stroke-width:0.456756;stroke-miterlimit:4;stroke-dasharray:none" />
</g>
</svg>
