<?xml version="1.0" encoding="UTF-8"?><svg xmlns="http://www.w3.org/2000/svg" xmlns:xlink="http://www.w3.org/1999/xlink" fill-opacity="1" color-rendering="auto" color-interpolation="auto" text-rendering="auto" stroke="black" stroke-linecap="square" width="296" stroke-miterlimit="10" shape-rendering="auto" stroke-opacity="1" fill="black" stroke-dasharray="none" font-weight="normal" stroke-width="1" height="269" font-family="'Dialog'" font-style="normal" stroke-linejoin="miter" font-size="12px" stroke-dashoffset="0" image-rendering="auto">
  <!--Generated by ySVG 2.5-->
  <defs id="genericDefs"/>
  <g>
    <defs id="defs1">
      <clipPath clipPathUnits="userSpaceOnUse" id="clipPath1">
        <path d="M0 0 L296 0 L296 269 L0 269 L0 0 Z"/>
      </clipPath>
      <clipPath clipPathUnits="userSpaceOnUse" id="clipPath2">
        <path d="M-18 -14 L278 -14 L278 255 L-18 255 L-18 -14 Z"/>
      </clipPath>
      <clipPath clipPathUnits="userSpaceOnUse" id="clipPath3">
        <path d="M0 0 L261 0 L261 15 L0 15 L0 0 Z"/>
      </clipPath>
      <clipPath clipPathUnits="userSpaceOnUse" id="clipPath4">
        <path d="M0 0 L83 0 L83 30 L0 30 L0 0 Z"/>
      </clipPath>
      <clipPath clipPathUnits="userSpaceOnUse" id="clipPath5">
        <path d="M0 0 L16 0 L16 15 L0 15 L0 0 Z"/>
      </clipPath>
      <clipPath clipPathUnits="userSpaceOnUse" id="clipPath6">
        <path d="M0 0 L21 0 L21 15 L0 15 L0 0 Z"/>
      </clipPath>
      <clipPath clipPathUnits="userSpaceOnUse" id="clipPath7">
        <path d="M0 0 L44 0 L44 15 L0 15 L0 0 Z"/>
      </clipPath>
      <clipPath clipPathUnits="userSpaceOnUse" id="clipPath8">
        <path d="M0 0 L43 0 L43 15 L0 15 L0 0 Z"/>
      </clipPath>
      <clipPath clipPathUnits="userSpaceOnUse" id="clipPath9">
        <path d="M0 0 L0 18 L93 18 L93 0 Z"/>
      </clipPath>
      <clipPath clipPathUnits="userSpaceOnUse" id="clipPath10">
        <path d="M0 0 L0 18 L73 18 L73 0 Z"/>
      </clipPath>
      <clipPath clipPathUnits="userSpaceOnUse" id="clipPath11">
        <path d="M0 0 L0 18 L68 18 L68 0 Z"/>
      </clipPath>
      <clipPath clipPathUnits="userSpaceOnUse" id="clipPath12">
        <path d="M0 0 L0 19 L6 19 L6 0 Z"/>
      </clipPath>
      <clipPath clipPathUnits="userSpaceOnUse" id="clipPath13">
        <path d="M0 0 L0 18 L69 18 L69 0 Z"/>
      </clipPath>
      <script type="text/ecmascript">
        <![CDATA[      var SVGDocument = null;
      var SVGRoot = null;
      var TrueCoords = null;
      var lastElement = null;
      var initialized = null;
      var tipGroup;
      function Init(evt)
      {
         SVGDocument = evt.target.ownerDocument;
         SVGRoot = SVGDocument.documentElement;
         TrueCoords = SVGRoot.createSVGPoint();
         initialized = evt;
      };
      function GetTrueCoords(evt)
      {
         var newScale = SVGRoot.currentScale;
         var translation = SVGRoot.currentTranslate;
         TrueCoords.x = (evt.clientX - translation.x)/newScale;
         TrueCoords.y = (evt.clientY - translation.y)/newScale;
      };
      function HideTooltip( evt )
      {
         if(initialized == null) {
           Init(evt);
         }
         if(tipGroup != null) {
           tipGroup.setAttributeNS(null, 'visibility', 'hidden');
         }
      };
      function ShowTooltip( evt )
      {
         if(initialized == null) {
           Init(evt);
         }
         GetTrueCoords( evt );
         var tipScale = 1/SVGRoot.currentScale;
         var targetElement = evt.currentTarget;
         if ( lastElement != targetElement )
         {
            var targetId = targetElement.getAttributeNS(null, 'id');
            var tipId = 'tooltip.' + targetId;
            tipGroup = SVGDocument.getElementById(tipId);
            var xPos = TrueCoords.x + (10 * tipScale);
            var yPos = TrueCoords.y + (10 * tipScale);
            tipGroup.setAttributeNS(null, 'transform', 'translate(' + xPos + ',' + yPos + ') scale(' + tipScale + ')');
            tipGroup.setAttributeNS(null, 'visibility', 'visible');
         }
      };
]]>
      </script>
    </defs>
    <g fill="white" text-rendering="geometricPrecision" shape-rendering="geometricPrecision" transform="translate(18,14)" stroke="white">
      <rect x="-18" width="296" height="269" y="-14" clip-path="url(#clipPath2)" stroke="none"/>
    </g>
    <g onmouseout="HideTooltip(evt)" id="y.node.0" onmousemove="ShowTooltip(evt)">
      <g fill="rgb(238,238,238)" text-rendering="geometricPrecision" shape-rendering="geometricPrecision" transform="matrix(1,0,0,1,18,14)" stroke="rgb(238,238,238)">
        <rect x="-2.5" width="265.165" height="239" y="1" stroke="none"/>
      </g>
      <g>
        <g fill="red" text-rendering="geometricPrecision" shape-rendering="geometricPrecision" transform="matrix(1,0,0,1,18,14)" stroke="red">
          <rect x="-2.5" width="265.165" height="19" y="1" stroke="none"/>
        </g>
        <g text-rendering="geometricPrecision" stroke-miterlimit="1.45" shape-rendering="geometricPrecision" font-family="sans-serif" transform="matrix(1,0,0,1,18,14) translate(0,3)" stroke-linecap="butt">
          <text x="0" xml:space="preserve" y="12" clip-path="url(#clipPath3)" stroke="none">     </text>
          <text fill="blue" x="20" xml:space="preserve" y="12" clip-path="url(#clipPath3)" stroke="none">automaton</text>
          <text x="81" xml:space="preserve" y="12" clip-path="url(#clipPath3)" stroke="none"> </text>
          <text x="85" xml:space="preserve" y="12" clip-path="url(#clipPath3)" stroke="none">lamp</text>
        </g>
      </g>
      <g text-rendering="geometricPrecision" stroke-miterlimit="1.45" shape-rendering="geometricPrecision" transform="matrix(1,0,0,1,18,14)" stroke-linecap="butt">
        <rect fill="none" x="-2.5" width="265.165" height="239" y="1"/>
      </g>
    </g>
    <g onmouseout="HideTooltip(evt)" id="y.node.1" onmousemove="ShowTooltip(evt)">
      <g fill="rgb(235,235,184)" text-rendering="geometricPrecision" shape-rendering="geometricPrecision" transform="matrix(1,0,0,1,18,14)" stroke="rgb(235,235,184)">
        <rect x="152.5" width="95" height="66.1875" y="36.9062" stroke="none"/>
      </g>
      <g>
        <g fill="rgb(238,238,128)" text-rendering="geometricPrecision" shape-rendering="geometricPrecision" transform="matrix(1,0,0,1,18,14)" stroke="rgb(238,238,128)">
          <rect x="152.335" width="95.3301" height="18.1328" y="36.9062" stroke="none"/>
        </g>
        <g text-rendering="geometricPrecision" stroke-miterlimit="1.45" shape-rendering="geometricPrecision" font-family="sans-serif" transform="matrix(1,0,0,1,18,14)" stroke-linecap="butt">
          <text x="154.335" xml:space="preserve" y="50.5078" stroke="none">     Declarations</text>
        </g>
      </g>
      <g>
        <g stroke-linecap="butt" transform="matrix(1,0,0,1,18,14) translate(158,57)" fill="blue" text-rendering="geometricPrecision" font-family="sans-serif" shape-rendering="geometricPrecision" stroke="blue" stroke-miterlimit="1.45">
          <text x="0" xml:space="preserve" y="12" clip-path="url(#clipPath4)" stroke="none">event</text>
          <text fill="black" x="31" xml:space="preserve" y="12" clip-path="url(#clipPath4)" stroke="none"> </text>
          <text fill="black" x="35" xml:space="preserve" y="12" clip-path="url(#clipPath4)" stroke="none">turn_on</text>
          <text fill="rgb(64,32,32)" x="78" xml:space="preserve" y="12" clip-path="url(#clipPath4)" stroke="none">;</text>
          <text fill="black" x="82" xml:space="preserve" y="12" clip-path="url(#clipPath4)" stroke="none"> </text>
          <text x="0" xml:space="preserve" y="27" clip-path="url(#clipPath4)" stroke="none">event</text>
          <text fill="black" x="31" xml:space="preserve" y="27" clip-path="url(#clipPath4)" stroke="none"> </text>
          <text fill="black" x="35" xml:space="preserve" y="27" clip-path="url(#clipPath4)" stroke="none">turn_off</text>
          <text fill="rgb(64,32,32)" x="79" xml:space="preserve" y="27" clip-path="url(#clipPath4)" stroke="none">;</text>
        </g>
      </g>
      <g text-rendering="geometricPrecision" stroke-miterlimit="1.45" shape-rendering="geometricPrecision" transform="matrix(1,0,0,1,18,14)" stroke-linecap="butt">
        <rect fill="none" x="152.5" width="95" height="66.1875" y="36.9062"/>
      </g>
    </g>
    <g onmouseout="HideTooltip(evt)" id="y.node.2" onmousemove="ShowTooltip(evt)">
      <g fill="rgb(204,204,255)" text-rendering="geometricPrecision" shape-rendering="geometricPrecision" transform="matrix(1,0,0,1,18,14)" stroke="rgb(204,204,255)">
        <rect x="70" y="155" width="60" rx="4" ry="4" height="30" stroke="none"/>
      </g>
      <g>
        <g text-rendering="geometricPrecision" stroke-miterlimit="1.45" shape-rendering="geometricPrecision" font-family="sans-serif" transform="matrix(1,0,0,1,18,14) translate(92,162)" stroke-linecap="butt">
          <text x="0" xml:space="preserve" y="12" clip-path="url(#clipPath5)" stroke="none">On</text>
        </g>
      </g>
      <g text-rendering="geometricPrecision" stroke-miterlimit="1.45" shape-rendering="geometricPrecision" transform="matrix(1,0,0,1,18,14)" stroke-linecap="butt">
        <rect x="70" y="155" fill="none" width="60" rx="4" ry="4" height="30"/>
      </g>
    </g>
    <g onmouseout="HideTooltip(evt)" id="y.node.3" onmousemove="ShowTooltip(evt)">
      <g/>
    </g>
    <g onmouseout="HideTooltip(evt)" id="y.node.4" onmousemove="ShowTooltip(evt)">
      <g fill="rgb(204,204,255)" text-rendering="geometricPrecision" shape-rendering="geometricPrecision" transform="matrix(1,0,0,1,18,14)" stroke="rgb(204,204,255)">
        <rect x="70" y="35" width="60" rx="4" ry="4" height="30" stroke="none"/>
      </g>
      <g>
        <g text-rendering="geometricPrecision" stroke-miterlimit="1.45" shape-rendering="geometricPrecision" font-family="sans-serif" transform="matrix(1,0,0,1,18,14) translate(89,42)" stroke-linecap="butt">
          <text x="0" xml:space="preserve" y="12" clip-path="url(#clipPath6)" stroke="none">Off </text>
        </g>
      </g>
      <g text-rendering="geometricPrecision" stroke-miterlimit="1.45" shape-rendering="geometricPrecision" transform="matrix(1,0,0,1,18,14)" stroke-linecap="butt">
        <rect x="70" y="35" fill="none" width="60" rx="4" ry="4" height="30"/>
      </g>
    </g>
    <g id="y.edge.0">
      <g text-rendering="geometricPrecision" stroke-miterlimit="1.45" shape-rendering="geometricPrecision" transform="matrix(1,0,0,1,18,14)" stroke-linecap="butt">
        <path fill="none" d="M100 214.48 L100 193"/>
        <path d="M100 185 L95 197 L100 194 L105 197 Z" stroke="none"/>
      </g>
    </g>
    <g id="y.edge.1">
      <g text-rendering="geometricPrecision" stroke-miterlimit="1.45" shape-rendering="geometricPrecision" transform="matrix(1,0,0,1,18,14)" stroke-linecap="butt">
        <path fill="none" d="M89.9997 154.9561 L89.4142 72.9998"/>
        <path d="M89.357 65 L84.4429 77.0354 L89.4213 73.9998 L94.4426 76.964 Z" stroke="none"/>
      </g>
      <g>
        <g stroke-linecap="butt" transform="matrix(1,0,0,1,18,14)" fill="rgb(238,238,238)" text-rendering="geometricPrecision" shape-rendering="geometricPrecision" stroke="rgb(238,238,238)" stroke-miterlimit="1.45">
          <rect x="39.7919" width="48" height="19" y="125.875" stroke="none"/>
        </g>
        <g text-rendering="geometricPrecision" stroke-miterlimit="1.45" shape-rendering="geometricPrecision" font-family="sans-serif" transform="matrix(1,0,0,1,18,14) translate(41,127)" stroke-linecap="butt">
          <text x="0" xml:space="preserve" y="12" clip-path="url(#clipPath7)" stroke="none">turn_off</text>
        </g>
      </g>
    </g>
    <g id="y.edge.2">
      <g text-rendering="geometricPrecision" stroke-miterlimit="1.45" shape-rendering="geometricPrecision" transform="matrix(1,0,0,1,18,14)" stroke-linecap="butt">
        <path fill="none" d="M110.643 65 L110.643 146.9899"/>
        <path d="M110.643 154.9899 L115.643 142.9899 L110.643 145.9899 L105.643 142.9899 Z" stroke="none"/>
      </g>
      <g>
        <g stroke-linecap="butt" transform="matrix(1,0,0,1,18,14)" fill="rgb(238,238,238)" text-rendering="geometricPrecision" shape-rendering="geometricPrecision" stroke="rgb(238,238,238)" stroke-miterlimit="1.45">
          <rect x="112.643" width="47" height="19" y="125.875" stroke="none"/>
        </g>
        <g text-rendering="geometricPrecision" stroke-miterlimit="1.45" shape-rendering="geometricPrecision" font-family="sans-serif" transform="matrix(1,0,0,1,18,14) translate(114,127)" stroke-linecap="butt">
          <text x="0" xml:space="preserve" y="12" clip-path="url(#clipPath8)" stroke="none">turn_on</text>
        </g>
      </g>
    </g>
    <g visibility="hidden" id="tooltip.y.node.0" pointer-events="none">
      <g fill="rgb(255,255,204)" text-rendering="geometricPrecision" font-size="11px" shape-rendering="geometricPrecision" font-family="'Lucida Grande'" stroke="rgb(255,255,204)">
        <rect x="0" width="93" height="18" y="0" clip-path="url(#clipPath9)" stroke="none"/>
        <text fill="black" x="3" xml:space="preserve" y="13" clip-path="url(#clipPath9)" stroke="none">automaton lamp</text>
      </g>
    </g>
    <g visibility="hidden" id="tooltip.y.node.1" pointer-events="none">
      <g fill="rgb(255,255,204)" text-rendering="geometricPrecision" font-size="11px" shape-rendering="geometricPrecision" font-family="'Lucida Grande'" stroke="rgb(255,255,204)">
        <rect x="0" width="73" height="18" y="0" clip-path="url(#clipPath10)" stroke="none"/>
        <text fill="black" x="3" xml:space="preserve" y="13" clip-path="url(#clipPath10)" stroke="none">Declarations</text>
      </g>
    </g>
    <g visibility="hidden" id="tooltip.y.node.2" pointer-events="none">
      <g fill="rgb(255,255,204)" text-rendering="geometricPrecision" font-size="11px" shape-rendering="geometricPrecision" font-family="'Lucida Grande'" stroke="rgb(255,255,204)">
        <rect x="0" width="68" height="18" y="0" clip-path="url(#clipPath11)" stroke="none"/>
        <text fill="black" x="3" xml:space="preserve" y="13" clip-path="url(#clipPath11)" stroke="none">location On</text>
      </g>
    </g>
    <g visibility="hidden" id="tooltip.y.node.3" pointer-events="none">
      <g fill="rgb(255,255,204)" text-rendering="geometricPrecision" font-size="11px" shape-rendering="geometricPrecision" font-family="'Lucida Grande'" stroke="rgb(255,255,204)">
        <rect x="0" width="6" height="19" y="0" clip-path="url(#clipPath12)" stroke="none"/>
      </g>
    </g>
    <g visibility="hidden" id="tooltip.y.node.4" pointer-events="none">
      <g fill="rgb(255,255,204)" text-rendering="geometricPrecision" font-size="11px" shape-rendering="geometricPrecision" font-family="'Lucida Grande'" stroke="rgb(255,255,204)">
        <rect x="0" width="69" height="18" y="0" clip-path="url(#clipPath13)" stroke="none"/>
        <text fill="black" x="3" xml:space="preserve" y="13" clip-path="url(#clipPath13)" stroke="none">location Off</text>
      </g>
    </g>
  </g>
</svg>
