<?xml version="1.0" encoding="UTF-8"?><svg xmlns="http://www.w3.org/2000/svg" xmlns:xlink="http://www.w3.org/1999/xlink" fill-opacity="1" color-rendering="auto" color-interpolation="auto" text-rendering="auto" stroke="black" stroke-linecap="square" width="552" stroke-miterlimit="10" shape-rendering="auto" stroke-opacity="1" fill="black" stroke-dasharray="none" font-weight="normal" stroke-width="1" height="487" font-family="'Dialog'" font-style="normal" stroke-linejoin="miter" font-size="12px" stroke-dashoffset="0" image-rendering="auto">
  <!--Generated by ySVG 2.5-->
  <defs id="genericDefs"/>
  <g>
    <defs id="defs1">
      <clipPath clipPathUnits="userSpaceOnUse" id="clipPath1">
        <path d="M0 0 L552 0 L552 487 L0 487 L0 0 Z"/>
      </clipPath>
      <clipPath clipPathUnits="userSpaceOnUse" id="clipPath2">
        <path d="M0 -17 L552 -17 L552 470 L0 470 L0 -17 Z"/>
      </clipPath>
      <clipPath clipPathUnits="userSpaceOnUse" id="clipPath3">
        <path d="M0 0 L161 0 L161 15 L0 15 L0 0 Z"/>
      </clipPath>
      <clipPath clipPathUnits="userSpaceOnUse" id="clipPath4">
        <path d="M0 0 L8 0 L8 15 L0 15 L0 0 Z"/>
      </clipPath>
      <clipPath clipPathUnits="userSpaceOnUse" id="clipPath5">
        <path d="M0 0 L14 0 L14 15 L0 15 L0 0 Z"/>
      </clipPath>
      <clipPath clipPathUnits="userSpaceOnUse" id="clipPath6">
        <path d="M0 0 L7 0 L7 15 L0 15 L0 0 Z"/>
      </clipPath>
      <clipPath clipPathUnits="userSpaceOnUse" id="clipPath7">
        <path d="M0 0 L16 0 L16 15 L0 15 L0 0 Z"/>
      </clipPath>
      <clipPath clipPathUnits="userSpaceOnUse" id="clipPath8">
        <path d="M0 0 L33 0 L33 15 L0 15 L0 0 Z"/>
      </clipPath>
      <clipPath clipPathUnits="userSpaceOnUse" id="clipPath9">
        <path d="M0 0 L27 0 L27 15 L0 15 L0 0 Z"/>
      </clipPath>
      <clipPath clipPathUnits="userSpaceOnUse" id="clipPath10">
        <path d="M0 0 L116 0 L116 15 L0 15 L0 0 Z"/>
      </clipPath>
      <clipPath clipPathUnits="userSpaceOnUse" id="clipPath11">
        <path d="M0 0 L3 0 L3 15 L0 15 L0 0 Z"/>
      </clipPath>
      <clipPath clipPathUnits="userSpaceOnUse" id="clipPath12">
        <path d="M0 0 L34 0 L34 15 L0 15 L0 0 Z"/>
      </clipPath>
      <clipPath clipPathUnits="userSpaceOnUse" id="clipPath13">
        <path d="M0 0 L28 0 L28 15 L0 15 L0 0 Z"/>
      </clipPath>
      <clipPath clipPathUnits="userSpaceOnUse" id="clipPath14">
        <path d="M0 0 L96 0 L96 60 L0 60 L0 0 Z"/>
      </clipPath>
      <clipPath clipPathUnits="userSpaceOnUse" id="clipPath15">
        <path d="M0 0 L0 18 L139 18 L139 0 Z"/>
      </clipPath>
      <clipPath clipPathUnits="userSpaceOnUse" id="clipPath16">
        <path d="M0 0 L0 18 L59 18 L59 0 Z"/>
      </clipPath>
      <clipPath clipPathUnits="userSpaceOnUse" id="clipPath17">
        <path d="M0 0 L0 19 L6 19 L6 0 Z"/>
      </clipPath>
      <clipPath clipPathUnits="userSpaceOnUse" id="clipPath18">
        <path d="M0 0 L0 18 L65 18 L65 0 Z"/>
      </clipPath>
      <clipPath clipPathUnits="userSpaceOnUse" id="clipPath19">
        <path d="M0 0 L0 18 L58 18 L58 0 Z"/>
      </clipPath>
      <clipPath clipPathUnits="userSpaceOnUse" id="clipPath20">
        <path d="M0 0 L0 18 L66 18 L66 0 Z"/>
      </clipPath>
      <clipPath clipPathUnits="userSpaceOnUse" id="clipPath21">
        <path d="M0 0 L0 18 L96 18 L96 0 Z"/>
      </clipPath>
      <clipPath clipPathUnits="userSpaceOnUse" id="clipPath22">
        <path d="M0 0 L0 18 L55 18 L55 0 Z"/>
      </clipPath>
      <clipPath clipPathUnits="userSpaceOnUse" id="clipPath23">
        <path d="M0 0 L0 18 L73 18 L73 0 Z"/>
      </clipPath>
      <script type="text/ecmascript">
        <![CDATA[      var SVGDocument = null;
      var SVGRoot = null;
      var TrueCoords = null;
      var lastElement = null;
      var initialized = null;
      var tipGroup;
      function Init(evt)
      {
         SVGDocument = evt.target.ownerDocument;
         SVGRoot = SVGDocument.documentElement;
         TrueCoords = SVGRoot.createSVGPoint();
         initialized = evt;
      };
      function GetTrueCoords(evt)
      {
         var newScale = SVGRoot.currentScale;
         var translation = SVGRoot.currentTranslate;
         TrueCoords.x = (evt.clientX - translation.x)/newScale;
         TrueCoords.y = (evt.clientY - translation.y)/newScale;
      };
      function HideTooltip( evt )
      {
         if(initialized == null) {
           Init(evt);
         }
         if(tipGroup != null) {
           tipGroup.setAttributeNS(null, 'visibility', 'hidden');
         }
      };
      function ShowTooltip( evt )
      {
         if(initialized == null) {
           Init(evt);
         }
         GetTrueCoords( evt );
         var tipScale = 1/SVGRoot.currentScale;
         var targetElement = evt.currentTarget;
         if ( lastElement != targetElement )
         {
            var targetId = targetElement.getAttributeNS(null, 'id');
            var tipId = 'tooltip.' + targetId;
            tipGroup = SVGDocument.getElementById(tipId);
            var xPos = TrueCoords.x + (10 * tipScale);
            var yPos = TrueCoords.y + (10 * tipScale);
            tipGroup.setAttributeNS(null, 'transform', 'translate(' + xPos + ',' + yPos + ') scale(' + tipScale + ')');
            tipGroup.setAttributeNS(null, 'visibility', 'visible');
         }
      };
]]>
      </script>
    </defs>
    <g fill="white" text-rendering="geometricPrecision" shape-rendering="geometricPrecision" transform="translate(0,17)" stroke="white">
      <rect x="0" width="552" height="487" y="-17" clip-path="url(#clipPath2)" stroke="none"/>
    </g>
    <g onmouseout="HideTooltip(evt)" id="y.node.0" onmousemove="ShowTooltip(evt)">
      <g fill="rgb(238,238,238)" text-rendering="geometricPrecision" shape-rendering="geometricPrecision" transform="matrix(1,0,0,1,0,17)" stroke="rgb(238,238,238)">
        <rect x="15" width="165" height="441" y="-1.5" stroke="none"/>
      </g>
      <g>
        <g fill="red" text-rendering="geometricPrecision" shape-rendering="geometricPrecision" transform="matrix(1,0,0,1,0,17)" stroke="red">
          <rect x="15" width="165" height="19" y="-1.5" stroke="none"/>
        </g>
        <g text-rendering="geometricPrecision" stroke-miterlimit="1.45" shape-rendering="geometricPrecision" font-family="sans-serif" transform="matrix(1,0,0,1,0,17) translate(17,0)" stroke-linecap="butt">
          <text x="0" xml:space="preserve" y="12" clip-path="url(#clipPath3)" stroke="none">     </text>
          <text fill="blue" x="20" xml:space="preserve" y="12" clip-path="url(#clipPath3)" stroke="none">automaton</text>
          <text x="81" xml:space="preserve" y="12" clip-path="url(#clipPath3)" stroke="none"> </text>
          <text x="85" xml:space="preserve" y="12" clip-path="url(#clipPath3)" stroke="none">philosopher1</text>
        </g>
      </g>
      <g text-rendering="geometricPrecision" stroke-miterlimit="1.45" shape-rendering="geometricPrecision" transform="matrix(1,0,0,1,0,17)" stroke-linecap="butt">
        <rect fill="none" x="15" width="165" height="441" y="-1.5"/>
      </g>
    </g>
    <g onmouseout="HideTooltip(evt)" id="y.node.1" onmousemove="ShowTooltip(evt)">
      <g fill="rgb(204,204,255)" text-rendering="geometricPrecision" shape-rendering="geometricPrecision" transform="matrix(1,0,0,1,0,17)" stroke="rgb(204,204,255)">
        <rect x="30" y="79.5" width="60" rx="4" ry="4" height="30" stroke="none"/>
      </g>
      <g>
        <g text-rendering="geometricPrecision" stroke-miterlimit="1.45" shape-rendering="geometricPrecision" font-family="sans-serif" transform="matrix(1,0,0,1,0,17) translate(56,87)" stroke-linecap="butt">
          <text x="0" xml:space="preserve" y="12" clip-path="url(#clipPath4)" stroke="none">T</text>
        </g>
      </g>
      <g text-rendering="geometricPrecision" stroke-miterlimit="1.45" shape-rendering="geometricPrecision" transform="matrix(1,0,0,1,0,17)" stroke-linecap="butt">
        <rect x="30" y="79.5" fill="none" width="60" rx="4" ry="4" height="30"/>
      </g>
    </g>
    <g onmouseout="HideTooltip(evt)" id="y.node.2" onmousemove="ShowTooltip(evt)">
      <g/>
    </g>
    <g onmouseout="HideTooltip(evt)" id="y.node.3" onmousemove="ShowTooltip(evt)">
      <g fill="rgb(204,204,255)" text-rendering="geometricPrecision" shape-rendering="geometricPrecision" transform="matrix(1,0,0,1,0,17)" stroke="rgb(204,204,255)">
        <rect x="30" y="184.5" width="60" rx="4" ry="4" height="30" stroke="none"/>
      </g>
      <g>
        <g text-rendering="geometricPrecision" stroke-miterlimit="1.45" shape-rendering="geometricPrecision" font-family="sans-serif" transform="matrix(1,0,0,1,0,17) translate(53,192)" stroke-linecap="butt">
          <text x="0" xml:space="preserve" y="12" clip-path="url(#clipPath5)" stroke="none">F1</text>
        </g>
      </g>
      <g text-rendering="geometricPrecision" stroke-miterlimit="1.45" shape-rendering="geometricPrecision" transform="matrix(1,0,0,1,0,17)" stroke-linecap="butt">
        <rect x="30" y="184.5" fill="none" width="60" rx="4" ry="4" height="30"/>
      </g>
    </g>
    <g onmouseout="HideTooltip(evt)" id="y.node.4" onmousemove="ShowTooltip(evt)">
      <g fill="rgb(204,204,255)" text-rendering="geometricPrecision" shape-rendering="geometricPrecision" transform="matrix(1,0,0,1,0,17)" stroke="rgb(204,204,255)">
        <rect x="30" y="289.5" width="60" rx="4" ry="4" height="30" stroke="none"/>
      </g>
      <g>
        <g text-rendering="geometricPrecision" stroke-miterlimit="1.45" shape-rendering="geometricPrecision" font-family="sans-serif" transform="matrix(1,0,0,1,0,17) translate(56,297)" stroke-linecap="butt">
          <text x="0" xml:space="preserve" y="12" clip-path="url(#clipPath6)" stroke="none">E</text>
        </g>
      </g>
      <g text-rendering="geometricPrecision" stroke-miterlimit="1.45" shape-rendering="geometricPrecision" transform="matrix(1,0,0,1,0,17)" stroke-linecap="butt">
        <rect x="30" y="289.5" fill="none" width="60" rx="4" ry="4" height="30"/>
      </g>
    </g>
    <g onmouseout="HideTooltip(evt)" id="y.node.5" onmousemove="ShowTooltip(evt)">
      <g fill="rgb(204,204,255)" text-rendering="geometricPrecision" shape-rendering="geometricPrecision" transform="matrix(1,0,0,1,0,17)" stroke="rgb(204,204,255)">
        <rect x="30" y="394.5" width="60" rx="4" ry="4" height="30" stroke="none"/>
      </g>
      <g>
        <g text-rendering="geometricPrecision" stroke-miterlimit="1.45" shape-rendering="geometricPrecision" font-family="sans-serif" transform="matrix(1,0,0,1,0,17) translate(52,402)" stroke-linecap="butt">
          <text x="0" xml:space="preserve" y="12" clip-path="url(#clipPath7)" stroke="none">R2</text>
        </g>
      </g>
      <g text-rendering="geometricPrecision" stroke-miterlimit="1.45" shape-rendering="geometricPrecision" transform="matrix(1,0,0,1,0,17)" stroke-linecap="butt">
        <rect x="30" y="394.5" fill="none" width="60" rx="4" ry="4" height="30"/>
      </g>
    </g>
    <g id="y.edge.0">
      <g text-rendering="geometricPrecision" stroke-miterlimit="1.45" shape-rendering="geometricPrecision" transform="matrix(1,0,0,1,0,17)" stroke-linecap="butt">
        <path fill="none" d="M60 39.9976 L60 71.4614"/>
      </g>
      <g text-rendering="geometricPrecision" stroke-miterlimit="1.45" shape-rendering="geometricPrecision" transform="matrix(1,0,0,1,0,17)" stroke-linecap="butt">
        <path d="M60 79.4614 L65 67.4614 L60 70.4614 L55 67.4614 Z" stroke="none"/>
      </g>
    </g>
    <g id="y.edge.1">
      <g text-rendering="geometricPrecision" stroke-miterlimit="1.45" shape-rendering="geometricPrecision" transform="matrix(1,0,0,1,0,17)" stroke-linecap="butt">
        <path fill="none" d="M60 109.5 L60 176.4634"/>
        <path d="M60 184.4634 L65 172.4634 L60 175.4634 L55 172.4634 Z" stroke="none"/>
      </g>
      <g>
        <g stroke-linecap="butt" transform="matrix(1,0,0,1,0,17)" fill="rgb(238,238,238)" text-rendering="geometricPrecision" shape-rendering="geometricPrecision" stroke="rgb(238,238,238)" stroke-miterlimit="1.45">
          <rect x="21" width="37" height="19" y="137.5" stroke="none"/>
        </g>
        <g text-rendering="geometricPrecision" stroke-miterlimit="1.45" shape-rendering="geometricPrecision" font-family="sans-serif" transform="matrix(1,0,0,1,0,17) translate(23,139)" stroke-linecap="butt">
          <text x="0" xml:space="preserve" y="12" clip-path="url(#clipPath8)" stroke="none">acq1</text>
          <text fill="rgb(64,32,32)" x="29" xml:space="preserve" y="12" clip-path="url(#clipPath8)" stroke="none">!</text>
        </g>
      </g>
    </g>
    <g id="y.edge.2">
      <g text-rendering="geometricPrecision" stroke-miterlimit="1.45" shape-rendering="geometricPrecision" transform="matrix(1,0,0,1,0,17)" stroke-linecap="butt">
        <path fill="none" d="M60 214.5 L60 281.4634"/>
        <path d="M60 289.4634 L65 277.4634 L60 280.4634 L55 277.4634 Z" stroke="none"/>
      </g>
      <g>
        <g stroke-linecap="butt" transform="matrix(1,0,0,1,0,17)" fill="rgb(238,238,238)" text-rendering="geometricPrecision" shape-rendering="geometricPrecision" stroke="rgb(238,238,238)" stroke-miterlimit="1.45">
          <rect x="21" width="37" height="19" y="242.5" stroke="none"/>
        </g>
        <g text-rendering="geometricPrecision" stroke-miterlimit="1.45" shape-rendering="geometricPrecision" font-family="sans-serif" transform="matrix(1,0,0,1,0,17) translate(23,244)" stroke-linecap="butt">
          <text x="0" xml:space="preserve" y="12" clip-path="url(#clipPath8)" stroke="none">acq2</text>
          <text fill="rgb(64,32,32)" x="29" xml:space="preserve" y="12" clip-path="url(#clipPath8)" stroke="none">!</text>
        </g>
      </g>
    </g>
    <g id="y.edge.3">
      <g text-rendering="geometricPrecision" stroke-miterlimit="1.45" shape-rendering="geometricPrecision" transform="matrix(1,0,0,1,0,17)" stroke-linecap="butt">
        <path fill="none" d="M60 319.5 L60 386.4634"/>
        <path d="M60 394.4634 L65 382.4634 L60 385.4634 L55 382.4634 Z" stroke="none"/>
      </g>
      <g>
        <g stroke-linecap="butt" transform="matrix(1,0,0,1,0,17)" fill="rgb(238,238,238)" text-rendering="geometricPrecision" shape-rendering="geometricPrecision" stroke="rgb(238,238,238)" stroke-miterlimit="1.45">
          <rect x="27" width="31" height="19" y="347.5" stroke="none"/>
        </g>
        <g text-rendering="geometricPrecision" stroke-miterlimit="1.45" shape-rendering="geometricPrecision" font-family="sans-serif" transform="matrix(1,0,0,1,0,17) translate(29,349)" stroke-linecap="butt">
          <text x="0" xml:space="preserve" y="12" clip-path="url(#clipPath9)" stroke="none">rel1</text>
          <text fill="rgb(64,32,32)" x="23" xml:space="preserve" y="12" clip-path="url(#clipPath9)" stroke="none">!</text>
        </g>
      </g>
    </g>
    <g id="y.edge.4">
      <g text-rendering="geometricPrecision" stroke-miterlimit="1.45" shape-rendering="geometricPrecision" transform="matrix(1,0,0,1,0,17)" stroke-linecap="butt">
        <path fill="none" d="M90 409.5 L125 409.5 L129.375 408.875 L132.5 407 L134.375 403.875 L135 399.5 L135 104.5 L134.375 100.125 L132.5 97 L129.375 95.125 L125 94.5 L98 94.5"/>
        <path d="M90 94.5 L102 99.5 L99 94.5 L102 89.5 Z" stroke="none"/>
      </g>
      <g>
        <g stroke-linecap="butt" transform="matrix(1,0,0,1,0,17)" fill="rgb(238,238,238)" text-rendering="geometricPrecision" shape-rendering="geometricPrecision" stroke="rgb(238,238,238)" stroke-miterlimit="1.45">
          <rect x="100.125" width="31" height="19" y="388.5" stroke="none"/>
        </g>
        <g text-rendering="geometricPrecision" stroke-miterlimit="1.45" shape-rendering="geometricPrecision" font-family="sans-serif" transform="matrix(1,0,0,1,0,17) translate(102,390)" stroke-linecap="butt">
          <text x="0" xml:space="preserve" y="12" clip-path="url(#clipPath9)" stroke="none">rel2</text>
          <text fill="rgb(64,32,32)" x="23" xml:space="preserve" y="12" clip-path="url(#clipPath9)" stroke="none">!</text>
        </g>
      </g>
    </g>
    <g onmouseout="HideTooltip(evt)" id="y.node.6" onmousemove="ShowTooltip(evt)">
      <g fill="rgb(238,238,238)" text-rendering="geometricPrecision" shape-rendering="geometricPrecision" transform="matrix(1,0,0,1,0,17)" stroke="rgb(238,238,238)">
        <rect x="211" width="165" height="221" y="-1.5" stroke="none"/>
      </g>
      <g>
        <g fill="red" text-rendering="geometricPrecision" shape-rendering="geometricPrecision" transform="matrix(1,0,0,1,0,17)" stroke="red">
          <rect x="211" width="165" height="19" y="-1.5" stroke="none"/>
        </g>
        <g text-rendering="geometricPrecision" stroke-miterlimit="1.45" shape-rendering="geometricPrecision" font-family="sans-serif" transform="matrix(1,0,0,1,0,17) translate(213,0)" stroke-linecap="butt">
          <text x="0" xml:space="preserve" y="12" clip-path="url(#clipPath3)" stroke="none">     </text>
          <text fill="blue" x="20" xml:space="preserve" y="12" clip-path="url(#clipPath3)" stroke="none">automaton</text>
          <text x="81" xml:space="preserve" y="12" clip-path="url(#clipPath3)" stroke="none"> </text>
          <text x="85" xml:space="preserve" y="12" clip-path="url(#clipPath3)" stroke="none">philosopher2</text>
        </g>
      </g>
      <g text-rendering="geometricPrecision" stroke-miterlimit="1.45" shape-rendering="geometricPrecision" transform="matrix(1,0,0,1,0,17)" stroke-linecap="butt">
        <rect fill="none" x="211" width="165" height="221" y="-1.5"/>
      </g>
    </g>
    <g onmouseout="HideTooltip(evt)" id="y.node.7" onmousemove="ShowTooltip(evt)">
      <g fill="rgb(204,204,255)" text-rendering="geometricPrecision" shape-rendering="geometricPrecision" transform="matrix(1,0,0,1,0,17)" stroke="rgb(204,204,255)">
        <rect x="248.5" y="76.5" width="60" rx="4" ry="4" height="30" stroke="none"/>
      </g>
      <g>
        <g text-rendering="geometricPrecision" stroke-miterlimit="1.45" shape-rendering="geometricPrecision" font-family="sans-serif" transform="matrix(1,0,0,1,0,17) translate(274,84)" stroke-linecap="butt">
          <text x="0" xml:space="preserve" y="12" clip-path="url(#clipPath4)" stroke="none">T</text>
        </g>
      </g>
      <g text-rendering="geometricPrecision" stroke-miterlimit="1.45" shape-rendering="geometricPrecision" transform="matrix(1,0,0,1,0,17)" stroke-linecap="butt">
        <rect x="248.5" y="76.5" fill="none" width="60" rx="4" ry="4" height="30"/>
      </g>
    </g>
    <g onmouseout="HideTooltip(evt)" id="y.node.8" onmousemove="ShowTooltip(evt)">
      <g/>
    </g>
    <g onmouseout="HideTooltip(evt)" id="y.node.9" onmousemove="ShowTooltip(evt)">
      <g fill="rgb(204,204,255)" text-rendering="geometricPrecision" shape-rendering="geometricPrecision" transform="matrix(1,0,0,1,0,17)" stroke="rgb(204,204,255)">
        <rect x="248.5" y="174.5" width="60" rx="4" ry="4" height="30" stroke="none"/>
      </g>
      <g>
        <g text-rendering="geometricPrecision" stroke-miterlimit="1.45" shape-rendering="geometricPrecision" font-family="sans-serif" transform="matrix(1,0,0,1,0,17) translate(275,182)" stroke-linecap="butt">
          <text x="0" xml:space="preserve" y="12" clip-path="url(#clipPath6)" stroke="none">E</text>
        </g>
      </g>
      <g text-rendering="geometricPrecision" stroke-miterlimit="1.45" shape-rendering="geometricPrecision" transform="matrix(1,0,0,1,0,17)" stroke-linecap="butt">
        <rect x="248.5" y="174.5" fill="none" width="60" rx="4" ry="4" height="30"/>
      </g>
    </g>
    <g id="y.edge.5">
      <g text-rendering="geometricPrecision" stroke-miterlimit="1.45" shape-rendering="geometricPrecision" transform="matrix(1,0,0,1,0,17)" stroke-linecap="butt">
        <path fill="none" d="M278.5 35 L278.5 68.5198"/>
        <path d="M278.5 76.5198 L283.5 64.5198 L278.5 67.5198 L273.5 64.5198 Z" stroke="none"/>
      </g>
    </g>
    <g id="y.edge.6">
      <g text-rendering="geometricPrecision" stroke-miterlimit="1.45" shape-rendering="geometricPrecision" transform="matrix(1,0,0,1,0,17)" stroke-linecap="butt">
        <path fill="none" d="M295.691 106.525 L295.691 166.4902"/>
        <path d="M295.691 174.4902 L300.691 162.4902 L295.691 165.4902 L290.691 162.4902 Z" stroke="none"/>
      </g>
      <g>
        <g stroke-linecap="butt" transform="matrix(1,0,0,1,0,17)" fill="rgb(238,238,238)" text-rendering="geometricPrecision" shape-rendering="geometricPrecision" stroke="rgb(238,238,238)" stroke-miterlimit="1.45">
          <rect x="297.6911" width="37" height="19" y="131" stroke="none"/>
        </g>
        <g text-rendering="geometricPrecision" stroke-miterlimit="1.45" shape-rendering="geometricPrecision" font-family="sans-serif" transform="matrix(1,0,0,1,0,17) translate(299,133)" stroke-linecap="butt">
          <text x="0" xml:space="preserve" y="12" clip-path="url(#clipPath8)" stroke="none">acq1</text>
          <text fill="rgb(64,32,32)" x="29" xml:space="preserve" y="12" clip-path="url(#clipPath8)" stroke="none">!</text>
        </g>
      </g>
    </g>
    <g id="y.edge.7">
      <g text-rendering="geometricPrecision" stroke-miterlimit="1.45" shape-rendering="geometricPrecision" transform="matrix(1,0,0,1,0,17)" stroke-linecap="butt">
        <path fill="none" d="M260.5 174.4668 L260.5 114.5"/>
        <path d="M260.5 106.5 L255.5 118.5 L260.5 115.5 L265.5 118.5 Z" stroke="none"/>
      </g>
      <g>
        <g stroke-linecap="butt" transform="matrix(1,0,0,1,0,17)" fill="rgb(238,238,238)" text-rendering="geometricPrecision" shape-rendering="geometricPrecision" stroke="rgb(238,238,238)" stroke-miterlimit="1.45">
          <rect x="227.5" width="31" height="19" y="131" stroke="none"/>
        </g>
        <g text-rendering="geometricPrecision" stroke-miterlimit="1.45" shape-rendering="geometricPrecision" font-family="sans-serif" transform="matrix(1,0,0,1,0,17) translate(229,133)" stroke-linecap="butt">
          <text x="0" xml:space="preserve" y="12" clip-path="url(#clipPath9)" stroke="none">rel1</text>
          <text fill="rgb(64,32,32)" x="23" xml:space="preserve" y="12" clip-path="url(#clipPath9)" stroke="none">!</text>
        </g>
      </g>
    </g>
    <g onmouseout="HideTooltip(evt)" id="y.node.10" onmousemove="ShowTooltip(evt)">
      <g fill="rgb(238,238,238)" text-rendering="geometricPrecision" shape-rendering="geometricPrecision" transform="matrix(1,0,0,1,0,17)" stroke="rgb(238,238,238)">
        <rect x="210" width="119" height="221" y="233.5" stroke="none"/>
      </g>
      <g>
        <g fill="red" text-rendering="geometricPrecision" shape-rendering="geometricPrecision" transform="matrix(1,0,0,1,0,17)" stroke="red">
          <rect x="209.5" width="120" height="19" y="233.5" stroke="none"/>
        </g>
        <g text-rendering="geometricPrecision" stroke-miterlimit="1.45" shape-rendering="geometricPrecision" font-family="sans-serif" transform="matrix(1,0,0,1,0,17) translate(211,235)" stroke-linecap="butt">
          <text x="0" xml:space="preserve" y="12" clip-path="url(#clipPath10)" stroke="none">     </text>
          <text fill="blue" x="20" xml:space="preserve" y="12" clip-path="url(#clipPath10)" stroke="none">automaton</text>
          <text x="81" xml:space="preserve" y="12" clip-path="url(#clipPath10)" stroke="none"> </text>
          <text x="85" xml:space="preserve" y="12" clip-path="url(#clipPath10)" stroke="none">fork1</text>
        </g>
      </g>
      <g text-rendering="geometricPrecision" stroke-miterlimit="1.45" shape-rendering="geometricPrecision" transform="matrix(1,0,0,1,0,17)" stroke-linecap="butt">
        <rect fill="none" x="210" width="119" height="221" y="233.5"/>
      </g>
    </g>
    <g onmouseout="HideTooltip(evt)" id="y.node.11" onmousemove="ShowTooltip(evt)">
      <g fill="rgb(204,204,255)" text-rendering="geometricPrecision" shape-rendering="geometricPrecision" transform="matrix(1,0,0,1,0,17)" stroke="rgb(204,204,255)">
        <rect x="241" y="311.5" width="60" rx="4" ry="4" height="30" stroke="none"/>
      </g>
      <g>
        <g text-rendering="geometricPrecision" stroke-miterlimit="1.45" shape-rendering="geometricPrecision" font-family="sans-serif" transform="matrix(1,0,0,1,0,17) translate(269,319)" stroke-linecap="butt">
          <text x="0" xml:space="preserve" y="12" clip-path="url(#clipPath11)" stroke="none">I</text>
        </g>
      </g>
      <g text-rendering="geometricPrecision" stroke-miterlimit="1.45" shape-rendering="geometricPrecision" transform="matrix(1,0,0,1,0,17)" stroke-linecap="butt">
        <rect x="241" y="311.5" fill="none" width="60" rx="4" ry="4" height="30"/>
      </g>
    </g>
    <g onmouseout="HideTooltip(evt)" id="y.node.12" onmousemove="ShowTooltip(evt)">
      <g/>
    </g>
    <g onmouseout="HideTooltip(evt)" id="y.node.13" onmousemove="ShowTooltip(evt)">
      <g fill="rgb(204,204,255)" text-rendering="geometricPrecision" shape-rendering="geometricPrecision" transform="matrix(1,0,0,1,0,17)" stroke="rgb(204,204,255)">
        <rect x="241" y="409.5" width="60" rx="4" ry="4" height="30" stroke="none"/>
      </g>
      <g>
        <g text-rendering="geometricPrecision" stroke-miterlimit="1.45" shape-rendering="geometricPrecision" font-family="sans-serif" transform="matrix(1,0,0,1,0,17) translate(267,417)" stroke-linecap="butt">
          <text x="0" xml:space="preserve" y="12" clip-path="url(#clipPath4)" stroke="none">X</text>
        </g>
      </g>
      <g text-rendering="geometricPrecision" stroke-miterlimit="1.45" shape-rendering="geometricPrecision" transform="matrix(1,0,0,1,0,17)" stroke-linecap="butt">
        <rect x="241" y="409.5" fill="none" width="60" rx="4" ry="4" height="30"/>
      </g>
    </g>
    <g id="y.edge.8">
      <g text-rendering="geometricPrecision" stroke-miterlimit="1.45" shape-rendering="geometricPrecision" transform="matrix(1,0,0,1,0,17)" stroke-linecap="butt">
        <path fill="none" d="M271 270 L271 303.5198"/>
        <path d="M271 311.5198 L276 299.5198 L271 302.5198 L266 299.5198 Z" stroke="none"/>
      </g>
    </g>
    <g id="y.edge.9">
      <g text-rendering="geometricPrecision" stroke-miterlimit="1.45" shape-rendering="geometricPrecision" transform="matrix(1,0,0,1,0,17)" stroke-linecap="butt">
        <path fill="none" d="M287.594 341.5301 L287.594 401.4902"/>
        <path d="M287.594 409.4902 L292.594 397.4902 L287.594 400.4902 L282.594 397.4902 Z" stroke="none"/>
      </g>
      <g>
        <g stroke-linecap="butt" transform="matrix(1,0,0,1,0,17)" fill="rgb(238,238,238)" text-rendering="geometricPrecision" shape-rendering="geometricPrecision" stroke="rgb(238,238,238)" stroke-miterlimit="1.45">
          <rect x="289.594" width="38" height="19" y="366" stroke="none"/>
        </g>
        <g text-rendering="geometricPrecision" stroke-miterlimit="1.45" shape-rendering="geometricPrecision" font-family="sans-serif" transform="matrix(1,0,0,1,0,17) translate(291,368)" stroke-linecap="butt">
          <text x="0" xml:space="preserve" y="12" clip-path="url(#clipPath12)" stroke="none">acq1</text>
          <text fill="rgb(64,32,32)" x="29" xml:space="preserve" y="12" clip-path="url(#clipPath12)" stroke="none">?</text>
        </g>
      </g>
    </g>
    <g id="y.edge.10">
      <g text-rendering="geometricPrecision" stroke-miterlimit="1.45" shape-rendering="geometricPrecision" transform="matrix(1,0,0,1,0,17)" stroke-linecap="butt">
        <path fill="none" d="M253 409.4668 L253 349.5"/>
        <path d="M253 341.5 L248 353.5 L253 350.5 L258 353.5 Z" stroke="none"/>
      </g>
      <g>
        <g stroke-linecap="butt" transform="matrix(1,0,0,1,0,17)" fill="rgb(238,238,238)" text-rendering="geometricPrecision" shape-rendering="geometricPrecision" stroke="rgb(238,238,238)" stroke-miterlimit="1.45">
          <rect x="219" width="32" height="19" y="366" stroke="none"/>
        </g>
        <g text-rendering="geometricPrecision" stroke-miterlimit="1.45" shape-rendering="geometricPrecision" font-family="sans-serif" transform="matrix(1,0,0,1,0,17) translate(221,368)" stroke-linecap="butt">
          <text x="0" xml:space="preserve" y="12" clip-path="url(#clipPath13)" stroke="none">rel1</text>
          <text fill="rgb(64,32,32)" x="23" xml:space="preserve" y="12" clip-path="url(#clipPath13)" stroke="none">?</text>
        </g>
      </g>
    </g>
    <g onmouseout="HideTooltip(evt)" id="y.node.14" onmousemove="ShowTooltip(evt)">
      <g fill="rgb(238,238,238)" text-rendering="geometricPrecision" shape-rendering="geometricPrecision" transform="matrix(1,0,0,1,0,17)" stroke="rgb(238,238,238)">
        <rect x="359" width="119" height="221" y="233.5" stroke="none"/>
      </g>
      <g>
        <g fill="red" text-rendering="geometricPrecision" shape-rendering="geometricPrecision" transform="matrix(1,0,0,1,0,17)" stroke="red">
          <rect x="358.5" width="120" height="19" y="233.5" stroke="none"/>
        </g>
        <g text-rendering="geometricPrecision" stroke-miterlimit="1.45" shape-rendering="geometricPrecision" font-family="sans-serif" transform="matrix(1,0,0,1,0,17) translate(360,235)" stroke-linecap="butt">
          <text x="0" xml:space="preserve" y="12" clip-path="url(#clipPath10)" stroke="none">     </text>
          <text fill="blue" x="20" xml:space="preserve" y="12" clip-path="url(#clipPath10)" stroke="none">automaton</text>
          <text x="81" xml:space="preserve" y="12" clip-path="url(#clipPath10)" stroke="none"> </text>
          <text x="85" xml:space="preserve" y="12" clip-path="url(#clipPath10)" stroke="none">fork2</text>
        </g>
      </g>
      <g text-rendering="geometricPrecision" stroke-miterlimit="1.45" shape-rendering="geometricPrecision" transform="matrix(1,0,0,1,0,17)" stroke-linecap="butt">
        <rect fill="none" x="359" width="119" height="221" y="233.5"/>
      </g>
    </g>
    <g onmouseout="HideTooltip(evt)" id="y.node.15" onmousemove="ShowTooltip(evt)">
      <g fill="rgb(204,204,255)" text-rendering="geometricPrecision" shape-rendering="geometricPrecision" transform="matrix(1,0,0,1,0,17)" stroke="rgb(204,204,255)">
        <rect x="392" y="311.5" width="60" rx="4" ry="4" height="30" stroke="none"/>
      </g>
      <g>
        <g text-rendering="geometricPrecision" stroke-miterlimit="1.45" shape-rendering="geometricPrecision" font-family="sans-serif" transform="matrix(1,0,0,1,0,17) translate(420,319)" stroke-linecap="butt">
          <text x="0" xml:space="preserve" y="12" clip-path="url(#clipPath11)" stroke="none">I</text>
        </g>
      </g>
      <g text-rendering="geometricPrecision" stroke-miterlimit="1.45" shape-rendering="geometricPrecision" transform="matrix(1,0,0,1,0,17)" stroke-linecap="butt">
        <rect x="392" y="311.5" fill="none" width="60" rx="4" ry="4" height="30"/>
      </g>
    </g>
    <g onmouseout="HideTooltip(evt)" id="y.node.16" onmousemove="ShowTooltip(evt)">
      <g/>
    </g>
    <g onmouseout="HideTooltip(evt)" id="y.node.17" onmousemove="ShowTooltip(evt)">
      <g fill="rgb(204,204,255)" text-rendering="geometricPrecision" shape-rendering="geometricPrecision" transform="matrix(1,0,0,1,0,17)" stroke="rgb(204,204,255)">
        <rect x="392" y="409.5" width="60" rx="4" ry="4" height="30" stroke="none"/>
      </g>
      <g>
        <g text-rendering="geometricPrecision" stroke-miterlimit="1.45" shape-rendering="geometricPrecision" font-family="sans-serif" transform="matrix(1,0,0,1,0,17) translate(418,417)" stroke-linecap="butt">
          <text x="0" xml:space="preserve" y="12" clip-path="url(#clipPath4)" stroke="none">X</text>
        </g>
      </g>
      <g text-rendering="geometricPrecision" stroke-miterlimit="1.45" shape-rendering="geometricPrecision" transform="matrix(1,0,0,1,0,17)" stroke-linecap="butt">
        <rect x="392" y="409.5" fill="none" width="60" rx="4" ry="4" height="30"/>
      </g>
    </g>
    <g id="y.edge.11">
      <g text-rendering="geometricPrecision" stroke-miterlimit="1.45" shape-rendering="geometricPrecision" transform="matrix(1,0,0,1,0,17)" stroke-linecap="butt">
        <path fill="none" d="M422 270 L422 303.5198"/>
        <path d="M422 311.5198 L427 299.5198 L422 302.5198 L417 299.5198 Z" stroke="none"/>
      </g>
    </g>
    <g id="y.edge.12">
      <g text-rendering="geometricPrecision" stroke-miterlimit="1.45" shape-rendering="geometricPrecision" transform="matrix(1,0,0,1,0,17)" stroke-linecap="butt">
        <path fill="none" d="M438.7908 341.5337 L438.7908 401.4766"/>
        <path d="M438.7908 409.4766 L443.7908 397.4766 L438.7908 400.4766 L433.7908 397.4766 Z" stroke="none"/>
      </g>
      <g>
        <g stroke-linecap="butt" transform="matrix(1,0,0,1,0,17)" fill="rgb(238,238,238)" text-rendering="geometricPrecision" shape-rendering="geometricPrecision" stroke="rgb(238,238,238)" stroke-miterlimit="1.45">
          <rect x="440.7908" width="38" height="19" y="366" stroke="none"/>
        </g>
        <g text-rendering="geometricPrecision" stroke-miterlimit="1.45" shape-rendering="geometricPrecision" font-family="sans-serif" transform="matrix(1,0,0,1,0,17) translate(442,368)" stroke-linecap="butt">
          <text x="0" xml:space="preserve" y="12" clip-path="url(#clipPath12)" stroke="none">acq2</text>
          <text fill="rgb(64,32,32)" x="29" xml:space="preserve" y="12" clip-path="url(#clipPath12)" stroke="none">?</text>
        </g>
      </g>
    </g>
    <g id="y.edge.13">
      <g text-rendering="geometricPrecision" stroke-miterlimit="1.45" shape-rendering="geometricPrecision" transform="matrix(1,0,0,1,0,17)" stroke-linecap="butt">
        <path fill="none" d="M404 409.4668 L404 349.5"/>
        <path d="M404 341.5 L399 353.5 L404 350.5 L409 353.5 Z" stroke="none"/>
      </g>
      <g>
        <g stroke-linecap="butt" transform="matrix(1,0,0,1,0,17)" fill="rgb(238,238,238)" text-rendering="geometricPrecision" shape-rendering="geometricPrecision" stroke="rgb(238,238,238)" stroke-miterlimit="1.45">
          <rect x="370" width="32" height="19" y="366" stroke="none"/>
        </g>
        <g text-rendering="geometricPrecision" stroke-miterlimit="1.45" shape-rendering="geometricPrecision" font-family="sans-serif" transform="matrix(1,0,0,1,0,17) translate(372,368)" stroke-linecap="butt">
          <text x="0" xml:space="preserve" y="12" clip-path="url(#clipPath13)" stroke="none">rel2</text>
          <text fill="rgb(64,32,32)" x="23" xml:space="preserve" y="12" clip-path="url(#clipPath13)" stroke="none">?</text>
        </g>
      </g>
    </g>
    <g onmouseout="HideTooltip(evt)" id="y.node.18" onmousemove="ShowTooltip(evt)">
      <g fill="rgb(255,255,204)" text-rendering="geometricPrecision" shape-rendering="geometricPrecision" transform="matrix(1,0,0,1,0,17)" stroke="rgb(255,255,204)">
        <rect x="399" width="138" height="98.375" y="-1.5" stroke="none"/>
      </g>
      <g>
        <g fill="rgb(238,238,128)" text-rendering="geometricPrecision" shape-rendering="geometricPrecision" transform="matrix(1,0,0,1,0,17)" stroke="rgb(238,238,128)">
          <rect x="399" width="138" height="18.1328" y="-1.5" stroke="none"/>
        </g>
        <g text-rendering="geometricPrecision" stroke-miterlimit="1.45" shape-rendering="geometricPrecision" font-family="sans-serif" transform="matrix(1,0,0,1,0,17)" stroke-linecap="butt">
          <text x="401" xml:space="preserve" y="12.1016" stroke="none">     Declarations</text>
        </g>
      </g>
      <g>
        <g stroke-linecap="butt" transform="matrix(1,0,0,1,0,17) translate(420,19)" fill="blue" text-rendering="geometricPrecision" font-family="sans-serif" shape-rendering="geometricPrecision" stroke="blue" stroke-miterlimit="1.45">
          <text x="0" xml:space="preserve" y="12" clip-path="url(#clipPath14)" stroke="none">event</text>
          <text fill="black" x="31" xml:space="preserve" y="12" clip-path="url(#clipPath14)" stroke="none"> </text>
          <text x="35" xml:space="preserve" y="12" clip-path="url(#clipPath14)" stroke="none">void</text>
          <text fill="black" x="59" xml:space="preserve" y="12" clip-path="url(#clipPath14)" stroke="none"> </text>
          <text fill="black" x="63" xml:space="preserve" y="12" clip-path="url(#clipPath14)" stroke="none">acq1</text>
          <text fill="rgb(64,32,32)" x="92" xml:space="preserve" y="12" clip-path="url(#clipPath14)" stroke="none">;</text>
          <text fill="black" x="96" xml:space="preserve" y="12" clip-path="url(#clipPath14)" stroke="none"> </text>
          <text x="0" xml:space="preserve" y="27" clip-path="url(#clipPath14)" stroke="none">event</text>
          <text fill="black" x="31" xml:space="preserve" y="27" clip-path="url(#clipPath14)" stroke="none"> </text>
          <text x="35" xml:space="preserve" y="27" clip-path="url(#clipPath14)" stroke="none">void</text>
          <text fill="black" x="59" xml:space="preserve" y="27" clip-path="url(#clipPath14)" stroke="none"> </text>
          <text fill="black" x="63" xml:space="preserve" y="27" clip-path="url(#clipPath14)" stroke="none">acq2</text>
          <text fill="rgb(64,32,32)" x="92" xml:space="preserve" y="27" clip-path="url(#clipPath14)" stroke="none">;</text>
          <text fill="black" x="96" xml:space="preserve" y="27" clip-path="url(#clipPath14)" stroke="none"> </text>
          <text x="0" xml:space="preserve" y="42" clip-path="url(#clipPath14)" stroke="none">event</text>
          <text fill="black" x="31" xml:space="preserve" y="42" clip-path="url(#clipPath14)" stroke="none"> </text>
          <text x="35" xml:space="preserve" y="42" clip-path="url(#clipPath14)" stroke="none">void</text>
          <text fill="black" x="59" xml:space="preserve" y="42" clip-path="url(#clipPath14)" stroke="none"> </text>
          <text fill="black" x="63" xml:space="preserve" y="42" clip-path="url(#clipPath14)" stroke="none">rel1</text>
          <text fill="rgb(64,32,32)" x="86" xml:space="preserve" y="42" clip-path="url(#clipPath14)" stroke="none">;</text>
          <text fill="black" x="90" xml:space="preserve" y="42" clip-path="url(#clipPath14)" stroke="none"> </text>
          <text x="0" xml:space="preserve" y="57" clip-path="url(#clipPath14)" stroke="none">event</text>
          <text fill="black" x="31" xml:space="preserve" y="57" clip-path="url(#clipPath14)" stroke="none"> </text>
          <text x="35" xml:space="preserve" y="57" clip-path="url(#clipPath14)" stroke="none">void</text>
          <text fill="black" x="59" xml:space="preserve" y="57" clip-path="url(#clipPath14)" stroke="none"> </text>
          <text fill="black" x="63" xml:space="preserve" y="57" clip-path="url(#clipPath14)" stroke="none">rel2</text>
          <text fill="rgb(64,32,32)" x="86" xml:space="preserve" y="57" clip-path="url(#clipPath14)" stroke="none">;</text>
        </g>
      </g>
      <g text-rendering="geometricPrecision" stroke-miterlimit="1.45" shape-rendering="geometricPrecision" transform="matrix(1,0,0,1,0,17)" stroke-linecap="butt">
        <rect fill="none" x="399" width="138" height="98.375" y="-1.5"/>
      </g>
    </g>
    <g visibility="hidden" id="tooltip.y.node.0" pointer-events="none">
      <g fill="rgb(255,255,204)" text-rendering="geometricPrecision" font-size="11px" shape-rendering="geometricPrecision" font-family="'Lucida Grande'" stroke="rgb(255,255,204)">
        <rect x="0" width="139" height="18" y="0" clip-path="url(#clipPath15)" stroke="none"/>
        <text fill="black" x="3" xml:space="preserve" y="13" clip-path="url(#clipPath15)" stroke="none">automaton philosopher1</text>
      </g>
    </g>
    <g visibility="hidden" id="tooltip.y.node.1" pointer-events="none">
      <g fill="rgb(255,255,204)" text-rendering="geometricPrecision" font-size="11px" shape-rendering="geometricPrecision" font-family="'Lucida Grande'" stroke="rgb(255,255,204)">
        <rect x="0" width="59" height="18" y="0" clip-path="url(#clipPath16)" stroke="none"/>
        <text fill="black" x="3" xml:space="preserve" y="13" clip-path="url(#clipPath16)" stroke="none">location T</text>
      </g>
    </g>
    <g visibility="hidden" id="tooltip.y.node.2" pointer-events="none">
      <g fill="rgb(255,255,204)" text-rendering="geometricPrecision" font-size="11px" shape-rendering="geometricPrecision" font-family="'Lucida Grande'" stroke="rgb(255,255,204)">
        <rect x="0" width="6" height="19" y="0" clip-path="url(#clipPath17)" stroke="none"/>
      </g>
    </g>
    <g visibility="hidden" id="tooltip.y.node.3" pointer-events="none">
      <g fill="rgb(255,255,204)" text-rendering="geometricPrecision" font-size="11px" shape-rendering="geometricPrecision" font-family="'Lucida Grande'" stroke="rgb(255,255,204)">
        <rect x="0" width="65" height="18" y="0" clip-path="url(#clipPath18)" stroke="none"/>
        <text fill="black" x="3" xml:space="preserve" y="13" clip-path="url(#clipPath18)" stroke="none">location F1</text>
      </g>
    </g>
    <g visibility="hidden" id="tooltip.y.node.4" pointer-events="none">
      <g fill="rgb(255,255,204)" text-rendering="geometricPrecision" font-size="11px" shape-rendering="geometricPrecision" font-family="'Lucida Grande'" stroke="rgb(255,255,204)">
        <rect x="0" width="58" height="18" y="0" clip-path="url(#clipPath19)" stroke="none"/>
        <text fill="black" x="3" xml:space="preserve" y="13" clip-path="url(#clipPath19)" stroke="none">location E</text>
      </g>
    </g>
    <g visibility="hidden" id="tooltip.y.node.5" pointer-events="none">
      <g fill="rgb(255,255,204)" text-rendering="geometricPrecision" font-size="11px" shape-rendering="geometricPrecision" font-family="'Lucida Grande'" stroke="rgb(255,255,204)">
        <rect x="0" width="66" height="18" y="0" clip-path="url(#clipPath20)" stroke="none"/>
        <text fill="black" x="3" xml:space="preserve" y="13" clip-path="url(#clipPath20)" stroke="none">location R2</text>
      </g>
    </g>
    <g visibility="hidden" id="tooltip.y.node.6" pointer-events="none">
      <g fill="rgb(255,255,204)" text-rendering="geometricPrecision" font-size="11px" shape-rendering="geometricPrecision" font-family="'Lucida Grande'" stroke="rgb(255,255,204)">
        <rect x="0" width="139" height="18" y="0" clip-path="url(#clipPath15)" stroke="none"/>
        <text fill="black" x="3" xml:space="preserve" y="13" clip-path="url(#clipPath15)" stroke="none">automaton philosopher2</text>
      </g>
    </g>
    <g visibility="hidden" id="tooltip.y.node.7" pointer-events="none">
      <g fill="rgb(255,255,204)" text-rendering="geometricPrecision" font-size="11px" shape-rendering="geometricPrecision" font-family="'Lucida Grande'" stroke="rgb(255,255,204)">
        <rect x="0" width="59" height="18" y="0" clip-path="url(#clipPath16)" stroke="none"/>
        <text fill="black" x="3" xml:space="preserve" y="13" clip-path="url(#clipPath16)" stroke="none">location T</text>
      </g>
    </g>
    <g visibility="hidden" id="tooltip.y.node.8" pointer-events="none">
      <g fill="rgb(255,255,204)" text-rendering="geometricPrecision" font-size="11px" shape-rendering="geometricPrecision" font-family="'Lucida Grande'" stroke="rgb(255,255,204)">
        <rect x="0" width="6" height="19" y="0" clip-path="url(#clipPath17)" stroke="none"/>
      </g>
    </g>
    <g visibility="hidden" id="tooltip.y.node.9" pointer-events="none">
      <g fill="rgb(255,255,204)" text-rendering="geometricPrecision" font-size="11px" shape-rendering="geometricPrecision" font-family="'Lucida Grande'" stroke="rgb(255,255,204)">
        <rect x="0" width="58" height="18" y="0" clip-path="url(#clipPath19)" stroke="none"/>
        <text fill="black" x="3" xml:space="preserve" y="13" clip-path="url(#clipPath19)" stroke="none">location E</text>
      </g>
    </g>
    <g visibility="hidden" id="tooltip.y.node.10" pointer-events="none">
      <g fill="rgb(255,255,204)" text-rendering="geometricPrecision" font-size="11px" shape-rendering="geometricPrecision" font-family="'Lucida Grande'" stroke="rgb(255,255,204)">
        <rect x="0" width="96" height="18" y="0" clip-path="url(#clipPath21)" stroke="none"/>
        <text fill="black" x="3" xml:space="preserve" y="13" clip-path="url(#clipPath21)" stroke="none">automaton fork1</text>
      </g>
    </g>
    <g visibility="hidden" id="tooltip.y.node.11" pointer-events="none">
      <g fill="rgb(255,255,204)" text-rendering="geometricPrecision" font-size="11px" shape-rendering="geometricPrecision" font-family="'Lucida Grande'" stroke="rgb(255,255,204)">
        <rect x="0" width="55" height="18" y="0" clip-path="url(#clipPath22)" stroke="none"/>
        <text fill="black" x="3" xml:space="preserve" y="13" clip-path="url(#clipPath22)" stroke="none">location I</text>
      </g>
    </g>
    <g visibility="hidden" id="tooltip.y.node.12" pointer-events="none">
      <g fill="rgb(255,255,204)" text-rendering="geometricPrecision" font-size="11px" shape-rendering="geometricPrecision" font-family="'Lucida Grande'" stroke="rgb(255,255,204)">
        <rect x="0" width="6" height="19" y="0" clip-path="url(#clipPath17)" stroke="none"/>
      </g>
    </g>
    <g visibility="hidden" id="tooltip.y.node.13" pointer-events="none">
      <g fill="rgb(255,255,204)" text-rendering="geometricPrecision" font-size="11px" shape-rendering="geometricPrecision" font-family="'Lucida Grande'" stroke="rgb(255,255,204)">
        <rect x="0" width="59" height="18" y="0" clip-path="url(#clipPath16)" stroke="none"/>
        <text fill="black" x="3" xml:space="preserve" y="13" clip-path="url(#clipPath16)" stroke="none">location X</text>
      </g>
    </g>
    <g visibility="hidden" id="tooltip.y.node.14" pointer-events="none">
      <g fill="rgb(255,255,204)" text-rendering="geometricPrecision" font-size="11px" shape-rendering="geometricPrecision" font-family="'Lucida Grande'" stroke="rgb(255,255,204)">
        <rect x="0" width="96" height="18" y="0" clip-path="url(#clipPath21)" stroke="none"/>
        <text fill="black" x="3" xml:space="preserve" y="13" clip-path="url(#clipPath21)" stroke="none">automaton fork2</text>
      </g>
    </g>
    <g visibility="hidden" id="tooltip.y.node.15" pointer-events="none">
      <g fill="rgb(255,255,204)" text-rendering="geometricPrecision" font-size="11px" shape-rendering="geometricPrecision" font-family="'Lucida Grande'" stroke="rgb(255,255,204)">
        <rect x="0" width="55" height="18" y="0" clip-path="url(#clipPath22)" stroke="none"/>
        <text fill="black" x="3" xml:space="preserve" y="13" clip-path="url(#clipPath22)" stroke="none">location I</text>
      </g>
    </g>
    <g visibility="hidden" id="tooltip.y.node.16" pointer-events="none">
      <g fill="rgb(255,255,204)" text-rendering="geometricPrecision" font-size="11px" shape-rendering="geometricPrecision" font-family="'Lucida Grande'" stroke="rgb(255,255,204)">
        <rect x="0" width="6" height="19" y="0" clip-path="url(#clipPath17)" stroke="none"/>
      </g>
    </g>
    <g visibility="hidden" id="tooltip.y.node.17" pointer-events="none">
      <g fill="rgb(255,255,204)" text-rendering="geometricPrecision" font-size="11px" shape-rendering="geometricPrecision" font-family="'Lucida Grande'" stroke="rgb(255,255,204)">
        <rect x="0" width="59" height="18" y="0" clip-path="url(#clipPath16)" stroke="none"/>
        <text fill="black" x="3" xml:space="preserve" y="13" clip-path="url(#clipPath16)" stroke="none">location X</text>
      </g>
    </g>
    <g visibility="hidden" id="tooltip.y.node.18" pointer-events="none">
      <g fill="rgb(255,255,204)" text-rendering="geometricPrecision" font-size="11px" shape-rendering="geometricPrecision" font-family="'Lucida Grande'" stroke="rgb(255,255,204)">
        <rect x="0" width="73" height="18" y="0" clip-path="url(#clipPath23)" stroke="none"/>
        <text fill="black" x="3" xml:space="preserve" y="13" clip-path="url(#clipPath23)" stroke="none">Declarations</text>
      </g>
    </g>
  </g>
</svg>
