<?xml version="1.0" encoding="UTF-8"?><svg xmlns="http://www.w3.org/2000/svg" xmlns:xlink="http://www.w3.org/1999/xlink" fill-opacity="1" color-rendering="auto" color-interpolation="auto" text-rendering="auto" stroke="black" stroke-linecap="square" width="938" stroke-miterlimit="10" shape-rendering="auto" stroke-opacity="1" fill="black" stroke-dasharray="none" font-weight="normal" stroke-width="1" height="84" font-family="'Dialog'" font-style="normal" stroke-linejoin="miter" font-size="12px" stroke-dashoffset="0" image-rendering="auto">
  <!--Generated by ySVG 2.5-->
  <defs id="genericDefs"/>
  <g>
    <defs id="defs1">
      <clipPath clipPathUnits="userSpaceOnUse" id="clipPath1">
        <path d="M0 0 L938 0 L938 84 L0 84 L0 0 Z"/>
      </clipPath>
      <clipPath clipPathUnits="userSpaceOnUse" id="clipPath2">
        <path d="M-261 116 L677 116 L677 200 L-261 200 L-261 116 Z"/>
      </clipPath>
    </defs>
    <g fill="white" text-rendering="geometricPrecision" shape-rendering="geometricPrecision" transform="translate(261,-116)" stroke="white">
      <rect x="-261" width="938" height="84" y="116" clip-path="url(#clipPath2)" stroke="none"/>
    </g>
    <g fill="rgb(255,204,0)" text-rendering="geometricPrecision" shape-rendering="geometricPrecision" transform="matrix(1,0,0,1,261,-116)" stroke="rgb(255,204,0)">
      <circle r="25" clip-path="url(#clipPath2)" cx="-162.6" cy="160" stroke="none"/>
    </g>
    <g text-rendering="geometricPrecision" stroke-miterlimit="1.45" shape-rendering="geometricPrecision" transform="matrix(1,0,0,1,261,-116)" stroke-linecap="butt">
      <circle fill="none" r="25" clip-path="url(#clipPath2)" cx="-162.6" cy="160"/>
      <text x="-169.2035" xml:space="preserve" y="164.5352" clip-path="url(#clipPath2)" font-family="sans-serif" stroke="none">I/I</text>
    </g>
    <g fill="rgb(255,204,0)" text-rendering="geometricPrecision" shape-rendering="geometricPrecision" transform="matrix(1,0,0,1,261,-116)" stroke="rgb(255,204,0)">
      <circle r="25" clip-path="url(#clipPath2)" cx="37.2" cy="160" stroke="none"/>
    </g>
    <g text-rendering="geometricPrecision" stroke-miterlimit="1.45" shape-rendering="geometricPrecision" transform="matrix(1,0,0,1,261,-116)" stroke-linecap="butt">
      <circle fill="none" r="25" clip-path="url(#clipPath2)" cx="37.2" cy="160"/>
      <text x="26.5975" xml:space="preserve" y="164.5352" clip-path="url(#clipPath2)" font-family="sans-serif" stroke="none">P/A</text>
    </g>
    <g fill="rgb(255,204,0)" text-rendering="geometricPrecision" shape-rendering="geometricPrecision" transform="matrix(1,0,0,1,261,-116)" stroke="rgb(255,204,0)">
      <circle r="25" clip-path="url(#clipPath2)" cx="237" cy="160" stroke="none"/>
    </g>
    <g text-rendering="geometricPrecision" stroke-miterlimit="1.45" shape-rendering="geometricPrecision" transform="matrix(1,0,0,1,261,-116)" stroke-linecap="butt">
      <circle fill="none" r="25" clip-path="url(#clipPath2)" cx="237" cy="160"/>
      <text x="227.6309" xml:space="preserve" y="164.5352" clip-path="url(#clipPath2)" font-family="sans-serif" stroke="none">I/D</text>
    </g>
    <g fill="rgb(255,204,0)" text-rendering="geometricPrecision" shape-rendering="geometricPrecision" transform="matrix(1,0,0,1,261,-116)" stroke="rgb(255,204,0)">
      <circle r="25" clip-path="url(#clipPath2)" cx="436.8" cy="156.7217" stroke="none"/>
    </g>
    <g text-rendering="geometricPrecision" stroke-miterlimit="1.45" shape-rendering="geometricPrecision" transform="matrix(1,0,0,1,261,-116)" stroke-linecap="butt">
      <circle fill="none" r="25" clip-path="url(#clipPath2)" cx="436.8" cy="156.7217"/>
      <text x="430.1965" xml:space="preserve" y="161.2568" clip-path="url(#clipPath2)" font-family="sans-serif" stroke="none">I/I</text>
    </g>
    <g fill="rgb(255,204,0)" text-rendering="geometricPrecision" shape-rendering="geometricPrecision" transform="matrix(1,0,0,1,261,-116)" stroke="rgb(255,204,0)">
      <circle r="25" clip-path="url(#clipPath2)" cx="636.6" cy="156.7217" stroke="none"/>
    </g>
    <g text-rendering="geometricPrecision" stroke-miterlimit="1.45" shape-rendering="geometricPrecision" transform="matrix(1,0,0,1,261,-116)" stroke-linecap="butt">
      <circle fill="none" r="25" clip-path="url(#clipPath2)" cx="636.6" cy="156.7217"/>
      <text x="630.9047" xml:space="preserve" y="161.2568" clip-path="url(#clipPath2)" font-family="sans-serif" stroke="none">...</text>
      <path fill="none" d="M-137.6 160 L4.1651 160" clip-path="url(#clipPath2)"/>
      <path d="M12.1651 160 L0.1651 155 L3.1651 160 L0.1651 165 Z" clip-path="url(#clipPath2)" stroke="none"/>
      <text x="-99.2713" xml:space="preserve" y="153.4688" clip-path="url(#clipPath2)" font-family="sans-serif" stroke="none">order_coffee</text>
      <path fill="none" d="M62.2 160 L204 160" clip-path="url(#clipPath2)"/>
      <path d="M212 160 L200 155 L203 160 L200 165 Z" clip-path="url(#clipPath2)" stroke="none"/>
      <text x="95.6537" xml:space="preserve" y="153.4688" clip-path="url(#clipPath2)" font-family="sans-serif" stroke="none">release_coffee</text>
      <path fill="none" d="M262 160 L404.0284 160" clip-path="url(#clipPath2)"/>
      <path d="M412.0284 160 L400.0284 155 L403.0284 160 L400.0284 165 Z" clip-path="url(#clipPath2)" stroke="none"/>
      <text x="270.9644" xml:space="preserve" y="153.4688" clip-path="url(#clipPath2)" font-family="sans-serif" stroke="none">student.done_drinking</text>
      <path fill="none" d="M-232.5153 160 L-195.6 160" clip-path="url(#clipPath2)"/>
      <path d="M-187.6 160 L-199.6 155 L-196.6 160 L-199.6 165 Z" clip-path="url(#clipPath2)" stroke="none"/>
      <path fill="none" d="M461.8 156.7217 L603.6 156.7217" clip-path="url(#clipPath2)"/>
      <path d="M611.6 156.7217 L599.6 151.7217 L602.6 156.7217 L599.6 161.7217 Z" clip-path="url(#clipPath2)" stroke="none"/>
      <text x="500.1287" xml:space="preserve" y="150.1904" clip-path="url(#clipPath2)" font-family="sans-serif" stroke="none">order_coffee</text>
    </g>
  </g>
</svg>
