<?xml version="1.0" encoding="UTF-8"?><svg xmlns="http://www.w3.org/2000/svg" xmlns:xlink="http://www.w3.org/1999/xlink" fill-opacity="1" color-rendering="auto" color-interpolation="auto" text-rendering="auto" stroke="black" stroke-linecap="square" width="220" stroke-miterlimit="10" shape-rendering="auto" stroke-opacity="1" fill="black" stroke-dasharray="none" font-weight="normal" stroke-width="1" height="561" font-family="'Dialog'" font-style="normal" stroke-linejoin="miter" font-size="12px" stroke-dashoffset="0" image-rendering="auto">
  <!--Generated by ySVG 2.5-->
  <defs id="genericDefs"/>
  <g>
    <defs id="defs1">
      <clipPath clipPathUnits="userSpaceOnUse" id="clipPath1">
        <path d="M0 0 L220 0 L220 561 L0 561 L0 0 Z"/>
      </clipPath>
      <clipPath clipPathUnits="userSpaceOnUse" id="clipPath2">
        <path d="M0 -15 L220 -15 L220 546 L0 546 L0 -15 Z"/>
      </clipPath>
      <clipPath clipPathUnits="userSpaceOnUse" id="clipPath3">
        <path d="M0 0 L185 0 L185 15 L0 15 L0 0 Z"/>
      </clipPath>
      <clipPath clipPathUnits="userSpaceOnUse" id="clipPath4">
        <path d="M0 0 L47 0 L47 60 L0 60 L0 0 Z"/>
      </clipPath>
      <clipPath clipPathUnits="userSpaceOnUse" id="clipPath5">
        <path d="M0 0 L23 0 L23 15 L0 15 L0 0 Z"/>
      </clipPath>
      <clipPath clipPathUnits="userSpaceOnUse" id="clipPath6">
        <path d="M0 0 L24 0 L24 15 L0 15 L0 0 Z"/>
      </clipPath>
      <clipPath clipPathUnits="userSpaceOnUse" id="clipPath7">
        <path d="M0 0 L34 0 L34 15 L0 15 L0 0 Z"/>
      </clipPath>
      <clipPath clipPathUnits="userSpaceOnUse" id="clipPath8">
        <path d="M0 0 L25 0 L25 15 L0 15 L0 0 Z"/>
      </clipPath>
      <clipPath clipPathUnits="userSpaceOnUse" id="clipPath9">
        <path d="M0 0 L6 0 L6 15 L0 15 L0 0 Z"/>
      </clipPath>
      <clipPath clipPathUnits="userSpaceOnUse" id="clipPath10">
        <path d="M0 0 L8 0 L8 15 L0 15 L0 0 Z"/>
      </clipPath>
      <clipPath clipPathUnits="userSpaceOnUse" id="clipPath11">
        <path d="M0 0 L0 18 L96 18 L96 0 Z"/>
      </clipPath>
      <clipPath clipPathUnits="userSpaceOnUse" id="clipPath12">
        <path d="M0 0 L0 18 L73 18 L73 0 Z"/>
      </clipPath>
      <clipPath clipPathUnits="userSpaceOnUse" id="clipPath13">
        <path d="M0 0 L0 18 L74 18 L74 0 Z"/>
      </clipPath>
      <clipPath clipPathUnits="userSpaceOnUse" id="clipPath14">
        <path d="M0 0 L0 19 L6 19 L6 0 Z"/>
      </clipPath>
      <clipPath clipPathUnits="userSpaceOnUse" id="clipPath15">
        <path d="M0 0 L0 18 L83 18 L83 0 Z"/>
      </clipPath>
      <clipPath clipPathUnits="userSpaceOnUse" id="clipPath16">
        <path d="M0 0 L0 18 L77 18 L77 0 Z"/>
      </clipPath>
      <script type="text/ecmascript">
        <![CDATA[      var SVGDocument = null;
      var SVGRoot = null;
      var TrueCoords = null;
      var lastElement = null;
      var initialized = null;
      var tipGroup;
      function Init(evt)
      {
         SVGDocument = evt.target.ownerDocument;
         SVGRoot = SVGDocument.documentElement;
         TrueCoords = SVGRoot.createSVGPoint();
         initialized = evt;
      };
      function GetTrueCoords(evt)
      {
         var newScale = SVGRoot.currentScale;
         var translation = SVGRoot.currentTranslate;
         TrueCoords.x = (evt.clientX - translation.x)/newScale;
         TrueCoords.y = (evt.clientY - translation.y)/newScale;
      };
      function HideTooltip( evt )
      {
         if(initialized == null) {
           Init(evt);
         }
         if(tipGroup != null) {
           tipGroup.setAttributeNS(null, 'visibility', 'hidden');
         }
      };
      function ShowTooltip( evt )
      {
         if(initialized == null) {
           Init(evt);
         }
         GetTrueCoords( evt );
         var tipScale = 1/SVGRoot.currentScale;
         var targetElement = evt.currentTarget;
         if ( lastElement != targetElement )
         {
            var targetId = targetElement.getAttributeNS(null, 'id');
            var tipId = 'tooltip.' + targetId;
            tipGroup = SVGDocument.getElementById(tipId);
            var xPos = TrueCoords.x + (10 * tipScale);
            var yPos = TrueCoords.y + (10 * tipScale);
            tipGroup.setAttributeNS(null, 'transform', 'translate(' + xPos + ',' + yPos + ') scale(' + tipScale + ')');
            tipGroup.setAttributeNS(null, 'visibility', 'visible');
         }
      };
]]>
      </script>
    </defs>
    <g fill="white" text-rendering="geometricPrecision" shape-rendering="geometricPrecision" transform="translate(0,15)" stroke="white">
      <rect x="0" width="220" height="561" y="-15" clip-path="url(#clipPath2)" stroke="none"/>
    </g>
    <g onmouseout="HideTooltip(evt)" id="y.node.0" onmousemove="ShowTooltip(evt)">
      <g fill="rgb(238,238,238)" text-rendering="geometricPrecision" shape-rendering="geometricPrecision" transform="matrix(1,0,0,1,0,15)" stroke="rgb(238,238,238)">
        <rect x="15" width="189.75" height="530.375" y="0" stroke="none"/>
      </g>
      <g>
        <g fill="red" text-rendering="geometricPrecision" shape-rendering="geometricPrecision" transform="matrix(1,0,0,1,0,15)" stroke="red">
          <rect x="15" width="189.75" height="19" y="0" stroke="none"/>
        </g>
        <g text-rendering="geometricPrecision" stroke-miterlimit="1.45" shape-rendering="geometricPrecision" font-family="sans-serif" transform="matrix(1,0,0,1,0,15) translate(17,2)" stroke-linecap="butt">
          <text x="0" xml:space="preserve" y="12" clip-path="url(#clipPath3)" stroke="none">     </text>
          <text fill="blue" x="20" xml:space="preserve" y="12" clip-path="url(#clipPath3)" stroke="none">automaton</text>
          <text x="81" xml:space="preserve" y="12" clip-path="url(#clipPath3)" stroke="none"> </text>
          <text x="85" xml:space="preserve" y="12" clip-path="url(#clipPath3)" stroke="none">short</text>
        </g>
      </g>
      <g text-rendering="geometricPrecision" stroke-miterlimit="1.45" shape-rendering="geometricPrecision" transform="matrix(1,0,0,1,0,15)" stroke-linecap="butt">
        <rect fill="none" x="15" width="189.75" height="530.375" y="0"/>
      </g>
    </g>
    <g onmouseout="HideTooltip(evt)" id="y.node.1" onmousemove="ShowTooltip(evt)">
      <g fill="rgb(235,235,184)" text-rendering="geometricPrecision" shape-rendering="geometricPrecision" transform="matrix(1,0,0,1,0,15)" stroke="rgb(235,235,184)">
        <rect x="64.25" width="95" height="98.375" y="34" stroke="none"/>
      </g>
      <g>
        <g fill="rgb(238,238,128)" text-rendering="geometricPrecision" shape-rendering="geometricPrecision" transform="matrix(1,0,0,1,0,15)" stroke="rgb(238,238,128)">
          <rect x="64.085" width="95.3301" height="18.1328" y="34" stroke="none"/>
        </g>
        <g text-rendering="geometricPrecision" stroke-miterlimit="1.45" shape-rendering="geometricPrecision" font-family="sans-serif" transform="matrix(1,0,0,1,0,15)" stroke-linecap="butt">
          <text x="66.085" xml:space="preserve" y="47.6016" stroke="none">     Declarations</text>
        </g>
      </g>
      <g>
        <g stroke-linecap="butt" transform="matrix(1,0,0,1,0,15) translate(88,55)" fill="blue" text-rendering="geometricPrecision" font-family="sans-serif" shape-rendering="geometricPrecision" stroke="blue" stroke-miterlimit="1.45">
          <text x="0" xml:space="preserve" y="12" clip-path="url(#clipPath4)" stroke="none">event</text>
          <text fill="black" x="31" xml:space="preserve" y="12" clip-path="url(#clipPath4)" stroke="none"> </text>
          <text fill="black" x="35" xml:space="preserve" y="12" clip-path="url(#clipPath4)" stroke="none">a</text>
          <text fill="rgb(64,32,32)" x="42" xml:space="preserve" y="12" clip-path="url(#clipPath4)" stroke="none">;</text>
          <text fill="black" x="46" xml:space="preserve" y="12" clip-path="url(#clipPath4)" stroke="none"> </text>
          <text x="0" xml:space="preserve" y="27" clip-path="url(#clipPath4)" stroke="none">event</text>
          <text fill="black" x="31" xml:space="preserve" y="27" clip-path="url(#clipPath4)" stroke="none"> </text>
          <text fill="black" x="35" xml:space="preserve" y="27" clip-path="url(#clipPath4)" stroke="none">b</text>
          <text fill="rgb(64,32,32)" x="43" xml:space="preserve" y="27" clip-path="url(#clipPath4)" stroke="none">;</text>
          <text fill="black" x="47" xml:space="preserve" y="27" clip-path="url(#clipPath4)" stroke="none"> </text>
          <text x="0" xml:space="preserve" y="42" clip-path="url(#clipPath4)" stroke="none">event</text>
          <text fill="black" x="31" xml:space="preserve" y="42" clip-path="url(#clipPath4)" stroke="none"> </text>
          <text fill="black" x="35" xml:space="preserve" y="42" clip-path="url(#clipPath4)" stroke="none">c</text>
          <text fill="rgb(64,32,32)" x="41" xml:space="preserve" y="42" clip-path="url(#clipPath4)" stroke="none">;</text>
          <text fill="black" x="45" xml:space="preserve" y="42" clip-path="url(#clipPath4)" stroke="none"> </text>
          <text x="0" xml:space="preserve" y="57" clip-path="url(#clipPath4)" stroke="none">event</text>
          <text fill="black" x="31" xml:space="preserve" y="57" clip-path="url(#clipPath4)" stroke="none"> </text>
          <text fill="black" x="35" xml:space="preserve" y="57" clip-path="url(#clipPath4)" stroke="none">d</text>
          <text fill="rgb(64,32,32)" x="43" xml:space="preserve" y="57" clip-path="url(#clipPath4)" stroke="none">;</text>
        </g>
      </g>
      <g text-rendering="geometricPrecision" stroke-miterlimit="1.45" shape-rendering="geometricPrecision" transform="matrix(1,0,0,1,0,15)" stroke-linecap="butt">
        <rect fill="none" x="64.25" width="95" height="98.375" y="34"/>
      </g>
    </g>
    <g onmouseout="HideTooltip(evt)" id="y.node.2" onmousemove="ShowTooltip(evt)">
      <g fill="rgb(204,204,255)" text-rendering="geometricPrecision" shape-rendering="geometricPrecision" transform="matrix(1,0,0,1,0,15)" stroke="rgb(204,204,255)">
        <rect x="138.75" y="196.875" width="50" rx="4" ry="4" height="30" stroke="none"/>
      </g>
      <g>
        <g text-rendering="geometricPrecision" stroke-miterlimit="1.45" shape-rendering="geometricPrecision" font-family="sans-serif" transform="matrix(1,0,0,1,0,15) translate(152,204)" stroke-linecap="butt">
          <text x="0" xml:space="preserve" y="12" clip-path="url(#clipPath5)" stroke="none">One</text>
        </g>
      </g>
      <g text-rendering="geometricPrecision" stroke-miterlimit="1.45" shape-rendering="geometricPrecision" transform="matrix(1,0,0,1,0,15)" stroke-linecap="butt">
        <rect x="138.75" y="196.875" fill="none" width="50" rx="4" ry="4" height="30"/>
      </g>
    </g>
    <g onmouseout="HideTooltip(evt)" id="y.node.3" onmousemove="ShowTooltip(evt)">
      <g/>
    </g>
    <g onmouseout="HideTooltip(evt)" id="y.node.4" onmousemove="ShowTooltip(evt)">
      <g fill="rgb(204,204,255)" text-rendering="geometricPrecision" shape-rendering="geometricPrecision" transform="matrix(1,0,0,1,0,15)" stroke="rgb(204,204,255)">
        <rect x="103.75" y="285.875" width="80" rx="4" ry="4" height="30" stroke="none"/>
      </g>
      <g>
        <g text-rendering="geometricPrecision" stroke-miterlimit="1.45" shape-rendering="geometricPrecision" font-family="sans-serif" transform="matrix(1,0,0,1,0,15) translate(131,293)" stroke-linecap="butt">
          <text x="0" xml:space="preserve" y="12" clip-path="url(#clipPath6)" stroke="none">Two</text>
        </g>
      </g>
      <g text-rendering="geometricPrecision" stroke-miterlimit="1.45" shape-rendering="geometricPrecision" transform="matrix(1,0,0,1,0,15)" stroke-linecap="butt">
        <rect x="103.75" y="285.875" fill="none" width="80" rx="4" ry="4" height="30"/>
      </g>
    </g>
    <g onmouseout="HideTooltip(evt)" id="y.node.5" onmousemove="ShowTooltip(evt)">
      <g fill="rgb(204,204,255)" text-rendering="geometricPrecision" shape-rendering="geometricPrecision" transform="matrix(1,0,0,1,0,15)" stroke="rgb(204,204,255)">
        <rect x="103.75" y="485.375" width="80" rx="4" ry="4" height="30" stroke="none"/>
      </g>
      <g>
        <g text-rendering="geometricPrecision" stroke-miterlimit="1.45" shape-rendering="geometricPrecision" font-family="sans-serif" transform="matrix(1,0,0,1,0,15) translate(126,492)" stroke-linecap="butt">
          <text x="0" xml:space="preserve" y="12" clip-path="url(#clipPath7)" stroke="none">Three</text>
        </g>
      </g>
      <g text-rendering="geometricPrecision" stroke-miterlimit="1.45" shape-rendering="geometricPrecision" transform="matrix(1,0,0,1,0,15)" stroke-linecap="butt">
        <rect x="103.75" y="485.375" fill="none" width="80" rx="4" ry="4" height="30"/>
      </g>
    </g>
    <g onmouseout="HideTooltip(evt)" id="y.node.6" onmousemove="ShowTooltip(evt)">
      <g fill="rgb(204,204,255)" text-rendering="geometricPrecision" shape-rendering="geometricPrecision" transform="matrix(1,0,0,1,0,15)" stroke="rgb(204,204,255)">
        <rect x="63.25" y="380.875" width="65" rx="4" ry="4" height="30" stroke="none"/>
      </g>
      <g>
        <g text-rendering="geometricPrecision" stroke-miterlimit="1.45" shape-rendering="geometricPrecision" font-family="sans-serif" transform="matrix(1,0,0,1,0,15) translate(83,388)" stroke-linecap="butt">
          <text x="0" xml:space="preserve" y="12" clip-path="url(#clipPath8)" stroke="none">Four</text>
        </g>
      </g>
      <g text-rendering="geometricPrecision" stroke-miterlimit="1.45" shape-rendering="geometricPrecision" transform="matrix(1,0,0,1,0,15)" stroke-linecap="butt">
        <rect x="63.25" y="380.875" fill="none" width="65" rx="4" ry="4" height="30"/>
      </g>
    </g>
    <g id="y.edge.2">
      <g text-rendering="geometricPrecision" stroke-miterlimit="1.45" shape-rendering="geometricPrecision" transform="matrix(1,0,0,1,0,15)" stroke-linecap="butt">
        <path fill="none" d="M138.708 211.875 L105.75 211.875 L101.375 211.25 L98.25 209.375 L96.375 206.25 L95.75 201.875 L95.75 166.875 L96.375 162.5 L98.25 159.375 L101.375 157.5 L105.75 156.875 L141.25 156.875 L145.625 157.5 L148.75 159.375 L150.625 162.5 L151.25 166.875 L151.25 188.8359"/>
        <path d="M151.25 196.8359 L156.25 184.8359 L151.25 187.8359 L146.25 184.8359 Z" stroke="none"/>
      </g>
      <g>
        <g stroke-linecap="butt" transform="matrix(1,0,0,1,0,15)" fill="rgb(238,238,238)" text-rendering="geometricPrecision" shape-rendering="geometricPrecision" stroke="rgb(238,238,238)" stroke-miterlimit="1.45">
          <rect x="107.625" width="10" height="19" y="147.375" stroke="none"/>
        </g>
        <g text-rendering="geometricPrecision" stroke-miterlimit="1.45" shape-rendering="geometricPrecision" font-family="sans-serif" transform="matrix(1,0,0,1,0,15) translate(109,149)" stroke-linecap="butt">
          <text x="0" xml:space="preserve" y="12" clip-path="url(#clipPath9)" stroke="none">c</text>
        </g>
      </g>
    </g>
    <g id="y.edge.0">
      <g text-rendering="geometricPrecision" stroke-miterlimit="1.45" shape-rendering="geometricPrecision" transform="matrix(1,0,0,1,0,15)" stroke-linecap="butt">
        <path fill="none" d="M176.25 88.6892 L176.25 188.8486"/>
        <path d="M176.25 196.8486 L181.25 184.8486 L176.25 187.8486 L171.25 184.8486 Z" stroke="none"/>
      </g>
    </g>
    <g id="y.edge.1">
      <g text-rendering="geometricPrecision" stroke-miterlimit="1.45" shape-rendering="geometricPrecision" transform="matrix(1,0,0,1,0,15)" stroke-linecap="butt">
        <path fill="none" d="M163.75 226.875 L163.75 277.8462"/>
        <path d="M163.75 285.8462 L168.75 273.8462 L163.75 276.8462 L158.75 273.8462 Z" stroke="none"/>
      </g>
      <g>
        <g stroke-linecap="butt" transform="matrix(1,0,0,1,0,15)" fill="rgb(238,238,238)" text-rendering="geometricPrecision" shape-rendering="geometricPrecision" stroke="rgb(238,238,238)" stroke-miterlimit="1.45">
          <rect x="150.25" width="27" height="19" y="256.75" stroke="none"/>
        </g>
        <g text-rendering="geometricPrecision" stroke-miterlimit="1.45" shape-rendering="geometricPrecision" font-family="sans-serif" transform="matrix(1,0,0,1,0,15) translate(152,258)" stroke-linecap="butt">
          <text x="0" xml:space="preserve" y="12" clip-path="url(#clipPath5)" stroke="none">a</text>
          <text fill="rgb(64,32,32)" x="7" xml:space="preserve" y="12" clip-path="url(#clipPath5)" stroke="none">,</text>
          <text x="11" xml:space="preserve" y="12" clip-path="url(#clipPath5)" stroke="none"> </text>
          <text x="15" xml:space="preserve" y="12" clip-path="url(#clipPath5)" stroke="none">b</text>
        </g>
      </g>
    </g>
    <g id="y.edge.3">
      <g text-rendering="geometricPrecision" stroke-miterlimit="1.45" shape-rendering="geometricPrecision" transform="matrix(1,0,0,1,0,15)" stroke-linecap="butt">
        <path fill="none" d="M103.7104 300.875 L73.25 300.875 L68.875 300.25 L65.75 298.375 L63.875 295.25 L63.25 290.875 L63.25 255.875 L63.875 251.5 L65.75 248.375 L68.875 246.5 L73.25 245.875 L113.75 245.875 L118.125 246.5 L121.25 248.375 L123.125 251.5 L123.75 255.875 L123.75 277.8359"/>
        <path d="M123.75 285.8359 L128.75 273.8359 L123.75 276.8359 L118.75 273.8359 Z" stroke="none"/>
      </g>
      <g>
        <g stroke-linecap="butt" transform="matrix(1,0,0,1,0,15)" fill="rgb(238,238,238)" text-rendering="geometricPrecision" shape-rendering="geometricPrecision" stroke="rgb(238,238,238)" stroke-miterlimit="1.45">
          <rect x="64.25" width="27" height="19" y="236.375" stroke="none"/>
        </g>
        <g text-rendering="geometricPrecision" stroke-miterlimit="1.45" shape-rendering="geometricPrecision" font-family="sans-serif" transform="matrix(1,0,0,1,0,15) translate(66,238)" stroke-linecap="butt">
          <text x="0" xml:space="preserve" y="12" clip-path="url(#clipPath5)" stroke="none">a</text>
          <text fill="rgb(64,32,32)" x="7" xml:space="preserve" y="12" clip-path="url(#clipPath5)" stroke="none">,</text>
          <text x="11" xml:space="preserve" y="12" clip-path="url(#clipPath5)" stroke="none"> </text>
          <text x="15" xml:space="preserve" y="12" clip-path="url(#clipPath5)" stroke="none">b</text>
        </g>
      </g>
    </g>
    <g id="y.edge.4">
      <g text-rendering="geometricPrecision" stroke-miterlimit="1.45" shape-rendering="geometricPrecision" transform="matrix(1,0,0,1,0,15)" stroke-linecap="butt">
        <path fill="none" d="M143.75 315.875 L143.75 477.3336"/>
        <path d="M143.75 485.3336 L148.75 473.3336 L143.75 476.3336 L138.75 473.3336 Z" stroke="none"/>
      </g>
      <g>
        <g stroke-linecap="butt" transform="matrix(1,0,0,1,0,15)" fill="rgb(238,238,238)" text-rendering="geometricPrecision" shape-rendering="geometricPrecision" stroke="rgb(238,238,238)" stroke-miterlimit="1.45">
          <rect x="138.75" width="10" height="19" y="391.125" stroke="none"/>
        </g>
        <g text-rendering="geometricPrecision" stroke-miterlimit="1.45" shape-rendering="geometricPrecision" font-family="sans-serif" transform="matrix(1,0,0,1,0,15) translate(140,393)" stroke-linecap="butt">
          <text x="0" xml:space="preserve" y="12" clip-path="url(#clipPath9)" stroke="none">c</text>
        </g>
      </g>
    </g>
    <g id="y.edge.6">
      <g text-rendering="geometricPrecision" stroke-miterlimit="1.45" shape-rendering="geometricPrecision" transform="matrix(1,0,0,1,0,15)" stroke-linecap="butt">
        <path fill="none" d="M170.4167 485.3413 L170.4167 323.875"/>
        <path d="M170.4167 315.875 L165.4167 327.875 L170.4167 324.875 L175.4167 327.875 Z" stroke="none"/>
      </g>
      <g>
        <g stroke-linecap="butt" transform="matrix(1,0,0,1,0,15)" fill="rgb(238,238,238)" text-rendering="geometricPrecision" shape-rendering="geometricPrecision" stroke="rgb(238,238,238)" stroke-miterlimit="1.45">
          <rect x="156.9167" width="27" height="19" y="384.125" stroke="none"/>
        </g>
        <g text-rendering="geometricPrecision" stroke-miterlimit="1.45" shape-rendering="geometricPrecision" font-family="sans-serif" transform="matrix(1,0,0,1,0,15) translate(158,386)" stroke-linecap="butt">
          <text x="0" xml:space="preserve" y="12" clip-path="url(#clipPath5)" stroke="none">a</text>
          <text fill="rgb(64,32,32)" x="7" xml:space="preserve" y="12" clip-path="url(#clipPath5)" stroke="none">,</text>
          <text x="11" xml:space="preserve" y="12" clip-path="url(#clipPath5)" stroke="none"> </text>
          <text x="15" xml:space="preserve" y="12" clip-path="url(#clipPath5)" stroke="none">d</text>
        </g>
      </g>
    </g>
    <g id="y.edge.5">
      <g text-rendering="geometricPrecision" stroke-miterlimit="1.45" shape-rendering="geometricPrecision" transform="matrix(1,0,0,1,0,15)" stroke-linecap="butt">
        <path fill="none" d="M117.0833 315.875 L117.0833 321.125 L116.4479 325.0625 L114.5417 326.375 L114.5417 326.375 L113.4297 327 L112.6354 328.875 L112 336.375 L112 372.8484"/>
        <path d="M112 380.8484 L117 368.8484 L112 371.8484 L107 368.8484 Z" stroke="none"/>
      </g>
      <g>
        <g stroke-linecap="butt" transform="matrix(1,0,0,1,0,15)" fill="rgb(238,238,238)" text-rendering="geometricPrecision" shape-rendering="geometricPrecision" stroke="rgb(238,238,238)" stroke-miterlimit="1.45">
          <rect x="106" width="12" height="19" y="351.75" stroke="none"/>
        </g>
        <g text-rendering="geometricPrecision" stroke-miterlimit="1.45" shape-rendering="geometricPrecision" font-family="sans-serif" transform="matrix(1,0,0,1,0,15) translate(108,353)" stroke-linecap="butt">
          <text x="0" xml:space="preserve" y="12" clip-path="url(#clipPath10)" stroke="none">d</text>
        </g>
      </g>
    </g>
    <g id="y.edge.7">
      <g text-rendering="geometricPrecision" stroke-miterlimit="1.45" shape-rendering="geometricPrecision" transform="matrix(1,0,0,1,0,15)" stroke-linecap="butt">
        <path fill="none" d="M63.2229 395.875 L45.5 395.875 L41.125 395.25 L38 393.375 L36.125 390.25 L35.5 385.875 L35.5 350.875 L36.125 346.5 L38 343.375 L41.125 341.5 L45.5 340.875 L69.5 340.875 L73.875 341.5 L77 343.375 L78.875 346.5 L79.5 350.875 L79.5 372.8359"/>
        <path d="M79.5 380.8359 L84.5 368.8359 L79.5 371.8359 L74.5 368.8359 Z" stroke="none"/>
      </g>
      <g>
        <g stroke-linecap="butt" transform="matrix(1,0,0,1,0,15)" fill="rgb(238,238,238)" text-rendering="geometricPrecision" shape-rendering="geometricPrecision" stroke="rgb(238,238,238)" stroke-miterlimit="1.45">
          <rect x="41.8333" width="10" height="19" y="331.375" stroke="none"/>
        </g>
        <g text-rendering="geometricPrecision" stroke-miterlimit="1.45" shape-rendering="geometricPrecision" font-family="sans-serif" transform="matrix(1,0,0,1,0,15) translate(43,333)" stroke-linecap="butt">
          <text x="0" xml:space="preserve" y="12" clip-path="url(#clipPath9)" stroke="none">c</text>
        </g>
      </g>
    </g>
    <g id="y.edge.8">
      <g text-rendering="geometricPrecision" stroke-miterlimit="1.45" shape-rendering="geometricPrecision" transform="matrix(1,0,0,1,0,15)" stroke-linecap="butt">
        <path fill="none" d="M95.75 410.875 L95.75 455.375 L96.375 459.75 L98.25 462.875 L101.375 464.75 L105.75 465.375 L107.0833 465.375 L114.5833 466.8701 L116.4583 468.739 L117.0833 471.3555 L117.0833 477.3359"/>
        <path d="M117.0833 485.3359 L122.0833 473.3359 L117.0833 476.3359 L112.0833 473.3359 Z" stroke="none"/>
      </g>
      <g>
        <g stroke-linecap="butt" transform="matrix(1,0,0,1,0,15)" fill="rgb(238,238,238)" text-rendering="geometricPrecision" shape-rendering="geometricPrecision" stroke="rgb(238,238,238)" stroke-miterlimit="1.45">
          <rect x="89.75" width="12" height="19" y="433.1875" stroke="none"/>
        </g>
        <g text-rendering="geometricPrecision" stroke-miterlimit="1.45" shape-rendering="geometricPrecision" font-family="sans-serif" transform="matrix(1,0,0,1,0,15) translate(91,435)" stroke-linecap="butt">
          <text x="0" xml:space="preserve" y="12" clip-path="url(#clipPath10)" stroke="none">d</text>
        </g>
      </g>
    </g>
    <g visibility="hidden" id="tooltip.y.node.0" pointer-events="none">
      <g fill="rgb(255,255,204)" text-rendering="geometricPrecision" font-size="11px" shape-rendering="geometricPrecision" font-family="'Lucida Grande'" stroke="rgb(255,255,204)">
        <rect x="0" width="96" height="18" y="0" clip-path="url(#clipPath11)" stroke="none"/>
        <text fill="black" x="3" xml:space="preserve" y="13" clip-path="url(#clipPath11)" stroke="none">automaton short</text>
      </g>
    </g>
    <g visibility="hidden" id="tooltip.y.node.1" pointer-events="none">
      <g fill="rgb(255,255,204)" text-rendering="geometricPrecision" font-size="11px" shape-rendering="geometricPrecision" font-family="'Lucida Grande'" stroke="rgb(255,255,204)">
        <rect x="0" width="73" height="18" y="0" clip-path="url(#clipPath12)" stroke="none"/>
        <text fill="black" x="3" xml:space="preserve" y="13" clip-path="url(#clipPath12)" stroke="none">Declarations</text>
      </g>
    </g>
    <g visibility="hidden" id="tooltip.y.node.2" pointer-events="none">
      <g fill="rgb(255,255,204)" text-rendering="geometricPrecision" font-size="11px" shape-rendering="geometricPrecision" font-family="'Lucida Grande'" stroke="rgb(255,255,204)">
        <rect x="0" width="74" height="18" y="0" clip-path="url(#clipPath13)" stroke="none"/>
        <text fill="black" x="3" xml:space="preserve" y="13" clip-path="url(#clipPath13)" stroke="none">location One</text>
      </g>
    </g>
    <g visibility="hidden" id="tooltip.y.node.3" pointer-events="none">
      <g fill="rgb(255,255,204)" text-rendering="geometricPrecision" font-size="11px" shape-rendering="geometricPrecision" font-family="'Lucida Grande'" stroke="rgb(255,255,204)">
        <rect x="0" width="6" height="19" y="0" clip-path="url(#clipPath14)" stroke="none"/>
      </g>
    </g>
    <g visibility="hidden" id="tooltip.y.node.4" pointer-events="none">
      <g fill="rgb(255,255,204)" text-rendering="geometricPrecision" font-size="11px" shape-rendering="geometricPrecision" font-family="'Lucida Grande'" stroke="rgb(255,255,204)">
        <rect x="0" width="74" height="18" y="0" clip-path="url(#clipPath13)" stroke="none"/>
        <text fill="black" x="3" xml:space="preserve" y="13" clip-path="url(#clipPath13)" stroke="none">location Two</text>
      </g>
    </g>
    <g visibility="hidden" id="tooltip.y.node.5" pointer-events="none">
      <g fill="rgb(255,255,204)" text-rendering="geometricPrecision" font-size="11px" shape-rendering="geometricPrecision" font-family="'Lucida Grande'" stroke="rgb(255,255,204)">
        <rect x="0" width="83" height="18" y="0" clip-path="url(#clipPath15)" stroke="none"/>
        <text fill="black" x="3" xml:space="preserve" y="13" clip-path="url(#clipPath15)" stroke="none">location Three</text>
      </g>
    </g>
    <g visibility="hidden" id="tooltip.y.node.6" pointer-events="none">
      <g fill="rgb(255,255,204)" text-rendering="geometricPrecision" font-size="11px" shape-rendering="geometricPrecision" font-family="'Lucida Grande'" stroke="rgb(255,255,204)">
        <rect x="0" width="77" height="18" y="0" clip-path="url(#clipPath16)" stroke="none"/>
        <text fill="black" x="3" xml:space="preserve" y="13" clip-path="url(#clipPath16)" stroke="none">location Four</text>
      </g>
    </g>
  </g>
</svg>
