<?xml version="1.0" encoding="UTF-8" standalone="no"?>
<svg
 xmlns:dc="http://purl.org/dc/elements/1.1/"
 xmlns:cc="http://creativecommons.org/ns#"
 xmlns:rdf="http://www.w3.org/1999/02/22-rdf-syntax-ns#"
 xmlns:svg="http://www.w3.org/2000/svg"
 xmlns="http://www.w3.org/2000/svg"
 xmlns:sodipodi="http://sodipodi.sourceforge.net/DTD/sodipodi-0.dtd"
 xmlns:inkscape="http://www.inkscape.org/namespaces/inkscape"
 sodipodi:docname="sliding_doors.svg"
 inkscape:version="1.0 (4035a4fb49, 2020-05-01)"
 id="svg8"
 version="1.1"
 viewBox="0 0 297 210"
 height="210mm"
 width="297mm">
<defs
 id="defs2">
<marker
 inkscape:stockid="Arrow1Lstart"
 orient="auto"
 refY="0.0"
 refX="0.0"
 id="Arrow1Lstart"
 style="overflow:visible"
 inkscape:isstock="true">
<path
 id="path1419"
 d="M 0.0,0.0 L 5.0,-5.0 L -12.5,0.0 L 5.0,5.0 L 0.0,0.0 z "
 style="fill-rule:evenodd;stroke:#000000;stroke-width:1.0pt"
 transform="scale(0.8) translate(12.5,0)" />
</marker>
</defs>
<sodipodi:namedview
 inkscape:window-maximized="1"
 inkscape:window-y="-9"
 inkscape:window-x="-9"
 inkscape:window-height="1001"
 inkscape:window-width="1920"
 showgrid="false"
 inkscape:document-rotation="0"
 inkscape:current-layer="layer1"
 inkscape:document-units="mm"
 inkscape:cy="235.91331"
 inkscape:cx="595.83302"
 inkscape:zoom="1.1929419"
 inkscape:pageshadow="2"
 inkscape:pageopacity="0.0"
 borderopacity="1.0"
 bordercolor="#666666"
 pagecolor="#ffffff"
 id="base" />
<metadata
 id="metadata5">
<rdf:RDF>
<cc:Work
 rdf:about="">
<dc:format>image/svg+xml</dc:format>
<dc:type
 rdf:resource="http://purl.org/dc/dcmitype/StillImage" />
<dc:title />
</cc:Work>
</rdf:RDF>
</metadata>
<g
 id="layer1"
 inkscape:groupmode="layer"
 inkscape:label="Layer 1">
<rect
 y="36.854465"
 x="135.85057"
 height="97.76368"
 width="53.276981"
 id="frame"
 style="fill:white;fill-opacity:1;stroke:black;stroke-width:0.369599;stroke-miterlimit:4;stroke-dasharray:none" />
<rect
 style="fill:white;fill-opacity:1;stroke:black;stroke-width:0.456756;stroke-miterlimit:4;stroke-dasharray:none"
 id="frame_inside"
 width="44.720352"
 height="89.306381"
 x="139.86615"
 y="45.100262" />
<rect
 y="45.100262"
 x="139.86615"
 height="89.306381"
 width="44.720352"
 id="sliding_door"
 style="fill:#a5ffff;fill-opacity:1;stroke:black;stroke-width:0.456756;stroke-miterlimit:4;stroke-dasharray:none" />
<circle
 style="opacity:1;vector-effect:none;fill:#241c1c;fill-opacity:1;fill-rule:evenodd;stroke:black;stroke-width:0.5;stroke-linecap:butt;stroke-linejoin:miter;stroke-miterlimit:4;stroke-dasharray:none;stroke-dashoffset:0;stroke-opacity:1"
 id="s_motion"
 cx="162.43132"
 cy="40.553223"
 r="3.5" />
<g
 id="person">
<path
 id="person_things"
 style="vector-effect:none;fill:#fd5;fill-opacity:1;fill-rule:evenodd;stroke-width:0.999999;stroke-linecap:butt;stroke-linejoin:miter;stroke-miterlimit:4;stroke-dasharray:none;stroke-dashoffset:0;stroke-opacity:1"
 d="M 351.38672 252.09766 A 30.23622 30.23622 0 0 0 321.15039 282.33398 A 30.23622 30.23622 0 0 0 341.80078 311.00977 A 30.23622 30.23622 0 0 0 320.62695 339.85352 A 30.23622 30.23622 0 0 0 320.62695 339.98438 L 320.5332 339.98438 L 320.5332 381.44141 L 320.62695 381.44141 A 30.23622 30.23622 0 0 0 324.00391 395.31836 L 323.85156 395.31836 L 323.85156 500.77734 A 11.338583 9.5815612 0 0 0 323.83789 501.23438 A 11.338583 9.5815612 0 0 0 335.17773 510.81445 A 11.338583 9.5815612 0 0 0 346.51562 501.23438 A 11.338583 9.5815612 0 0 0 346.50781 500.92773 L 346.5293 500.92773 L 346.5293 411.35938 A 30.23622 30.23622 0 0 0 350.86328 411.67383 A 30.23622 30.23622 0 0 0 354.61719 411.4375 L 354.61719 501.54883 L 354.66406 501.54883 A 11.338583 9.5815612 0 0 0 365.99023 510.70508 A 11.338583 9.5815612 0 0 0 377.32812 501.12305 A 11.338583 9.5815612 0 0 0 377.29297 500.37109 L 377.29297 396.12305 A 30.23622 30.23622 0 0 0 381.09961 381.4375 A 30.23622 30.23622 0 0 0 381.00586 379.06445 L 381.00586 342.23242 A 30.23622 30.23622 0 0 0 381.09961 339.85352 A 30.23622 30.23622 0 0 0 360.44922 311.17773 A 30.23622 30.23622 0 0 0 381.62305 282.33398 A 30.23622 30.23622 0 0 0 351.38672 252.09766 z "
 transform="scale(0.26458333)" />
</g>
</g>
</svg>
