<?xml version="1.0" encoding="UTF-8"?><svg xmlns="http://www.w3.org/2000/svg" xmlns:xlink="http://www.w3.org/1999/xlink" fill-opacity="1" color-rendering="auto" color-interpolation="auto" text-rendering="auto" stroke="black" stroke-linecap="square" width="531" stroke-miterlimit="10" shape-rendering="auto" stroke-opacity="1" fill="black" stroke-dasharray="none" font-weight="normal" stroke-width="1" height="316" font-family="'Dialog'" font-style="normal" stroke-linejoin="miter" font-size="12px" stroke-dashoffset="0" image-rendering="auto">
  <!--Generated by ySVG 2.5-->
  <defs id="genericDefs"/>
  <g>
    <defs id="defs1">
      <clipPath clipPathUnits="userSpaceOnUse" id="clipPath1">
        <path d="M0 0 L531 0 L531 316 L0 316 L0 0 Z"/>
      </clipPath>
      <clipPath clipPathUnits="userSpaceOnUse" id="clipPath2">
        <path d="M-21 -18 L510 -18 L510 298 L-21 298 L-21 -18 Z"/>
      </clipPath>
      <clipPath clipPathUnits="userSpaceOnUse" id="clipPath3">
        <path d="M0 0 L368 0 L368 16 L0 16 L0 0 Z"/>
      </clipPath>
      <clipPath clipPathUnits="userSpaceOnUse" id="clipPath4">
        <path d="M0 0 L332 0 L332 80 L0 80 L0 0 Z"/>
      </clipPath>
      <clipPath clipPathUnits="userSpaceOnUse" id="clipPath5">
        <path d="M0 0 L213 0 L213 16 L0 16 L0 0 Z"/>
      </clipPath>
      <clipPath clipPathUnits="userSpaceOnUse" id="clipPath6">
        <path d="M0 0 L104 0 L104 16 L0 16 L0 0 Z"/>
      </clipPath>
      <clipPath clipPathUnits="userSpaceOnUse" id="clipPath7">
        <path d="M0 0 L0 18 L89 18 L89 0 Z"/>
      </clipPath>
      <clipPath clipPathUnits="userSpaceOnUse" id="clipPath8">
        <path d="M0 0 L0 18 L73 18 L73 0 Z"/>
      </clipPath>
      <clipPath clipPathUnits="userSpaceOnUse" id="clipPath9">
        <path d="M0 0 L0 18 L51 18 L51 0 Z"/>
      </clipPath>
      <clipPath clipPathUnits="userSpaceOnUse" id="clipPath10">
        <path d="M0 0 L0 18 L8 18 L8 0 Z"/>
      </clipPath>
      <script type="text/ecmascript">
        <![CDATA[      var SVGDocument = null;
      var SVGRoot = null;
      var TrueCoords = null;
      var lastElement = null;
      var initialized = null;
      var tipGroup;
      function Init(evt)
      {
         SVGDocument = evt.target.ownerDocument;
         SVGRoot = SVGDocument.documentElement;
         TrueCoords = SVGRoot.createSVGPoint();
         initialized = evt;
      };
      function GetTrueCoords(evt)
      {
         var newScale = SVGRoot.currentScale;
         var translation = SVGRoot.currentTranslate;
         TrueCoords.x = (evt.clientX - translation.x)/newScale;
         TrueCoords.y = (evt.clientY - translation.y)/newScale;
      };
      function HideTooltip( evt )
      {
         if(initialized == null) {
           Init(evt);
         }
         if(tipGroup != null) {
           tipGroup.setAttributeNS(null, 'visibility', 'hidden');
         }
      };
      function ShowTooltip( evt )
      {
         if(initialized == null) {
           Init(evt);
         }
         GetTrueCoords( evt );
         var tipScale = 1/SVGRoot.currentScale;
         var targetElement = evt.currentTarget;
         if ( lastElement != targetElement )
         {
            var targetId = targetElement.getAttributeNS(null, 'id');
            var tipId = 'tooltip.' + targetId;
            tipGroup = SVGDocument.getElementById(tipId);
            var xPos = TrueCoords.x + (10 * tipScale);
            var yPos = TrueCoords.y + (10 * tipScale);
            tipGroup.setAttributeNS(null, 'transform', 'translate(' + xPos + ',' + yPos + ') scale(' + tipScale + ')');
            tipGroup.setAttributeNS(null, 'visibility', 'visible');
         }
      };
]]>
      </script>
    </defs>
    <g fill="white" text-rendering="geometricPrecision" shape-rendering="geometricPrecision" transform="translate(21,18)" stroke="white">
      <rect x="-21" width="531" height="316" y="-18" clip-path="url(#clipPath2)" stroke="none"/>
    </g>
    <g onmouseout="HideTooltip(evt)" id="y.node.0" onmousemove="ShowTooltip(evt)">
      <g fill="rgb(238,238,238)" text-rendering="geometricPrecision" shape-rendering="geometricPrecision" transform="matrix(1,0,0,1,21,18)" stroke="rgb(238,238,238)">
        <rect x="-6" width="372" height="284.4688" y="-2.2344" stroke="none"/>
      </g>
      <g>
        <g fill="red" text-rendering="geometricPrecision" shape-rendering="geometricPrecision" transform="matrix(1,0,0,1,21,18)" stroke="red">
          <rect x="-6" width="372" height="20" y="-2.2344" stroke="none"/>
        </g>
        <g text-rendering="geometricPrecision" stroke-miterlimit="1.45" shape-rendering="geometricPrecision" font-family="sans-serif" transform="matrix(1,0,0,1,21,18) translate(-4,0)" stroke-linecap="butt">
          <text x="0" xml:space="preserve" y="13" clip-path="url(#clipPath3)" stroke="none">     </text>
          <text fill="blue" x="15" xml:space="preserve" y="13" clip-path="url(#clipPath3)" stroke="none">automaton</text>
          <text x="74" xml:space="preserve" y="13" clip-path="url(#clipPath3)" stroke="none"> </text>
          <text x="77" xml:space="preserve" y="13" clip-path="url(#clipPath3)" stroke="none">ball</text>
        </g>
      </g>
      <g text-rendering="geometricPrecision" stroke-miterlimit="1.45" shape-rendering="geometricPrecision" transform="matrix(1,0,0,1,21,18)" stroke-linecap="butt">
        <rect fill="none" x="-6" width="372" height="284.4688" y="-2.2344"/>
      </g>
    </g>
    <g onmouseout="HideTooltip(evt)" id="y.node.1" onmousemove="ShowTooltip(evt)">
      <g fill="rgb(235,235,184)" text-rendering="geometricPrecision" shape-rendering="geometricPrecision" transform="matrix(1,0,0,1,21,18)" stroke="rgb(235,235,184)">
        <rect x="9" width="342" height="114.4688" y="32.7656" stroke="none"/>
      </g>
      <g>
        <g fill="rgb(238,238,128)" text-rendering="geometricPrecision" shape-rendering="geometricPrecision" transform="matrix(1,0,0,1,21,18)" stroke="rgb(238,238,128)">
          <rect x="9" width="342" height="18.7012" y="32.7656" stroke="none"/>
        </g>
        <g text-rendering="geometricPrecision" stroke-miterlimit="1.45" shape-rendering="geometricPrecision" font-family="sans-serif" transform="matrix(1,0,0,1,21,18)" stroke-linecap="butt">
          <text x="11" xml:space="preserve" y="46.8301" stroke="none">     Declarations</text>
        </g>
      </g>
      <g>
        <g stroke-linecap="butt" transform="matrix(1,0,0,1,21,18) translate(14,53)" fill="blue" text-rendering="geometricPrecision" font-family="sans-serif" shape-rendering="geometricPrecision" stroke="blue" stroke-miterlimit="1.45">
          <text x="0" xml:space="preserve" y="13" clip-path="url(#clipPath4)" stroke="none">const</text>
          <text fill="black" x="30" xml:space="preserve" y="13" clip-path="url(#clipPath4)" stroke="none"> </text>
          <text x="33" xml:space="preserve" y="13" clip-path="url(#clipPath4)" stroke="none">real</text>
          <text fill="black" x="54" xml:space="preserve" y="13" clip-path="url(#clipPath4)" stroke="none"> </text>
          <text fill="black" x="57" xml:space="preserve" y="13" clip-path="url(#clipPath4)" stroke="none">COR</text>
          <text fill="black" x="84" xml:space="preserve" y="13" clip-path="url(#clipPath4)" stroke="none"> </text>
          <text fill="rgb(64,32,32)" x="87" xml:space="preserve" y="13" clip-path="url(#clipPath4)" stroke="none">=</text>
          <text fill="black" x="94" xml:space="preserve" y="13" clip-path="url(#clipPath4)" stroke="none"> </text>
          <text fill="rgb(0,97,0)" x="97" xml:space="preserve" y="13" clip-path="url(#clipPath4)" stroke="none">0.75</text>
          <text fill="rgb(64,32,32)" x="121" xml:space="preserve" y="13" clip-path="url(#clipPath4)" stroke="none">;</text>
          <text fill="black" x="124" xml:space="preserve" y="13" clip-path="url(#clipPath4)" stroke="none"> </text>
          <text x="0" xml:space="preserve" y="29" clip-path="url(#clipPath4)" stroke="none">disc</text>
          <text fill="black" x="23" xml:space="preserve" y="29" clip-path="url(#clipPath4)" stroke="none"> </text>
          <text x="26" xml:space="preserve" y="29" clip-path="url(#clipPath4)" stroke="none">real</text>
          <text fill="black" x="47" xml:space="preserve" y="29" clip-path="url(#clipPath4)" stroke="none"> </text>
          <text fill="black" x="50" xml:space="preserve" y="29" clip-path="url(#clipPath4)" stroke="none">initial_speed</text>
          <text fill="black" x="121" xml:space="preserve" y="29" clip-path="url(#clipPath4)" stroke="none"> </text>
          <text fill="rgb(64,32,32)" x="124" xml:space="preserve" y="29" clip-path="url(#clipPath4)" stroke="none">=</text>
          <text fill="black" x="131" xml:space="preserve" y="29" clip-path="url(#clipPath4)" stroke="none"> </text>
          <text fill="rgb(0,97,0)" x="134" xml:space="preserve" y="29" clip-path="url(#clipPath4)" stroke="none">5.0</text>
          <text fill="rgb(64,32,32)" x="151" xml:space="preserve" y="29" clip-path="url(#clipPath4)" stroke="none">;</text>
          <text fill="black" x="154" xml:space="preserve" y="29" clip-path="url(#clipPath4)" stroke="none"> </text>
          <text x="0" xml:space="preserve" y="45" clip-path="url(#clipPath4)" stroke="none">alg</text>
          <text fill="black" x="17" xml:space="preserve" y="45" clip-path="url(#clipPath4)" stroke="none"> </text>
          <text x="20" xml:space="preserve" y="45" clip-path="url(#clipPath4)" stroke="none">real</text>
          <text fill="black" x="41" xml:space="preserve" y="45" clip-path="url(#clipPath4)" stroke="none"> </text>
          <text fill="black" x="44" xml:space="preserve" y="45" clip-path="url(#clipPath4)" stroke="none">maximum_height</text>
          <text fill="rgb(64,32,32)" x="140" xml:space="preserve" y="45" clip-path="url(#clipPath4)" stroke="none">;</text>
          <text fill="black" x="143" xml:space="preserve" y="45" clip-path="url(#clipPath4)" stroke="none"> </text>
          <text fill="black" x="0" xml:space="preserve" y="61" clip-path="url(#clipPath4)" stroke="none"> </text>
          <text x="0" xml:space="preserve" y="77" clip-path="url(#clipPath4)" stroke="none">equation</text>
          <text fill="black" x="48" xml:space="preserve" y="77" clip-path="url(#clipPath4)" stroke="none"> </text>
          <text fill="black" x="51" xml:space="preserve" y="77" clip-path="url(#clipPath4)" stroke="none">maximum_height</text>
          <text fill="black" x="147" xml:space="preserve" y="77" clip-path="url(#clipPath4)" stroke="none"> </text>
          <text fill="rgb(64,32,32)" x="150" xml:space="preserve" y="77" clip-path="url(#clipPath4)" stroke="none">=</text>
          <text fill="black" x="157" xml:space="preserve" y="77" clip-path="url(#clipPath4)" stroke="none"> </text>
          <text fill="rgb(0,97,0)" x="160" xml:space="preserve" y="77" clip-path="url(#clipPath4)" stroke="none">0.5</text>
          <text fill="black" x="177" xml:space="preserve" y="77" clip-path="url(#clipPath4)" stroke="none"> </text>
          <text fill="rgb(64,32,32)" x="180" xml:space="preserve" y="77" clip-path="url(#clipPath4)" stroke="none">/</text>
          <text fill="black" x="183" xml:space="preserve" y="77" clip-path="url(#clipPath4)" stroke="none"> </text>
          <text fill="black" x="186" xml:space="preserve" y="77" clip-path="url(#clipPath4)" stroke="none">g</text>
          <text fill="black" x="193" xml:space="preserve" y="77" clip-path="url(#clipPath4)" stroke="none"> </text>
          <text fill="rgb(64,32,32)" x="196" xml:space="preserve" y="77" clip-path="url(#clipPath4)" stroke="none">*</text>
          <text fill="black" x="201" xml:space="preserve" y="77" clip-path="url(#clipPath4)" stroke="none"> </text>
          <text fill="rgb(128,0,255)" x="204" xml:space="preserve" y="77" clip-path="url(#clipPath4)" stroke="none">pow</text>
          <text fill="rgb(64,32,32)" x="227" xml:space="preserve" y="77" clip-path="url(#clipPath4)" stroke="none">(</text>
          <text fill="black" x="231" xml:space="preserve" y="77" clip-path="url(#clipPath4)" stroke="none">initial_speed</text>
          <text fill="rgb(64,32,32)" x="302" xml:space="preserve" y="77" clip-path="url(#clipPath4)" stroke="none">,</text>
          <text fill="black" x="305" xml:space="preserve" y="77" clip-path="url(#clipPath4)" stroke="none"> </text>
          <text fill="rgb(0,97,0)" x="308" xml:space="preserve" y="77" clip-path="url(#clipPath4)" stroke="none">2.0</text>
          <text fill="rgb(64,32,32)" x="325" xml:space="preserve" y="77" clip-path="url(#clipPath4)" stroke="none">);</text>
        </g>
      </g>
      <g text-rendering="geometricPrecision" stroke-miterlimit="1.45" shape-rendering="geometricPrecision" transform="matrix(1,0,0,1,21,18)" stroke-linecap="butt">
        <rect fill="none" x="9" width="342" height="114.4688" y="32.7656"/>
      </g>
    </g>
    <g onmouseout="HideTooltip(evt)" id="y.node.2" onmousemove="ShowTooltip(evt)">
      <g fill="rgb(204,204,255)" text-rendering="geometricPrecision" shape-rendering="geometricPrecision" transform="matrix(1,0,0,1,21,18)" stroke="rgb(204,204,255)">
        <rect x="10" y="205" width="60" rx="4" ry="4" height="30" stroke="none"/>
      </g>
      <g/>
      <g text-rendering="geometricPrecision" stroke-miterlimit="1.45" shape-rendering="geometricPrecision" transform="matrix(1,0,0,1,21,18)" stroke-linecap="butt">
        <rect x="10" y="205" fill="none" width="60" rx="4" ry="4" height="30"/>
      </g>
    </g>
    <g onmouseout="HideTooltip(evt)" id="y.node.3" onmousemove="ShowTooltip(evt)"/>
    <g id="y.edge.1">
      <g text-rendering="geometricPrecision" stroke-miterlimit="1.45" shape-rendering="geometricPrecision" transform="matrix(1,0,0,1,21,18)" stroke-linecap="butt">
        <path fill="none" d="M60.5 235 L60.5 245 L61.125 249.375 L63 252.5 L66.125 254.375 L70.5 255 L130.5 255 L134.875 254.375 L138 252.5 L139.875 249.375 L140.5 245 L140.5 185 L139.875 180.625 L138 177.5 L134.875 175.625 L130.5 175 L55 175 L50.625 175.625 L47.5 177.5 L45.625 180.625 L45 185 L45 196.9707"/>
        <path d="M45 204.9707 L50 192.9707 L45 195.9707 L40 192.9707 Z" stroke="none"/>
      </g>
      <g>
        <g stroke-linecap="butt" transform="matrix(1,0,0,1,21,18)" fill="rgb(238,238,238)" text-rendering="geometricPrecision" shape-rendering="geometricPrecision" stroke="rgb(238,238,238)" stroke-miterlimit="1.45">
          <rect x="142.5" width="217" height="20" y="234" stroke="none"/>
        </g>
        <g stroke-linecap="butt" transform="matrix(1,0,0,1,21,18) translate(144,236)" fill="blue" text-rendering="geometricPrecision" font-family="sans-serif" shape-rendering="geometricPrecision" stroke="blue" stroke-miterlimit="1.45">
          <text x="0" xml:space="preserve" y="13" clip-path="url(#clipPath5)" stroke="none">do</text>
          <text fill="black" x="14" xml:space="preserve" y="13" clip-path="url(#clipPath5)" stroke="none"> </text>
          <text fill="black" x="17" xml:space="preserve" y="13" clip-path="url(#clipPath5)" stroke="none">initial_speed</text>
          <text fill="black" x="88" xml:space="preserve" y="13" clip-path="url(#clipPath5)" stroke="none"> </text>
          <text fill="rgb(64,32,32)" x="91" xml:space="preserve" y="13" clip-path="url(#clipPath5)" stroke="none">:=</text>
          <text fill="black" x="101" xml:space="preserve" y="13" clip-path="url(#clipPath5)" stroke="none"> </text>
          <text fill="black" x="104" xml:space="preserve" y="13" clip-path="url(#clipPath5)" stroke="none">initial_speed</text>
          <text fill="black" x="175" xml:space="preserve" y="13" clip-path="url(#clipPath5)" stroke="none"> </text>
          <text fill="rgb(64,32,32)" x="178" xml:space="preserve" y="13" clip-path="url(#clipPath5)" stroke="none">*</text>
          <text fill="black" x="183" xml:space="preserve" y="13" clip-path="url(#clipPath5)" stroke="none"> </text>
          <text fill="black" x="186" xml:space="preserve" y="13" clip-path="url(#clipPath5)" stroke="none">COR</text>
        </g>
      </g>
    </g>
    <g id="y.edge.0">
      <g text-rendering="geometricPrecision" stroke-miterlimit="1.45" shape-rendering="geometricPrecision" transform="matrix(1,0,0,1,21,18)" stroke-linecap="butt">
        <path fill="none" d="M40.5 254.4756 L40.5 243"/>
        <path d="M40.5 235 L35.5 247 L40.5 244 L45.5 247 Z" stroke="none"/>
      </g>
    </g>
    <g onmouseout="HideTooltip(evt)" id="y.node.4" onmousemove="ShowTooltip(evt)">
      <g fill="rgb(255,255,204)" text-rendering="geometricPrecision" shape-rendering="geometricPrecision" transform="matrix(1,0,0,1,21,18)" stroke="rgb(255,255,204)">
        <rect x="381" width="114" height="54" y="-2.2344" stroke="none"/>
      </g>
      <g>
        <g fill="rgb(238,238,128)" text-rendering="geometricPrecision" shape-rendering="geometricPrecision" transform="matrix(1,0,0,1,21,18)" stroke="rgb(238,238,128)">
          <rect x="381" width="114" height="18.7012" y="-2.2344" stroke="none"/>
        </g>
        <g text-rendering="geometricPrecision" stroke-miterlimit="1.45" shape-rendering="geometricPrecision" font-family="sans-serif" transform="matrix(1,0,0,1,21,18)" stroke-linecap="butt">
          <text x="383" xml:space="preserve" y="11.8301" stroke="none">     Declarations</text>
        </g>
      </g>
      <g>
        <g stroke-linecap="butt" transform="matrix(1,0,0,1,21,18) translate(386,18)" fill="blue" text-rendering="geometricPrecision" font-family="sans-serif" shape-rendering="geometricPrecision" stroke="blue" stroke-miterlimit="1.45">
          <text x="0" xml:space="preserve" y="13" clip-path="url(#clipPath6)" stroke="none">const</text>
          <text fill="black" x="30" xml:space="preserve" y="13" clip-path="url(#clipPath6)" stroke="none"> </text>
          <text x="33" xml:space="preserve" y="13" clip-path="url(#clipPath6)" stroke="none">real</text>
          <text fill="black" x="54" xml:space="preserve" y="13" clip-path="url(#clipPath6)" stroke="none"> </text>
          <text fill="black" x="57" xml:space="preserve" y="13" clip-path="url(#clipPath6)" stroke="none">g</text>
          <text fill="black" x="64" xml:space="preserve" y="13" clip-path="url(#clipPath6)" stroke="none"> </text>
          <text fill="rgb(64,32,32)" x="67" xml:space="preserve" y="13" clip-path="url(#clipPath6)" stroke="none">=</text>
          <text fill="black" x="74" xml:space="preserve" y="13" clip-path="url(#clipPath6)" stroke="none"> </text>
          <text fill="rgb(0,97,0)" x="77" xml:space="preserve" y="13" clip-path="url(#clipPath6)" stroke="none">9.81</text>
          <text fill="rgb(64,32,32)" x="101" xml:space="preserve" y="13" clip-path="url(#clipPath6)" stroke="none">;</text>
        </g>
      </g>
      <g text-rendering="geometricPrecision" stroke-miterlimit="1.45" shape-rendering="geometricPrecision" transform="matrix(1,0,0,1,21,18)" stroke-linecap="butt">
        <rect fill="none" x="381" width="114" height="54" y="-2.2344"/>
      </g>
    </g>
    <g visibility="hidden" id="tooltip.y.node.0" pointer-events="none">
      <g fill="rgb(255,255,225)" text-rendering="geometricPrecision" shape-rendering="geometricPrecision" font-family="'Segoe UI'" stroke="rgb(255,255,225)">
        <rect x="0" width="89" height="18" y="0" clip-path="url(#clipPath7)" stroke="none"/>
        <text fill="black" x="4" xml:space="preserve" y="14" clip-path="url(#clipPath7)" stroke="none">automaton ball</text>
      </g>
      <g font-family="'Segoe UI'" text-rendering="geometricPrecision" shape-rendering="geometricPrecision">
        <path d="M0 0 L89 0 L89 18 L0 18 L0 0 ZM1 1 L88 1 L88 17 L1 17 L1 1 Z" fill-rule="evenodd" clip-path="url(#clipPath7)" stroke="none"/>
      </g>
    </g>
    <g visibility="hidden" id="tooltip.y.node.1" pointer-events="none">
      <g fill="rgb(255,255,225)" text-rendering="geometricPrecision" shape-rendering="geometricPrecision" font-family="'Segoe UI'" stroke="rgb(255,255,225)">
        <rect x="0" width="73" height="18" y="0" clip-path="url(#clipPath8)" stroke="none"/>
        <text fill="black" x="4" xml:space="preserve" y="14" clip-path="url(#clipPath8)" stroke="none">Declarations</text>
      </g>
      <g font-family="'Segoe UI'" text-rendering="geometricPrecision" shape-rendering="geometricPrecision">
        <path d="M0 0 L73 0 L73 18 L0 18 L0 0 ZM1 1 L72 1 L72 17 L1 17 L1 1 Z" fill-rule="evenodd" clip-path="url(#clipPath8)" stroke="none"/>
      </g>
    </g>
    <g visibility="hidden" id="tooltip.y.node.2" pointer-events="none">
      <g fill="rgb(255,255,225)" text-rendering="geometricPrecision" shape-rendering="geometricPrecision" font-family="'Segoe UI'" stroke="rgb(255,255,225)">
        <rect x="0" width="51" height="18" y="0" clip-path="url(#clipPath9)" stroke="none"/>
        <text fill="black" x="4" xml:space="preserve" y="14" clip-path="url(#clipPath9)" stroke="none">location</text>
      </g>
      <g font-family="'Segoe UI'" text-rendering="geometricPrecision" shape-rendering="geometricPrecision">
        <path d="M0 0 L51 0 L51 18 L0 18 L0 0 ZM1 1 L50 1 L50 17 L1 17 L1 1 Z" fill-rule="evenodd" clip-path="url(#clipPath9)" stroke="none"/>
      </g>
    </g>
    <g visibility="hidden" id="tooltip.y.node.3" pointer-events="none">
      <g fill="rgb(255,255,225)" text-rendering="geometricPrecision" shape-rendering="geometricPrecision" font-family="'Segoe UI'" stroke="rgb(255,255,225)">
        <rect x="0" width="8" height="18" y="0" clip-path="url(#clipPath10)" stroke="none"/>
      </g>
      <g font-family="'Segoe UI'" text-rendering="geometricPrecision" shape-rendering="geometricPrecision">
        <path d="M0 0 L8 0 L8 18 L0 18 L0 0 ZM1 1 L7 1 L7 17 L1 17 L1 1 Z" fill-rule="evenodd" clip-path="url(#clipPath10)" stroke="none"/>
      </g>
    </g>
    <g visibility="hidden" id="tooltip.y.node.4" pointer-events="none">
      <g fill="rgb(255,255,225)" text-rendering="geometricPrecision" shape-rendering="geometricPrecision" font-family="'Segoe UI'" stroke="rgb(255,255,225)">
        <rect x="0" width="73" height="18" y="0" clip-path="url(#clipPath8)" stroke="none"/>
        <text fill="black" x="4" xml:space="preserve" y="14" clip-path="url(#clipPath8)" stroke="none">Declarations</text>
      </g>
      <g font-family="'Segoe UI'" text-rendering="geometricPrecision" shape-rendering="geometricPrecision">
        <path d="M0 0 L73 0 L73 18 L0 18 L0 0 ZM1 1 L72 1 L72 17 L1 17 L1 1 Z" fill-rule="evenodd" clip-path="url(#clipPath8)" stroke="none"/>
      </g>
    </g>
  </g>
</svg>
