<?xml version="1.0" encoding="UTF-8"?><svg xmlns="http://www.w3.org/2000/svg" xmlns:xlink="http://www.w3.org/1999/xlink" fill-opacity="1" color-rendering="auto" color-interpolation="auto" text-rendering="auto" stroke="black" stroke-linecap="square" width="273" stroke-miterlimit="10" shape-rendering="auto" stroke-opacity="1" fill="black" stroke-dasharray="none" font-weight="normal" stroke-width="1" height="141" font-family="'Dialog'" font-style="normal" stroke-linejoin="miter" font-size="12px" stroke-dashoffset="0" image-rendering="auto">
  <!--Generated by ySVG 2.5-->
  <defs id="genericDefs"/>
  <g>
    <defs id="defs1">
      <clipPath clipPathUnits="userSpaceOnUse" id="clipPath1">
        <path d="M0 0 L273 0 L273 141 L0 141 L0 0 Z"/>
      </clipPath>
      <clipPath clipPathUnits="userSpaceOnUse" id="clipPath2">
        <path d="M184 179 L457 179 L457 320 L184 320 L184 179 Z"/>
      </clipPath>
    </defs>
    <g fill="white" text-rendering="geometricPrecision" shape-rendering="geometricPrecision" transform="translate(-184,-179)" stroke="white">
      <rect x="184" width="273" height="141" y="179" clip-path="url(#clipPath2)" stroke="none"/>
    </g>
    <g fill="rgb(255,204,0)" text-rendering="geometricPrecision" shape-rendering="geometricPrecision" transform="matrix(1,0,0,1,-184,-179)" stroke="rgb(255,204,0)">
      <rect x="199.5" width="1" height="1" y="249" clip-path="url(#clipPath2)" stroke="none"/>
    </g>
    <g text-rendering="geometricPrecision" stroke-miterlimit="1.45" shape-rendering="geometricPrecision" transform="matrix(1,0,0,1,-184,-179)" stroke-linecap="butt">
      <rect fill="none" x="199.5" width="1" height="1" y="249" clip-path="url(#clipPath2)"/>
    </g>
    <g fill="rgb(255,204,0)" text-rendering="geometricPrecision" shape-rendering="geometricPrecision" transform="matrix(1,0,0,1,-184,-179)" stroke="rgb(255,204,0)">
      <rect x="245" width="30" height="30" y="234.5" clip-path="url(#clipPath2)" stroke="none"/>
    </g>
    <g text-rendering="geometricPrecision" stroke-miterlimit="1.45" shape-rendering="geometricPrecision" transform="matrix(1,0,0,1,-184,-179)" stroke-linecap="butt">
      <rect fill="none" x="245" width="30" height="30" y="234.5" clip-path="url(#clipPath2)"/>
      <text x="252.9746" xml:space="preserve" y="254.0352" clip-path="url(#clipPath2)" font-family="sans-serif" stroke="none">S1</text>
    </g>
    <g fill="rgb(255,204,0)" text-rendering="geometricPrecision" shape-rendering="geometricPrecision" transform="matrix(1,0,0,1,-184,-179)" stroke="rgb(255,204,0)">
      <rect x="305" width="30" height="30" y="194" clip-path="url(#clipPath2)" stroke="none"/>
    </g>
    <g text-rendering="geometricPrecision" stroke-miterlimit="1.45" shape-rendering="geometricPrecision" transform="matrix(1,0,0,1,-184,-179)" stroke-linecap="butt">
      <rect fill="none" x="305" width="30" height="30" y="194" clip-path="url(#clipPath2)"/>
      <text x="311.5449" xml:space="preserve" y="213.5352" clip-path="url(#clipPath2)" font-family="sans-serif" stroke="none">Q2</text>
    </g>
    <g fill="rgb(255,204,0)" text-rendering="geometricPrecision" shape-rendering="geometricPrecision" transform="matrix(1,0,0,1,-184,-179)" stroke="rgb(255,204,0)">
      <rect x="305" width="30" height="30" y="275" clip-path="url(#clipPath2)" stroke="none"/>
    </g>
    <g text-rendering="geometricPrecision" stroke-miterlimit="1.45" shape-rendering="geometricPrecision" transform="matrix(1,0,0,1,-184,-179)" stroke-linecap="butt">
      <rect fill="none" x="305" width="30" height="30" y="275" clip-path="url(#clipPath2)"/>
      <text x="311.5449" xml:space="preserve" y="294.5352" clip-path="url(#clipPath2)" font-family="sans-serif" stroke="none">Q3</text>
    </g>
    <g fill="rgb(255,204,0)" text-rendering="geometricPrecision" shape-rendering="geometricPrecision" transform="matrix(1,0,0,1,-184,-179)" stroke="rgb(255,204,0)">
      <rect x="365" width="30" height="30" y="194" clip-path="url(#clipPath2)" stroke="none"/>
    </g>
    <g text-rendering="geometricPrecision" stroke-miterlimit="1.45" shape-rendering="geometricPrecision" transform="matrix(1,0,0,1,-184,-179)" stroke-linecap="butt">
      <rect fill="none" x="365" width="30" height="30" y="194" clip-path="url(#clipPath2)"/>
      <text x="372.9746" xml:space="preserve" y="213.5352" clip-path="url(#clipPath2)" font-family="sans-serif" stroke="none">S2</text>
    </g>
    <g fill="rgb(255,204,0)" text-rendering="geometricPrecision" shape-rendering="geometricPrecision" transform="matrix(1,0,0,1,-184,-179)" stroke="rgb(255,204,0)">
      <rect x="365" width="30" height="30" y="275" clip-path="url(#clipPath2)" stroke="none"/>
    </g>
    <g text-rendering="geometricPrecision" stroke-miterlimit="1.45" shape-rendering="geometricPrecision" transform="matrix(1,0,0,1,-184,-179)" stroke-linecap="butt">
      <rect fill="none" x="365" width="30" height="30" y="275" clip-path="url(#clipPath2)"/>
      <text x="372.9746" xml:space="preserve" y="294.5352" clip-path="url(#clipPath2)" font-family="sans-serif" stroke="none">S3</text>
    </g>
    <g fill="rgb(255,204,0)" text-rendering="geometricPrecision" shape-rendering="geometricPrecision" transform="matrix(1,0,0,1,-184,-179)" stroke="rgb(255,204,0)">
      <circle r="0.5" clip-path="url(#clipPath2)" cx="440" cy="209" stroke="none"/>
    </g>
    <g text-rendering="geometricPrecision" stroke-miterlimit="1.45" shape-rendering="geometricPrecision" transform="matrix(1,0,0,1,-184,-179)" stroke-linecap="butt">
      <circle fill="none" r="0.5" clip-path="url(#clipPath2)" cx="440" cy="209"/>
    </g>
    <g fill="rgb(255,204,0)" text-rendering="geometricPrecision" shape-rendering="geometricPrecision" transform="matrix(1,0,0,1,-184,-179)" stroke="rgb(255,204,0)">
      <circle r="0.5" clip-path="url(#clipPath2)" cx="440" cy="290" stroke="none"/>
    </g>
    <g text-rendering="geometricPrecision" stroke-miterlimit="1.45" shape-rendering="geometricPrecision" transform="matrix(1,0,0,1,-184,-179)" stroke-linecap="butt">
      <circle fill="none" r="0.5" clip-path="url(#clipPath2)" cx="440" cy="290"/>
      <path fill="none" d="M200.5 249.5 L237 249.5" clip-path="url(#clipPath2)"/>
      <path d="M245 249.5 L233 244.5 L236 249.5 L233 254.5 Z" clip-path="url(#clipPath2)" stroke="none"/>
      <path fill="none" d="M260 234.5 L260 209 L297 209" clip-path="url(#clipPath2)"/>
      <path d="M305 209 L293 204 L296 209 L293 214 Z" clip-path="url(#clipPath2)" stroke="none"/>
      <path fill="none" d="M260 264.5 L260 290 L297 290" clip-path="url(#clipPath2)"/>
      <path d="M305 290 L293 285 L296 290 L293 295 Z" clip-path="url(#clipPath2)" stroke="none"/>
      <path fill="none" d="M335 209 L357 209" clip-path="url(#clipPath2)"/>
      <path d="M365 209 L353 204 L356 209 L353 214 Z" clip-path="url(#clipPath2)" stroke="none"/>
      <path fill="none" d="M335 290 L357 290" clip-path="url(#clipPath2)"/>
      <path d="M365 290 L353 285 L356 290 L353 295 Z" clip-path="url(#clipPath2)" stroke="none"/>
      <path fill="none" d="M395 209 L431.5 209" clip-path="url(#clipPath2)"/>
      <path d="M439.5 209 L427.5 204 L430.5 209 L427.5 214 Z" clip-path="url(#clipPath2)" stroke="none"/>
      <path fill="none" d="M395 290 L431.5 290" clip-path="url(#clipPath2)"/>
      <path d="M439.5 290 L427.5 285 L430.5 290 L427.5 295 Z" clip-path="url(#clipPath2)" stroke="none"/>
    </g>
  </g>
</svg>
