<?xml version="1.0" encoding="UTF-8"?><svg xmlns="http://www.w3.org/2000/svg" xmlns:xlink="http://www.w3.org/1999/xlink" fill-opacity="1" color-rendering="auto" color-interpolation="auto" text-rendering="auto" stroke="black" stroke-linecap="square" width="824" stroke-miterlimit="10" shape-rendering="auto" stroke-opacity="1" fill="black" stroke-dasharray="none" font-weight="normal" stroke-width="1" height="450" font-family="'Dialog'" font-style="normal" stroke-linejoin="miter" font-size="12px" stroke-dashoffset="0" image-rendering="auto">
  <!--Generated by ySVG 2.5-->
  <defs id="genericDefs"/>
  <g>
    <defs id="defs1">
      <clipPath clipPathUnits="userSpaceOnUse" id="clipPath1">
        <path d="M0 0 L824 0 L824 450 L0 450 L0 0 Z"/>
      </clipPath>
      <clipPath clipPathUnits="userSpaceOnUse" id="clipPath2">
        <path d="M-23 -21 L801 -21 L801 429 L-23 429 L-23 -21 Z"/>
      </clipPath>
      <clipPath clipPathUnits="userSpaceOnUse" id="clipPath3">
        <path d="M0 0 L346 0 L346 16 L0 16 L0 0 Z"/>
      </clipPath>
      <clipPath clipPathUnits="userSpaceOnUse" id="clipPath4">
        <path d="M0 0 L199 0 L199 32 L0 32 L0 0 Z"/>
      </clipPath>
      <clipPath clipPathUnits="userSpaceOnUse" id="clipPath5">
        <path d="M0 0 L238 0 L238 32 L0 32 L0 0 Z"/>
      </clipPath>
      <clipPath clipPathUnits="userSpaceOnUse" id="clipPath6">
        <path d="M0 0 L246 0 L246 16 L0 16 L0 0 Z"/>
      </clipPath>
      <clipPath clipPathUnits="userSpaceOnUse" id="clipPath7">
        <path d="M0 0 L408 0 L408 16 L0 16 L0 0 Z"/>
      </clipPath>
      <clipPath clipPathUnits="userSpaceOnUse" id="clipPath8">
        <path d="M0 0 L144 0 L144 32 L0 32 L0 0 Z"/>
      </clipPath>
      <clipPath clipPathUnits="userSpaceOnUse" id="clipPath9">
        <path d="M0 0 L147 0 L147 48 L0 48 L0 0 Z"/>
      </clipPath>
      <clipPath clipPathUnits="userSpaceOnUse" id="clipPath10">
        <path d="M0 0 L112 0 L112 16 L0 16 L0 0 Z"/>
      </clipPath>
      <clipPath clipPathUnits="userSpaceOnUse" id="clipPath11">
        <path d="M0 0 L57 0 L57 32 L0 32 L0 0 Z"/>
      </clipPath>
      <clipPath clipPathUnits="userSpaceOnUse" id="clipPath12">
        <path d="M0 0 L0 18 L98 18 L98 0 Z"/>
      </clipPath>
      <clipPath clipPathUnits="userSpaceOnUse" id="clipPath13">
        <path d="M0 0 L0 18 L51 18 L51 0 Z"/>
      </clipPath>
      <clipPath clipPathUnits="userSpaceOnUse" id="clipPath14">
        <path d="M0 0 L0 18 L8 18 L8 0 Z"/>
      </clipPath>
      <clipPath clipPathUnits="userSpaceOnUse" id="clipPath15">
        <path d="M0 0 L0 18 L104 18 L104 0 Z"/>
      </clipPath>
      <clipPath clipPathUnits="userSpaceOnUse" id="clipPath16">
        <path d="M0 0 L0 18 L73 18 L73 0 Z"/>
      </clipPath>
      <script type="text/ecmascript">
        <![CDATA[      var SVGDocument = null;
      var SVGRoot = null;
      var TrueCoords = null;
      var lastElement = null;
      var initialized = null;
      var tipGroup;
      function Init(evt)
      {
         SVGDocument = evt.target.ownerDocument;
         SVGRoot = SVGDocument.documentElement;
         TrueCoords = SVGRoot.createSVGPoint();
         initialized = evt;
      };
      function GetTrueCoords(evt)
      {
         var newScale = SVGRoot.currentScale;
         var translation = SVGRoot.currentTranslate;
         TrueCoords.x = (evt.clientX - translation.x)/newScale;
         TrueCoords.y = (evt.clientY - translation.y)/newScale;
      };
      function HideTooltip( evt )
      {
         if(initialized == null) {
           Init(evt);
         }
         if(tipGroup != null) {
           tipGroup.setAttributeNS(null, 'visibility', 'hidden');
         }
      };
      function ShowTooltip( evt )
      {
         if(initialized == null) {
           Init(evt);
         }
         GetTrueCoords( evt );
         var tipScale = 1/SVGRoot.currentScale;
         var targetElement = evt.currentTarget;
         if ( lastElement != targetElement )
         {
            var targetId = targetElement.getAttributeNS(null, 'id');
            var tipId = 'tooltip.' + targetId;
            tipGroup = SVGDocument.getElementById(tipId);
            var xPos = TrueCoords.x + (10 * tipScale);
            var yPos = TrueCoords.y + (10 * tipScale);
            tipGroup.setAttributeNS(null, 'transform', 'translate(' + xPos + ',' + yPos + ') scale(' + tipScale + ')');
            tipGroup.setAttributeNS(null, 'visibility', 'visible');
         }
      };
]]>
      </script>
    </defs>
    <g fill="white" text-rendering="geometricPrecision" shape-rendering="geometricPrecision" transform="translate(23,21)" stroke="white">
      <rect x="-23" width="824" height="450" y="-21" clip-path="url(#clipPath2)" stroke="none"/>
    </g>
    <g onmouseout="HideTooltip(evt)" id="y.node.0" onmousemove="ShowTooltip(evt)">
      <g fill="rgb(238,238,238)" text-rendering="geometricPrecision" shape-rendering="geometricPrecision" transform="matrix(1,0,0,1,23,21)" stroke="rgb(238,238,238)">
        <rect x="-5" width="350" height="324" y="-2" stroke="none"/>
      </g>
      <g>
        <g fill="red" text-rendering="geometricPrecision" shape-rendering="geometricPrecision" transform="matrix(1,0,0,1,23,21)" stroke="red">
          <rect x="-5" width="350" height="20" y="-2" stroke="none"/>
        </g>
        <g text-rendering="geometricPrecision" stroke-miterlimit="1.45" shape-rendering="geometricPrecision" font-family="sans-serif" transform="matrix(1,0,0,1,23,21) translate(-3,0)" stroke-linecap="butt">
          <text x="0" xml:space="preserve" y="13" clip-path="url(#clipPath3)" stroke="none">     </text>
          <text fill="blue" x="15" xml:space="preserve" y="13" clip-path="url(#clipPath3)" stroke="none">automaton</text>
          <text x="74" xml:space="preserve" y="13" clip-path="url(#clipPath3)" stroke="none"> </text>
          <text x="77" xml:space="preserve" y="13" clip-path="url(#clipPath3)" stroke="none">Child</text>
        </g>
      </g>
      <g text-rendering="geometricPrecision" stroke-miterlimit="1.45" shape-rendering="geometricPrecision" transform="matrix(1,0,0,1,23,21)" stroke-linecap="butt">
        <rect fill="none" x="-5" width="350" height="324" y="-2"/>
      </g>
    </g>
    <g onmouseout="HideTooltip(evt)" id="y.node.1" onmousemove="ShowTooltip(evt)">
      <g fill="rgb(204,204,255)" text-rendering="geometricPrecision" shape-rendering="geometricPrecision" transform="matrix(1,0,0,1,23,21)" stroke="rgb(204,204,255)">
        <rect x="20" y="175" width="60" rx="4" ry="4" height="30" stroke="none"/>
      </g>
      <g/>
      <g text-rendering="geometricPrecision" stroke-miterlimit="1.45" shape-rendering="geometricPrecision" transform="matrix(1,0,0,1,23,21)" stroke-linecap="butt">
        <rect x="20" y="175" fill="none" width="60" rx="4" ry="4" height="30"/>
      </g>
    </g>
    <g onmouseout="HideTooltip(evt)" id="y.node.2" onmousemove="ShowTooltip(evt)">
      <g/>
    </g>
    <g id="y.edge.1">
      <g text-rendering="geometricPrecision" stroke-miterlimit="1.45" shape-rendering="geometricPrecision" transform="matrix(1,0,0,1,23,21)" stroke-linecap="butt">
        <path fill="none" d="M60 174.9561 L60 140 L60.625 135.625 L62.5 132.5 L65.625 130.625 L70 130 L290 130 L294.375 130.625 L297.5 132.5 L299.375 135.625 L300 140 L300 170 L299.375 174.375 L297.5 177.5 L294.375 179.375 L290 180 L88 180"/>
      </g>
      <g text-rendering="geometricPrecision" stroke-miterlimit="1.45" shape-rendering="geometricPrecision" transform="matrix(1,0,0,1,23,21)" stroke-linecap="butt">
        <path d="M80 180 L92 185 L89 180 L92 175 Z" stroke="none"/>
      </g>
      <g>
        <g stroke-linecap="butt" transform="matrix(1,0,0,1,23,21)" fill="rgb(238,238,238)" text-rendering="geometricPrecision" shape-rendering="geometricPrecision" stroke="rgb(238,238,238)" stroke-miterlimit="1.45">
          <rect x="62" width="203" height="36" y="129.9375" stroke="none"/>
        </g>
        <g stroke-linecap="butt" transform="matrix(1,0,0,1,23,21) translate(64,131)" fill="blue" text-rendering="geometricPrecision" font-family="sans-serif" shape-rendering="geometricPrecision" stroke="blue" stroke-miterlimit="1.45">
          <text x="0" xml:space="preserve" y="13" clip-path="url(#clipPath4)" stroke="none">ask</text>
          <text fill="black" x="20" xml:space="preserve" y="13" clip-path="url(#clipPath4)" stroke="none"> </text>
          <text x="0" xml:space="preserve" y="29" clip-path="url(#clipPath4)" stroke="none">do</text>
          <text fill="black" x="14" xml:space="preserve" y="29" clip-path="url(#clipPath4)" stroke="none"> </text>
          <text fill="black" x="17" xml:space="preserve" y="29" clip-path="url(#clipPath4)" stroke="none">question</text>
          <text fill="black" x="65" xml:space="preserve" y="29" clip-path="url(#clipPath4)" stroke="none"> </text>
          <text fill="rgb(64,32,32)" x="68" xml:space="preserve" y="29" clip-path="url(#clipPath4)" stroke="none">:=</text>
          <text fill="black" x="78" xml:space="preserve" y="29" clip-path="url(#clipPath4)" stroke="none"> </text>
          <text fill="black" x="81" xml:space="preserve" y="29" clip-path="url(#clipPath4)" stroke="none">question</text>
          <text fill="black" x="129" xml:space="preserve" y="29" clip-path="url(#clipPath4)" stroke="none"> </text>
          <text fill="rgb(64,32,32)" x="132" xml:space="preserve" y="29" clip-path="url(#clipPath4)" stroke="none">+</text>
          <text fill="black" x="139" xml:space="preserve" y="29" clip-path="url(#clipPath4)" stroke="none"> </text>
          <text fill="rgb(192,0,0)" x="142" xml:space="preserve" y="29" clip-path="url(#clipPath4)" stroke="none">"</text>
          <text fill="black" x="146" xml:space="preserve" y="29" clip-path="url(#clipPath4)" stroke="none"> </text>
          <text fill="rgb(192,0,0)" x="149" xml:space="preserve" y="29" clip-path="url(#clipPath4)" stroke="none">Please?"</text>
        </g>
      </g>
    </g>
    <g id="y.edge.2">
      <g text-rendering="geometricPrecision" stroke-miterlimit="1.45" shape-rendering="geometricPrecision" transform="matrix(1,0,0,1,23,21)" stroke-linecap="butt">
        <path fill="none" d="M50 174.9536 L50 90 L50.625 85.625 L52.5 82.5 L55.625 80.625 L60 80 L320 80 L324.375 80.625 L327.5 82.5 L329.375 85.625 L330 90 L330 180 L329.375 184.375 L327.5 187.5 L324.375 189.375 L320 190 L88 190"/>
        <path d="M80 190 L92 195 L89 190 L92 185 Z" stroke="none"/>
      </g>
      <g>
        <g stroke-linecap="butt" transform="matrix(1,0,0,1,23,21)" fill="rgb(238,238,238)" text-rendering="geometricPrecision" shape-rendering="geometricPrecision" stroke="rgb(238,238,238)" stroke-miterlimit="1.45">
          <rect x="69" width="242" height="36" y="42" stroke="none"/>
        </g>
        <g stroke-linecap="butt" transform="matrix(1,0,0,1,23,21) translate(71,44)" fill="blue" text-rendering="geometricPrecision" font-family="sans-serif" shape-rendering="geometricPrecision" stroke="blue" stroke-miterlimit="1.45">
          <text x="0" xml:space="preserve" y="13" clip-path="url(#clipPath5)" stroke="none">give</text>
          <text fill="black" x="22" xml:space="preserve" y="13" clip-path="url(#clipPath5)" stroke="none"> </text>
          <text x="0" xml:space="preserve" y="29" clip-path="url(#clipPath5)" stroke="none">do</text>
          <text fill="black" x="14" xml:space="preserve" y="29" clip-path="url(#clipPath5)" stroke="none"> </text>
          <text fill="black" x="17" xml:space="preserve" y="29" clip-path="url(#clipPath5)" stroke="none">question</text>
          <text fill="black" x="65" xml:space="preserve" y="29" clip-path="url(#clipPath5)" stroke="none"> </text>
          <text fill="rgb(64,32,32)" x="68" xml:space="preserve" y="29" clip-path="url(#clipPath5)" stroke="none">:=</text>
          <text fill="black" x="78" xml:space="preserve" y="29" clip-path="url(#clipPath5)" stroke="none"> </text>
          <text fill="rgb(192,0,0)" x="81" xml:space="preserve" y="29" clip-path="url(#clipPath5)" stroke="none">"Can</text>
          <text fill="black" x="108" xml:space="preserve" y="29" clip-path="url(#clipPath5)" stroke="none"> </text>
          <text fill="rgb(192,0,0)" x="111" xml:space="preserve" y="29" clip-path="url(#clipPath5)" stroke="none">I</text>
          <text fill="black" x="114" xml:space="preserve" y="29" clip-path="url(#clipPath5)" stroke="none"> </text>
          <text fill="rgb(192,0,0)" x="117" xml:space="preserve" y="29" clip-path="url(#clipPath5)" stroke="none">have</text>
          <text fill="black" x="143" xml:space="preserve" y="29" clip-path="url(#clipPath5)" stroke="none"> </text>
          <text fill="rgb(192,0,0)" x="146" xml:space="preserve" y="29" clip-path="url(#clipPath5)" stroke="none">another</text>
          <text fill="black" x="188" xml:space="preserve" y="29" clip-path="url(#clipPath5)" stroke="none"> </text>
          <text fill="rgb(192,0,0)" x="191" xml:space="preserve" y="29" clip-path="url(#clipPath5)" stroke="none">cookie?"</text>
        </g>
      </g>
    </g>
    <g id="y.edge.0">
      <g text-rendering="geometricPrecision" stroke-miterlimit="1.45" shape-rendering="geometricPrecision" transform="matrix(1,0,0,1,23,21)" stroke-linecap="butt">
        <path fill="none" d="M50 224.4756 L50 213"/>
        <path d="M50 205 L45 217 L50 214 L55 217 Z" stroke="none"/>
      </g>
    </g>
    <g onmouseout="HideTooltip(evt)" id="y.node.8" onmousemove="ShowTooltip(evt)">
      <g fill="rgb(235,235,184)" text-rendering="geometricPrecision" shape-rendering="geometricPrecision" transform="matrix(1,0,0,1,23,21)" stroke="rgb(235,235,184)">
        <rect x="12" width="256" height="54" y="253" stroke="none"/>
      </g>
      <g>
        <g fill="rgb(238,238,128)" text-rendering="geometricPrecision" shape-rendering="geometricPrecision" transform="matrix(1,0,0,1,23,21)" stroke="rgb(238,238,128)">
          <rect x="12" width="256" height="18.7012" y="253" stroke="none"/>
        </g>
        <g text-rendering="geometricPrecision" stroke-miterlimit="1.45" shape-rendering="geometricPrecision" font-family="sans-serif" transform="matrix(1,0,0,1,23,21)" stroke-linecap="butt">
          <text x="14" xml:space="preserve" y="267.0645" stroke="none">     Declarations</text>
        </g>
      </g>
      <g>
        <g stroke-linecap="butt" transform="matrix(1,0,0,1,23,21) translate(17,274)" fill="blue" text-rendering="geometricPrecision" font-family="sans-serif" shape-rendering="geometricPrecision" stroke="blue" stroke-miterlimit="1.45">
          <text x="0" xml:space="preserve" y="13" clip-path="url(#clipPath6)" stroke="none">disc</text>
          <text fill="black" x="23" xml:space="preserve" y="13" clip-path="url(#clipPath6)" stroke="none"> </text>
          <text x="26" xml:space="preserve" y="13" clip-path="url(#clipPath6)" stroke="none">string</text>
          <text fill="black" x="57" xml:space="preserve" y="13" clip-path="url(#clipPath6)" stroke="none"> </text>
          <text fill="black" x="60" xml:space="preserve" y="13" clip-path="url(#clipPath6)" stroke="none">question</text>
          <text fill="black" x="108" xml:space="preserve" y="13" clip-path="url(#clipPath6)" stroke="none"> </text>
          <text fill="rgb(64,32,32)" x="111" xml:space="preserve" y="13" clip-path="url(#clipPath6)" stroke="none">=</text>
          <text fill="black" x="118" xml:space="preserve" y="13" clip-path="url(#clipPath6)" stroke="none"> </text>
          <text fill="rgb(192,0,0)" x="121" xml:space="preserve" y="13" clip-path="url(#clipPath6)" stroke="none">"Can</text>
          <text fill="black" x="148" xml:space="preserve" y="13" clip-path="url(#clipPath6)" stroke="none"> </text>
          <text fill="rgb(192,0,0)" x="151" xml:space="preserve" y="13" clip-path="url(#clipPath6)" stroke="none">I</text>
          <text fill="black" x="154" xml:space="preserve" y="13" clip-path="url(#clipPath6)" stroke="none"> </text>
          <text fill="rgb(192,0,0)" x="157" xml:space="preserve" y="13" clip-path="url(#clipPath6)" stroke="none">have</text>
          <text fill="black" x="183" xml:space="preserve" y="13" clip-path="url(#clipPath6)" stroke="none"> </text>
          <text fill="rgb(192,0,0)" x="186" xml:space="preserve" y="13" clip-path="url(#clipPath6)" stroke="none">a</text>
          <text fill="black" x="193" xml:space="preserve" y="13" clip-path="url(#clipPath6)" stroke="none"> </text>
          <text fill="rgb(192,0,0)" x="196" xml:space="preserve" y="13" clip-path="url(#clipPath6)" stroke="none">cookie?"</text>
          <text fill="rgb(64,32,32)" x="243" xml:space="preserve" y="13" clip-path="url(#clipPath6)" stroke="none">;</text>
        </g>
      </g>
      <g text-rendering="geometricPrecision" stroke-miterlimit="1.45" shape-rendering="geometricPrecision" transform="matrix(1,0,0,1,23,21)" stroke-linecap="butt">
        <rect fill="none" x="12" width="256" height="54" y="253"/>
      </g>
    </g>
    <g onmouseout="HideTooltip(evt)" id="y.node.3" onmousemove="ShowTooltip(evt)">
      <g fill="rgb(238,238,238)" text-rendering="geometricPrecision" shape-rendering="geometricPrecision" transform="matrix(1,0,0,1,23,21)" stroke="rgb(238,238,238)">
        <rect x="374" width="412" height="272.5" y="-5.5" stroke="none"/>
      </g>
      <g>
        <g fill="red" text-rendering="geometricPrecision" shape-rendering="geometricPrecision" transform="matrix(1,0,0,1,23,21)" stroke="red">
          <rect x="374" width="412" height="20" y="-5.5" stroke="none"/>
        </g>
        <g text-rendering="geometricPrecision" stroke-miterlimit="1.45" shape-rendering="geometricPrecision" font-family="sans-serif" transform="matrix(1,0,0,1,23,21) translate(376,-3)" stroke-linecap="butt">
          <text x="0" xml:space="preserve" y="13" clip-path="url(#clipPath7)" stroke="none">     </text>
          <text fill="blue" x="15" xml:space="preserve" y="13" clip-path="url(#clipPath7)" stroke="none">automaton</text>
          <text x="74" xml:space="preserve" y="13" clip-path="url(#clipPath7)" stroke="none"> </text>
          <text x="77" xml:space="preserve" y="13" clip-path="url(#clipPath7)" stroke="none">Parent</text>
        </g>
      </g>
      <g text-rendering="geometricPrecision" stroke-miterlimit="1.45" shape-rendering="geometricPrecision" transform="matrix(1,0,0,1,23,21)" stroke-linecap="butt">
        <rect fill="none" x="374" width="412" height="272.5" y="-5.5"/>
      </g>
    </g>
    <g onmouseout="HideTooltip(evt)" id="y.node.4" onmousemove="ShowTooltip(evt)">
      <g fill="rgb(204,204,255)" text-rendering="geometricPrecision" shape-rendering="geometricPrecision" transform="matrix(1,0,0,1,23,21)" stroke="rgb(204,204,255)">
        <rect x="390" y="195" width="60" rx="4" ry="4" height="30" stroke="none"/>
      </g>
      <g/>
      <g text-rendering="geometricPrecision" stroke-miterlimit="1.45" shape-rendering="geometricPrecision" transform="matrix(1,0,0,1,23,21)" stroke-linecap="butt">
        <rect x="390" y="195" fill="none" width="60" rx="4" ry="4" height="30"/>
      </g>
    </g>
    <g onmouseout="HideTooltip(evt)" id="y.node.5" onmousemove="ShowTooltip(evt)">
      <g/>
    </g>
    <g id="y.edge.4">
      <g text-rendering="geometricPrecision" stroke-miterlimit="1.45" shape-rendering="geometricPrecision" transform="matrix(1,0,0,1,23,21)" stroke-linecap="butt">
        <path fill="none" d="M430 194.9561 L430 160 L430.625 155.625 L432.5 152.5 L435.625 150.625 L440 150 L600 150 L604.375 150.625 L607.5 152.5 L609.375 155.625 L610 160 L610 190 L609.375 194.375 L607.5 197.5 L604.375 199.375 L600 200 L458 200"/>
        <path d="M450 200 L462 205 L459 200 L462 195 Z" stroke="none"/>
      </g>
      <g>
        <g stroke-linecap="butt" transform="matrix(1,0,0,1,23,21)" fill="rgb(238,238,238)" text-rendering="geometricPrecision" shape-rendering="geometricPrecision" stroke="rgb(238,238,238)" stroke-miterlimit="1.45">
          <rect x="432" width="148" height="36" y="149.9375" stroke="none"/>
        </g>
        <g stroke-linecap="butt" transform="matrix(1,0,0,1,23,21) translate(434,151)" fill="blue" text-rendering="geometricPrecision" font-family="sans-serif" shape-rendering="geometricPrecision" stroke="blue" stroke-miterlimit="1.45">
          <text x="0" xml:space="preserve" y="13" clip-path="url(#clipPath8)" stroke="none">ask</text>
          <text fill="black" x="20" xml:space="preserve" y="13" clip-path="url(#clipPath8)" stroke="none"> </text>
          <text x="0" xml:space="preserve" y="29" clip-path="url(#clipPath8)" stroke="none">do</text>
          <text fill="black" x="14" xml:space="preserve" y="29" clip-path="url(#clipPath8)" stroke="none"> </text>
          <text fill="black" x="17" xml:space="preserve" y="29" clip-path="url(#clipPath8)" stroke="none">patience</text>
          <text fill="black" x="64" xml:space="preserve" y="29" clip-path="url(#clipPath8)" stroke="none"> </text>
          <text fill="rgb(64,32,32)" x="67" xml:space="preserve" y="29" clip-path="url(#clipPath8)" stroke="none">:=</text>
          <text fill="black" x="77" xml:space="preserve" y="29" clip-path="url(#clipPath8)" stroke="none"> </text>
          <text fill="black" x="80" xml:space="preserve" y="29" clip-path="url(#clipPath8)" stroke="none">patience</text>
          <text fill="black" x="127" xml:space="preserve" y="29" clip-path="url(#clipPath8)" stroke="none"> </text>
          <text fill="rgb(64,32,32)" x="130" xml:space="preserve" y="29" clip-path="url(#clipPath8)" stroke="none">-</text>
          <text fill="black" x="134" xml:space="preserve" y="29" clip-path="url(#clipPath8)" stroke="none"> </text>
          <text fill="rgb(0,97,0)" x="137" xml:space="preserve" y="29" clip-path="url(#clipPath8)" stroke="none">1</text>
        </g>
      </g>
    </g>
    <g id="y.edge.5">
      <g text-rendering="geometricPrecision" stroke-miterlimit="1.45" shape-rendering="geometricPrecision" transform="matrix(1,0,0,1,23,21)" stroke-linecap="butt">
        <path fill="none" d="M420 194.9744 L420 100 L420.625 95.625 L422.5 92.5 L425.625 90.625 L430 90 L610 90 L614.375 90.625 L617.5 92.5 L619.375 95.625 L620 100 L620 200 L619.375 204.375 L617.5 207.5 L614.375 209.375 L610 210 L458 210"/>
        <path d="M450 210 L462 215 L459 210 L462 205 Z" stroke="none"/>
      </g>
      <g>
        <g stroke-linecap="butt" transform="matrix(1,0,0,1,23,21)" fill="rgb(238,238,238)" text-rendering="geometricPrecision" shape-rendering="geometricPrecision" stroke="rgb(238,238,238)" stroke-miterlimit="1.45">
          <rect x="444.5" width="151" height="52" y="36" stroke="none"/>
        </g>
        <g stroke-linecap="butt" transform="matrix(1,0,0,1,23,21) translate(446,38)" fill="blue" text-rendering="geometricPrecision" font-family="sans-serif" shape-rendering="geometricPrecision" stroke="blue" stroke-miterlimit="1.45">
          <text x="0" xml:space="preserve" y="13" clip-path="url(#clipPath9)" stroke="none">give</text>
          <text fill="black" x="22" xml:space="preserve" y="13" clip-path="url(#clipPath9)" stroke="none"> </text>
          <text x="0" xml:space="preserve" y="29" clip-path="url(#clipPath9)" stroke="none">when</text>
          <text fill="black" x="30" xml:space="preserve" y="29" clip-path="url(#clipPath9)" stroke="none"> </text>
          <text fill="black" x="33" xml:space="preserve" y="29" clip-path="url(#clipPath9)" stroke="none">patience</text>
          <text fill="black" x="80" xml:space="preserve" y="29" clip-path="url(#clipPath9)" stroke="none"> </text>
          <text fill="rgb(64,32,32)" x="83" xml:space="preserve" y="29" clip-path="url(#clipPath9)" stroke="none">&lt;=</text>
          <text fill="black" x="97" xml:space="preserve" y="29" clip-path="url(#clipPath9)" stroke="none"> </text>
          <text fill="rgb(0,97,0)" x="100" xml:space="preserve" y="29" clip-path="url(#clipPath9)" stroke="none">0</text>
          <text fill="black" x="107" xml:space="preserve" y="29" clip-path="url(#clipPath9)" stroke="none"> </text>
          <text x="0" xml:space="preserve" y="45" clip-path="url(#clipPath9)" stroke="none">do</text>
          <text fill="black" x="14" xml:space="preserve" y="45" clip-path="url(#clipPath9)" stroke="none"> </text>
          <text fill="black" x="17" xml:space="preserve" y="45" clip-path="url(#clipPath9)" stroke="none">patience</text>
          <text fill="black" x="64" xml:space="preserve" y="45" clip-path="url(#clipPath9)" stroke="none"> </text>
          <text fill="rgb(64,32,32)" x="67" xml:space="preserve" y="45" clip-path="url(#clipPath9)" stroke="none">:=</text>
          <text fill="black" x="77" xml:space="preserve" y="45" clip-path="url(#clipPath9)" stroke="none"> </text>
          <text fill="black" x="80" xml:space="preserve" y="45" clip-path="url(#clipPath9)" stroke="none">patience</text>
          <text fill="black" x="127" xml:space="preserve" y="45" clip-path="url(#clipPath9)" stroke="none"> </text>
          <text fill="rgb(64,32,32)" x="130" xml:space="preserve" y="45" clip-path="url(#clipPath9)" stroke="none">+</text>
          <text fill="black" x="137" xml:space="preserve" y="45" clip-path="url(#clipPath9)" stroke="none"> </text>
          <text fill="rgb(0,97,0)" x="140" xml:space="preserve" y="45" clip-path="url(#clipPath9)" stroke="none">5</text>
        </g>
      </g>
    </g>
    <g id="y.edge.3">
      <g text-rendering="geometricPrecision" stroke-miterlimit="1.45" shape-rendering="geometricPrecision" transform="matrix(1,0,0,1,23,21)" stroke-linecap="butt">
        <path fill="none" d="M420 244.4756 L420 233"/>
        <path d="M420 225 L415 237 L420 234 L425 237 Z" stroke="none"/>
      </g>
    </g>
    <g onmouseout="HideTooltip(evt)" id="y.node.7" onmousemove="ShowTooltip(evt)">
      <g fill="rgb(235,235,184)" text-rendering="geometricPrecision" shape-rendering="geometricPrecision" transform="matrix(1,0,0,1,23,21)" stroke="rgb(235,235,184)">
        <rect x="649" width="122" height="54" y="33" stroke="none"/>
      </g>
      <g>
        <g fill="rgb(238,238,128)" text-rendering="geometricPrecision" shape-rendering="geometricPrecision" transform="matrix(1,0,0,1,23,21)" stroke="rgb(238,238,128)">
          <rect x="649" width="122" height="18.7012" y="33" stroke="none"/>
        </g>
        <g text-rendering="geometricPrecision" stroke-miterlimit="1.45" shape-rendering="geometricPrecision" font-family="sans-serif" transform="matrix(1,0,0,1,23,21)" stroke-linecap="butt">
          <text x="651" xml:space="preserve" y="47.0645" stroke="none">     Declarations</text>
        </g>
      </g>
      <g>
        <g stroke-linecap="butt" transform="matrix(1,0,0,1,23,21) translate(654,54)" fill="blue" text-rendering="geometricPrecision" font-family="sans-serif" shape-rendering="geometricPrecision" stroke="blue" stroke-miterlimit="1.45">
          <text x="0" xml:space="preserve" y="13" clip-path="url(#clipPath10)" stroke="none">disc</text>
          <text fill="black" x="23" xml:space="preserve" y="13" clip-path="url(#clipPath10)" stroke="none"> </text>
          <text x="26" xml:space="preserve" y="13" clip-path="url(#clipPath10)" stroke="none">int</text>
          <text fill="black" x="39" xml:space="preserve" y="13" clip-path="url(#clipPath10)" stroke="none"> </text>
          <text fill="black" x="42" xml:space="preserve" y="13" clip-path="url(#clipPath10)" stroke="none">patience</text>
          <text fill="black" x="89" xml:space="preserve" y="13" clip-path="url(#clipPath10)" stroke="none"> </text>
          <text fill="rgb(64,32,32)" x="92" xml:space="preserve" y="13" clip-path="url(#clipPath10)" stroke="none">=</text>
          <text fill="black" x="99" xml:space="preserve" y="13" clip-path="url(#clipPath10)" stroke="none"> </text>
          <text fill="rgb(0,97,0)" x="102" xml:space="preserve" y="13" clip-path="url(#clipPath10)" stroke="none">3</text>
          <text fill="rgb(64,32,32)" x="109" xml:space="preserve" y="13" clip-path="url(#clipPath10)" stroke="none">;</text>
        </g>
      </g>
      <g text-rendering="geometricPrecision" stroke-miterlimit="1.45" shape-rendering="geometricPrecision" transform="matrix(1,0,0,1,23,21)" stroke-linecap="butt">
        <rect fill="none" x="649" width="122" height="54" y="33"/>
      </g>
    </g>
    <g onmouseout="HideTooltip(evt)" id="y.node.6" onmousemove="ShowTooltip(evt)">
      <g fill="rgb(255,255,204)" text-rendering="geometricPrecision" shape-rendering="geometricPrecision" transform="matrix(1,0,0,1,23,21)" stroke="rgb(255,255,204)">
        <rect x="-7.5" width="95" height="66.1875" y="346.9062" stroke="none"/>
      </g>
      <g>
        <g fill="rgb(238,238,128)" text-rendering="geometricPrecision" shape-rendering="geometricPrecision" transform="matrix(1,0,0,1,23,21)" stroke="rgb(238,238,128)">
          <rect x="-7.5" width="95" height="18.7012" y="346.9062" stroke="none"/>
        </g>
        <g text-rendering="geometricPrecision" stroke-miterlimit="1.45" shape-rendering="geometricPrecision" font-family="sans-serif" transform="matrix(1,0,0,1,23,21)" stroke-linecap="butt">
          <text x="-5.5" xml:space="preserve" y="360.9707" stroke="none">     Declarations</text>
        </g>
      </g>
      <g>
        <g stroke-linecap="butt" transform="matrix(1,0,0,1,23,21) translate(11,367)" fill="blue" text-rendering="geometricPrecision" font-family="sans-serif" shape-rendering="geometricPrecision" stroke="blue" stroke-miterlimit="1.45">
          <text x="0" xml:space="preserve" y="13" clip-path="url(#clipPath11)" stroke="none">event</text>
          <text fill="black" x="29" xml:space="preserve" y="13" clip-path="url(#clipPath11)" stroke="none"> </text>
          <text x="32" xml:space="preserve" y="13" clip-path="url(#clipPath11)" stroke="none">ask</text>
          <text fill="rgb(64,32,32)" x="52" xml:space="preserve" y="13" clip-path="url(#clipPath11)" stroke="none">;</text>
          <text fill="black" x="55" xml:space="preserve" y="13" clip-path="url(#clipPath11)" stroke="none"> </text>
          <text x="0" xml:space="preserve" y="29" clip-path="url(#clipPath11)" stroke="none">event</text>
          <text fill="black" x="29" xml:space="preserve" y="29" clip-path="url(#clipPath11)" stroke="none"> </text>
          <text x="32" xml:space="preserve" y="29" clip-path="url(#clipPath11)" stroke="none">give</text>
          <text fill="rgb(64,32,32)" x="54" xml:space="preserve" y="29" clip-path="url(#clipPath11)" stroke="none">;</text>
        </g>
      </g>
      <g text-rendering="geometricPrecision" stroke-miterlimit="1.45" shape-rendering="geometricPrecision" transform="matrix(1,0,0,1,23,21)" stroke-linecap="butt">
        <rect fill="none" x="-7.5" width="95" height="66.1875" y="346.9062"/>
      </g>
    </g>
    <g visibility="hidden" id="tooltip.y.node.0" pointer-events="none">
      <g fill="rgb(255,255,225)" text-rendering="geometricPrecision" shape-rendering="geometricPrecision" font-family="'Segoe UI'" stroke="rgb(255,255,225)">
        <rect x="0" width="98" height="18" y="0" clip-path="url(#clipPath12)" stroke="none"/>
        <text fill="black" x="4" xml:space="preserve" y="14" clip-path="url(#clipPath12)" stroke="none">automaton Child</text>
      </g>
      <g font-family="'Segoe UI'" text-rendering="geometricPrecision" shape-rendering="geometricPrecision">
        <path d="M0 0 L98 0 L98 18 L0 18 L0 0 ZM1 1 L97 1 L97 17 L1 17 L1 1 Z" fill-rule="evenodd" clip-path="url(#clipPath12)" stroke="none"/>
      </g>
    </g>
    <g visibility="hidden" id="tooltip.y.node.1" pointer-events="none">
      <g fill="rgb(255,255,225)" text-rendering="geometricPrecision" shape-rendering="geometricPrecision" font-family="'Segoe UI'" stroke="rgb(255,255,225)">
        <rect x="0" width="51" height="18" y="0" clip-path="url(#clipPath13)" stroke="none"/>
        <text fill="black" x="4" xml:space="preserve" y="14" clip-path="url(#clipPath13)" stroke="none">location</text>
      </g>
      <g font-family="'Segoe UI'" text-rendering="geometricPrecision" shape-rendering="geometricPrecision">
        <path d="M0 0 L51 0 L51 18 L0 18 L0 0 ZM1 1 L50 1 L50 17 L1 17 L1 1 Z" fill-rule="evenodd" clip-path="url(#clipPath13)" stroke="none"/>
      </g>
    </g>
    <g visibility="hidden" id="tooltip.y.node.2" pointer-events="none">
      <g fill="rgb(255,255,225)" text-rendering="geometricPrecision" shape-rendering="geometricPrecision" font-family="'Segoe UI'" stroke="rgb(255,255,225)">
        <rect x="0" width="8" height="18" y="0" clip-path="url(#clipPath14)" stroke="none"/>
      </g>
      <g font-family="'Segoe UI'" text-rendering="geometricPrecision" shape-rendering="geometricPrecision">
        <path d="M0 0 L8 0 L8 18 L0 18 L0 0 ZM1 1 L7 1 L7 17 L1 17 L1 1 Z" fill-rule="evenodd" clip-path="url(#clipPath14)" stroke="none"/>
      </g>
    </g>
    <g visibility="hidden" id="tooltip.y.node.3" pointer-events="none">
      <g fill="rgb(255,255,225)" text-rendering="geometricPrecision" shape-rendering="geometricPrecision" font-family="'Segoe UI'" stroke="rgb(255,255,225)">
        <rect x="0" width="104" height="18" y="0" clip-path="url(#clipPath15)" stroke="none"/>
        <text fill="black" x="4" xml:space="preserve" y="14" clip-path="url(#clipPath15)" stroke="none">automaton Parent</text>
      </g>
      <g font-family="'Segoe UI'" text-rendering="geometricPrecision" shape-rendering="geometricPrecision">
        <path d="M0 0 L104 0 L104 18 L0 18 L0 0 ZM1 1 L103 1 L103 17 L1 17 L1 1 Z" fill-rule="evenodd" clip-path="url(#clipPath15)" stroke="none"/>
      </g>
    </g>
    <g visibility="hidden" id="tooltip.y.node.4" pointer-events="none">
      <g fill="rgb(255,255,225)" text-rendering="geometricPrecision" shape-rendering="geometricPrecision" font-family="'Segoe UI'" stroke="rgb(255,255,225)">
        <rect x="0" width="51" height="18" y="0" clip-path="url(#clipPath13)" stroke="none"/>
        <text fill="black" x="4" xml:space="preserve" y="14" clip-path="url(#clipPath13)" stroke="none">location</text>
      </g>
      <g font-family="'Segoe UI'" text-rendering="geometricPrecision" shape-rendering="geometricPrecision">
        <path d="M0 0 L51 0 L51 18 L0 18 L0 0 ZM1 1 L50 1 L50 17 L1 17 L1 1 Z" fill-rule="evenodd" clip-path="url(#clipPath13)" stroke="none"/>
      </g>
    </g>
    <g visibility="hidden" id="tooltip.y.node.5" pointer-events="none">
      <g fill="rgb(255,255,225)" text-rendering="geometricPrecision" shape-rendering="geometricPrecision" font-family="'Segoe UI'" stroke="rgb(255,255,225)">
        <rect x="0" width="8" height="18" y="0" clip-path="url(#clipPath14)" stroke="none"/>
      </g>
      <g font-family="'Segoe UI'" text-rendering="geometricPrecision" shape-rendering="geometricPrecision">
        <path d="M0 0 L8 0 L8 18 L0 18 L0 0 ZM1 1 L7 1 L7 17 L1 17 L1 1 Z" fill-rule="evenodd" clip-path="url(#clipPath14)" stroke="none"/>
      </g>
    </g>
    <g visibility="hidden" id="tooltip.y.node.6" pointer-events="none">
      <g fill="rgb(255,255,225)" text-rendering="geometricPrecision" shape-rendering="geometricPrecision" font-family="'Segoe UI'" stroke="rgb(255,255,225)">
        <rect x="0" width="73" height="18" y="0" clip-path="url(#clipPath16)" stroke="none"/>
        <text fill="black" x="4" xml:space="preserve" y="14" clip-path="url(#clipPath16)" stroke="none">Declarations</text>
      </g>
      <g font-family="'Segoe UI'" text-rendering="geometricPrecision" shape-rendering="geometricPrecision">
        <path d="M0 0 L73 0 L73 18 L0 18 L0 0 ZM1 1 L72 1 L72 17 L1 17 L1 1 Z" fill-rule="evenodd" clip-path="url(#clipPath16)" stroke="none"/>
      </g>
    </g>
    <g visibility="hidden" id="tooltip.y.node.7" pointer-events="none">
      <g fill="rgb(255,255,225)" text-rendering="geometricPrecision" shape-rendering="geometricPrecision" font-family="'Segoe UI'" stroke="rgb(255,255,225)">
        <rect x="0" width="73" height="18" y="0" clip-path="url(#clipPath16)" stroke="none"/>
        <text fill="black" x="4" xml:space="preserve" y="14" clip-path="url(#clipPath16)" stroke="none">Declarations</text>
      </g>
      <g font-family="'Segoe UI'" text-rendering="geometricPrecision" shape-rendering="geometricPrecision">
        <path d="M0 0 L73 0 L73 18 L0 18 L0 0 ZM1 1 L72 1 L72 17 L1 17 L1 1 Z" fill-rule="evenodd" clip-path="url(#clipPath16)" stroke="none"/>
      </g>
    </g>
    <g visibility="hidden" id="tooltip.y.node.8" pointer-events="none">
      <g fill="rgb(255,255,225)" text-rendering="geometricPrecision" shape-rendering="geometricPrecision" font-family="'Segoe UI'" stroke="rgb(255,255,225)">
        <rect x="0" width="73" height="18" y="0" clip-path="url(#clipPath16)" stroke="none"/>
        <text fill="black" x="4" xml:space="preserve" y="14" clip-path="url(#clipPath16)" stroke="none">Declarations</text>
      </g>
      <g font-family="'Segoe UI'" text-rendering="geometricPrecision" shape-rendering="geometricPrecision">
        <path d="M0 0 L73 0 L73 18 L0 18 L0 0 ZM1 1 L72 1 L72 17 L1 17 L1 1 Z" fill-rule="evenodd" clip-path="url(#clipPath16)" stroke="none"/>
      </g>
    </g>
  </g>
</svg>
