<?xml version="1.0" encoding="UTF-8"?><svg xmlns="http://www.w3.org/2000/svg" xmlns:xlink="http://www.w3.org/1999/xlink" fill-opacity="1" color-rendering="auto" color-interpolation="auto" text-rendering="auto" stroke="black" stroke-linecap="square" width="602" stroke-miterlimit="10" shape-rendering="auto" stroke-opacity="1" fill="black" stroke-dasharray="none" font-weight="normal" stroke-width="1" height="334" font-family="'Dialog'" font-style="normal" stroke-linejoin="miter" font-size="12px" stroke-dashoffset="0" image-rendering="auto">
  <!--Generated by ySVG 2.5-->
  <defs id="genericDefs"/>
  <g>
    <defs id="defs1">
      <clipPath clipPathUnits="userSpaceOnUse" id="clipPath1">
        <path d="M0 0 L602 0 L602 334 L0 334 L0 0 Z"/>
      </clipPath>
      <clipPath clipPathUnits="userSpaceOnUse" id="clipPath2">
        <path d="M-76 -31 L526 -31 L526 303 L-76 303 L-76 -31 Z"/>
      </clipPath>
      <clipPath clipPathUnits="userSpaceOnUse" id="clipPath3">
        <path d="M0 0 L555 0 L555 15 L0 15 L0 0 Z"/>
      </clipPath>
      <clipPath clipPathUnits="userSpaceOnUse" id="clipPath4">
        <path d="M0 0 L100 0 L100 45 L0 45 L0 0 Z"/>
      </clipPath>
      <clipPath clipPathUnits="userSpaceOnUse" id="clipPath5">
        <path d="M0 0 L30 0 L30 15 L0 15 L0 0 Z"/>
      </clipPath>
      <clipPath clipPathUnits="userSpaceOnUse" id="clipPath6">
        <path d="M0 0 L70 0 L70 15 L0 15 L0 0 Z"/>
      </clipPath>
      <clipPath clipPathUnits="userSpaceOnUse" id="clipPath7">
        <path d="M0 0 L72 0 L72 15 L0 15 L0 0 Z"/>
      </clipPath>
      <clipPath clipPathUnits="userSpaceOnUse" id="clipPath8">
        <path d="M0 0 L25 0 L25 15 L0 15 L0 0 Z"/>
      </clipPath>
      <clipPath clipPathUnits="userSpaceOnUse" id="clipPath9">
        <path d="M0 0 L61 0 L61 15 L0 15 L0 0 Z"/>
      </clipPath>
      <clipPath clipPathUnits="userSpaceOnUse" id="clipPath10">
        <path d="M0 0 L59 0 L59 15 L0 15 L0 0 Z"/>
      </clipPath>
      <clipPath clipPathUnits="userSpaceOnUse" id="clipPath11">
        <path d="M0 0 L0 18 L84 18 L84 0 Z"/>
      </clipPath>
      <clipPath clipPathUnits="userSpaceOnUse" id="clipPath12">
        <path d="M0 0 L0 18 L73 18 L73 0 Z"/>
      </clipPath>
      <clipPath clipPathUnits="userSpaceOnUse" id="clipPath13">
        <path d="M0 0 L0 18 L80 18 L80 0 Z"/>
      </clipPath>
      <clipPath clipPathUnits="userSpaceOnUse" id="clipPath14">
        <path d="M0 0 L0 19 L6 19 L6 0 Z"/>
      </clipPath>
      <clipPath clipPathUnits="userSpaceOnUse" id="clipPath15">
        <path d="M0 0 L0 18 L119 18 L119 0 Z"/>
      </clipPath>
      <script type="text/ecmascript">
        <![CDATA[      var SVGDocument = null;
      var SVGRoot = null;
      var TrueCoords = null;
      var lastElement = null;
      var initialized = null;
      var tipGroup;
      function Init(evt)
      {
         SVGDocument = evt.target.ownerDocument;
         SVGRoot = SVGDocument.documentElement;
         TrueCoords = SVGRoot.createSVGPoint();
         initialized = evt;
      };
      function GetTrueCoords(evt)
      {
         var newScale = SVGRoot.currentScale;
         var translation = SVGRoot.currentTranslate;
         TrueCoords.x = (evt.clientX - translation.x)/newScale;
         TrueCoords.y = (evt.clientY - translation.y)/newScale;
      };
      function HideTooltip( evt )
      {
         if(initialized == null) {
           Init(evt);
         }
         if(tipGroup != null) {
           tipGroup.setAttributeNS(null, 'visibility', 'hidden');
         }
      };
      function ShowTooltip( evt )
      {
         if(initialized == null) {
           Init(evt);
         }
         GetTrueCoords( evt );
         var tipScale = 1/SVGRoot.currentScale;
         var targetElement = evt.currentTarget;
         if ( lastElement != targetElement )
         {
            var targetId = targetElement.getAttributeNS(null, 'id');
            var tipId = 'tooltip.' + targetId;
            tipGroup = SVGDocument.getElementById(tipId);
            var xPos = TrueCoords.x + (10 * tipScale);
            var yPos = TrueCoords.y + (10 * tipScale);
            tipGroup.setAttributeNS(null, 'transform', 'translate(' + xPos + ',' + yPos + ') scale(' + tipScale + ')');
            tipGroup.setAttributeNS(null, 'visibility', 'visible');
         }
      };
]]>
      </script>
    </defs>
    <g fill="white" text-rendering="geometricPrecision" shape-rendering="geometricPrecision" transform="translate(76,31)" stroke="white">
      <rect x="-76" width="602" height="334" y="-31" clip-path="url(#clipPath2)" stroke="none"/>
    </g>
    <g onmouseout="HideTooltip(evt)" id="y.node.0" onmousemove="ShowTooltip(evt)">
      <g fill="rgb(238,238,238)" text-rendering="geometricPrecision" shape-rendering="geometricPrecision" transform="matrix(1,0,0,1,76,31)" stroke="rgb(238,238,238)">
        <rect x="-49" width="559.5" height="303.5" y="-16" stroke="none"/>
      </g>
      <g>
        <g fill="red" text-rendering="geometricPrecision" shape-rendering="geometricPrecision" transform="matrix(1,0,0,1,76,31)" stroke="red">
          <rect x="-49" width="559.5" height="19" y="-16" stroke="none"/>
        </g>
        <g text-rendering="geometricPrecision" stroke-miterlimit="1.45" shape-rendering="geometricPrecision" font-family="sans-serif" transform="matrix(1,0,0,1,76,31) translate(-47,-14)" stroke-linecap="butt">
          <text x="0" xml:space="preserve" y="12" clip-path="url(#clipPath3)" stroke="none">     </text>
          <text fill="blue" x="20" xml:space="preserve" y="12" clip-path="url(#clipPath3)" stroke="none">automaton</text>
          <text x="81" xml:space="preserve" y="12" clip-path="url(#clipPath3)" stroke="none"> </text>
          <text x="85" xml:space="preserve" y="12" clip-path="url(#clipPath3)" stroke="none">car</text>
        </g>
      </g>
      <g text-rendering="geometricPrecision" stroke-miterlimit="1.45" shape-rendering="geometricPrecision" transform="matrix(1,0,0,1,76,31)" stroke-linecap="butt">
        <rect fill="none" x="-49" width="559.5" height="303.5" y="-16"/>
      </g>
    </g>
    <g onmouseout="HideTooltip(evt)" id="y.node.1" onmousemove="ShowTooltip(evt)">
      <g fill="rgb(235,235,184)" text-rendering="geometricPrecision" shape-rendering="geometricPrecision" transform="matrix(1,0,0,1,76,31)" stroke="rgb(235,235,184)">
        <rect x="388.5" width="103" height="82.2812" y="38.8594" stroke="none"/>
      </g>
      <g>
        <g fill="rgb(238,238,128)" text-rendering="geometricPrecision" shape-rendering="geometricPrecision" transform="matrix(1,0,0,1,76,31)" stroke="rgb(238,238,128)">
          <rect x="388.5" width="103" height="18.1328" y="38.8594" stroke="none"/>
        </g>
        <g text-rendering="geometricPrecision" stroke-miterlimit="1.45" shape-rendering="geometricPrecision" font-family="sans-serif" transform="matrix(1,0,0,1,76,31)" stroke-linecap="butt">
          <text x="390.5" xml:space="preserve" y="52.4609" stroke="none">     Declarations</text>
        </g>
      </g>
      <g>
        <g stroke-linecap="butt" transform="matrix(1,0,0,1,76,31) translate(390,59)" fill="blue" text-rendering="geometricPrecision" font-family="sans-serif" shape-rendering="geometricPrecision" stroke="blue" stroke-miterlimit="1.45">
          <text x="0" xml:space="preserve" y="12" clip-path="url(#clipPath4)" stroke="none">event</text>
          <text fill="black" x="31" xml:space="preserve" y="12" clip-path="url(#clipPath4)" stroke="none"> </text>
          <text fill="black" x="35" xml:space="preserve" y="12" clip-path="url(#clipPath4)" stroke="none">accelerate</text>
          <text fill="rgb(64,32,32)" x="94" xml:space="preserve" y="12" clip-path="url(#clipPath4)" stroke="none">;</text>
          <text fill="black" x="98" xml:space="preserve" y="12" clip-path="url(#clipPath4)" stroke="none"> </text>
          <text x="0" xml:space="preserve" y="27" clip-path="url(#clipPath4)" stroke="none">event</text>
          <text fill="black" x="31" xml:space="preserve" y="27" clip-path="url(#clipPath4)" stroke="none"> </text>
          <text fill="black" x="35" xml:space="preserve" y="27" clip-path="url(#clipPath4)" stroke="none">decelerate</text>
          <text fill="rgb(64,32,32)" x="96" xml:space="preserve" y="27" clip-path="url(#clipPath4)" stroke="none">;</text>
          <text fill="black" x="100" xml:space="preserve" y="27" clip-path="url(#clipPath4)" stroke="none"> </text>
          <text x="0" xml:space="preserve" y="42" clip-path="url(#clipPath4)" stroke="none">event</text>
          <text fill="black" x="31" xml:space="preserve" y="42" clip-path="url(#clipPath4)" stroke="none"> </text>
          <text fill="black" x="35" xml:space="preserve" y="42" clip-path="url(#clipPath4)" stroke="none">hold</text>
          <text fill="rgb(64,32,32)" x="60" xml:space="preserve" y="42" clip-path="url(#clipPath4)" stroke="none">;</text>
        </g>
      </g>
      <g text-rendering="geometricPrecision" stroke-miterlimit="1.45" shape-rendering="geometricPrecision" transform="matrix(1,0,0,1,76,31)" stroke-linecap="butt">
        <rect fill="none" x="388.5" width="103" height="82.2812" y="38.8594"/>
      </g>
    </g>
    <g onmouseout="HideTooltip(evt)" id="y.node.2" onmousemove="ShowTooltip(evt)">
      <g fill="rgb(204,204,255)" text-rendering="geometricPrecision" shape-rendering="geometricPrecision" transform="matrix(1,0,0,1,76,31)" stroke="rgb(204,204,255)">
        <rect x="6" y="115" width="68" rx="4" ry="4" height="50" stroke="none"/>
      </g>
      <g>
        <g text-rendering="geometricPrecision" stroke-miterlimit="1.45" shape-rendering="geometricPrecision" font-family="sans-serif" transform="matrix(1,0,0,1,76,31) translate(25,132)" stroke-linecap="butt">
          <text x="0" xml:space="preserve" y="12" clip-path="url(#clipPath5)" stroke="none">Drive</text>
        </g>
      </g>
      <g text-rendering="geometricPrecision" stroke-miterlimit="1.45" shape-rendering="geometricPrecision" transform="matrix(1,0,0,1,76,31)" stroke-linecap="butt">
        <rect x="6" y="115" fill="none" width="68" rx="4" ry="4" height="50"/>
      </g>
    </g>
    <g onmouseout="HideTooltip(evt)" id="y.node.3" onmousemove="ShowTooltip(evt)">
      <g/>
    </g>
    <g onmouseout="HideTooltip(evt)" id="y.node.4" onmousemove="ShowTooltip(evt)">
      <g fill="rgb(204,204,255)" text-rendering="geometricPrecision" shape-rendering="geometricPrecision" transform="matrix(1,0,0,1,76,31)" stroke="rgb(204,204,255)">
        <rect x="256.5" y="195" width="107" rx="4" ry="4" height="50" stroke="none"/>
      </g>
      <g>
        <g text-rendering="geometricPrecision" stroke-miterlimit="1.45" shape-rendering="geometricPrecision" font-family="sans-serif" transform="matrix(1,0,0,1,76,31) translate(275,212)" stroke-linecap="butt">
          <text x="0" xml:space="preserve" y="12" clip-path="url(#clipPath6)" stroke="none">Accelerating</text>
        </g>
      </g>
      <g text-rendering="geometricPrecision" stroke-miterlimit="1.45" shape-rendering="geometricPrecision" transform="matrix(1,0,0,1,76,31)" stroke-linecap="butt">
        <rect x="256.5" y="195" fill="none" width="107" rx="4" ry="4" height="50"/>
      </g>
    </g>
    <g onmouseout="HideTooltip(evt)" id="y.node.5" onmousemove="ShowTooltip(evt)">
      <g fill="rgb(204,204,255)" text-rendering="geometricPrecision" shape-rendering="geometricPrecision" transform="matrix(1,0,0,1,76,31)" stroke="rgb(204,204,255)">
        <rect x="255" y="20" width="110" rx="4" ry="4" height="50" stroke="none"/>
      </g>
      <g>
        <g text-rendering="geometricPrecision" stroke-miterlimit="1.45" shape-rendering="geometricPrecision" font-family="sans-serif" transform="matrix(1,0,0,1,76,31) translate(274,37)" stroke-linecap="butt">
          <text x="0" xml:space="preserve" y="12" clip-path="url(#clipPath7)" stroke="none">Decelerating</text>
        </g>
      </g>
      <g text-rendering="geometricPrecision" stroke-miterlimit="1.45" shape-rendering="geometricPrecision" transform="matrix(1,0,0,1,76,31)" stroke-linecap="butt">
        <rect x="255" y="20" fill="none" width="110" rx="4" ry="4" height="50"/>
      </g>
    </g>
    <g id="y.edge.1"/>
    <g id="y.edge.0">
      <g text-rendering="geometricPrecision" stroke-miterlimit="1.45" shape-rendering="geometricPrecision" transform="matrix(1,0,0,1,76,31)" stroke-linecap="butt">
        <path fill="none" d="M-23.328 142.2351 L-1.9782 141.4816"/>
        <path d="M6.0168 141.1994 L-6.1521 136.6258 L-2.9776 141.5169 L-5.7993 146.6196 Z" stroke="none"/>
      </g>
    </g>
    <g id="y.edge.8">
      <g text-rendering="geometricPrecision" stroke-miterlimit="1.45" shape-rendering="geometricPrecision" transform="matrix(1,0,0,1,76,31)" stroke-linecap="butt">
        <path fill="none" d="M40 164.9609 L40 220 L248.5076 220"/>
        <path d="M256.5076 220 L244.5076 215 L247.5076 220 L244.5076 225 Z" stroke="none"/>
      </g>
      <g>
        <g text-rendering="geometricPrecision" stroke-miterlimit="1.45" shape-rendering="geometricPrecision" font-family="sans-serif" transform="matrix(1,0,0,1,76,31)" stroke-linecap="butt">
          <text x="43" xml:space="preserve" y="214.4688" stroke="none">accelerate</text>
        </g>
      </g>
    </g>
    <g id="y.edge.3">
      <g text-rendering="geometricPrecision" stroke-miterlimit="1.45" shape-rendering="geometricPrecision" transform="matrix(1,0,0,1,76,31)" stroke-linecap="butt">
        <path fill="none" d="M256.5076 204.1504 L81.6847 152.351"/>
        <path d="M74.0143 150.0783 L84.0994 158.2814 L82.6435 152.6351 L86.9403 148.6934 Z" stroke="none"/>
      </g>
      <g>
        <g stroke-linecap="butt" transform="matrix(1,0,0,1,76,31)" fill="rgb(238,238,238)" text-rendering="geometricPrecision" shape-rendering="geometricPrecision" stroke="rgb(238,238,238)" stroke-miterlimit="1.45">
          <rect x="84.125" width="29" height="19" y="163.6667" stroke="none"/>
        </g>
        <g text-rendering="geometricPrecision" stroke-miterlimit="1.45" shape-rendering="geometricPrecision" font-family="sans-serif" transform="matrix(1,0,0,1,76,31) translate(86,165)" stroke-linecap="butt">
          <text x="0" xml:space="preserve" y="12" clip-path="url(#clipPath8)" stroke="none">hold</text>
        </g>
      </g>
    </g>
    <g id="y.edge.7"/>
    <g id="y.edge.2">
      <g text-rendering="geometricPrecision" stroke-miterlimit="1.45" shape-rendering="geometricPrecision" transform="matrix(1,0,0,1,76,31)" stroke-linecap="butt">
        <path fill="none" d="M40 114.9976 L40 55 L40.625 50.625 L42.5 47.5 L45.625 45.625 L50 45 L246.9915 45"/>
        <path d="M254.9915 45 L242.9915 40 L245.9915 45 L242.9915 50 Z" stroke="none"/>
      </g>
      <g>
        <g stroke-linecap="butt" transform="matrix(1,0,0,1,76,31)" fill="rgb(238,238,238)" text-rendering="geometricPrecision" shape-rendering="geometricPrecision" stroke="rgb(238,238,238)" stroke-miterlimit="1.45">
          <rect x="42" width="65" height="19" y="46" stroke="none"/>
        </g>
        <g text-rendering="geometricPrecision" stroke-miterlimit="1.45" shape-rendering="geometricPrecision" font-family="sans-serif" transform="matrix(1,0,0,1,76,31) translate(44,48)" stroke-linecap="butt">
          <text x="0" xml:space="preserve" y="12" clip-path="url(#clipPath9)" stroke="none">decelerate</text>
        </g>
      </g>
    </g>
    <g id="y.edge.4">
      <g text-rendering="geometricPrecision" stroke-miterlimit="1.45" shape-rendering="geometricPrecision" transform="matrix(1,0,0,1,76,31)" stroke-linecap="butt">
        <path fill="none" d="M290 194.9695 L290 78"/>
        <path d="M290 70 L285 82 L290 79 L295 82 Z" stroke="none"/>
      </g>
      <g>
        <g stroke-linecap="butt" transform="matrix(1,0,0,1,76,31)" fill="rgb(238,238,238)" text-rendering="geometricPrecision" shape-rendering="geometricPrecision" stroke="rgb(238,238,238)" stroke-miterlimit="1.45">
          <rect x="223" width="65" height="19" y="123" stroke="none"/>
        </g>
        <g text-rendering="geometricPrecision" stroke-miterlimit="1.45" shape-rendering="geometricPrecision" font-family="sans-serif" transform="matrix(1,0,0,1,76,31) translate(225,125)" stroke-linecap="butt">
          <text x="0" xml:space="preserve" y="12" clip-path="url(#clipPath9)" stroke="none">decelerate</text>
        </g>
      </g>
    </g>
    <g id="y.edge.6">
      <g text-rendering="geometricPrecision" stroke-miterlimit="1.45" shape-rendering="geometricPrecision" transform="matrix(1,0,0,1,76,31)" stroke-linecap="butt">
        <path fill="none" d="M330 70 L330 186.9695"/>
        <path d="M330 194.9695 L335 182.9695 L330 185.9695 L325 182.9695 Z" stroke="none"/>
      </g>
      <g>
        <g stroke-linecap="butt" transform="matrix(1,0,0,1,76,31)" fill="rgb(238,238,238)" text-rendering="geometricPrecision" shape-rendering="geometricPrecision" stroke="rgb(238,238,238)" stroke-miterlimit="1.45">
          <rect x="332" width="63" height="19" y="123" stroke="none"/>
        </g>
        <g text-rendering="geometricPrecision" stroke-miterlimit="1.45" shape-rendering="geometricPrecision" font-family="sans-serif" transform="matrix(1,0,0,1,76,31) translate(334,125)" stroke-linecap="butt">
          <text x="0" xml:space="preserve" y="12" clip-path="url(#clipPath10)" stroke="none">accelerate</text>
        </g>
      </g>
    </g>
    <g id="y.edge.5">
      <g text-rendering="geometricPrecision" stroke-miterlimit="1.45" shape-rendering="geometricPrecision" transform="matrix(1,0,0,1,76,31)" stroke-linecap="butt">
        <path fill="none" d="M254.9915 64.3549 L81.5326 125.3867"/>
        <path d="M73.9861 128.0419 L86.9654 128.7756 L82.4759 125.0548 L83.6463 119.3425 Z" stroke="none"/>
      </g>
      <g>
        <g stroke-linecap="butt" transform="matrix(1,0,0,1,76,31)" fill="rgb(238,238,238)" text-rendering="geometricPrecision" shape-rendering="geometricPrecision" stroke="rgb(238,238,238)" stroke-miterlimit="1.45">
          <rect x="150" width="29" height="19" y="70.0926" stroke="none"/>
        </g>
        <g text-rendering="geometricPrecision" stroke-miterlimit="1.45" shape-rendering="geometricPrecision" font-family="sans-serif" transform="matrix(1,0,0,1,76,31) translate(152,72)" stroke-linecap="butt">
          <text x="0" xml:space="preserve" y="12" clip-path="url(#clipPath8)" stroke="none">hold</text>
        </g>
      </g>
    </g>
    <g visibility="hidden" id="tooltip.y.node.0" pointer-events="none">
      <g fill="rgb(255,255,204)" text-rendering="geometricPrecision" font-size="11px" shape-rendering="geometricPrecision" font-family="'Lucida Grande'" stroke="rgb(255,255,204)">
        <rect x="0" width="84" height="18" y="0" clip-path="url(#clipPath11)" stroke="none"/>
        <text fill="black" x="3" xml:space="preserve" y="13" clip-path="url(#clipPath11)" stroke="none">automaton car</text>
      </g>
    </g>
    <g visibility="hidden" id="tooltip.y.node.1" pointer-events="none">
      <g fill="rgb(255,255,204)" text-rendering="geometricPrecision" font-size="11px" shape-rendering="geometricPrecision" font-family="'Lucida Grande'" stroke="rgb(255,255,204)">
        <rect x="0" width="73" height="18" y="0" clip-path="url(#clipPath12)" stroke="none"/>
        <text fill="black" x="3" xml:space="preserve" y="13" clip-path="url(#clipPath12)" stroke="none">Declarations</text>
      </g>
    </g>
    <g visibility="hidden" id="tooltip.y.node.2" pointer-events="none">
      <g fill="rgb(255,255,204)" text-rendering="geometricPrecision" font-size="11px" shape-rendering="geometricPrecision" font-family="'Lucida Grande'" stroke="rgb(255,255,204)">
        <rect x="0" width="80" height="18" y="0" clip-path="url(#clipPath13)" stroke="none"/>
        <text fill="black" x="3" xml:space="preserve" y="13" clip-path="url(#clipPath13)" stroke="none">location Drive</text>
      </g>
    </g>
    <g visibility="hidden" id="tooltip.y.node.3" pointer-events="none">
      <g fill="rgb(255,255,204)" text-rendering="geometricPrecision" font-size="11px" shape-rendering="geometricPrecision" font-family="'Lucida Grande'" stroke="rgb(255,255,204)">
        <rect x="0" width="6" height="19" y="0" clip-path="url(#clipPath14)" stroke="none"/>
      </g>
    </g>
    <g visibility="hidden" id="tooltip.y.node.4" pointer-events="none">
      <g fill="rgb(255,255,204)" text-rendering="geometricPrecision" font-size="11px" shape-rendering="geometricPrecision" font-family="'Lucida Grande'" stroke="rgb(255,255,204)">
        <rect x="0" width="119" height="18" y="0" clip-path="url(#clipPath15)" stroke="none"/>
        <text fill="black" x="3" xml:space="preserve" y="13" clip-path="url(#clipPath15)" stroke="none">location Accelerating</text>
      </g>
    </g>
    <g visibility="hidden" id="tooltip.y.node.5" pointer-events="none">
      <g fill="rgb(255,255,204)" text-rendering="geometricPrecision" font-size="11px" shape-rendering="geometricPrecision" font-family="'Lucida Grande'" stroke="rgb(255,255,204)">
        <rect x="0" width="119" height="18" y="0" clip-path="url(#clipPath15)" stroke="none"/>
        <text fill="black" x="3" xml:space="preserve" y="13" clip-path="url(#clipPath15)" stroke="none">location Decelerating</text>
      </g>
    </g>
  </g>
</svg>
